<svg xmlns="http://www.w3.org/2000/svg" viewBox="0 0 144.66 142.46"><defs><style>.cls-1{fill:#ffda36;}.cls-2{fill:#ffe175;}.cls-3{fill:#ffc52b;}.cls-4{fill:#a24818;}.cls-5{fill:#fff;}</style></defs><title>자산 39</title><g id="레이어_2" data-name="레이어 2"><g id="Object"><path class="cls-1" d="M15,23.62c-8.64,11.28-12,26-13.82,40.44-1.5,12.09-2,24.64,1.61,36.22C8.06,117.39,22.05,130.51,38,136.9s33.52,6.66,50.32,3.88c29.86-4.93,54.67-33,56.3-65.17C147,28.35,102.88-4.77,61.06.56,43.76,2.77,25.94,9.28,15,23.62Z"/><path class="cls-2" d="M113.75,23C108.18,10.58,88.77,5.6,77,7.45c-1.83.29-1.12,2.93.4,3.13,6.91.92,13,2.22,19.33,5.48,5.17,2.67,8.91,7.4,14,10.15C112.77,27.33,114.71,25.12,113.75,23Z"/><path class="cls-2" d="M118.51,29.42c-1.48-.18-2.17,2-1.18,3,2,2.05,4.32,3.61,6.14,5.92,1.94,2.47,3,5.5,4.95,8,1.25,1.6,3.39.16,3.51-1.54C132.41,37.83,124.83,30.16,118.51,29.42Z"/><path class="cls-3" d="M88.27,140.78c19.78-3.27,37.33-16.7,47.41-34.73-13.21,9.56-28.7,15.51-44.66,16.3-25.41,1.26-51.46-11.21-66-33.3-13.18-20-15.91-47.4-6.52-69.49A49,49,0,0,0,15,23.62c-8.64,11.28-12,26-13.82,40.44-1.5,12.09-2,24.64,1.61,36.22C8.06,117.39,22.05,130.51,38,136.9S71.47,143.56,88.27,140.78Z"/><path class="cls-4" d="M46.14,62.16c-10.83.9-8.37,16.55,1.91,17.15S60.6,61,46.14,62.16Z"/><path class="cls-5" d="M46.39,65.2c-2.24-2.24-5.31,1.86-2.6,3.36A2.15,2.15,0,0,0,46.39,65.2Z"/><path class="cls-4" d="M61.44,60.82c-4.77-4.24-11-7-16.58-10s-11.33-6.22-17.4-8c-1.31-.39-1.88,1.36-.88,2.08,5.07,3.61,10.85,6.31,16.19,9.51s10.38,7.32,16,9.85C60.9,65.19,63.44,62.59,61.44,60.82Z"/><path class="cls-4" d="M92.54,63.56c-10.84.9-8.37,16.54,1.9,17.15S107,62.35,92.54,63.56Z"/><path class="cls-5" d="M92.78,66.6c-2.23-2.24-5.3,1.86-2.59,3.36A2.15,2.15,0,0,0,92.78,66.6Z"/><path class="cls-4" d="M80,60.82c4.77-4.24,11-7,16.58-10s11.32-6.22,17.4-8c1.31-.39,1.88,1.36.88,2.08C109.75,48.5,104,51.2,98.62,54.4s-10.37,7.32-16,9.85C80.5,65.19,78,62.59,80,60.82Z"/><path class="cls-4" d="M91.34,101.84c-11.61-10.19-29-13.16-41.07-1.94-1,.92.28,2.52,1.43,1.85,5.43-3.16,10.7-5.06,17-5.2,7.78-.17,13.93,4.65,20.48,8C90.91,105.46,92.89,103.21,91.34,101.84Z"/></g></g></svg>