<svg xmlns="http://www.w3.org/2000/svg" viewBox="0 0 144.66 142.46"><defs><style>.cls-1{fill:#ffda36;}.cls-2{fill:#ffe175;}.cls-3{fill:#ffc52b;}.cls-4{fill:#f27976;}.cls-5{fill:#a24818;}</style></defs><title>자산 42</title><g id="레이어_2" data-name="레이어 2"><g id="Object"><path class="cls-1" d="M15,23.62c-8.64,11.28-12,26-13.82,40.44-1.5,12.09-2,24.64,1.61,36.22C8.06,117.39,22.05,130.51,38,136.9s33.52,6.66,50.32,3.88c29.86-4.93,54.67-33,56.3-65.17C147,28.35,102.88-4.77,61.06.56,43.76,2.77,25.94,9.28,15,23.62Z"/><path class="cls-2" d="M113.75,23C108.18,10.58,88.77,5.6,77,7.45c-1.83.29-1.12,2.93.4,3.13,6.91.92,13,2.22,19.33,5.48,5.17,2.67,8.91,7.4,14,10.15C112.77,27.33,114.71,25.12,113.75,23Z"/><path class="cls-2" d="M118.51,29.42c-1.48-.18-2.17,2-1.18,3,2,2.05,4.32,3.61,6.14,5.92,1.94,2.47,3,5.5,4.95,8,1.25,1.6,3.39.16,3.51-1.54C132.41,37.83,124.83,30.16,118.51,29.42Z"/><path class="cls-3" d="M88.27,140.78c19.78-3.27,37.33-16.7,47.41-34.73-13.21,9.56-28.7,15.51-44.66,16.3-25.41,1.26-51.46-11.21-66-33.3-13.18-20-15.91-47.4-6.52-69.49A49,49,0,0,0,15,23.62c-8.64,11.28-12,26-13.82,40.44-1.5,12.09-2,24.64,1.61,36.22C8.06,117.39,22.05,130.51,38,136.9S71.47,143.56,88.27,140.78Z"/><path class="cls-4" d="M37.73,51.66s-6.3-8.75-16.09-2.1,13.64,27.28,17.14,28,23.08-19.24,17.14-28S39.13,48.16,37.73,51.66Z"/><path class="cls-4" d="M105.72,51.66s6.29-8.75,16.09-2.1-13.64,27.28-17.14,28-23.08-19.24-17.14-28S104.32,48.16,105.72,51.66Z"/><path class="cls-5" d="M84.52,99.11c4.21-4.35,7.22-10.73,1.36-14.79-5.07-3.51-18.95-1.49-18.81,6.23a1.25,1.25,0,0,0,2.45.33c1.62-4.29,8.64-4.49,12.2-3.71,7.16,1.56-.24,9.39-3.1,11.29a2.19,2.19,0,0,0,1.68,4c3.37-.51,9.77,5,4.77,8.55a15.54,15.54,0,0,1-5.66,2.16c-3.79.87-8.23-.26-11.8-1.56-1.66-.6-2.39,1.78-1.13,2.68,5.84,4.17,18.76,4.9,23-2.57C92.19,106.79,89.1,101.29,84.52,99.11Z"/></g></g></svg>