<svg xmlns="http://www.w3.org/2000/svg" viewBox="0 0 144.66 142.46"><defs><style>.cls-1{fill:#ffda36;}.cls-2{fill:#ffe175;}.cls-3{fill:#ffc52b;}.cls-4{fill:#fff;}.cls-5{fill:#a24818;}.cls-6{fill:#f26f59;}.cls-7{fill:#ef5345;}</style></defs><title>자산 35</title><g id="레이어_2" data-name="레이어 2"><g id="Object"><path class="cls-1" d="M15,23.62c-8.64,11.28-12,26-13.82,40.44-1.5,12.09-2,24.64,1.61,36.22C8.06,117.39,22.05,130.51,38,136.9s33.52,6.66,50.32,3.88c29.86-4.93,54.67-33,56.3-65.17C147,28.35,102.88-4.77,61.06.56,43.76,2.77,25.94,9.28,15,23.62Z"/><path class="cls-2" d="M113.75,23C108.18,10.58,88.77,5.6,77,7.45c-1.83.29-1.12,2.93.4,3.13,6.91.92,13,2.22,19.33,5.48,5.17,2.67,8.91,7.4,14,10.15C112.77,27.33,114.71,25.12,113.75,23Z"/><path class="cls-2" d="M118.51,29.42c-1.48-.18-2.17,2-1.18,3,2,2.05,4.32,3.61,6.14,5.92,1.94,2.47,3,5.5,4.95,8,1.25,1.6,3.39.16,3.51-1.54C132.41,37.83,124.83,30.16,118.51,29.42Z"/><path class="cls-3" d="M88.27,140.78c19.78-3.27,37.33-16.7,47.41-34.73-13.21,9.56-28.7,15.51-44.66,16.3-25.41,1.26-51.46-11.21-66-33.3-13.18-20-15.91-47.4-6.52-69.49A49,49,0,0,0,15,23.62c-8.64,11.28-12,26-13.82,40.44-1.5,12.09-2,24.64,1.61,36.22C8.06,117.39,22.05,130.51,38,136.9S71.47,143.56,88.27,140.78Z"/><path class="cls-4" d="M46.36,29C25.7,29.66,22.11,75,45.19,78.24S77.37,28.11,46.36,29Z"/><path class="cls-5" d="M46.14,44.44c-10.83.9-8.37,16.55,1.91,17.15S60.6,43.23,46.14,44.44Z"/><path class="cls-4" d="M46.39,47.48c-2.24-2.24-5.31,1.86-2.6,3.36A2.15,2.15,0,0,0,46.39,47.48Z"/><path class="cls-4" d="M103.71,29c20.66.62,24.24,45.93,1.16,49.2S72.7,28.11,103.71,29Z"/><path class="cls-5" d="M100.65,44.44c-10.84.9-8.38,16.55,1.9,17.15S115.11,43.23,100.65,44.44Z"/><path class="cls-4" d="M100.89,47.48c-2.23-2.24-5.31,1.86-2.6,3.36A2.15,2.15,0,0,0,100.89,47.48Z"/><path class="cls-6" d="M78.18,80.45c-16.47.34-15.74,26.23-2.45,28.68S95.32,80.1,78.18,80.45Z"/><path class="cls-7" d="M79.73,89.52a25,25,0,0,1,8.83,1.8c-.34-5.93-3.44-11-10.38-10.87-8.85.18-12.7,7.76-12.32,15.1A18.38,18.38,0,0,1,79.73,89.52Z"/></g></g></svg>