<svg xmlns="http://www.w3.org/2000/svg" viewBox="0 0 144.66 142.46"><defs><style>.cls-1{fill:#ffda36;}.cls-2{fill:#ffe175;}.cls-3{fill:#ffc52b;}.cls-4{fill:#a24818;}.cls-5{fill:#83d0d3;}</style></defs><title>자산 43</title><g id="레이어_2" data-name="레이어 2"><g id="Object"><path class="cls-1" d="M15,23.62c-8.64,11.28-12,26-13.82,40.44-1.5,12.09-2,24.64,1.61,36.22C8.06,117.39,22.05,130.51,38,136.9s33.52,6.66,50.32,3.88c29.86-4.93,54.67-33,56.3-65.17C147,28.35,102.88-4.77,61.06.56,43.76,2.77,25.94,9.28,15,23.62Z"/><path class="cls-2" d="M113.75,23C108.18,10.58,88.77,5.6,77,7.45c-1.83.29-1.12,2.93.4,3.13,6.91.92,13,2.22,19.33,5.48,5.17,2.67,8.91,7.4,14,10.15C112.77,27.33,114.71,25.12,113.75,23Z"/><path class="cls-2" d="M118.51,29.42c-1.48-.18-2.17,2-1.18,3,2,2.05,4.32,3.61,6.14,5.92,1.94,2.47,3,5.5,4.95,8,1.25,1.6,3.39.16,3.51-1.54C132.41,37.83,124.83,30.16,118.51,29.42Z"/><path class="cls-3" d="M88.27,140.78c19.78-3.27,37.33-16.7,47.41-34.73-13.21,9.56-28.7,15.51-44.66,16.3-25.41,1.26-51.46-11.21-66-33.3-13.18-20-15.91-47.4-6.52-69.49A49,49,0,0,0,15,23.62c-8.64,11.28-12,26-13.82,40.44-1.5,12.09-2,24.64,1.61,36.22C8.06,117.39,22.05,130.51,38,136.9S71.47,143.56,88.27,140.78Z"/><path class="cls-4" d="M52.85,50.67c-.33-2.07-3.3-2.14-4.24-.55C45.93,54.69,45,58.47,39.16,60c-6.83,1.76-11.94-4.84-12.85-10.73-.21-1.4-2.29-1-2.36.32-.39,7.24,5.61,14.79,13.12,15.21S54.16,59,52.85,50.67Z"/><path class="cls-5" d="M35.75,72.29c-2.69-1-13.29,18.89-2.45,19.59S42,74.74,35.75,72.29Z"/><path class="cls-5" d="M35.49,98.86c-2-.78-10,14.18-1.83,14.71S40.22,100.7,35.49,98.86Z"/><path class="cls-4" d="M86.31,50.67c.33-2.07,3.3-2.14,4.23-.55,2.68,4.57,3.64,8.35,9.46,9.85,6.82,1.76,11.94-4.84,12.84-10.73.22-1.4,2.3-1,2.37.32.38,7.24-5.62,14.79-13.12,15.21S85,59,86.31,50.67Z"/><path class="cls-5" d="M103.41,72.29c2.69-1,13.29,18.89,2.45,19.59S97.11,74.74,103.41,72.29Z"/><path class="cls-5" d="M103.66,98.86c2-.78,10,14.18,1.84,14.71S98.93,100.7,103.66,98.86Z"/><path class="cls-4" d="M86.62,96.2c-2.21-4.89-9.18-6.41-14-6.71s-10.91,2.14-13.74,6.27a1.08,1.08,0,0,0,1.21,1.57c4.28-1.64,7.8-3.28,12.53-3.27s7.81,3.38,12,4.74C86.25,99.32,87.21,97.5,86.62,96.2Z"/></g></g></svg>