<svg xmlns="http://www.w3.org/2000/svg" viewBox="0 0 144.66 142.46"><defs><style>.cls-1{fill:#ffda36;}.cls-2{fill:#ffe175;}.cls-3{fill:#ffc52b;}.cls-4{fill:#a24818;}.cls-5{fill:#fff;}</style></defs><title>자산 49</title><g id="레이어_2" data-name="레이어 2"><g id="Object"><path class="cls-1" d="M15,23.62c-8.64,11.28-12,26-13.82,40.44-1.5,12.09-2,24.64,1.61,36.22C8.06,117.39,22.05,130.51,38,136.9s33.52,6.66,50.32,3.88c29.86-4.93,54.67-33,56.3-65.17C147,28.35,102.88-4.77,61.06.56,43.76,2.77,25.94,9.28,15,23.62Z"/><path class="cls-2" d="M113.75,23C108.18,10.58,88.77,5.6,77,7.45c-1.83.29-1.12,2.93.4,3.13,6.91.92,13,2.22,19.33,5.48,5.17,2.67,8.91,7.4,14,10.15C112.77,27.33,114.71,25.12,113.75,23Z"/><path class="cls-2" d="M118.51,29.42c-1.48-.18-2.17,2-1.18,3,2,2.05,4.32,3.61,6.14,5.92,1.94,2.47,3,5.5,4.95,8,1.25,1.6,3.39.16,3.51-1.54C132.41,37.83,124.83,30.16,118.51,29.42Z"/><path class="cls-3" d="M88.27,140.78c19.78-3.27,37.33-16.7,47.41-34.73-13.21,9.56-28.7,15.51-44.66,16.3-25.41,1.26-51.46-11.21-66-33.3-13.18-20-15.91-47.4-6.52-69.49A49,49,0,0,0,15,23.62c-8.64,11.28-12,26-13.82,40.44-1.5,12.09-2,24.64,1.61,36.22C8.06,117.39,22.05,130.51,38,136.9S71.47,143.56,88.27,140.78Z"/><path class="cls-4" d="M82,84.09c-3.81,1.83-6.82,4-11.19,4.47-4.2.4-8.19-1.52-11.64-3.66-.69-.43-1.69.46-1.17,1.16,5.78,7.79,20.92,9.81,26.18.21A1.61,1.61,0,0,0,82,84.09Z"/><path class="cls-4" d="M43,47.45c-10.83.9-8.37,16.55,1.91,17.15S57.42,46.25,43,47.45Z"/><path class="cls-5" d="M42.86,50.49c-2.24-2.23-5.31,1.87-2.6,3.37A2.15,2.15,0,0,0,42.86,50.49Z"/><path class="cls-4" d="M97.17,47.45C86.34,48.35,88.8,64,99.08,64.6S111.63,46.25,97.17,47.45Z"/><path class="cls-5" d="M97.42,50.49c-2.24-2.23-5.31,1.87-2.6,3.37A2.15,2.15,0,0,0,97.42,50.49Z"/></g></g></svg>