<svg xmlns="http://www.w3.org/2000/svg" viewBox="0 0 144.66 142.46"><defs><style>.cls-1{fill:#ffda36;}.cls-2{fill:#ffe175;}.cls-3{fill:#ffc52b;}.cls-4{fill:#a24818;}.cls-5{fill:#f26f59;}.cls-6{fill:#ef5345;}</style></defs><title>자산 38</title><g id="레이어_2" data-name="레이어 2"><g id="Object"><path class="cls-1" d="M15,23.62c-8.64,11.28-12,26-13.82,40.44-1.5,12.09-2,24.64,1.61,36.22C8.06,117.39,22.05,130.51,38,136.9s33.52,6.66,50.32,3.88c29.86-4.93,54.67-33,56.3-65.17C147,28.35,102.88-4.77,61.06.56,43.76,2.77,25.94,9.28,15,23.62Z"/><path class="cls-2" d="M113.75,23C108.18,10.58,88.77,5.6,77,7.45c-1.83.29-1.12,2.93.4,3.13,6.91.92,13,2.22,19.33,5.48,5.17,2.67,8.91,7.4,14,10.15C112.77,27.33,114.71,25.12,113.75,23Z"/><path class="cls-2" d="M118.51,29.42c-1.48-.18-2.17,2-1.18,3,2,2.05,4.32,3.61,6.14,5.92,1.94,2.47,3,5.5,4.95,8,1.25,1.6,3.39.16,3.51-1.54C132.41,37.83,124.83,30.16,118.51,29.42Z"/><path class="cls-3" d="M88.27,140.78c19.78-3.27,37.33-16.7,47.41-34.73-13.21,9.56-28.7,15.51-44.66,16.3-25.41,1.26-51.46-11.21-66-33.3-13.18-20-15.91-47.4-6.52-69.49A49,49,0,0,0,15,23.62c-8.64,11.28-12,26-13.82,40.44-1.5,12.09-2,24.64,1.61,36.22C8.06,117.39,22.05,130.51,38,136.9S71.47,143.56,88.27,140.78Z"/><path class="cls-4" d="M39.52,45C31.2,44.35,24.13,51.26,23,59.31a1.32,1.32,0,0,0,2.19,1.28c4.2-3.71,6.24-9.49,12.66-10,6.26-.44,8.5,6.61,11.59,10.5,1.32,1.66,4.54.34,4.3-1.77C52.92,52.62,46.53,45.62,39.52,45Z"/><path class="cls-4" d="M101.87,45c8.32-.69,15.39,6.22,16.54,14.27a1.32,1.32,0,0,1-2.19,1.28c-4.2-3.71-6.24-9.49-12.66-10-6.26-.44-8.5,6.61-11.59,10.5-1.32,1.66-4.54.34-4.29-1.77C88.47,52.62,94.86,45.62,101.87,45Z"/><path class="cls-5" d="M29.92,85.58c-1.58,8.67,9.09,32.53,41.27,32.88s43-30.78,42.67-33.93S30.62,81.74,29.92,85.58Z"/><path class="cls-6" d="M29.92,85.58c-.56,3,.45,8,3.33,13.11,10.76-5.07,23.37-6.94,35.4-8,6-.55,12.11-1,18.1-.14a52.8,52.8,0,0,1,21,8.23c4.47-6.72,6.28-12.89,6.14-14.21C113.51,81.39,30.62,81.74,29.92,85.58Z"/></g></g></svg>