<svg xmlns="http://www.w3.org/2000/svg" viewBox="0 0 144.66 142.46"><defs><style>.cls-1{fill:#ffda36;}.cls-2{fill:#ffe175;}.cls-3{fill:#ffc52b;}.cls-4{fill:#a24818;}</style></defs><title>자산 44</title><g id="레이어_2" data-name="레이어 2"><g id="Object"><path class="cls-1" d="M15,23.62c-8.64,11.28-12,26-13.82,40.44-1.5,12.09-2,24.64,1.61,36.22C8.06,117.39,22.05,130.51,38,136.9s33.52,6.66,50.32,3.88c29.86-4.93,54.67-33,56.3-65.17C147,28.35,102.88-4.77,61.06.56,43.76,2.77,25.94,9.28,15,23.62Z"/><path class="cls-2" d="M113.75,23C108.18,10.58,88.77,5.6,77,7.45c-1.83.29-1.12,2.93.4,3.13,6.91.92,13,2.22,19.33,5.48,5.17,2.67,8.91,7.4,14,10.15C112.77,27.33,114.71,25.12,113.75,23Z"/><path class="cls-2" d="M118.51,29.42c-1.48-.18-2.17,2-1.18,3,2,2.05,4.32,3.61,6.14,5.92,1.94,2.47,3,5.5,4.95,8,1.25,1.6,3.39.16,3.51-1.54C132.41,37.83,124.83,30.16,118.51,29.42Z"/><path class="cls-3" d="M88.27,140.78c19.78-3.27,37.33-16.7,47.41-34.73-13.21,9.56-28.7,15.51-44.66,16.3-25.41,1.26-51.46-11.21-66-33.3-13.18-20-15.91-47.4-6.52-69.49A49,49,0,0,0,15,23.62c-8.64,11.28-12,26-13.82,40.44-1.5,12.09-2,24.64,1.61,36.22C8.06,117.39,22.05,130.51,38,136.9S71.47,143.56,88.27,140.78Z"/><path class="cls-4" d="M51.55,61.32c-1.87-3.14-5.65-5.45-8.38-7.84-3.23-2.82-6.38-5.75-9.84-8.29-1.3-.95-2.61,1-1.64,2.13,1.58,1.77,16.13,14.26,14.42,15.86C41.35,67.65,35.5,72.33,32.18,78a1.5,1.5,0,0,0,2,2c3.77-2.17,6.57-5.47,9.64-8.53,2.52-2.51,5.9-5,7.7-8.1A2.07,2.07,0,0,0,51.55,61.32Z"/><path class="cls-4" d="M75.87,60.8c1.87-3.14,5.65-5.46,8.38-7.84,3.23-2.83,6.38-5.75,9.84-8.29,1.3-1,2.61,1,1.64,2.13C94.15,48.57,79.6,61.05,81.31,62.66c4.76,4.47,10.61,9.14,13.93,14.8a1.49,1.49,0,0,1-2,2C89.44,77.32,86.64,74,83.57,71c-2.52-2.51-5.9-5-7.7-8.11A2.07,2.07,0,0,1,75.87,60.8Z"/><path class="cls-4" d="M95.05,96.08c-7.33,4.94-10.46,6.17-17.82-.3-.84-.74-2.42-1-3.22,0-2.11,2.7-4.06,5.45-5.94,8.28-3.13-3.71-6.26-7.8-10.28-10.31a2.33,2.33,0,0,0-2.39,0c-2.48,1.86-2.64,2.26-4.64,5.11-4.1,5.8-7.72.25-12.35-3a2,2,0,0,0-2.67.7q-2.19,3.07-4.25,6.24c-.81,1.22,1,2.53,2,1.53,5.41-5.36,8.56-.55,13.52,3.35a2.31,2.31,0,0,0,3.53-.46q2.28-2.88,4.33-5.93c2.65-3.79,10.85,7.26,11.8,8.3a2.35,2.35,0,0,0,3.67-.48c1.79-2.9,3.69-5.65,5.68-8.37,9.07,7.66,12.88,9.05,21.07-2.59C97.94,96.9,96.26,95.27,95.05,96.08Z"/></g></g></svg>