<svg xmlns="http://www.w3.org/2000/svg" viewBox="0 0 144.66 142.46"><defs><style>.cls-1{fill:#ffda36;}.cls-2{fill:#ffe175;}.cls-3{fill:#ffc52b;}.cls-4{fill:#a24818;}.cls-5{fill:#f59186;}</style></defs><title>자산 34</title><g id="레이어_2" data-name="레이어 2"><g id="Object"><path class="cls-1" d="M15,23.62c-8.64,11.28-12,26-13.82,40.44-1.5,12.09-2,24.64,1.61,36.22C8.06,117.39,22.05,130.51,38,136.9s33.52,6.66,50.32,3.88c29.86-4.93,54.67-33,56.3-65.17C147,28.35,102.88-4.77,61.06.56,43.76,2.77,25.94,9.28,15,23.62Z"/><path class="cls-2" d="M113.75,23C108.18,10.58,88.77,5.6,77,7.45c-1.83.29-1.12,2.93.4,3.13,6.91.92,13,2.22,19.33,5.48,5.17,2.67,8.91,7.4,14,10.15C112.77,27.33,114.71,25.12,113.75,23Z"/><path class="cls-2" d="M118.51,29.42c-1.48-.18-2.17,2-1.18,3,2,2.05,4.32,3.61,6.14,5.92,1.94,2.47,3,5.5,4.95,8,1.25,1.6,3.39.16,3.51-1.54C132.41,37.83,124.83,30.16,118.51,29.42Z"/><path class="cls-3" d="M88.27,140.78c19.78-3.27,37.33-16.7,47.41-34.73-13.21,9.56-28.7,15.51-44.66,16.3-25.41,1.26-51.46-11.21-66-33.3-13.18-20-15.91-47.4-6.52-69.49A49,49,0,0,0,15,23.62c-8.64,11.28-12,26-13.82,40.44-1.5,12.09-2,24.64,1.61,36.22C8.06,117.39,22.05,130.51,38,136.9S71.47,143.56,88.27,140.78Z"/><path class="cls-4" d="M89.86,74c-5.12,4.93-8.39,8.69-16.12,9A25,25,0,0,1,53,74.34c-1.24-1.46-3.17.4-2.47,1.91,6.68,14.6,37.95,17.51,42.28-.5A1.8,1.8,0,0,0,89.86,74Z"/><path class="cls-4" d="M25.76,50.9a1.21,1.21,0,0,0,2.24.61c2.78-4.25,4.36-8.13,10.11-8.84,5.33-.65,9,3.54,10.41,8.16.8,2.66,4.53,1.52,4.09-1.13C50,34.56,26.1,35.11,25.76,50.9Z"/><path class="cls-4" d="M116.64,50.9a1.21,1.21,0,0,1-2.24.61c-2.78-4.25-4.36-8.13-10.1-8.84-5.34-.65-9,3.54-10.41,8.16-.81,2.66-4.54,1.52-4.09-1.13C92.36,34.56,116.3,35.11,116.64,50.9Z"/><ellipse class="cls-5" cx="102.55" cy="63.9" rx="11.66" ry="8.04"/><ellipse class="cls-5" cx="42.39" cy="63.9" rx="11.66" ry="8.04"/></g></g></svg>