<svg xmlns="http://www.w3.org/2000/svg" viewBox="0 0 144.66 142.46"><defs><style>.cls-1{fill:#ffda36;}.cls-2{fill:#ffe175;}.cls-3{fill:#ffc52b;}.cls-4{fill:#a24818;}.cls-5{fill:#f26f59;}.cls-6{fill:#ef5345;}</style></defs><title>자산 36</title><g id="레이어_2" data-name="레이어 2"><g id="Object"><path class="cls-1" d="M15,23.62c-8.64,11.28-12,26-13.82,40.44-1.5,12.09-2,24.64,1.61,36.22C8.06,117.39,22.05,130.51,38,136.9s33.52,6.66,50.32,3.88c29.86-4.93,54.67-33,56.3-65.17C147,28.35,102.88-4.77,61.06.56,43.76,2.77,25.94,9.28,15,23.62Z"/><path class="cls-2" d="M113.75,23C108.18,10.58,88.77,5.6,77,7.45c-1.83.29-1.12,2.93.4,3.13,6.91.92,13,2.22,19.33,5.48,5.17,2.67,8.91,7.4,14,10.15C112.77,27.33,114.71,25.12,113.75,23Z"/><path class="cls-2" d="M118.51,29.42c-1.48-.18-2.17,2-1.18,3,2,2.05,4.32,3.61,6.14,5.92,1.94,2.47,3,5.5,4.95,8,1.25,1.6,3.39.16,3.51-1.54C132.41,37.83,124.83,30.16,118.51,29.42Z"/><path class="cls-3" d="M88.27,140.78c19.78-3.27,37.33-16.7,47.41-34.73-13.21,9.56-28.7,15.51-44.66,16.3-25.41,1.26-51.46-11.21-66-33.3-13.18-20-15.91-47.4-6.52-69.49A49,49,0,0,0,15,23.62c-8.64,11.28-12,26-13.82,40.44-1.5,12.09-2,24.64,1.61,36.22C8.06,117.39,22.05,130.51,38,136.9S71.47,143.56,88.27,140.78Z"/><path class="cls-4" d="M58.24,68c-2.63-5.18-8.24-9.52-13-13.59C47.17,52,49,49.6,51,47.29s4-3.84,4.88-6.72a1.66,1.66,0,0,0-2-2c-5.08,1.32-8.4,7.51-11.35,11.54-.26.36-.54.69-.8,1L33.17,43c-1.81-1.72-3-2.75-5.45-2.92a1.1,1.1,0,0,0-.55,2c2.69,1.21,4.69,4.3,6.65,6.41l5.41,5.81c-3.5,4.55-7.09,9-10.81,13.41-1,1.15.3,3.2,1.72,2.23,4.78-3.27,8.69-7.6,12.34-12.08,3.92,4.48,8,10.12,13.07,12.79A2,2,0,0,0,58.24,68Z"/><path class="cls-4" d="M83.88,68c2.64-5.18,8.25-9.52,13-13.59C95,52,93.1,49.6,91.13,47.29s-4-3.84-4.89-6.72a1.66,1.66,0,0,1,2-2c5.09,1.32,8.4,7.51,11.35,11.54.26.36.54.69.81,1L109,43c1.81-1.72,3-2.75,5.45-2.92a1.1,1.1,0,0,1,.55,2c-2.69,1.21-4.69,4.3-6.65,6.41l-5.4,5.81c3.5,4.55,7.09,9,10.81,13.41,1,1.15-.3,3.2-1.72,2.23-4.79-3.27-8.7-7.6-12.35-12.08-3.91,4.48-8,10.12-13.07,12.79A2,2,0,0,1,83.88,68Z"/><path class="cls-5" d="M44.49,89.43c3.56-6.27,49.66-4.9,54.56-1.05s-2.8,32.18-25.88,30.78S38.55,99.92,44.49,89.43Z"/><path class="cls-6" d="M44.49,89.43c-2.45,4.33-1.89,9.89,1.19,15a72.79,72.79,0,0,1,12.26-6.3,55.3,55.3,0,0,1,35.25-1.66,49.42,49.42,0,0,1,6.32,2.34c1.42-4.92,1.23-9.15-.46-10.48C94.15,84.53,48.05,83.16,44.49,89.43Z"/></g></g></svg>