<svg xmlns="http://www.w3.org/2000/svg" viewBox="0 0 144.66 142.46"><defs><style>.cls-1{fill:#ffda36;}.cls-2{fill:#ffe175;}.cls-3{fill:#ffc52b;}.cls-4{fill:#f26f59;}.cls-5{fill:#83d0d3;}.cls-6{fill:#a24818;}.cls-7{fill:#ef5345;}</style></defs><title>자산 37</title><g id="레이어_2" data-name="레이어 2"><g id="Object"><path class="cls-1" d="M15,23.62c-8.64,11.28-12,26-13.82,40.44-1.5,12.09-2,24.64,1.61,36.22C8.06,117.39,22.05,130.51,38,136.9s33.52,6.66,50.32,3.88c29.86-4.93,54.67-33,56.3-65.17C147,28.35,102.88-4.77,61.06.56,43.76,2.77,25.94,9.28,15,23.62Z"/><path class="cls-2" d="M113.75,23C108.18,10.58,88.77,5.6,77,7.45c-1.83.29-1.12,2.93.4,3.13,6.91.92,13,2.22,19.33,5.48,5.17,2.67,8.91,7.4,14,10.15C112.77,27.33,114.71,25.12,113.75,23Z"/><path class="cls-2" d="M118.51,29.42c-1.48-.18-2.17,2-1.18,3,2,2.05,4.32,3.61,6.14,5.92,1.94,2.47,3,5.5,4.95,8,1.25,1.6,3.39.16,3.51-1.54C132.41,37.83,124.83,30.16,118.51,29.42Z"/><path class="cls-3" d="M88.27,140.78c19.78-3.27,37.33-16.7,47.41-34.73-13.21,9.56-28.7,15.51-44.66,16.3-25.41,1.26-51.46-11.21-66-33.3-13.18-20-15.91-47.4-6.52-69.49A49,49,0,0,0,15,23.62c-8.64,11.28-12,26-13.82,40.44-1.5,12.09-2,24.64,1.61,36.22C8.06,117.39,22.05,130.51,38,136.9S71.47,143.56,88.27,140.78Z"/><path class="cls-4" d="M25.37,84.53c-6.13,6.33,9.1,32.53,41.27,32.88s43.21-30.81,42.67-33.93C107.91,75.44,47.76,61.45,25.37,84.53Z"/><path class="cls-5" d="M17.68,61.8c-3-3.45-21,12.59-12.59,19.94S22.92,67.75,17.68,61.8Z"/><path class="cls-6" d="M37.54,38.72c-7.91-.94-16.47,5.91-16.4,14,0,1.41,2.22,2.23,2.85.77C26.39,48,29.3,43.94,35.81,43.3c8.32-.81,10.88,6.12,14.21,11.85a1.93,1.93,0,0,0,3.58-1C54.32,45.52,45.06,39.61,37.54,38.72Z"/><path class="cls-5" d="M115.08,61.8c3-3.45,21,12.59,12.59,19.94S109.83,67.75,115.08,61.8Z"/><path class="cls-6" d="M95.21,38.72c7.92-.94,16.47,5.91,16.4,14,0,1.41-2.21,2.23-2.85.77-2.4-5.51-5.3-9.54-11.82-10.18-8.31-.81-10.87,6.12-14.2,11.85a1.94,1.94,0,0,1-3.59-1C78.43,45.52,87.69,39.61,95.21,38.72Z"/><path class="cls-7" d="M25.37,84.53c-2.44,2.53-1.44,8.21,2.63,14.16A52.72,52.72,0,0,1,38.55,88.3c17.58-12.58,43-9,60.78,3.28,1.82,1.25,3.57,2.58,5.27,4,3.5-5.86,4.91-10.91,4.71-12.08C107.91,75.44,47.76,61.45,25.37,84.53Z"/></g></g></svg>