<svg xmlns="http://www.w3.org/2000/svg" viewBox="0 0 144.66 142.46"><defs><style>.cls-1{fill:#ffda36;}.cls-2{fill:#ffe175;}.cls-3{fill:#ffc52b;}.cls-4{fill:#a24818;}</style></defs><title>자산 45</title><g id="레이어_2" data-name="레이어 2"><g id="Object"><path class="cls-1" d="M15,23.62c-8.64,11.28-12,26-13.82,40.44-1.5,12.09-2,24.64,1.61,36.22C8.06,117.39,22.05,130.51,38,136.9s33.52,6.66,50.32,3.88c29.86-4.93,54.67-33,56.3-65.17C147,28.35,102.88-4.77,61.06.56,43.76,2.77,25.94,9.28,15,23.62Z"/><path class="cls-2" d="M113.75,23C108.18,10.58,88.77,5.6,77,7.45c-1.83.29-1.12,2.93.4,3.13,6.91.92,13,2.22,19.33,5.48,5.17,2.67,8.91,7.4,14,10.15C112.77,27.33,114.71,25.12,113.75,23Z"/><path class="cls-2" d="M118.51,29.42c-1.48-.18-2.17,2-1.18,3,2,2.05,4.32,3.61,6.14,5.92,1.94,2.47,3,5.5,4.95,8,1.25,1.6,3.39.16,3.51-1.54C132.41,37.83,124.83,30.16,118.51,29.42Z"/><path class="cls-3" d="M88.27,140.78c19.78-3.27,37.33-16.7,47.41-34.73-13.21,9.56-28.7,15.51-44.66,16.3-25.41,1.26-51.46-11.21-66-33.3-13.18-20-15.91-47.4-6.52-69.49A49,49,0,0,0,15,23.62c-8.64,11.28-12,26-13.82,40.44-1.5,12.09-2,24.64,1.61,36.22C8.06,117.39,22.05,130.51,38,136.9S71.47,143.56,88.27,140.78Z"/><path class="cls-4" d="M58.19,54.3C51.79,50,45.83,45.38,38.58,42.55c-1.06-.42-1.61,1.19-.74,1.76C43.46,48,49.27,51.37,54,56.12c-5.4,5.21-12,11.92-14.46,18.65a1.85,1.85,0,0,0,2.7,2.07c3.25-2.26,5.34-5.57,7.83-8.64C53,64.55,56.17,61.05,59,57.27A2.19,2.19,0,0,0,58.19,54.3Z"/><path class="cls-4" d="M87.48,54.3c6.4-4.29,12.36-8.92,19.6-11.75,1.06-.42,1.62,1.19.74,1.76C102.21,48,96.4,51.37,91.64,56.12c5.41,5.21,12,11.92,14.47,18.65a1.85,1.85,0,0,1-2.7,2.07c-3.25-2.26-5.34-5.57-7.83-8.64-3-3.65-6.09-7.15-8.88-10.93A2.19,2.19,0,0,1,87.48,54.3Z"/><path class="cls-4" d="M109.65,85.18C99.84,99.46,88.94,108.88,71,110.34c-16.64,1.35-29.87-9.58-38.88-22.19-.52-.73-1.91-.31-1.56.66,5.77,15.58,20.81,24.16,36.68,26.11,19.72,2.42,37.1-11.55,46-27.62C114.61,84.91,111.17,83,109.65,85.18Z"/></g></g></svg>