<svg id="Capa_1" enable-background="new 0 0 512 512" height="512" viewBox="0 0 512 512" width="512" xmlns="http://www.w3.org/2000/svg"><g><g><path d="m106.251 511.729s-36.95-23.514-36.95-57.105 29.392-47.867 29.392-47.867-51.737-24.336-35.589-96.659 68.08-77.225 68.08-77.225-6.349-100.102 87.26-46.379c0 0-5.97-134.491 83.449-78.604l-8.287 237.946z" fill="#bdf4e3"/><path d="m231.08 401.198c-7.486-7.866-34.983-75.919-37.92-72.143-75.229 96.723-120.671 34.375-133.131 4.918-1.452 53.902 38.664 72.784 38.664 72.784s-29.392 14.276-29.392 47.867c0 31.282 32.031 53.815 36.436 56.765.206.105.396.202.571.289z" fill="#b1b7e3"/><path d="m106.22 512c12.266-44.65 34.335-91.197 69.346-119.533-6.58-18.643-10.137-38.752-10.137-69.207l-1.118-60.593c0-21.684 6.585-41.83 17.864-58.547-5.176-5.267-9.553-12.369-12.642-21.347-9.409-27.344 7.805-65.466 16.319-68.395 8.515-2.93 45.542 16.527 54.951 43.871.372 1.081.701 2.147 1.011 3.207 8.708-2.344 17.861-3.602 27.31-3.602h64.684c4.83 0 9.471.368 13.93 1.045.662-5.944 2.488-12.293 5.661-18.902 12.387-25.796 51.014-40.67 59.047-36.813s20.576 43.303 8.189 69.099c-4.099 8.535-9.263 15.048-15.008 19.636 11.392 12.915 18.94 27.053 22.804 37.679 9.325 25.644 13.987 60.612 13.987 60.612 25.26 23.779 33.296 56.317 23.189 84.617-8.34 23.351-24.799 40.472-46.703 51.706-19.252 9.875-50.493 13.414-67.602 11.926 9.508 20.916 14.528 51.025 17.902 73.54h-262.984z" fill="#e7effa"/><path d="m442.42 290.21s-4.663-34.968-13.987-60.611c-3.864-10.626-11.412-24.764-22.804-37.679 5.744-4.589 10.909-11.101 15.008-19.636 12.387-25.796-.157-65.241-8.189-69.099-3.481-1.671-12.708.18-23.053 4.907-.536.444-1.074.898-1.612 1.366.643-.059 1.213-.04 1.694.068 7.866 1.752 15.001 31.416 9.378 56.677-1.861 8.358-5.076 15.153-9.195 20.373 12.682 9.041-.736 20.968 4.846 29.536 13.47 20.677 14.369 75.862 14.369 75.862 24.666 23.895 23.79 45.219 20.812 58.968-4.746 21.916-14.26 37.77-34.674 50.367-14.486 8.94-37.618 9.349-50.888 14.382-10.285 3.901-19.175 9.865-18.41 21.155.681 10.063 1.067 17.771.296 32.032-.715 13.223-11.292 24.435-24.52 23.818l-188.18-3.416c-2.651 7.564-5.014 15.169-7.088 22.722h262.986c-3.373-22.516-8.394-52.625-17.902-73.54 17.108 1.487 48.35-2.051 67.602-11.926 21.903-11.234 38.363-28.355 46.703-51.707 10.104-28.302 2.068-60.84-23.192-84.619z" fill="#dcb6f5"/><path d="m272.891 175.29c.034-.466.09-.934.192-1.407.654-18.183 6.18-33.926 18.816-46.106.315-20.347 5.714-36.184 18.601-45.579 6.508-22.495 16.598-46.493 29.197-71.544 1.576-3.862 7.337-2.615 7.175 1.553 1.549 22.551 1.649 43.502-2.322 59.957 5.446 13.39 5.534 26.888-1.571 40.561 4.403 13.543 4.597 27.613-1.642 42.396 6.592 14.231 1.665 27.233-.115 33.391-7.312 20.668-69.85 7.453-68.331-13.222z" fill="#ffe266"/><path d="m272.891 175.29c.034-.466.09-.934.192-1.407.465-12.913 3.404-24.587 9.584-34.636-.608 3.33-.979 6.776-1.111 10.338-.09.404-.139.803-.169 1.201-1.337 17.641 53.713 28.916 60.149 11.281.302-1.014.708-2.248 1.124-3.663 4.515 12.921.202 24.427-1.439 30.109-7.311 20.667-69.849 7.452-68.33-13.223z" fill="#efaa66"/><g><g><path d="m309.219 91.935c-2.607 0-5.04-1.644-5.921-4.25-1.106-3.27.649-6.818 3.919-7.924l35.33-11.947c3.268-1.108 6.818.648 7.924 3.919s-.649 6.818-3.919 7.924l-35.33 11.947c-.663.225-1.339.331-2.003.331z" fill="#d0844b"/></g><g><path d="m292.24 135.954c-2.614 0-5.052-1.653-5.927-4.269-1.095-3.274.671-6.816 3.944-7.911l50.737-16.977c3.272-1.095 6.816.67 7.911 3.944s-.671 6.816-3.944 7.911l-50.737 16.977c-.658.221-1.327.325-1.984.325z" fill="#d0844b"/></g><g><path d="m275.71 180.711c-2.701 0-5.191-1.764-5.994-4.486-.976-3.311.918-6.787 4.23-7.763l65.623-19.338c3.313-.972 6.788.918 7.763 4.229.976 3.311-.918 6.787-4.229 7.763l-65.623 19.338c-.59.174-1.185.257-1.77.257z" fill="#d0844b"/></g></g><path d="m430.723 194.824c-14.534-8.392-25.313-21.787-31.249-37.484-1.686-4.459-4.062-8.76-7.16-12.761-14.796-19.105-41.786-24.521-62.795-12.583-25.058 14.239-32.344 46.437-16.594 69.939 13.561 20.235 35.41 28.674 55.625 28.03 11.777-.375 38.933-7.62 59.553-13.603 9.981-2.896 11.62-16.341 2.62-21.538z" fill="#bdf4e3"/><path d="m312.924 201.935c13.561 20.235 35.41 28.674 55.625 28.031 11.777-.375 38.933-7.62 59.553-13.604 9.982-2.896 11.621-16.341 2.62-21.538-14.534-8.392-25.313-21.787-31.249-37.484-1.686-4.459-4.062-8.761-7.16-12.761-14.796-19.105-41.786-24.521-62.796-12.583-25.057 14.239-32.343 46.437-16.593 69.939zm36.683-70.917c16.909-5.674 35.548 1.783 43.368 17.336 1.637 3.257 2.71 6.631 3.262 10.025 1.943 11.947 7.718 22.906 16.941 30.811 5.711 4.896 2.533 14.23-5.089 14.953-15.744 1.494-36.384 3.011-44.923 1.703-14.658-2.245-29.145-11.163-35.906-27.353-7.854-18.805 2.18-40.709 22.347-47.475z" fill="#b1b7e3"/><g><path d="m377.009 180.101c-3.842 0-7.538-2.134-9.352-5.814-2.408-4.884-5.456-8.114-8.054-10.182-3.229-2.57-4.523-6.879-3.413-10.854 2.009-7.192 10.708-10.018 16.542-5.357 4.64 3.707 9.673 9.189 13.613 17.178 2.545 5.16.424 11.407-4.737 13.951-1.48.732-3.051 1.077-4.599 1.078z" fill="#fff"/></g><g><path d="m242.139 491.617c52.888-40.95 98.775-69.564 79.446-92.676-19.33-23.111-60.398 10.564-113.286 51.514" fill="#e7effa"/><g><path d="m213.154 461.168c-1.868 0-3.715-.833-4.947-2.424-2.114-2.73-1.614-6.656 1.116-8.77l7.115-5.517c19.777-15.345 38.458-29.84 54.511-39.839 2.931-1.825 6.786-.929 8.611 2.001s.929 6.786-2.001 8.611c-15.507 9.66-33.941 23.963-53.458 39.105l-7.125 5.525c-1.138.881-2.485 1.308-3.822 1.308z" fill="#ad99c9"/></g><g><path d="m242.143 494.356c-1.868 0-3.715-.833-4.947-2.424-2.114-2.73-1.614-6.656 1.116-8.77l7.137-5.519c19.331-14.936 37.589-29.043 50.958-41.596 2.516-2.363 6.472-2.238 8.836.278 2.363 2.517 2.239 6.473-.278 8.836-13.807 12.964-32.297 27.25-51.872 42.375l-7.127 5.511c-1.139.882-2.486 1.309-3.823 1.309z" fill="#ad99c9"/></g><path d="m321.585 398.941c-10.663-12.749-27.944-8.213-50.172 5.288 3.054 13.879 21.794 34.146 33.618 40.987 18.563-18.145 27.117-33.645 16.554-46.275z" fill="#78eac4"/></g><g><path d="m362.379 293.149c0 13.151 47.623 13.151 47.623 0 0-13.15-10.661-23.811-23.811-23.811-13.151-.001-23.812 10.66-23.812 23.811z" fill="#fff"/><path d="m249.759 293.776c0 14.334 51.908 14.334 51.908 0s-11.62-25.954-25.954-25.954-25.954 11.62-25.954 25.954z" fill="#fff"/><g fill="#cfa1c7"><path d="m384.705 269.085c-12.495 1.006-22.326 11.444-22.326 24.197 0 6.346 10.869 9.687 22.326 10.03z"/><path d="m274.254 267.45c-13.705 1.083-24.495 12.525-24.495 26.509 0 6.958 11.931 10.618 24.495 10.988z"/></g></g><g><path d="m368.794 261.273c-2.35 0-4.602-1.332-5.665-3.601-1.464-3.126-.118-6.848 3.009-8.312l15.987-7.49c3.126-1.465 6.848-.117 8.312 3.008 1.465 3.126.118 6.848-3.008 8.312l-15.987 7.49c-.857.402-1.759.593-2.648.593z" fill="#ad99c9"/></g><g><path d="m299.31 258.998c-.738 0-1.487-.131-2.218-.408l-16.504-6.268c-3.228-1.226-4.851-4.836-3.625-8.063 1.226-3.228 4.836-4.85 8.063-3.625l16.504 6.267c3.228 1.226 4.85 4.836 3.625 8.063-.948 2.497-3.324 4.034-5.845 4.034z" fill="#ad99c9"/></g><path d="m336.048 363.171c-15.821 0-31.757-3.893-47.71-11.68-7.756-3.786-10.974-13.144-7.188-20.899 3.786-7.756 13.144-10.973 20.9-7.188 23.027 11.243 44.968 11.275 67.076.097 7.701-3.892 17.102-.807 20.998 6.896 3.894 7.702.806 17.103-6.896 20.998-15.53 7.849-31.297 11.776-47.18 11.776z" fill="#fff"/><g fill="#cfa1c7"><path d="m330.39 331.613v31.388c1.887.111 3.773.169 5.658.169 2.284 0 4.566-.091 6.845-.253v-31.422c-4.154.433-8.319.472-12.503.118z"/><path d="m301.997 323.381v33.817c4.171 1.456 8.339 2.648 12.502 3.571v-32.353c-4.119-1.303-8.266-2.97-12.449-5.013-.017-.008-.035-.014-.053-.022z"/><path d="m358.13 328.131v32.479c4.18-.97 8.348-2.214 12.502-3.737v-34.035c-.508.193-1.011.413-1.507.663-3.667 1.853-7.33 3.392-10.995 4.63z"/></g></g><path d="m83.053 32.424 8.558 24.064c.366 1.03 1.092 1.847 2.007 2.259l21.38 9.633c3.021 1.361 3.021 6.173 0 7.534l-21.38 9.632c-.915.412-1.641 1.229-2.007 2.259l-8.558 24.064c-1.209 3.4-5.485 3.4-6.694 0l-8.558-24.064c-.366-1.03-1.092-1.847-2.007-2.259l-21.38-9.632c-3.021-1.361-3.021-6.173 0-7.534l21.38-9.633c.916-.412 1.641-1.229 2.007-2.259l8.558-24.064c1.209-3.4 5.485-3.4 6.694 0z" fill="#fef2a8"/><path d="m219.309 1.891 6.348 17.85c.272.764.81 1.37 1.489 1.676l15.859 7.145c2.24 1.009 2.24 4.579 0 5.589l-15.859 7.145c-.679.306-1.217.911-1.489 1.676l-6.348 17.85c-.897 2.522-4.068 2.522-4.965 0l-6.348-17.85c-.272-.764-.81-1.37-1.489-1.676l-15.859-7.145c-2.24-1.009-2.24-4.579 0-5.589l15.859-7.145c.679-.306 1.217-.911 1.489-1.676l6.348-17.85c.896-2.521 4.068-2.521 4.965 0z" fill="#fef2a8"/><ellipse cx="62.109" cy="189.465" fill="#ffe266" rx="12.697" ry="12.697" transform="matrix(.974 -.226 .226 .974 -41.216 18.941)"/></g></svg>