<svg id="Capa_1" enable-background="new 0 0 512 512" height="512" viewBox="0 0 512 512" width="512" xmlns="http://www.w3.org/2000/svg"><g><g><path d="m165.429 452.617c2.678 8.872 6.319 17.41 10.821 25.528 11.172 20.147 32.614 32.432 55.651 32.432h190.396c23.037 0 44.479-12.285 55.651-32.431 10.357-18.678 16.16-39.581 16.16-61.655 0-79.311-74.773-143.605-167.009-143.605" fill="#e7effa"/><path d="m319.065 411.092s84.412-.828 92.603-66.64c7.529-60.493-56.005-63.528-56.005-63.528s5.223-82.347-71.782-38.153c0 0 4.911-110.637-68.648-64.662l6.817 195.741z" fill="#cab4ef"/><path d="m411.668 344.453c3.549-28.52-8.697-44.265-22.633-52.945 5.91 56.219-28.339 87.849-67.82 84.934-3.04-.224-10.4 20.279-9.454 31.846l7.305 2.804c-.001 0 84.411-.827 92.602-66.639z" fill="#be87ef"/><path d="m318.415 410.843c5.277-9.562 6.299-26.258 5.38-56.175v-49.038c0-17.838-2.839-35.878-12.117-49.63 4.258-4.333 6.996-10.079 9.538-17.465 7.74-22.494-3.519-52.678-10.523-55.088s-37.464 13.596-45.204 36.089c-.306.889-.577 1.766-.832 2.639-7.163-1.928-14.693-2.963-22.466-2.963h-53.21c-3.974 0-7.791.303-11.459.859-.544-4.889-2.047-10.113-4.657-15.549-10.19-21.221-41.966-33.456-48.574-30.283s-16.927 35.622-6.737 56.843c3.372 7.021 7.62 12.379 12.346 16.153-9.371 10.624-15.581 22.254-18.759 30.996-7.671 21.095-11.506 49.861-11.506 49.861-20.78 19.562-27.391 46.328-19.076 69.609 6.86 19.209 20.401 33.293 38.419 42.535 15.837 8.123 41.537 11.035 55.611 9.811 31.95-1.024 120.15-2.565 143.826-39.204z" fill="#e7effa"/><path d="m296.243 187.414c5.049 10.829 10.42 27.244 9.205 41.825-.878 10.54-14.508 21.691-18.073 25.814 7.769 13.085 13.716 57.1 13.716 74.072l-.233 12.655c0 17.371-4.763 31.748-8.798 47.935-2.353 9.439-3.668 17.922 3.387 24.62 7.309 6.94 17.536 4.01 22.991-3.534 1.115-2.026 2.205-4.346 3.222-7.026.063-.265.129-.529.182-.799.862-2.442 1.592-4.68 2.211-6.818 1.536-5.975 2.707-13.293 3.238-22.35.179-5.035.202-10.97.202-18.527l.919-49.846c0-17.838-5.417-34.411-14.696-48.163 4.258-4.333 7.859-10.175 10.4-17.561 7.74-22.494-6.42-53.854-13.425-56.264-2.51-.863-8.038.648-14.448 3.967z" fill="#dcb6f5"/><path d="m239.091 233.555c-.028-.383-.074-.768-.158-1.157-.538-14.958-5.084-27.908-15.479-37.929-.259-16.738-4.701-29.766-15.301-37.494-5.354-18.505-13.654-38.247-24.018-58.854-1.296-3.177-6.035-2.151-5.903 1.277-1.274 18.551-1.356 35.786 1.91 49.323-4.48 11.015-4.552 22.119 1.293 33.366-3.622 11.141-3.781 22.715 1.351 34.876-5.422 11.707-1.369 22.403.094 27.469 6.015 17.003 57.46 6.131 56.211-10.877z" fill="#b2e7f1"/><path d="m239.091 233.555c-.028-.383-.074-.768-.158-1.157-.382-10.623-2.8-20.226-7.884-28.493.5 2.74.805 5.574.913 8.504.074.332.114.661.139.988 1.1 14.512-44.186 23.787-49.48 9.28-.249-.834-.582-1.85-.925-3.013-3.714 10.629-.167 20.095 1.184 24.768 6.015 17.003 57.46 6.131 56.211-10.877z" fill="#a7adf1"/><g><g><path d="m209.207 165.981c-.652 0-1.315-.104-1.967-.325l-29.064-9.827c-3.211-1.086-4.934-4.569-3.848-7.78 1.086-3.212 4.568-4.932 7.78-3.848l29.064 9.828c3.211 1.086 4.934 4.569 3.848 7.78-.865 2.558-3.254 4.172-5.813 4.172z" fill="#95cde6"/></g><g><path d="m223.174 202.192c-.646 0-1.303-.102-1.949-.319l-41.739-13.966c-3.214-1.076-4.948-4.553-3.872-7.768 1.075-3.215 4.555-4.947 7.768-3.873l41.739 13.966c3.214 1.076 4.948 4.553 3.872 7.768-.859 2.569-3.253 4.192-5.819 4.192z" fill="#95cde6"/></g><g><path d="m235.161 238.535c-.574 0-1.159-.081-1.738-.252l-52.371-15.433c-3.252-.958-5.111-4.371-4.152-7.622.958-3.253 4.373-5.11 7.622-4.152l52.372 15.433c3.251.958 5.111 4.371 4.152 7.622-.789 2.672-3.234 4.404-5.885 4.404z" fill="#95cde6"/></g></g><path d="m109.254 249.625c11.956-6.903 20.823-17.923 25.706-30.836 1.387-3.668 3.342-7.207 5.89-10.497 12.172-15.717 34.374-20.172 51.657-10.351 20.613 11.713 26.607 38.201 13.65 57.534-11.156 16.646-29.129 23.588-45.759 23.058-9.688-.308-32.028-6.268-48.99-11.191-8.21-2.382-9.558-13.442-2.154-17.717z" fill="#cab4ef"/><path d="m192.508 197.941c-17.283-9.82-39.486-5.365-51.657 10.351-2.548 3.291-4.503 6.829-5.89 10.498-4.883 12.913-13.75 23.932-25.706 30.836-7.404 4.275-6.056 15.335 2.155 17.718 16.962 4.922 39.302 10.882 48.99 11.191 16.63.529 34.604-6.413 45.759-23.059 12.956-19.335 6.962-45.822-13.651-57.535zm1.858 38.25c-5.562 13.319-17.479 20.654-29.538 22.501-7.025 1.076-24.004-.171-36.955-1.401-6.269-.595-8.884-8.273-4.186-12.301 7.587-6.503 12.337-15.519 13.936-25.346.454-2.792 1.336-5.568 2.683-8.247 6.432-12.794 21.765-18.928 35.675-14.261 16.591 5.567 24.845 23.585 18.385 39.055z" fill="#be87ef"/><g><path d="m153.438 239.173c-1.761 0-3.552-.456-5.204-1.429-4.663-2.744-6.238-8.796-3.811-13.631 2.842-5.662 6.338-9.836 9.738-12.886 5.613-5.035 14.581-2.326 16.61 4.936 1.045 3.74-.13 7.728-2.999 10.344-1.718 1.566-3.598 3.81-5.151 6.959-1.782 3.611-5.41 5.706-9.183 5.707z" fill="#fff"/></g><g><path d="m238.571 446.775h53.274c16.22 0 29.37 13.149 29.37 29.37v5.383c0 16.221-13.149 29.37-29.37 29.37h-53.274c-16.221 0-29.37-13.149-29.37-29.37v-5.383c0-16.221 13.149-29.37 29.37-29.37z" fill="#e7effa"/><g><path d="m287.455 459.213h-34.461c-3.389 0-6.137-2.748-6.137-6.138s2.748-6.138 6.137-6.138h34.461c3.389 0 6.137 2.748 6.137 6.138s-2.747 6.138-6.137 6.138z" fill="#ad99c9"/></g><path d="m244.981 510.898h6.215c3.008 0 5.446-2.185 5.446-4.88v-54.364c0-2.695-2.438-4.88-5.446-4.88h-6.215c-19.761 0-35.78 14.354-35.78 32.061 0 17.708 16.019 32.063 35.78 32.063z" fill="#a183e2"/></g><g><path d="m384.596 441.265h39.471c19.199 0 34.762 15.564 34.762 34.762v.108c0 19.199-15.564 34.762-34.762 33.762h-39.471c-19.199 1-34.762-14.564-34.762-33.762v-.108c0-19.199 15.564-34.762 34.762-34.762z" fill="#e7effa"/><g><path d="m411.466 453.13h-22.666c-3.389 0-6.138-2.748-6.138-6.137s2.748-6.138 6.138-6.138h22.666c3.389 0 6.138 2.748 6.138 6.138-.001 3.389-2.749 6.137-6.138 6.137z" fill="#ad99c9"/></g><path d="m384.65 510.898h6.048c2.927 0 5.299-2.372 5.299-5.299v-59.035c0-2.927-2.372-5.299-5.299-5.299h-6.048c-19.228 0-34.816 15.588-34.816 34.816 0 19.229 15.588 34.817 34.816 34.817z" fill="#a183e2"/></g><path d="m494.108 416.453c.774-60.907-45.254-111.747-100.022-131.539-2.779-1.047-5.596-2.033-8.451-2.952-.021-.007-.042-.014-.063-.02 35.93 22.158 64.461 66.21 67.973 106.979 1.708 19.833-1.396 45.807-9.675 61.97-9.716 18.969-40.352 26.846-59.941 26.846h-179.591l-22.879 8.299c11.932 15.413 30.592 24.54 50.442 24.54h190.396c23.037 0 44.479-12.285 55.651-32.431 1.593-2.872 3.064-5.803 4.436-8.776 7.554-16.364 11.724-34.199 11.724-52.879 0-.012 0-.024 0-.037z" fill="#dcb6f5"/><path d="m251.197 510.898c3.007 0 5.446-2.185 5.446-4.879v-28.281h-47.41c-.014.366-.031.73-.031 1.099 0 17.707 16.019 32.062 35.78 32.062h6.215z" fill="#9762e2"/><path d="m383.929 477.737h-34.053c.865 18.459 16.101 33.16 34.774 33.16h6.048c2.927 0 5.299-2.372 5.299-5.299v-28.727c-4.273.584-8.368.866-12.068.866z" fill="#9762e2"/><g><path d="m169.226 510.898h-43.248c-17.707 0-32.061-14.354-32.061-32.061 0-17.707 14.354-32.061 32.062-32.061h47.891c17.707 0 32.061 14.354 32.061 32.061 0 17.706-18.998 32.061-36.705 32.061z" fill="#e7effa"/><path d="m170.15 446.775h-6.215c-3.007 0-5.446 2.185-5.446 4.88v54.364c0 2.695 2.438 4.88 5.446 4.88h6.215c19.761 0 35.78-14.354 35.78-32.062.001-17.708-16.019-32.062-35.78-32.062z" fill="#a183e2"/><path d="m204.644 478.556c-.158 0-46.006 15.76-46.155 15.814l-41.799 15.157c2.939.888 6.055 1.371 9.284 1.371h.001 39.148c17.59-.001 40.569-14.169 40.795-31.715.001-.043.004-.085.004-.129-.02-.72-.544-.498-1.278-.498z" fill="#dcb6f5"/><path d="m205.862 480.746c.033-.556.054-1.115.062-1.679.001-.078.007-.154.007-.231 0-.363-.017-.722-.03-1.082l-47.411 16.616v11.649c0 .673.153 1.315.428 1.899.124.264.278.514.45.752.034.047.069.093.104.139.184.235.387.457.613.66.246.221.516.42.806.596.869.526 1.917.833 3.045.833h6.215c19.044-.001 34.608-13.334 35.711-30.152z" fill="#9762e2"/></g><g><path d="m134.128 339.454c-3.091 0-5.75-2.329-6.093-5.473-.368-3.369 2.067-6.399 5.436-6.767l20.513-2.238c3.363-.363 6.4 2.066 6.767 5.436.368 3.369-2.067 6.399-5.436 6.767l-20.513 2.238c-.227.025-.452.037-.674.037z" fill="#ad99c9"/></g><g><path d="m264.519 339.454c-.223 0-.448-.012-.673-.036l-20.513-2.238c-3.369-.368-5.804-3.397-5.436-6.767s3.415-5.8 6.767-5.436l20.513 2.238c3.37.367 5.804 3.397 5.436 6.767-.343 3.143-3.003 5.472-6.094 5.472z" fill="#ad99c9"/></g><g><g><path d="m65.359 221.745h-26.678c-3.753 0-7.205-2.055-8.993-5.355s-1.626-7.314.424-10.458l15.753-24.178h-6.363c-5.649 0-10.229-4.58-10.229-10.229 0-5.65 4.58-10.229 10.229-10.229h25.237c3.753 0 7.205 2.055 8.993 5.355s1.626 7.314-.424 10.458l-15.753 24.178h7.805c5.649 0 10.229 4.58 10.229 10.229s-4.581 10.229-10.23 10.229z" fill="#8bb6ef"/></g></g><g><g><path d="m116.659 139.067h-31.388c-3.753 0-7.205-2.055-8.993-5.355s-1.626-7.314.424-10.458l20.352-31.237h-10.818c-5.649 0-10.229-4.58-10.229-10.229 0-5.65 4.58-10.229 10.229-10.229h29.691c3.753 0 7.205 2.055 8.993 5.355 1.788 3.299 1.626 7.314-.422 10.458l-20.354 31.237h12.514c5.649 0 10.229 4.58 10.229 10.229.001 5.65-4.579 10.229-10.228 10.229z" fill="#8bb6ef"/></g></g><g><g><path d="m52.376 76.635h-37.476c-3.753 0-7.205-2.055-8.993-5.355s-1.626-7.314.424-10.458l26.299-40.363h-16.577c-5.649 0-10.229-4.58-10.229-10.229 0-5.65 4.58-10.23 10.229-10.23h35.45c3.753 0 7.205 2.055 8.993 5.355s1.626 7.314-.424 10.458l-26.298 40.363h18.602c5.649 0 10.229 4.58 10.229 10.229 0 5.65-4.58 10.23-10.229 10.23z" fill="#8bb6ef"/></g></g><g><path d="m193.502 382.579c-10.277 0-18.637-8.851-18.637-19.73 0-3.389 2.748-6.137 6.137-6.137s6.137 2.748 6.137 6.137c0 4.111 2.854 7.455 6.362 7.455s6.363-3.344 6.363-7.455c0-3.389 2.748-6.137 6.137-6.137s6.137 2.748 6.137 6.137c.002 10.879-8.359 19.73-18.636 19.73z" fill="#ad99c9"/></g><g><path d="m305.427 512c-2.365 0-4.619-1.376-5.627-3.682-1.358-3.106.061-6.724 3.167-8.081 7.95-3.473 13.086-11.874 13.086-21.401 0-3.389 2.748-6.137 6.138-6.137 3.389 0 6.137 2.748 6.137 6.137 0 14.407-8.025 27.222-20.446 32.649-.801.35-1.635.515-2.455.515z" fill="#ad99c9"/></g></g><path d="m473.74 140.193 8.403 23.627c.36 1.012 1.072 1.813 1.971 2.218l20.992 9.458c2.966 1.336 2.966 6.061 0 7.397l-20.992 9.458c-.899.405-1.611 1.207-1.971 2.218l-8.403 23.627c-1.187 3.338-5.385 3.338-6.572 0l-8.403-23.627c-.36-1.012-1.072-1.813-1.971-2.218l-20.992-9.458c-2.966-1.336-2.966-6.061 0-7.397l20.992-9.458c.899-.405 1.611-1.206 1.971-2.218l8.403-23.627c1.187-3.338 5.385-3.338 6.572 0z" fill="#b2e7f1"/><path d="m325.775 69.616 6.233 17.526c.267.75.795 1.345 1.462 1.645l15.571 7.015c2.2.991 2.2 4.496 0 5.487l-15.571 7.015c-.667.3-1.195.895-1.462 1.645l-6.233 17.526c-.88 2.476-3.995 2.476-4.875 0l-6.233-17.526c-.267-.75-.795-1.345-1.462-1.645l-15.571-7.015c-2.2-.991-2.2-4.496 0-5.487l15.571-7.015c.667-.3 1.195-.895 1.462-1.645l6.233-17.526c.881-2.476 3.995-2.476 4.875 0z" fill="#b2e7f1"/><g fill="#8bb6ef"><circle cx="426.327" cy="74.126" r="12.467"/><ellipse cx="248.455" cy="41.712" rx="9.683" ry="9.683" transform="matrix(.924 -.383 .383 .924 2.95 98.255)"/></g></g></svg>