<svg id="Capa_1" enable-background="new 0 0 512 512" height="512" viewBox="0 0 512 512" width="512" xmlns="http://www.w3.org/2000/svg"><g><g><g><path d="m26.067 499.474c-1.906.001-3.831-.541-5.539-1.671-4.628-3.064-5.895-9.299-2.831-13.927l10.56-15.947c6.798-10.265 5.15-23.944-3.832-31.819-.301-.265-.609-.523-.92-.777l-4.228-3.435c-12.25-9.954-19.277-24.716-19.277-40.501 0-28.774 23.409-52.183 52.183-52.183h14.688c5.55 0 10.049 4.499 10.049 10.049s-4.5 10.049-10.049 10.049h-14.688c-17.691 0-32.084 14.393-32.084 32.084 0 9.705 4.32 18.781 11.852 24.901l4.227 3.434c.507.412 1.008.835 1.5 1.266 16.505 14.47 19.66 39.417 7.338 58.027l-10.56 15.948c-1.934 2.92-5.131 4.502-8.389 4.502z" fill="#d08372"/></g><g><path d="m485.934 499.474c-3.258 0-6.454-1.582-8.388-4.502l-10.56-15.948c-12.322-18.609-9.167-43.556 7.339-58.028.497-.435.993-.854 1.499-1.265l4.228-3.434c7.53-6.119 11.85-15.196 11.85-24.901 0-17.691-14.393-32.084-32.084-32.084h-14.688c-5.55 0-10.049-4.499-10.049-10.049s4.499-10.049 10.049-10.049h14.687c28.774 0 52.183 23.409 52.183 52.183 0 15.784-7.026 30.546-19.275 40.5l-4.23 3.435c-.315.256-.623.518-.927.784-8.974 7.868-10.621 21.547-3.823 31.812l10.56 15.947c3.064 4.628 1.797 10.863-2.831 13.927-1.708 1.132-3.635 1.672-5.54 1.672z" fill="#d08372"/></g><g><g><path d="m440.925 250.907c-18.917 32.854-48.839 40.494-72.486 26.879s-32.063-43.329-13.146-76.183 71.419-48.683 81.649-42.793 22.899 59.243 3.983 92.097z" fill="#bdf4e3"/><path d="m436.941 158.81c-.371-.214-.801-.4-1.279-.556 5.684 11.586 10.345 29.224-.077 47.324-13.902 24.146-35.894 29.76-53.273 19.754-12.69-7.307-19.404-20.924-16.694-37.141-4.01 4.091-7.536 8.564-10.326 13.412-18.916 32.854-10.5 62.568 13.146 76.183 23.647 13.615 53.57 5.975 72.486-26.879 18.917-32.854 6.248-86.207-3.983-92.097z" fill="#b1b7e3"/></g><g><path d="m72.079 247.743c17.005 33.441 46.183 42.529 70.252 30.289 24.069-12.239 33.913-41.171 16.909-74.611-17.005-33.44-68.075-51.783-78.488-46.487-10.414 5.295-25.677 57.369-8.673 90.809z" fill="#bdf4e3"/><path d="m159.24 203.421c-17.005-33.44-68.075-51.783-78.488-46.487-.314.16-.632.364-.954.606 12.231.645 28.486 3.766 38.355 23.172 12.474 24.532 5.252 45.756-12.404 54.734-12.905 6.562-27.808 4.751-39.767-6.272 1.204 6.519 3.174 12.819 6.098 18.569 17.005 33.441 46.183 42.529 70.252 30.29 24.067-12.24 33.912-41.171 16.908-74.612z" fill="#b1b7e3"/></g></g><path d="m457.75 347.892c0-62.79-50.902-113.692-113.692-113.692h-88.556-.3-88.556c-62.79 0-113.692 50.901-113.692 113.692h.002c0 .065-.002.13-.002.195 0 62.898 40.989 104.016 88.933 104.016 47.943 0 66.41-20.444 83.522-50.236 6.627-11.537 18.289-17.258 29.942-17.21 11.652-.049 23.314 5.673 29.942 17.21 17.113 29.792 35.58 50.236 83.523 50.236 47.944 0 88.933-41.118 88.933-104.016 0-.065-.002-.13-.003-.195zm-293.805 38.135c-29.327 0-53.102-18.467-53.102-41.248s23.774-41.248 53.102-41.248 53.101 18.468 53.101 41.248-23.774 41.248-53.101 41.248zm180.397 0c-29.327 0-53.102-18.467-53.102-41.248s23.774-41.248 53.102-41.248c29.327 0 53.101 18.468 53.101 41.248.001 22.78-23.774 41.248-53.101 41.248z" fill="#fef2a8"/><path d="m457.75 347.891c0-56.336-40.979-103.109-94.753-112.127 35.952 15.67 61.088 51.532 61.088 93.255h-.002c.001.058.002.116.002.174 0 56.247-36.656 93.018-79.53 93.018s-59.389-18.283-74.691-44.924c-5.927-10.317-16.355-15.434-26.776-15.39-10.421-.043-20.85 5.073-26.776 15.39-15.303 26.642-31.818 44.924-74.691 44.924-42.875 0-79.53-36.771-79.53-93.018 0-.058.002-.116.002-.174h-.003c0-16.139 3.766-31.395 10.458-44.949-12.365 18.196-19.594 40.164-19.594 63.822v.001h.003c0 .065-.003.13-.003.195 0 62.898 40.99 104.016 88.933 104.016s66.41-20.444 83.523-50.236c6.627-11.537 18.289-17.258 29.942-17.21 11.653-.048 23.315 5.673 29.942 17.21 17.113 29.792 35.58 50.236 83.523 50.236 47.944 0 88.934-41.118 88.934-104.016 0-.065-.002-.13-.003-.195z" fill="#eeb6a8"/><g><path d="m289.641 232.724c.068-.484.114-.976.114-1.482 3.343-18.754 1.163-36.085-9.082-51.341 4.168-20.894 2.137-38.294-8.978-50.754-1.696-24.459-6.727-51.247-14.092-79.666-.761-4.3-6.932-4.296-7.687.005-6.562 22.738-11.288 44.159-10.856 61.877-8.529 12.502-11.598 26.297-7.344 41.859-7.495 12.889-10.799 27.246-7.676 43.753-9.887 13.111-7.714 27.505-7.252 34.2 2.923 22.768 69.844 23.045 72.853 1.549z" fill="#78eac4"/><g><g><path d="m272.23 139.027c-1.052 0-2.117-.275-3.086-.854l-33.522-20.025c-2.859-1.708-3.792-5.409-2.084-8.269 1.709-2.858 5.409-3.793 8.269-2.084l33.522 20.024c2.859 1.708 3.792 5.409 2.085 8.269-1.131 1.891-3.132 2.939-5.184 2.939z" fill="#518699"/></g><g><path d="m279.893 187.827c-1.046 0-2.105-.272-3.07-.845l-48.182-28.573c-2.865-1.698-3.809-5.398-2.111-8.262 1.699-2.865 5.4-3.808 8.262-2.111l48.182 28.573c2.865 1.698 3.809 5.398 2.111 8.262-1.127 1.9-3.133 2.956-5.192 2.956z" fill="#518699"/></g><g><path d="m289.636 238.755c-.975 0-1.964-.237-2.88-.736l-65.599-35.749c-2.925-1.594-4.003-5.256-2.409-8.18 1.595-2.924 5.257-4.002 8.18-2.409l65.599 35.749c2.924 1.594 4.003 5.256 2.409 8.18-1.095 2.007-3.165 3.145-5.3 3.145z" fill="#518699"/></g></g></g><g><path d="m91.948 329.15c-1.225 0-2.469-.225-3.677-.701-5.165-2.033-7.704-7.867-5.672-13.032 1.154-2.93 2.447-5.822 3.843-8.593 2.496-4.957 8.541-6.95 13.495-4.455 4.957 2.497 6.951 8.539 4.454 13.496-1.121 2.225-2.16 4.552-3.089 6.913-1.557 3.957-5.345 6.372-9.354 6.372z" fill="#fff"/></g><g><path d="m113.29 297.887c-2.731 0-5.453-1.107-7.436-3.287-3.735-4.105-3.435-10.461.67-14.196 10.195-9.276 23.612-15.895 38.799-19.142 5.431-1.164 10.767 2.298 11.929 7.726 1.16 5.427-2.298 10.768-7.726 11.928-11.547 2.469-22.014 7.567-29.476 14.355-1.925 1.752-4.346 2.616-6.76 2.616z" fill="#fff"/></g><g><path d="m236.166 237.389c-5.426-.266-9.583-5.009-9.541-10.441.038-4.98.782-9.274 1.808-12.85 1.973-6.872 10.418-9.384 15.889-4.782.075.063.15.126.224.188 3.007 2.528 4.169 6.572 3.132 10.361-.543 1.984-.957 4.482-.957 7.488.001 5.717-4.775 10.319-10.555 10.036z" fill="#fff"/></g></g><ellipse cx="44.222" cy="40.864" fill="#78eac4" rx="7.776" ry="7.776" transform="matrix(.707 -.707 .707 .707 -15.943 43.238)"/><path d="m150.747 17.618 8.255 23.212c.354.994 1.053 1.781 1.936 2.179l20.623 9.291c2.913 1.313 2.913 5.955 0 7.267l-20.623 9.291c-.883.398-1.583 1.185-1.936 2.179l-8.255 23.211c-1.166 3.279-5.29 3.279-6.457 0l-8.255-23.211c-.354-.994-1.053-1.781-1.936-2.179l-20.623-9.291c-2.913-1.313-2.913-5.955 0-7.267l20.623-9.291c.883-.398 1.583-1.185 1.936-2.179l8.255-23.212c1.167-3.28 5.291-3.28 6.457 0z" fill="#bdf4e3"/><path d="m437.225 14.35 6.123 17.218c.262.737.781 1.321 1.436 1.616l15.297 6.892c2.161.974 2.161 4.417 0 5.391l-15.297 6.892c-.655.295-1.174.879-1.436 1.616l-6.123 17.218c-.865 2.433-3.924 2.433-4.789 0l-6.123-17.218c-.262-.737-.781-1.321-1.436-1.616l-15.297-6.892c-2.161-.974-2.161-4.417 0-5.391l15.297-6.892c.655-.295 1.174-.879 1.436-1.616l6.123-17.218c.865-2.432 3.924-2.432 4.789 0z" fill="#bdf4e3"/><ellipse cx="353.31" cy="84.82" fill="#78eac4" rx="14.266" ry="14.266" transform="matrix(.16 -.987 .987 .16 212.991 419.981)"/></g></svg>