<svg id="Capa_1" enable-background="new 0 0 512 512" height="512" viewBox="0 0 512 512" width="512" xmlns="http://www.w3.org/2000/svg"><g><g><path d="m420.074 512s40.663-17.807 45.284-50.461c4.621-32.653-21.21-50.464-21.21-50.464s52.273-16.733 46.951-89.198-53.757-84.18-53.757-84.18 19.774-96.458-76.137-56.761c0 0 24.146-129.937-68.101-87.577l-24.894 232.412z" fill="#f7c4db"/><path d="m444.148 411.075s52.273-16.733 46.951-89.198c-.961-13.09-3.335-24.189-6.57-33.604-1.847-4.317-3.544-8.234-4.682-11.378-.144-.295-.285-.596-.431-.888 3.721 108.057-75.367 145.489-144.414 76.863-2.996-2.978-14.733 19.981-21.734 28.154l106.806 130.976s40.663-17.807 45.284-50.461c4.621-32.653-21.21-50.464-21.21-50.464z" fill="#e893db"/><path d="m420.074 512c-15.779-42.493-40.687-75.703-69.548-97.448l-.01.249c11.693-16.569 20.811-35.429 29.303-65.493l17.998-59.505c6.046-21.406 5.162-43.13-1.311-62.778 6.578-3.756 12.879-9.547 18.432-17.548 16.913-24.37 10.548-66.803 2.96-72.069-7.589-5.267-49.566 3.617-66.479 27.987-.668.963-1.291 1.924-1.892 2.884-7.943-4.742-16.628-8.536-25.955-11.17l-63.855-18.035c-4.768-1.347-9.452-2.278-14.043-2.853 1.004-6.052.971-12.829-.319-20.238-5.036-28.919-39.021-54.373-48.026-52.805-9.005 1.569-32.386 37.011-27.35 65.93 1.666 9.569 4.949 17.438 9.34 23.569-14.847 9.573-26.24 21.425-33.018 30.838-16.355 22.715-30.708 55.935-30.708 55.935-31.566 16.432-48.572 46.311-46.485 77.067 1.722 25.377 13.197 46.868 31.687 64.065 16.252 15.116 46.106 27.32 63.41 30.622l2.657 1.28c-10.127 33.62-16.608 76.962-16.56 99.515" fill="#fef2a8"/><path d="m417.898 137.408c-3.402-2.361-13.725-1.874-25.592 1.572 4.694 9.065 3.685 46.257-12.703 67.354-5.745 7.395-11.845 12.639-17.921 15.923 3.009 19.109.996 39.941-6.874 60.141l-22.891 56.095c-7.344 18.85-14.295 32.954-21.67 44.785-6.037 9.684-5.638 22.037 1.161 31.201 9.297 12.53 17.325 27.367 23.648 44.265 6.622 17.696-7.044 36.382-25.909 35.334l-157.615-3.252c-.78 7.767-1.446 14.768-1.229 21.175h269.772c-15.28-42.145-40.793-75.746-69.442-97.366 11.637-16.529 20.723-35.362 29.186-65.326l17.998-59.505c6.046-21.407 5.162-43.13-1.311-62.778 6.578-3.756 12.879-9.546 18.432-17.548 16.913-24.371 10.548-66.804 2.96-72.07z" fill="#eeb6a8"/><path d="m309.588 184.792c.101-.468.182-.945.218-1.44 4.617-18.084 3.733-35.176-5.179-50.82 5.577-20.116 4.844-37.264-5.12-50.239.103-24.021-2.885-50.559-8.036-78.857-.434-4.256-6.464-4.696-7.511-.548-8.049 21.746-14.208 42.336-15.06 59.68-9.234 11.602-13.225 24.861-10.188 40.373-8.251 12.054-12.513 25.846-10.649 42.199-10.605 12.099-9.517 26.32-9.548 32.896 1.216 22.457 66.586 27.543 71.073 6.756z" fill="#bdf4e3"/><path d="m309.588 184.792c.101-.468.182-.945.218-1.44 3.279-12.843 3.764-25.182.589-36.861-.365 3.454-.998 6.952-1.898 10.496-.028.423-.096.83-.181 1.23-3.788 17.748-61.228 12.919-62.46-6.299-.004-1.086-.046-2.417-.046-3.93-8.182 11.41-7.266 23.982-7.295 30.048 1.216 22.457 66.586 27.543 71.073 6.756z" fill="#b1b7e3"/><g><g><path d="m299.754 92.507c-1.273 0-2.558-.378-3.679-1.164l-31.314-21.979c-2.898-2.035-3.599-6.034-1.565-8.932 2.036-2.899 6.036-3.598 8.933-1.565l31.315 21.979c2.898 2.035 3.599 6.034 1.564 8.932-1.248 1.778-3.235 2.729-5.254 2.729z" fill="#90e0c5"/></g><g><path d="m303.728 140.741c-1.266 0-2.544-.374-3.662-1.153l-45.022-31.388c-2.905-2.025-3.618-6.022-1.593-8.927 2.025-2.906 6.022-3.619 8.928-1.593l45.022 31.388c2.905 2.025 3.618 6.022 1.593 8.927-1.246 1.789-3.24 2.746-5.266 2.746z" fill="#90e0c5"/></g><g><path d="m305.752 188.737c-1.19 0-2.393-.33-3.467-1.023l-57.695-37.184c-2.978-1.919-3.836-5.887-1.916-8.864 1.917-2.976 5.887-3.835 8.863-1.916l57.695 37.184c2.978 1.919 3.836 5.887 1.916 8.864-1.225 1.902-3.289 2.939-5.396 2.939z" fill="#90e0c5"/></g></g><path d="m148.605 158.355c16.731-4.054 31.215-14.118 41.599-27.85 2.949-3.9 6.533-7.446 10.739-10.487 20.089-14.522 48.218-12.044 65.441 5.784 20.542 21.263 18.397 55.059-3.904 73.632-19.2 15.991-43.145 17.975-62.853 11.493-11.482-3.776-36.112-18.763-54.674-30.617-8.986-5.738-6.71-19.444 3.652-21.955z" fill="#f7c4db"/><path d="m266.384 125.802c-17.223-17.827-45.352-20.305-65.441-5.784-4.206 3.041-7.789 6.587-10.739 10.487-10.383 13.731-24.867 23.796-41.599 27.85-10.361 2.511-12.638 16.217-3.653 21.955 18.562 11.854 43.193 26.841 54.674 30.617 19.709 6.482 43.654 4.498 62.854-11.493 22.3-18.573 24.445-52.369 3.904-73.632zm-11.23 46.413c-11.339 13.978-28.175 18.562-43.251 16.532-8.783-1.183-28.657-8.647-43.719-14.673-7.291-2.917-7.719-13.022-.682-16.189 11.364-5.112 20.218-14.227 25.587-25.422 1.525-3.18 3.557-6.191 6.11-8.922 12.195-13.044 32.696-14.991 47.696-4.515 17.891 12.495 21.429 36.955 8.259 53.189z" fill="#e893db"/><g><path d="m208.746 159.839c-2.587 0-5.182-.934-7.236-2.825-4.342-3.998-4.621-10.759-.624-15.101 6.19-6.723 12.73-10.661 18.369-12.965 7.089-2.898 14.831 2.4 14.728 10.058-.057 4.262-2.626 8.105-6.57 9.723-3.143 1.289-7.046 3.583-10.801 7.662-2.107 2.287-4.983 3.448-7.866 3.448z" fill="#fff"/></g><ellipse cx="171.554" cy="258.92" fill="#d08372" rx="13.187" ry="13.187" transform="matrix(.275 -.961 .961 .275 -124.58 352.592)"/><g><path d="m283.656 312.127c-1.547 0-3.098-.557-4.327-1.684-2.968-2.72-12.613-12.262-12.108-20.822.578-9.818 14.568-14.377 20.555-15.881 3.425-.864 6.918 1.222 7.782 4.657.862 3.432-1.219 6.913-4.65 7.78-4.33 1.1-9.206 3.261-10.775 4.715.674 2.113 4.231 6.755 7.866 10.102 2.603 2.397 2.775 6.452.381 9.058-1.264 1.376-2.991 2.075-4.724 2.075z" fill="#d08372"/></g><g><path d="m210.512 338.587c-1.962 0-3.93-.266-5.866-.803-6.028-1.671-10.968-5.754-13.909-11.499-2.849-5.564-3.47-12.046-1.75-18.253.946-3.413 4.474-5.415 7.892-4.467 3.413.946 5.412 4.479 4.467 7.892-.859 3.099-.573 6.29.806 8.983 1.287 2.513 3.39 4.284 5.92 4.984 2.53.703 5.242.267 7.641-1.226 2.568-1.6 4.456-4.187 5.315-7.286.946-3.413 4.474-5.414 7.892-4.467 3.413.946 5.412 4.479 4.467 7.892-1.721 6.207-5.591 11.444-10.897 14.748-3.719 2.317-7.833 3.502-11.978 3.502z" fill="#d08372"/></g><path d="m242.247 327.082c-5.442 4.059-22.342 9.797-26.402 4.355-4.059-5.443 6.26-20.005 11.703-24.064 5.442-4.059 13.145-2.938 17.204 2.505s2.938 13.145-2.505 17.204z" fill="#ef8bbd"/><path d="m43.83 104.649 12.437 22.74 22.74 12.437-22.74 12.437-12.437 22.741-12.438-22.741-22.74-12.437 22.74-12.437z" fill="#ffe266"/><g><path d="m91.684 205.163c-3.038 0-6.055-1.288-8.169-3.79l-15.845-18.756c-3.81-4.509-3.242-11.252 1.267-15.061 4.508-3.811 11.252-3.243 15.06 1.266l15.845 18.755c3.809 4.509 3.242 11.252-1.267 15.061-2.006 1.697-4.455 2.525-6.891 2.525z" fill="#d0844b"/></g></g><path d="m468.254 51.539 8.779 24.685c.376 1.057 1.12 1.894 2.059 2.317l21.932 9.881c3.099 1.396 3.099 6.333 0 7.729l-21.932 9.881c-.939.423-1.683 1.261-2.059 2.318l-8.779 24.685c-1.24 3.488-5.626 3.488-6.867 0l-8.779-24.685c-.376-1.057-1.12-1.894-2.059-2.318l-21.932-9.881c-3.098-1.396-3.098-6.333 0-7.729l21.932-9.881c.939-.423 1.683-1.26 2.059-2.317l8.779-24.685c1.241-3.487 5.627-3.487 6.867 0z" fill="#bdf4e3"/><g fill="#78eac4"><ellipse cx="70.87" cy="50.027" rx="13.025" ry="13.025" transform="matrix(.071 -.998 .998 .071 15.945 117.172)"/><ellipse cx="386.898" cy="24.572" rx="10.116" ry="10.116" transform="matrix(.993 -.122 .122 .993 -.103 47.457)"/></g></g></svg>