<svg id="Capa_1" enable-background="new 0 0 512 512" height="512" viewBox="0 0 512 512" width="512" xmlns="http://www.w3.org/2000/svg"><g><g><path d="m403.969 507.403s38.974-17.068 43.403-48.364c4.429-31.297-20.329-48.368-20.329-48.368s50.101-16.038 45-85.492-51.524-80.683-51.524-80.683 18.952-92.45-72.974-54.403c0 0 23.143-124.54-65.272-83.939l-23.86 222.756z" fill="#8bb6ef"/><path d="m427.043 410.671s50.101-16.038 45-85.492c-.921-12.547-3.196-23.184-6.297-32.207-1.77-4.138-3.397-7.892-4.488-10.906-.138-.283-.273-.571-.413-.85 3.566 103.567-72.236 139.445-138.414 73.669-2.823-2.806-13.745 18.416-20.49 26.574l102.027 125.944s38.974-17.068 43.403-48.364c4.43-31.297-20.328-48.368-20.328-48.368z" fill="#8388ef"/><path d="m403.969 507.403c-15.124-40.728-38.996-72.558-66.659-93.4l-.01.239c11.208-15.881 19.947-33.957 28.086-62.773l17.25-57.033c5.795-20.517 4.948-41.338-1.257-60.17 6.305-3.6 12.344-9.15 17.667-16.819 16.21-23.358 10.11-64.028 2.837-69.075-7.273-5.048-47.507 3.467-63.717 26.824-.64.923-1.237 1.844-1.814 2.765-7.613-4.545-15.938-8.181-24.877-10.706l-61.202-17.286c-4.57-1.291-9.059-2.183-13.459-2.734.962-5.801.931-12.296-.305-19.398-4.827-27.718-37.4-52.114-46.031-50.611s-31.041 35.473-26.214 63.191c1.597 9.171 4.743 16.713 8.952 22.59-14.23 9.176-25.15 20.535-31.646 29.557-15.676 21.771-29.432 53.611-29.432 53.611-30.255 15.749-46.554 44.387-44.554 73.866 1.65 24.323 12.649 44.921 30.371 61.404 15.577 14.488 44.191 26.185 60.776 29.35l2.546 1.227c-9.706 32.224-15.918 73.765-15.872 95.381" fill="#e7effa"/><path d="m337.311 414.003c11.153-15.842 19.964-33.815 28.076-62.534l17.25-57.033c5.795-20.517 4.948-41.338-1.257-60.17 6.305-3.6 12.344-9.15 17.667-16.82 16.21-23.357 10.11-64.027 2.837-69.075-3.355-2.328-13.728-1.764-25.518 1.806 4.741 7.954 3.984 44.421-11.97 64.959-5.506 7.088-11.353 12.114-17.177 15.261 2.884 18.315.955 38.282-6.588 57.643l-21.94 53.765c-7.039 18.067-13.701 31.584-20.77 42.924-5.786 9.281-5.404 21.121 1.113 29.904 8.911 12.01 16.605 26.231 22.666 42.426 6.347 16.961-6.751 34.87-24.833 33.866l-150.333-3.349c-1.093 9.586-1.143 13.166-1.129 19.825h258.565c-15.106-40.676-39.041-72.555-66.659-93.398z" fill="#dcb6f5"/><path d="m337.411 414.079s19.822-25.548 26.433-57.299c-13.861-34.893-59.593-64.79-70.408-74.627l-22.735 15.39c12.06 18.226 66.61 116.461 66.61 116.461z" fill="#b2e7f1"/><path d="m67.799 322.364c1.552 16.625 7.514 31.468 17.031 44.402 15.095-37.342 34.53-64.377 62.673-82.152l-16.985-19.845c-17.659 9.462-39.087 28.166-62.719 57.595z" fill="#b2e7f1"/><path d="m298.073 193.788c.097-.449.174-.906.209-1.38 4.425-17.333 3.578-33.715-4.964-48.709 5.345-19.28 4.643-35.716-4.907-48.152.099-23.023-2.765-48.458-7.702-75.581-.416-4.079-6.196-4.501-7.199-.525-7.714 20.842-13.618 40.577-14.435 57.2-8.85 11.12-12.676 23.828-9.765 38.696-7.908 11.554-11.993 24.772-10.207 40.446-10.164 11.596-9.122 25.227-9.151 31.529 1.166 21.524 63.821 26.4 68.121 6.476z" fill="#ffe266"/><path d="m298.073 193.788c.097-.449.174-.906.209-1.38 3.142-12.31 3.607-24.136.564-35.33-.35 3.31-.956 6.663-1.819 10.06-.027.406-.092.796-.173 1.179-3.63 17.011-58.684 12.382-59.866-6.037-.004-1.041-.044-2.317-.044-3.767-7.842 10.936-6.964 22.986-6.992 28.8 1.166 21.523 63.821 26.399 68.121 6.475z" fill="#efaa66"/><g><g><path d="m288.647 105.337c-1.22 0-2.452-.362-3.526-1.116l-30.013-21.066c-2.778-1.95-3.45-5.783-1.5-8.561 1.951-2.778 5.781-3.45 8.561-1.5l30.014 21.066c2.778 1.95 3.449 5.783 1.5 8.561-1.196 1.704-3.101 2.616-5.036 2.616z" fill="#d0844b"/></g><g><path d="m292.457 151.567c-1.214 0-2.439-.358-3.51-1.105l-43.151-30.083c-2.785-1.941-3.468-5.772-1.527-8.556 1.941-2.785 5.771-3.469 8.556-1.527l43.152 30.083c2.784 1.941 3.468 5.772 1.526 8.556-1.194 1.714-3.105 2.632-5.046 2.632z" fill="#d0844b"/></g><g><path d="m294.269 197.487c-1.14 0-2.294-.317-3.323-.98l-55.173-35.557c-2.853-1.839-3.675-5.642-1.837-8.496 1.839-2.853 5.642-3.676 8.496-1.837l55.172 35.557c2.854 1.839 3.676 5.642 1.836 8.496-1.173 1.824-3.151 2.817-5.171 2.817z" fill="#d0844b"/></g></g><path d="m143.777 168.449c16.036-3.886 29.919-13.532 39.87-26.693 2.827-3.738 6.261-7.137 10.293-10.051 19.254-13.919 46.215-11.543 62.723 5.544 19.688 20.38 17.632 52.772-3.742 70.573-18.402 15.327-41.352 17.228-60.242 11.016-11.005-3.619-34.612-17.984-52.403-29.345-8.612-5.501-6.43-18.637 3.501-21.044z" fill="#8bb6ef"/><path d="m256.663 137.248c-16.507-17.087-43.468-19.462-62.723-5.543-4.031 2.914-7.466 6.313-10.293 10.051-9.952 13.161-23.834 22.807-39.87 26.693-9.931 2.406-12.113 15.543-3.501 21.043 17.791 11.362 41.398 25.726 52.403 29.345 18.89 6.212 41.84 4.311 60.243-11.016 21.374-17.801 23.43-50.193 3.741-70.573zm-10.763 44.486c-10.868 13.397-27.005 17.791-41.454 15.845-8.418-1.134-27.467-8.288-41.903-14.063-6.988-2.796-7.398-12.481-.654-15.516 10.891-4.9 19.378-13.636 24.523-24.366 1.462-3.048 3.409-5.934 5.857-8.551 11.689-12.502 31.338-14.368 45.715-4.327 17.148 11.974 20.539 35.417 7.916 50.978z" fill="#8388ef"/><g><path d="m201.421 169.871c-2.485 0-4.976-.898-6.946-2.717-4.2-3.878-4.15-10.667-.24-14.837 5.806-6.194 11.909-9.862 17.193-12.032 6.819-2.8 14.282 2.245 14.182 9.616-.055 4.058-2.471 7.764-6.23 9.293-3.024 1.23-6.794 3.432-10.42 7.371-2.02 2.194-4.776 3.306-7.539 3.306z" fill="#fff"/></g><path d="m172.707 344.883c-5.874.016-10.117-9.105-8.378-18.08 4.261-21.985 16.185-37.814 30.271-37.852s26.095 15.727 30.474 37.689c1.788 8.966-2.406 18.109-8.28 18.125z" fill="#ef8bbd"/><path d="m188.249 344.841c-4.146.011-7.14-6.426-5.912-12.761 3.007-15.516 11.423-26.688 21.364-26.715s18.417 11.099 21.508 26.599c.071.355.124.711.169 1.066.205-2.055.129-4.228-.302-6.393-4.379-21.961-16.389-37.727-30.475-37.689s-26.01 15.867-30.271 37.852c-1.74 8.975 2.503 18.096 8.378 18.08l44.088-.119z" fill="#e068bd"/><g><g><path d="m154.947 270.963c-2.425 0-4.723-1.444-5.694-3.829-1.28-3.144.23-6.73 3.373-8.01 4.344-1.782 9.05-4.738 10.418-6.474-.94-1.834-4.589-5.386-8.103-7.809-2.792-1.925-3.5-5.75-1.579-8.544 1.923-2.794 5.742-3.507 8.537-1.588 4.88 3.347 15.933 12.105 13.182 21.121-2.399 7.861-14.245 13.222-17.818 14.678-.758.309-1.544.455-2.316.455zm8.297-17.809h.011z" fill="#ad99c9"/></g><g><path d="m272.591 284.266c-1.119 0-2.251-.306-3.268-.947-3.704-2.336-15.626-10.733-13.516-20.728 2.023-9.573 15.656-14.469 18.368-15.353 3.224-1.052 6.696.711 7.747 3.938 1.052 3.227-.71 6.696-3.938 7.748-4.81 1.589-9.456 4.613-10.108 6.098.378 1.677 4.252 5.515 8.012 7.906 2.861 1.818 3.714 5.613 1.901 8.477-1.171 1.848-3.163 2.861-5.198 2.861z" fill="#ad99c9"/></g></g><g fill="#b2e7f1"><path d="m82.879 166.394c-3.252-2.651-6.281-6.005-8.837-9.957-9.267-14.327-8.815-31.092 1.009-37.446s25.3.109 34.567 14.435c2.317 3.582 4.026 7.316 5.133 11.002"/><path d="m64.544 215.104c-2.588-.105-5.327-.641-8.053-1.646-9.883-3.646-15.868-12.095-13.368-18.872s12.539-9.315 22.422-5.67c2.471.912 4.698 2.123 6.61 3.534"/></g></g><path d="m447.264 7.104 8.414 23.66c.36 1.013 1.073 1.816 1.973 2.221l21.021 9.471c2.97 1.338 2.97 6.069 0 7.408l-21.021 9.471c-.9.406-1.613 1.208-1.973 2.221l-8.414 23.659c-1.189 3.343-5.393 3.343-6.581 0l-8.414-23.659c-.36-1.013-1.073-1.816-1.974-2.221l-21.02-9.471c-2.97-1.338-2.97-6.07 0-7.408l21.02-9.471c.9-.406 1.613-1.208 1.974-2.221l8.414-23.66c1.188-3.343 5.392-3.343 6.581 0z" fill="#fef2a8"/><path d="m29.832 19.121 6.242 17.55c.267.751.796 1.347 1.464 1.648l15.593 7.025c2.203.993 2.203 4.502 0 5.495l-15.593 7.025c-.668.301-1.197.896-1.464 1.648l-6.242 17.55c-.882 2.479-4 2.479-4.882 0l-6.241-17.55c-.267-.751-.796-1.347-1.464-1.648l-15.593-7.025c-2.203-.993-2.203-4.502 0-5.495l15.593-7.025c.668-.301 1.197-.896 1.464-1.648l6.241-17.55c.882-2.479 4-2.479 4.882 0z" fill="#fef2a8"/><g fill="#ffe266"><circle cx="145.755" cy="51.918" r="12.484"/><ellipse cx="502.304" cy="128.154" rx="9.696" ry="9.696" transform="matrix(.995 -.099 .099 .995 -10.183 50.12)"/></g></g></svg>