<svg id="Capa_1" enable-background="new 0 0 512 512" height="512" viewBox="0 0 512 512" width="512" xmlns="http://www.w3.org/2000/svg"><g><g><path d="m286.022 310.967c40.891-15.302 74.393-28.875 80.588-10.209 6.194 18.665-26.6 29.903-67.491 45.206" fill="#e7effa"/><path d="m338.417 293.327c-3.286 9.42 4.844 27.359 14.088 30.14 11.238-6.719 17.034-13.883 14.105-22.709-3.162-9.527-13.451-10.645-28.193-7.431z" fill="#78eac4"/><g><path d="m121.623 402.208s-30.228-11.236-35.404-35.422 13.787-38.994 13.787-38.994-41.001-9.55-40.519-64.111c.483-54.562 37.119-66.094 37.119-66.094s-19.996-71.096 55.681-46.839c0 0-25.022-95.915 47.972-69.454l30.698 172.6z" fill="#bdf4e3"/><path d="m121.643 402.408c1.952-34.039 10.669-70.953 31.51-96.75-7.61-12.409-13.27-26.34-17.962-48.267l-10.142-43.455c-3.341-15.613-1.704-31.133 3.841-44.907-4.538-2.995-8.784-7.434-12.392-13.422-10.988-18.238-4.468-48.338 1.211-51.76s35.337 4.882 46.325 23.12c.434.721.836 1.438 1.222 2.153 5.908-3.029 12.305-5.345 19.108-6.801l46.573-9.967c3.478-.744 6.876-1.194 10.191-1.394-.439-4.382-.103-9.234 1.164-14.482 4.944-20.482 30.464-37.144 36.842-35.604s21.488 28.008 16.544 48.49c-1.636 6.777-4.351 12.262-7.78 16.451 10.192 7.544 17.806 16.56 22.225 23.615 10.665 17.027 19.411 41.485 19.411 41.485 21.852 13.229 32.651 35.418 29.735 57.352-2.406 18.098-11.62 32.961-25.659 44.425-12.34 10.076-34.289 17.439-46.836 19.004 10.069 13.594 18.323 34.5 24.221 50.191z" fill="#e7effa"/><path d="m189.763 134.291c-.047-.341-.079-.686-.079-1.043-2.331-13.193-.778-25.379 6.443-36.096-2.909-14.698-1.461-26.933 6.369-35.684 1.219-17.199 4.787-36.033 9.998-56.011.54-3.023 4.88-3.013 5.406.012 4.59 15.998 7.89 31.068 7.567 43.528 5.985 8.802 8.128 18.507 5.119 29.446 5.257 9.072 7.565 19.173 5.35 30.778 6.939 9.231 5.395 19.352 5.063 24.06-2.08 16.009-49.143 16.13-51.236 1.01z" fill="#ffe266"/><path d="m189.763 134.291c-.047-.341-.079-.686-.079-1.043-1.655-9.369-1.35-18.336 1.545-26.408.075 2.492.358 5.022.811 7.607-.003.304.024.6.063.89 1.756 12.907 43.129 12.543 45.046-1.146.061-.777.163-1.728.245-2.811 5.242 8.608 3.91 17.557 3.604 21.9-2.079 16.01-49.142 16.131-51.235 1.011z" fill="#efaa66"/><g><g><path d="m205.308 67.041c-2.161 0-4.263-1.118-5.426-3.12-1.739-2.993-.723-6.83 2.27-8.569l17.558-10.203c2.993-1.74 6.83-.722 8.569 2.27 1.74 2.993.723 6.83-2.27 8.569l-17.558 10.203c-.99.576-2.074.85-3.143.85z" fill="#d0844b"/></g><g><path d="m200.078 102.745c-2.145 0-4.233-1.101-5.402-3.08-1.762-2.981-.773-6.824 2.207-8.586l26.83-15.856c2.983-1.761 6.826-.772 8.585 2.207 1.762 2.981.773 6.824-2.207 8.586l-26.83 15.855c-1.001.592-2.099.874-3.183.874z" fill="#d0844b"/></g><g><path d="m195.009 137.715c-2.224 0-4.378-1.186-5.514-3.279-1.652-3.042-.525-6.848 2.518-8.5l40.933-22.224c3.043-1.649 6.848-.525 8.501 2.518 1.652 3.042.524 6.848-2.518 8.499l-40.933 22.224c-.952.517-1.976.762-2.987.762z" fill="#d0844b"/></g></g><path d="m273.06 110.472c-1.436 6.304-3.819 11.406-6.829 15.303 8.947 7.017 15.63 15.404 19.51 21.967 9.362 15.839 22.184 48.525 22.184 48.525 19.182 12.307 23.517 23.013 20.957 43.417-2.112 16.835-10.2 30.662-22.524 41.326-7.019 6.073-20.775 12.024-32.586 15.857-7.928 2.573-12.015 11.307-8.835 19.011 9.688 23.466 21.788 69.636 24.23 73.3 4.885 10.381 20.911 12.395 31.441 11.484-.63-3.188-3.134-19.048-3.57-20.721-1.54-5.907-3.747-12.136-6.189-18.528l-.03.006c-5.886-15.639-14.075-36.264-24.046-49.727 12.548-1.565 34.496-8.928 46.836-19.004 14.039-11.464 23.252-26.327 25.659-44.425 2.917-21.934-7.883-44.123-29.735-57.352 0 0-8.745-24.459-19.411-41.485-4.42-7.055-12.033-16.071-22.225-23.615 3.428-4.189 6.144-9.674 7.78-16.451 4.944-20.482-10.166-46.95-16.544-48.49-2.878-.694-9.658 2.321-16.681 7.716 6.146 7.518 14.109 26.512 10.608 41.886z" fill="#dcb6f5"/><path d="m306.413 124.036c-11.757-3.803-21.583-11.786-28.275-22.174-1.901-2.951-4.275-5.682-7.122-8.084-13.597-11.476-33.865-11.217-47.152.617-15.848 14.113-16.132 38.419-1.17 52.914 12.882 12.48 29.914 15.189 44.37 11.611 8.422-2.085 26.858-11.486 40.783-18.971 6.739-3.625 5.848-13.558-1.434-15.913z" fill="#bdf4e3"/><path d="m222.693 147.307c12.882 12.48 29.914 15.189 44.37 11.611 8.422-2.085 26.858-11.486 40.783-18.971 6.74-3.623 5.849-13.556-1.432-15.911-11.757-3.803-21.583-11.787-28.275-22.174-1.901-2.951-4.275-5.682-7.122-8.085-13.597-11.476-33.865-11.217-47.152.616-15.849 14.114-16.133 38.42-1.172 52.914zm15.485-56.713c11.301-6.691 25.87-4.194 33.896 5.799 1.681 2.092 2.973 4.357 3.893 6.715 3.24 8.302 9.087 15.303 16.945 19.574 4.867 2.645 4.016 9.855-1.36 11.55-11.105 3.502-25.733 7.775-32.083 8.148-10.9.642-22.704-3.546-30.068-14.161-8.551-12.329-4.701-29.646 8.777-37.625z" fill="#b1b7e3"/><g fill="#ad99c9"><path d="m280.473 205.853c1.094 5.112 6.125 8.369 11.237 7.275s8.369-6.125 7.275-11.237-6.125-8.369-11.237-7.275-8.369 6.125-7.275 11.237z"/><path d="m186.578 225.947c1.094 5.112 6.125 8.369 11.237 7.275s8.369-6.125 7.275-11.237-6.125-8.369-11.237-7.275-8.369 6.125-7.275 11.237z"/></g><path d="m263.398 230.987c3.421-.732 6.626 2.046 6.304 5.53-.796 8.583-6.564 15.87-14.814 17.635s-16.495-2.522-20.734-10.028c-1.72-3.046.067-6.893 3.488-7.625z" fill="#ef8bbd"/><g><path d="m263.866 124.657c-3.086 0-6.141-1.36-8.203-3.969-4.632-5.859-9.891-6.538-10.113-6.564.172.02.265.021.265.021l1.286-20.855c1.457.09 14.532 1.258 24.953 14.441 3.578 4.526 2.81 11.096-1.717 14.675-1.917 1.515-4.203 2.251-6.471 2.251z" fill="#fff"/></g></g><path d="m427.732 370.781 45.204-19.926c5.01-2.208 10.882.581 12.182 5.899 1.863 7.622 2.197 15.574.943 23.388-7.921 49.355-97.273 34.942-97.273 34.942s-17.96-45.813-1.926-78.647c7.266-14.88 22.496-24.151 39.046-24.695.211-.007.422-.013.633-.017 5.565-.122 9.9 4.794 9.017 10.29z" fill="#cab4ef"/><path d="m398.079 400.952c-5.669-5.666-64.986 17.784-77.471-.289-.273-6.193-2.534-16.745-3.57-20.721-1.54-5.907-3.747-12.136-6.189-18.528l-188.447 40.33c.135 7.097.947 14.305 2.495 21.539 12.032 56.222 36.1 92.687 116.333 88.372l18.106-1.473c94.091-10.896 161.801-86.185 138.743-109.23z" fill="#a183e2"/><path d="m398.079 400.952c-2.711-2.709-17.69 1.238-33.948 4.12-11.948 29.225-60.924 70.643-122.973 78.257l-15.894 1.37c-70.431 4.013-91.559-29.907-102.121-82.206-.427-2.113-.766-4.221-1.066-6.327-.17 2.089-.315 4.171-.434 6.242l.774-.166c.163 6.937.967 13.976 2.479 21.04 12.032 56.222 36.1 92.686 116.333 88.372l18.106-1.473c94.092-10.895 161.802-86.184 138.744-109.229z" fill="#9762e2"/><g><path d="m237.579 435.743c-3.462 0-6.268-2.807-6.268-6.268v-12.641c0-3.462 2.807-6.268 6.268-6.268s6.268 2.807 6.268 6.268v12.641c0 3.462-2.806 6.268-6.268 6.268z" fill="#7844c1"/></g><g><path d="m286.562 422.895c-3.462 0-6.268-2.807-6.268-6.268v-12.641c0-3.462 2.807-6.268 6.268-6.268 3.462 0 6.268 2.807 6.268 6.268v12.641c0 3.461-2.807 6.268-6.268 6.268z" fill="#7844c1"/></g><g><path d="m270.502 467.862c-3.462 0-6.268-2.807-6.268-6.268v-12.641c0-3.462 2.807-6.268 6.268-6.268s6.268 2.807 6.268 6.268v12.641c0 3.462-2.806 6.268-6.268 6.268z" fill="#7844c1"/></g><path d="m191.905 360.074c-33.981 35.467-61.318 65.575-76.706 49.678s12.37-43.294 46.351-78.761" fill="#e7effa"/><g><path d="m124.663 388.139c-1.111 0-2.235-.295-3.254-.915-2.957-1.8-3.894-5.657-2.095-8.614.963-1.581 1.932-3.196 2.922-4.844 8.159-13.58 17.406-28.972 34.785-47.112 2.395-2.499 6.364-2.586 8.863-.19 2.501 2.395 2.585 6.363.191 8.863-16.409 17.127-25.272 31.879-33.091 44.895-1.003 1.669-1.985 3.304-2.961 4.906-1.18 1.94-3.244 3.011-5.36 3.011z" fill="#ad99c9"/></g><g><path d="m145.224 403.63c-1.831 0-3.647-.799-4.886-2.336-2.171-2.696-1.747-6.642.95-8.814 4.122-3.321 8.77-6.638 13.691-10.15 10.255-7.318 21.879-15.613 32.4-26.593 2.393-2.5 6.362-2.586 8.863-.19 2.5 2.395 2.584 6.363.189 8.863-11.333 11.829-23.465 20.486-34.17 28.125-4.768 3.403-9.271 6.616-13.109 9.708-1.158.933-2.547 1.387-3.928 1.387z" fill="#ad99c9"/></g><path d="m148.648 402.547c-3.12-11.326-19.111-24.389-29.856-23.273-8.42 12.557-10.983 22.844-3.594 30.477 8.099 8.367 19.507 3.988 33.45-7.204z" fill="#78eac4"/><g><path d="m196.505 488.159c-1.839 0-3.7-.486-5.39-1.505-10.128-6.115-18.864-14.535-25.264-24.349-3.152-4.833-1.787-11.306 3.045-14.457 4.835-3.153 11.306-1.788 14.458 3.045 4.691 7.194 11.109 13.375 18.561 17.874 4.939 2.982 6.525 9.404 3.543 14.344-1.962 3.249-5.413 5.048-8.953 5.048z" fill="#fff"/></g><g><path d="m164.296 440.602c-5.054 0-9.497-3.676-10.307-8.827-.223-1.421-.39-2.841-.494-4.221-.435-5.754 3.877-10.77 9.63-11.205 5.777-.426 10.77 3.877 11.205 9.63.062.823.163 1.681.3 2.552.896 5.7-2.998 11.047-8.699 11.943-.548.086-1.095.128-1.635.128z" fill="#fff"/></g></g><path d="m51.426 50.21 6.662 18.732c.285.802.85 1.438 1.562 1.759l16.642 7.498c2.351 1.059 2.351 4.805 0 5.865l-16.642 7.497c-.713.321-1.277.957-1.562 1.759l-6.662 18.732c-.941 2.646-4.269 2.646-5.21 0l-6.662-18.732c-.285-.802-.85-1.438-1.562-1.759l-16.642-7.498c-2.351-1.059-2.351-4.805 0-5.865l16.641-7.498c.712-.321 1.277-.957 1.562-1.759l6.662-18.732c.942-2.646 4.27-2.646 5.211.001z" fill="#cab4ef"/><ellipse cx="483.955" cy="45.161" fill="#a183e2" rx="8.459" ry="8.459" transform="matrix(.16 -.987 .987 .16 361.857 515.633)"/><ellipse cx="452.506" cy="125.493" fill="#a183e2" rx="14.831" ry="14.831" transform="matrix(.122 -.993 .993 .122 272.665 559.275)"/><path d="m390.581 2.676 8.981 25.252c.385 1.081 1.146 1.938 2.106 2.371l22.435 10.108c3.17 1.428 3.17 6.478 0 7.906l-22.435 10.108c-.961.433-1.722 1.29-2.106 2.371l-8.981 25.252c-1.269 3.568-5.756 3.568-7.025 0l-8.981-25.252c-.384-1.081-1.146-1.938-2.106-2.371l-22.436-10.108c-3.17-1.428-3.17-6.478 0-7.906l22.436-10.108c.961-.433 1.722-1.29 2.106-2.371l8.981-25.252c1.269-3.568 5.756-3.568 7.025 0z" fill="#cab4ef"/></g></svg>