<svg id="Capa_1" enable-background="new 0 0 512 512" height="512" viewBox="0 0 512 512" width="512" xmlns="http://www.w3.org/2000/svg"><g><g><path d="m312.55 325.117c29.336 28.617 51.986 51.981 65.364 39.261 13.379-12.72-18.768-46.346-48.104-74.963h-25.962z" fill="#f7c4db"/><path d="m377.914 364.378c5.941-5.649 2.9-15.422-4.881-27.047-9.325 1.148-21.137 14.931-20.213 24.023 10.273 6.952 18.733 9.071 25.094 3.024z" fill="#8bb6ef"/><g><path d="m161.901 375.904s-30.401-14.735-33.615-37.727c-3.214-22.993 15.538-35.577 15.538-35.577s-37.742-11.707-33.609-62.757 39.211-59.375 39.211-59.375-13.924-67.911 55.29-40.096c0 0-16.955-91.487 49.599-61.789l17.096 163.665z" fill="#b2e7f1"/><path d="m228.186 295.005c-4.801-4.843-22.876-49.603-24.799-47.129-54.955 70.657-90.115 10.172-93.428-3.601-1.671 47.299 33.866 58.325 33.866 58.325s-18.753 12.584-15.538 35.577c3.214 22.993 33.615 37.727 33.615 37.727z" fill="#a7adf1"/><path d="m160.044 373.798c4.124-31.736 13.779-65.59 35.032-88.335-6.288-12.131-10.647-25.556-13.561-46.401l-6.563-41.369c-2.075-14.843.505-29.262 6.626-41.784-4.047-3.11-7.722-7.552-10.696-13.402-9.057-17.816-.922-45.558 4.626-48.378s32.754 6.955 41.811 24.771c.358.704.685 1.403.999 2.099 5.736-2.438 11.881-4.174 18.349-5.078l44.275-6.189c3.306-.462 6.518-.655 9.635-.618-.116-4.132.527-8.652 2.067-13.48 6.01-18.843 31.027-32.72 36.895-30.848 5.867 1.872 18.228 27.671 12.217 46.514-1.989 6.235-4.901 11.187-8.394 14.877 9.034 7.75 15.553 16.705 19.215 23.609 8.836 16.661 15.374 40.15 15.374 40.15 19.566 13.86 28.18 35.362 23.97 55.701-3.474 16.782-13.102 30.076-27.02 39.862-12.233 8.601-33.279 14.013-45.132 14.632 8.509 13.407 14.735 33.571 19.199 48.66l.37 1.297c3.328 11.965 6.027 24.912 3.506 38.033-9.407 48.953-44.852 66.6-95.125 62.978-50.273-3.623-88.174-28.578-87.79-75.702z" fill="#f7c4db"/><path d="m367.951 189.934s-6.538-23.489-15.374-40.15c-3.662-6.904-10.181-15.859-19.215-23.609 3.493-3.691 6.405-8.642 8.394-14.877 6.01-18.843-6.35-44.642-12.217-46.514-.096-.03-.21-.045-.316-.068-7.769 1.07-24.793 10.531-33.243 23.673 3.981-1.768 7.313-2.548 8.978-2.062 5.452 1.59 16.895 23.63 11.269 39.754-1.861 5.335 4.543 13.719 1.288 16.881 8.384 6.611 14.429 14.257 17.82 20.154 8.184 14.231 14.217 34.306 14.217 34.306 18.166 11.816 22.905 34.036 19.409 45.473-4.315 14.113-11.505 25.254-27.591 32.389-8.888 3.942-24.257 8.827-34.605 10.83-5.296 1.025-8.157 6.35-5.867 10.924 5.155 10.297 9.174 22.443 12.272 32.138l.342 1.109c3.071 10.225 17.543 53.412 4.162 92.567-2.101 6.148-3.147 10.78-3.371 14.014 14.312-10.244 24.206-26.174 28.543-48.748 2.521-13.121-.178-26.069-3.506-38.033l-.37-1.297c-4.464-15.089-10.689-35.253-19.199-48.661 11.853-.618 32.899-6.03 45.132-14.632 13.917-9.786 23.546-23.08 27.02-39.861 4.208-20.338-4.407-41.841-23.972-55.7z" fill="#e893db"/><path d="m240.913 127.494c-.021-.322-.028-.648-.003-.981-1.292-12.509.984-23.813 8.467-33.36-1.731-13.957.449-25.314 8.371-32.979 2.302-16.02 6.913-33.412 13.139-51.765.709-2.794 4.772-2.492 5.06.376 3.218 15.288 5.291 29.619 4.148 41.262 5.009 8.644 6.361 17.875 2.806 27.914 4.31 8.849 5.789 18.461 2.933 29.177 5.874 9.111 3.745 18.481 3.117 22.867-3.028 14.848-47.099 11.786-48.038-2.511z" fill="#cab4ef"/><path d="m240.913 127.494c-.021-.322-.028-.648-.003-.981-.918-8.883-.023-17.155 3.246-24.626-.098 2.338-.021 4.732.229 7.182-.023.285-.018.563-.001.838.773 12.203 39.533 14.653 42.251 1.966.11-.723.269-1.606.419-2.615 4.327 8.412 2.476 16.701 1.896 20.747-3.027 14.848-47.098 11.786-48.037-2.511z" fill="#be87ef"/><g><g><path d="m257.21 68.797c-2.24 0-4.397-1.235-5.469-3.373-1.514-3.018-.295-6.692 2.723-8.206l23.04-11.559c3.018-1.512 6.692-.294 8.206 2.723 1.514 3.018.295 6.692-2.723 8.206l-23.04 11.558c-.88.442-1.816.651-2.737.651z" fill="#a171e3"/></g><g><path d="m249.8 100.552c-2.246 0-4.409-1.243-5.478-3.39-1.505-3.023-.274-6.694 2.749-8.197l33.105-16.476c3.022-1.504 6.693-.274 8.197 2.748 1.505 3.023.274 6.694-2.749 8.197l-33.104 16.476c-.875.436-1.804.642-2.72.642z" fill="#a171e3"/></g><g><path d="m240.917 133.61c-2.326 0-4.549-1.335-5.572-3.592-1.394-3.076-.03-6.699 3.045-8.092l44.92-20.356c3.076-1.394 6.699-.03 8.092 3.045 1.394 3.076.03 6.699-3.045 8.092l-44.92 20.356c-.819.371-1.676.547-2.52.547z" fill="#a171e3"/></g></g><path d="m350.817 125.762c-10.751-4.353-19.411-12.491-24.977-22.668-1.581-2.891-3.619-5.608-6.122-8.049-11.956-11.661-30.949-12.786-44.187-2.604-15.789 12.144-17.695 34.881-4.666 49.461 11.219 12.553 26.982 16.238 40.757 13.864 8.025-1.383 25.92-8.941 39.462-15.01 6.556-2.938 6.391-12.298-.267-14.994z" fill="#b2e7f1"/><path d="m270.865 141.902c11.218 12.553 26.982 16.238 40.757 13.864 8.025-1.384 25.92-8.941 39.462-15.01 6.555-2.938 6.391-12.297-.267-14.993-10.751-4.354-19.411-12.491-24.977-22.668-1.581-2.891-3.619-5.608-6.122-8.05-11.956-11.661-30.949-12.786-44.187-2.604-15.789 12.144-17.695 34.881-4.666 49.461zm18.324-52.053c11.031-5.502 24.503-2.181 31.344 7.717 1.432 2.072 2.489 4.279 3.192 6.55 2.473 7.991 7.475 14.94 14.544 19.469 4.378 2.805 3.095 9.498-2.052 10.722-10.633 2.529-24.616 5.543-30.587 5.464-10.249-.134-21.017-4.852-27.195-15.287-7.176-12.12-2.403-28.073 10.754-34.635z" fill="#a7adf1"/><g fill="#c56cb7"><path d="m321.01 200.612c.68 4.86 5.17 8.249 10.03 7.569 4.86-.679 8.249-5.17 7.57-10.03-.68-4.86-5.17-8.249-10.03-7.569s-8.249 5.17-7.57 10.03z"/><path d="m231.747 213.091c.679 4.86 5.17 8.249 10.03 7.569 4.86-.679 8.249-5.17 7.57-10.03s-5.17-8.249-10.03-7.57c-4.86.68-8.249 5.171-7.57 10.031z"/></g><path d="m301.635 223.229c4.305-.602 7.909 3.397 6.727 7.581-1.959 6.934-7.461 12.304-14.564 13.297s-13.867-2.662-17.652-8.793c-2.284-3.699.085-8.533 4.39-9.135z" fill="#ef8bbd"/><g><path d="m311.649 123.882c-3.261 0-6.464-1.562-8.436-4.462-3.796-5.584-8.468-6.62-8.513-6.626-5.577-.749-9.491-5.878-8.743-11.455.749-5.576 5.881-9.486 11.455-8.743 1.375.185 13.692 2.184 22.653 15.367 3.164 4.654 1.956 10.991-2.698 14.156-1.753 1.192-3.746 1.763-5.718 1.763z" fill="#fff"/></g></g><g><path d="m168.907 451.452c-4.006-8.85-13.061-27.182 3.673-45.415.824 3.039 35.694.24 37.714 2.162 3.349 3.186-12.432 20.292-9.27 32.969 1.589 6.371 25.064 24.204 11.227 37.328-13.838 13.124-33.414-5.109-43.344-27.044z" fill="#f7c4db"/><path d="m177.481 466.088c10.418 14.168 24.226 22.408 34.77 12.408 11.457-10.866-2.663-24.959-8.763-33.103-8.692 6.873-17.624 13.446-26.007 20.695z" fill="#8bb6ef"/></g><g><path d="m252.17 351.802c-.381 0-.766-.036-1.153-.109-2.971-.567-6.339-1.144-9.906-1.755-11.8-2.022-26.485-4.538-40.554-9.023-3.216-1.026-4.993-4.465-3.967-7.682 1.026-3.216 4.465-4.993 7.682-3.968 13.258 4.227 27.478 6.664 38.904 8.621 3.625.622 7.049 1.208 10.134 1.797 3.316.633 5.492 3.835 4.859 7.151-.56 2.929-3.123 4.968-5.999 4.968z" fill="#c56cb7"/></g><g><path d="m256.454 331.434c-.808 0-1.63-.161-2.419-.502-2.694-1.161-5.58-2.452-8.63-3.814-10.456-4.673-22.306-9.968-34.951-13.999-3.217-1.026-4.994-4.465-3.968-7.682 1.025-3.217 4.466-4.993 7.681-3.968 13.297 4.239 26.011 9.921 36.226 14.486 2.999 1.34 5.837 2.608 8.484 3.751 3.101 1.337 4.53 4.934 3.192 8.035-.996 2.31-3.249 3.693-5.615 3.693z" fill="#c56cb7"/></g><path d="m262.518 321.201c12.029 3.27 19.865 12.97 17.501 21.666s-14.032 13.094-26.061 9.825c-12.029-3.27-3.47-34.76 8.56-31.491z" fill="#8bb6ef"/><g><path d="m313.049 437.738c-19.145 38.036-27.607 75.637-44.403 66.374s-11.344-35.584 7.8-73.621" fill="#f7c4db"/><path d="m259.208 477.173c-1.917 12.97.837 22.196 9.438 26.939 8.621 4.754 15.047-2.84 21.848-16.499-5.116-7.138-21.856-12.854-31.286-10.44z" fill="#8bb6ef"/></g><path d="m69.258 90.762c0 8.34-8.518 15.101-19.025 15.101s-19.025-6.761-19.025-15.101 8.518-15.101 19.025-15.101c10.507-.001 19.025 6.761 19.025 15.101z" fill="#8bb6ef"/><ellipse cx="96.979" cy="82.661" fill="#8bb6ef" rx="19.025" ry="15.101"/><g><path d="m59.24 98.238c-5.627 0-10.189-4.562-10.189-10.189v-50.628c0-5.627 4.562-10.189 10.189-10.189h46.523c5.628 0 10.189 4.562 10.189 10.189v43.102c0 5.627-4.562 10.189-10.189 10.189s-10.189-4.562-10.189-10.189v-32.912h-26.145v40.438c0 5.626-4.562 10.189-10.189 10.189z" fill="#8bb6ef"/></g><ellipse cx="447.661" cy="178.47" fill="#8bb6ef" rx="19.025" ry="15.101"/><g><path d="m456.669 185.947c-5.628 0-10.189-4.562-10.189-10.189v-50.628c0-3.392 1.688-6.561 4.501-8.454 2.815-1.894 6.386-2.262 9.528-.984l21.27 8.654c5.213 2.12 7.719 8.066 5.598 13.278-2.121 5.213-8.067 7.717-13.278 5.598l-7.241-2.946v35.483c0 5.625-4.562 10.188-10.189 10.188z" fill="#8bb6ef"/></g></g><path d="m478.542 239.512 8.37 23.535c.358 1.008 1.068 1.806 1.963 2.21l20.91 9.421c2.954 1.331 2.954 6.038 0 7.369l-20.91 9.421c-.895.403-1.605 1.202-1.963 2.21l-8.37 23.535c-1.182 3.325-5.364 3.325-6.547 0l-8.37-23.535c-.358-1.008-1.068-1.806-1.963-2.21l-20.91-9.421c-2.954-1.331-2.954-6.038 0-7.369l20.91-9.421c.895-.403 1.605-1.202 1.963-2.21l8.37-23.535c1.182-3.325 5.364-3.325 6.547 0z" fill="#cab4ef"/><path d="m53.391 148.919 6.209 17.458c.266.747.792 1.34 1.456 1.639l15.511 6.988c2.191.987 2.191 4.479 0 5.466l-15.511 6.988c-.664.299-1.19.892-1.456 1.639l-6.209 17.458c-.877 2.466-3.979 2.466-4.856 0l-6.209-17.458c-.266-.747-.792-1.34-1.456-1.639l-15.51-6.988c-2.191-.987-2.191-4.479 0-5.466l15.511-6.988c.664-.299 1.19-.892 1.456-1.639l6.209-17.458c.876-2.466 3.978-2.466 4.855 0z" fill="#cab4ef"/><g fill="#a183e2"><ellipse cx="412.296" cy="55.892" rx="12.418" ry="12.418" transform="matrix(.973 -.23 .23 .973 -1.812 96.221)"/><path d="m19.29 277.211c0 5.327-4.318 9.645-9.645 9.645s-9.645-4.318-9.645-9.645 4.318-9.645 9.645-9.645 9.645 4.319 9.645 9.645z"/></g></g></svg>