<svg id="Capa_1" enable-background="new 0 0 512 512" height="512" viewBox="0 0 512 512" width="512" xmlns="http://www.w3.org/2000/svg"><g><g><g><g><path d="m60.081 176.99-37.901-54.059c-2.995-4.272-1.96-10.162 2.312-13.157l104.714-73.416c4.272-2.995 10.162-1.96 13.157 2.312l37.901 54.059c2.995 4.272 1.96 10.162-2.312 13.157l-104.714 73.416c-4.272 2.995-10.163 1.96-13.157-2.312z" fill="#78eac4"/></g><ellipse cx="99.231" cy="108.413" fill="#bdf4e3" rx="36.644" ry="36.644" transform="matrix(.855 -.519 .519 .855 -41.852 67.232)"/></g><g><g><path d="m349.087 67.135 27.478-60.031c2.171-4.744 7.777-6.829 12.521-4.658l116.284 53.227c4.744 2.171 6.829 7.777 4.658 12.521l-27.478 60.031c-2.171 4.744-7.777 6.829-12.521 4.658l-116.284-53.227c-4.744-2.171-6.829-7.777-4.658-12.521z" fill="#78eac4"/></g><ellipse cx="428.047" cy="66.241" fill="#bdf4e3" rx="36.644" ry="36.644" transform="matrix(.707 -.707 .707 .707 78.532 322.077)"/></g><g><path d="m101.921 486.146c26.165 17.291 90.799 15.125 104.544-6.457-3.74-1.658 9.581-36.304 7.498-39.309-3.453-4.982-55.282 13.147-70.933 6.59-7.867-3.295-48.194-38.141-67.616-22.59-19.422 15.552.343 44.475 26.507 61.766z" fill="#e7effa"/><path d="m84.366 471.743c11.124-10.009 27.949-27.145 38.788-37.559-15.424-9.618-35.639-19.492-47.74-9.803-14.674 11.749-6.973 31.131 8.952 47.362z" fill="#78eac4"/></g><g><path d="m446.88 506.498s37.084-16.24 41.298-46.019-19.343-46.022-19.343-46.022 47.672-15.26 42.818-81.347c-4.853-66.087-49.025-76.77-49.025-76.77s18.033-87.967-69.435-51.765c0 0 22.021-118.5-62.107-79.868l-22.704 211.955z" fill="#bdf4e3"/><path d="m468.835 414.456s47.672-15.26 42.818-81.346c-.577-7.859-1.716-14.927-3.265-21.296-2.206-11.341-6.645-19.007-9.143-23.858 3.559 98.789-68.705 134.28-131.742 71.627-2.709-2.692-13.251 17.859-19.654 25.475l99.031 121.44s37.084-16.24 41.298-46.019-19.343-46.023-19.343-46.023z" fill="#b1b7e3"/><path d="m446.88 506.498c-14.39-38.753-37.106-69.04-63.426-88.87l-.009.227c10.664-15.111 18.98-32.311 26.724-59.729l16.414-54.267c5.514-19.522 4.708-39.333-1.196-57.252 5.999-3.426 11.745-8.706 16.81-16.004 15.424-22.225 9.62-60.923 2.699-65.725-6.921-4.803-45.203 3.299-60.628 25.524-.609.878-1.177 1.755-1.726 2.63-7.244-4.325-15.165-7.784-23.671-10.187l-58.234-16.448c-4.349-1.228-8.62-2.077-12.807-2.602.916-5.519.886-11.7-.29-18.457-4.593-26.374-35.586-49.587-43.799-48.157s-29.536 33.753-24.943 60.127c1.519 8.726 4.514 15.903 8.518 21.494-13.54 8.731-23.931 19.539-30.111 28.123-14.915 20.716-28.005 51.011-28.005 51.011-28.788 14.985-44.296 42.235-42.393 70.284 1.57 23.144 12.036 42.742 28.898 58.427 14.821 13.785 42.048 24.915 57.829 27.926l2.423 1.168c-9.235 30.661-15.146 70.188-15.103 90.756" fill="#e7effa"/><path d="m346.118 208.091c.092-.427.166-.862.199-1.313 4.21-16.492 3.405-32.08-4.723-46.347 5.086-18.345 4.418-33.984-4.669-45.816.094-21.907-2.631-46.109-7.329-71.916-.396-3.882-5.895-4.283-6.85-.5-7.34 19.832-12.958 38.61-13.735 54.427-8.421 10.581-12.061 22.673-9.292 36.819-7.525 10.993-11.411 23.571-9.712 38.485-9.671 11.034-8.679 24.003-8.707 30.001 1.11 20.478 60.727 25.117 64.818 6.16z" fill="#ffe266"/><path d="m346.118 208.091c.092-.427.166-.862.199-1.313 2.99-11.713 3.432-22.966.537-33.616-.333 3.15-.91 6.34-1.731 9.572-.026.386-.087.757-.165 1.122-3.454 16.186-55.838 11.782-56.962-5.745-.004-.99-.042-2.205-.042-3.584-7.461 10.406-6.627 21.871-6.653 27.403 1.109 20.479 60.726 25.118 64.817 6.161z" fill="#efaa66"/><g><g><path d="m337.15 124.293c-1.233 0-2.478-.366-3.564-1.128l-28.559-20.044c-2.808-1.97-3.486-5.845-1.515-8.653 1.972-2.807 5.847-3.486 8.653-1.516l28.558 20.044c2.808 1.97 3.486 5.845 1.516 8.653-1.209 1.722-3.134 2.644-5.089 2.644z" fill="#d0844b"/></g><g><path d="m340.774 168.281c-1.226 0-2.465-.363-3.548-1.117l-41.059-28.624c-2.814-1.961-3.505-5.833-1.543-8.648 1.961-2.815 5.833-3.503 8.648-1.543l41.059 28.624c2.814 1.961 3.505 5.833 1.543 8.648-1.206 1.732-3.137 2.66-5.1 2.66z" fill="#d0844b"/></g><g><path d="m346.112 214.303c-1.153 0-2.318-.32-3.358-.992l-56.11-36.161c-2.884-1.858-3.715-5.702-1.856-8.585 1.857-2.884 5.703-3.717 8.585-1.856l56.11 36.161c2.884 1.858 3.715 5.702 1.856 8.585-1.187 1.843-3.185 2.848-5.227 2.848z" fill="#d0844b"/></g></g><path d="m199.305 183.981c15.259-3.697 28.468-12.876 37.937-25.399 2.69-3.557 5.958-6.791 9.793-9.564 18.321-13.244 43.975-10.984 59.681 5.275 18.734 19.391 16.777 50.213-3.56 67.151-17.51 14.584-39.347 16.393-57.321 10.482-10.471-3.444-32.934-17.112-49.862-27.922-8.194-5.234-6.118-17.734 3.332-20.023z" fill="#bdf4e3"/><path d="m306.717 154.292c-15.707-16.258-41.361-18.518-59.681-5.275-3.836 2.773-7.104 6.007-9.793 9.564-9.469 12.523-22.679 21.701-37.937 25.399-9.449 2.29-11.526 14.79-3.331 20.023 16.928 10.811 39.391 24.478 49.862 27.922 17.974 5.911 39.811 4.102 57.321-10.482 20.336-16.938 22.292-47.759 3.559-67.151zm-10.242 42.329c-10.341 12.747-25.695 16.929-39.444 15.077-8.01-1.079-26.135-7.886-39.871-13.381-6.649-2.66-7.04-11.876-.622-14.764 10.363-4.662 18.438-12.975 23.334-23.185 1.391-2.9 3.244-5.646 5.573-8.137 11.122-11.896 29.818-13.671 43.498-4.117 16.316 11.395 19.543 33.701 7.532 48.507z" fill="#b1b7e3"/><g><path d="m254.152 185.94c-2.509 0-5.024-.907-7.015-2.742-4.232-3.901-4.218-10.762-.283-14.962 5.368-5.731 11.008-9.222 15.965-11.347 6.852-2.937 14.447 2.254 14.346 9.708-.055 4.089-2.517 7.736-6.264 9.374-2.7 1.181-5.969 3.195-9.129 6.628-2.042 2.217-4.827 3.341-7.62 3.341z" fill="#fff"/></g></g><path d="m383.55 417.702c10.613-15.075 18.899-32.251 26.617-59.577l16.414-54.267c5.514-19.522 4.708-39.334-1.196-57.252 5.999-3.425 11.745-8.707 16.81-16.004 11.922-17.179 11.158-44.188 7.001-57.79-1.316-4.405-2.746-6.982-4.642-8.146-2.935-2.037-12.18-1.264-22.26 1.434-.878.247-1.769.517-2.664.799 4.488 7.641 3.747 42.258-11.41 61.77-5.239 6.745-10.802 11.526-16.343 14.522 2.744 17.428.908 36.425-6.269 54.847l-20.877 51.158c-6.697 17.191-13.036 30.053-19.762 40.843-5.505 8.831-5.142 20.096 1.059 28.454 8.479 11.427 15.8 24.958 21.567 40.369 6.039 16.138-6.424 33.18-23.628 32.223l-142.079-3.053c-.687 7.045-1.046 13.344-1.035 18.466h246.027c-14.373-38.705-37.05-68.964-63.33-88.796z" fill="#dcb6f5"/><g><path d="m217.656 281.756c-.349 0-.703-.029-1.059-.091l-19.378-3.328c-3.381-.58-5.651-3.792-5.07-7.173.58-3.381 3.785-5.656 7.173-5.07l19.378 3.328c3.381.58 5.651 3.792 5.07 7.173-.519 3.025-3.145 5.161-6.114 5.161z" fill="#3c122c"/></g><g><path d="m317.701 312.607c-.781 0-1.576-.148-2.345-.462l-18.205-7.428c-3.177-1.296-4.701-4.922-3.405-8.098 1.296-3.178 4.921-4.701 8.098-3.405l18.205 7.428c3.177 1.296 4.701 4.921 3.405 8.098-.983 2.408-3.304 3.867-5.753 3.867z" fill="#3c122c"/></g><g><path d="m236.525 344.481c-2.009 0-4.021-.299-5.989-.904-5.55-1.707-10.029-5.622-12.608-11.027-2.495-5.227-2.904-11.245-1.152-16.947 1.008-3.279 4.487-5.12 7.762-4.113 3.28 1.008 5.121 4.484 4.113 7.763-.835 2.716-.662 5.538.487 7.946 1.064 2.23 2.857 3.83 5.048 4.503s4.572.358 6.706-.89c2.304-1.347 4.032-3.584 4.867-6.299 1.008-3.279 4.486-5.121 7.762-4.113 3.28 1.008 5.121 4.484 4.113 7.762-1.753 5.702-5.473 10.452-10.473 13.375-3.336 1.952-6.98 2.944-10.636 2.944z" fill="#ad99c9"/></g><g><path d="m221.468 247.208c-2.082 0-4.115-1.045-5.29-2.946-1.478-2.39-4.667-3.391-7.259-2.275-3.151 1.353-6.805-.1-8.161-3.251s.1-6.805 3.251-8.161c8.246-3.549 18.02-.472 22.735 7.154 1.803 2.918.901 6.746-2.017 8.55-1.016.629-2.145.929-3.259.929z" fill="#ad99c9"/></g><g><path d="m331.24 281.711c-2.082 0-4.115-1.045-5.29-2.946-1.478-2.391-4.666-3.392-7.259-2.275-3.152 1.353-6.805-.1-8.161-3.251s.1-6.805 3.251-8.161c8.245-3.549 18.02-.473 22.735 7.154 1.803 2.918.901 6.746-2.017 8.55-1.017.629-2.145.929-3.259.929z" fill="#ad99c9"/></g><g><path d="m85.816 418.275-65.826 5.068c-5.202.401-9.743-3.491-10.143-8.693l-9.819-127.509c-.4-5.202 3.492-9.743 8.693-10.143l65.826-5.068c5.201-.401 9.743 3.492 10.143 8.693l9.817 127.509c.402 5.201-3.49 9.743-8.691 10.143z" fill="#78eac4"/></g><g><path d="m89.325 423.778-65.672-6.785c-5.189-.536-8.961-5.178-8.425-10.367l13.143-127.21c.536-5.189 5.178-8.961 10.367-8.425l65.672 6.785c5.189.536 8.962 5.177 8.425 10.367l-13.143 127.21c-.536 5.189-5.178 8.961-10.367 8.425z" fill="#78eac4"/><ellipse cx="63.168" cy="349.271" fill="#bdf4e3" rx="36.644" ry="36.644" transform="matrix(.16 -.987 .987 .16 -291.712 355.676)"/><g><path d="m15.235 420.926c-.204 0-.41-.009-.618-.03-3.414-.337-5.908-3.378-5.571-6.792l13.144-133.065c.337-3.413 3.381-5.926 6.792-5.571 3.414.337 5.908 3.378 5.571 6.792l-13.144 133.065c-.316 3.205-3.017 5.601-6.174 5.601z" fill="#518699"/></g></g><g><path d="m283.074 432.573c-1.548-.775-7.408-2.405-12.346-3.486l.435-2.617c.568-3.418-2.152-6.495-6.077-6.873-3.924-.374-7.567 2.085-8.136 5.502l-.508 3.054c-.251.035-.494.054-.748.094-8.21 1.305-14.763 4.543-17.865 13.766-1.749 5.201-1.805 12.172 2.517 17.537 1.835 2.278 3.544 4.385 7.335 6.521l-2.546 14.601c-2.39-.214-4.984-.78-6.613-1.67-3.238-1.77-8.86-4.84-13.09.831-4.198 5.627.718 12.413 3.692 14.6 5.249 3.862 10.129 5.127 15.277 6.11l-.492 2.959c-.568 3.418 2.152 6.495 6.077 6.873.592.057 1.178.049 1.748-.017 3.206-.37 5.905-2.584 6.388-5.485l.594-3.573c11.096-1.532 18.964-4.973 22.117-16.651 2.826-10.468-1.177-20.18-12.209-24.879-.923-.393-.95-.856-1.888-1.269l1.604-9.643c1.081.286 1.678.358 3.722 1.043 2.193.735 12.516 6.982 17.391-1.745 5.004-8.96-2.766-13.775-6.379-15.583z" fill="#ffe266"/><g fill="#d0844b"><path d="m252.372 452.939c-2.85-.773-4.49-3.876-3.661-6.931.828-3.055 3.811-4.905 6.661-4.132s-.149 11.836-3 11.063z"/><path d="m263.826 473.149c3.356.524 5.621 3.864 5.06 7.461-.562 3.597-3.737 6.087-7.093 5.564-3.356-.524-1.323-13.548 2.033-13.025z"/></g></g><g><path d="m319.47 459.057h-15.457c-5.81 0-10.52-4.71-10.52-10.52v-.429c0-5.81 4.71-10.52 10.52-10.52h15.457c5.81 0 10.52 4.71 10.52 10.52v.429c0 5.81-4.71 10.52-10.52 10.52z" fill="#ffe266"/></g><g><path d="m361.851 447.669-14.449 5.49c-5.431 2.063-11.507-.667-13.57-6.098l-.152-.401c-2.063-5.431.667-11.506 6.098-13.57l14.449-5.49c5.431-2.063 11.506.667 13.57 6.098l.153.401c2.062 5.431-.668 11.507-6.099 13.57z" fill="#ffe266"/></g><g><path d="m399.406 430.522-13.626 7.298c-5.122 2.743-11.497.815-14.24-4.307l-.203-.379c-2.743-5.121-.815-11.497 4.307-14.24l13.626-7.298c5.122-2.743 11.497-.815 14.24 4.307l.203.379c2.742 5.121.814 11.497-4.307 14.24z" fill="#ffe266"/></g><g><path d="m217.459 448.01-13.776-7.01c-5.178-2.635-7.239-8.969-4.604-14.147l.195-.383c2.635-5.178 8.969-7.239 14.146-4.604l13.776 7.011c5.178 2.635 7.239 8.969 4.604 14.146l-.195.383c-2.634 5.178-8.968 7.24-14.146 4.604z" fill="#ffe266"/></g><g><g><path d="m353.212 314.303c-.671 0-1.355-.11-2.025-.342l-185.87-64.104c-3.243-1.118-4.966-4.654-3.847-7.897 1.117-3.242 4.653-4.967 7.897-3.847l185.87 64.104c3.243 1.118 4.966 4.654 3.847 7.897-.887 2.573-3.295 4.189-5.872 4.189z" fill="#ad99c9"/></g><g fill="#ad99c9"><path d="m248.065 271.493c-8.788 25.427-35.383 39.311-59.401 31.01s-36.364-35.644-27.576-61.071z"/><path d="m359.725 310.085c-8.788 25.428-38.479 38.241-66.315 28.621-27.836-9.621-43.278-38.033-34.49-63.461z"/></g></g></g><g fill="#78eac4"><path d="m115.207 108.143c-2.58-5.59-8.219-8.398-14.231-7.211l-1.318-1.932c.35-.118.675-.222.929-.287 3.2-.814 5.143-4.064 4.34-7.271-.805-3.216-4.063-5.169-7.277-4.363-.436.109-2.596.682-5.196 1.903-2.001-1.538-4.84-1.7-7.039-.199-2.532 1.729-3.318 5.053-1.943 7.709-1.821 3.274-2.019 7.291-.436 10.903 1.754 4.005 5.338 6.657 9.353 6.923 1.014.065 2.07.025 3.145-.076l2.17 3.178c-2.361.845-4.031 3.119-3.978 5.764.064 3.273 2.738 5.882 5.997 5.882.04 0 .08 0 .12-.001 2.177-.043 3.868-.322 5.404-.832 1.138 1.104 2.641 1.697 4.173 1.697 1.165 0 2.343-.339 3.378-1.046 2.602-1.776 3.36-5.237 1.823-7.927 2.211-3.818 2.541-8.58.586-12.814z"/><path d="m445.197 54.473c-.282-.344-1.713-2.028-3.969-3.765.435-2.582-.864-5.242-3.349-6.417-2.77-1.31-6.037-.308-7.633 2.223-3.742.085-7.31 1.943-9.627 5.135-2.568 3.537-3.046 7.97-1.244 11.571.455.909 1.023 1.8 1.654 2.676l-1.643 3.476c-1.922-1.609-4.729-1.9-6.985-.518-2.825 1.732-3.712 5.426-1.979 8.251 1.135 1.853 2.225 3.178 3.438 4.244-.661 2.711.646 5.603 3.267 6.842.828.392 1.701.576 2.561.576 2.094 0 4.095-1.112 5.19-3.014 4.415-.019 8.697-2.139 11.363-5.969 3.518-5.053 3.092-11.339-.974-15.923l.776-1.643c2.123 2.439 5.813 2.766 8.331.699 2.556-2.102 2.926-5.883.823-8.444z"/><path d="m82.492 345.788c-1.435-4.174-4.817-7.544-9.297-8.841-5.909-1.711-11.729.707-14.769 6.027l-3.089-.357c.059-.217.114-.405.161-.546 1.072-3.122-.58-6.526-3.7-7.614-3.133-1.09-6.549.562-7.641 3.691-.103.295-.549 1.631-.918 3.584-2.195.684-3.906 2.604-4.187 5.038-.353 3.046 1.642 5.818 4.55 6.518 1.28 3.522 4.184 6.302 7.95 7.475 4.174 1.296 8.526.33 11.36-2.531.715-.723 1.377-1.546 2.004-2.425l3.819.442c-.908 2.337-.285 5.089 1.748 6.782 1.121.935 2.483 1.391 3.838 1.391 1.719 0 3.426-.735 4.612-2.159 1.399-1.679 2.297-3.143 2.919-4.643 2.776-.244 5.1-2.385 5.433-5.262.362-3.13-1.755-5.971-4.793-6.57z"/></g></g></svg>