<svg id="Capa_1" enable-background="new 0 0 512 512" height="512" viewBox="0 0 512 512" width="512" xmlns="http://www.w3.org/2000/svg"><g><g><path d="m256.378 432.272h-243.264c-7.243 0-13.114-5.871-13.114-13.114v-151.612l256.378 5.908z" fill="#ffdcb6"/><path d="m512 362.67c-33.702 44.254-114.613 63.895-255.622 70.358v-77.897c132.349-4.538 221.589-18.907 255.622-71.846z" fill="#8bb6ef"/><path d="m512 432.272c-17.226 47.914-108.406 69.981-242.02 77.217-7.386.4-13.602-5.465-13.602-12.861v-64.356c128.817-5.062 217.498-23.48 255.622-69.602z" fill="#ef8bbd"/><path d="m461.358 398.409-.026 4.331c-14.275 39.707-91.895 57.274-204.953 62.456v31.432c0 7.396 6.217 13.261 13.602 12.861 133.614-7.237 224.794-29.303 242.02-77.217v-69.602l-28.024 11.61z" fill="#e068bd"/><path d="m461.358 398.409c22.565-9.759 39.288-20.829 50.642-35.739v-85.775c-11.022 17.145-27.841 36.63-50.033 46.66z" fill="#8388ef"/><path d="m247.92 276.839-239.454-1.202c-6.516-.033-10.633-7.159-7.261-12.735 21.846-36.114 130.283-63.719 254.278-63.719 139.768 0 256.517 35.35 256.517 77.974s-106.882 80.999-255.622 77.974c-.34 0-.139-49.564-.042-69.799.022-4.67-3.746-8.469-8.416-8.493z" fill="#e7effa"/><path d="m211.349 345.049h-168.527c-10.042 0-18.183-8.141-18.183-18.183v-9.757c0-10.042 8.141-18.183 18.183-18.183h168.528c10.042 0 18.183 8.141 18.183 18.183v9.757c0 10.042-8.141 18.183-18.184 18.183z" fill="#b2e7f1"/><path d="m211.349 408.792h-168.527c-10.042 0-18.183-8.141-18.183-18.183v-9.757c0-10.042 8.141-18.183 18.183-18.183h168.528c10.042 0 18.183 8.141 18.183 18.183v9.757c0 10.042-8.141 18.183-18.184 18.183z" fill="#f7c4db"/><path d="m200.717 276.602.003 72.835c0 21.506-17.642 38.94-39.405 38.94h-161.315v30.781c0 7.243 5.871 13.114 13.114 13.114h243.264v-146.931c0-4.672-3.787-8.502-8.458-8.502z" fill="#efa5b6"/><path d="m42.822 408.792h168.528c10.042 0 18.183-8.141 18.183-18.183v-9.757c0-10.042-8.141-18.183-18.183-18.183h-12.966c-5.481 14.992-20.007 25.709-37.068 25.709h-136.678v2.231c0 10.042 8.141 18.183 18.184 18.183z" fill="#e893db"/><path d="m200.72 345.049h10.629c10.042 0 18.183-8.141 18.183-18.183v-9.757c0-10.042-8.141-18.183-18.183-18.183h-10.629z" fill="#a7adf1"/><path d="m440.139 234.065c-13.864 33.772-41.45 44.881-65.757 34.902s-36.13-37.266-22.266-71.038 61.956-55.578 72.473-51.261c10.515 4.318 29.414 53.625 15.55 87.397z" fill="#fef2a8"/><path d="m424.587 146.669c-1.252-.514-3.059-.656-5.256-.453 8.311 10.551 18.356 43.193 8.772 66.539-11.063 26.948-33.075 35.812-52.47 27.85-17.548-7.204-26.946-25.716-20.385-49.134-1.177 2.099-2.228 4.253-3.133 6.458-13.864 33.772-2.041 61.059 22.266 71.038s51.893-1.13 65.757-34.902c13.865-33.772-5.034-83.079-15.551-87.396z" fill="#eeb6a8"/><path d="m114.096 201.825c13.719 33.42 41.018 44.413 65.071 34.538 24.054-9.874 35.754-36.878 22.034-70.297-13.72-33.42-61.311-54.998-71.717-50.726-10.406 4.273-29.108 53.066-15.388 86.485z" fill="#fef2a8"/><path d="m201.202 166.067c-13.72-33.42-61.311-54.999-71.717-50.726-1.166.479-2.436 1.52-3.753 3.032 13.196 1.394 43.989 17.767 53.732 41.499 11.132 27.117 1.638 49.028-17.879 57.04-17.818 7.315-37.825.509-49.645-21.362.605 2.139 1.319 4.236 2.156 6.275 13.719 33.42 41.018 44.413 65.071 34.538 24.054-9.874 35.754-36.877 22.035-70.296z" fill="#eeb6a8"/><path d="m319.367 215.084c-.043-.588-.113-1.179-.242-1.776-.826-22.955-7.801-42.829-23.754-58.206-.398-25.687-7.214-45.679-23.482-57.541-8.216-28.398-20.955-58.694-36.859-90.319-1.989-4.875-9.262-3.301-9.059 1.96-1.955 28.469-2.081 54.918 2.932 75.692-6.876 16.904-6.986 33.944 1.983 51.205-5.558 17.097-5.803 34.86 2.073 53.522-8.321 17.966-2.101 34.38.145 42.155 9.23 26.092 88.18 9.409 86.263-16.692z" fill="#ffe266"/><path d="m319.367 215.084c-.043-.588-.113-1.179-.242-1.776-.587-16.302-4.273-31.056-12.076-43.743.95 4.655 1.103 9.677 1.592 14.584 1.688 22.27-67.809 36.505-75.934 14.242-.382-1.28-.894-2.838-1.419-4.624-5.7 16.312-.255 30.838 1.816 38.01 9.23 26.091 88.18 9.408 86.263-16.693z" fill="#efaa66"/><g><g><path d="m273.504 108.181c-.66 0-1.332-.106-1.992-.329l-44.602-15.082c-3.254-1.1-4.999-4.63-3.899-7.883s4.631-4.997 7.883-3.899l44.601 15.082c3.254 1.1 4.999 4.63 3.899 7.883-.876 2.592-3.296 4.228-5.89 4.228z" fill="#d0844b"/></g><g><path d="m294.94 163.752c-.654 0-1.32-.104-1.974-.323l-64.053-21.433c-3.257-1.09-5.014-4.614-3.924-7.871s4.617-5.014 7.871-3.924l64.053 21.433c3.257 1.09 5.014 4.614 3.924 7.871-.872 2.602-3.296 4.247-5.897 4.247z" fill="#d0844b"/></g><g><path d="m315.951 217.593c-.522 0-1.052-.066-1.581-.205l-82.988-21.752c-3.322-.87-5.309-4.27-4.438-7.592.87-3.322 4.267-5.31 7.592-4.438l82.988 21.752c3.322.87 5.309 4.27 4.438 7.592-.731 2.794-3.252 4.643-6.011 4.643z" fill="#d0844b"/></g></g><g><path d="m137.442 196.153c-4.34 0-8.383-2.747-9.831-7.09-5.745-17.235 2.357-39.644 3.3-42.143 2.021-5.357 8.002-8.06 13.356-6.038 5.353 2.02 8.056 7.995 6.041 13.349-1.71 4.587-5.926 19.593-3.032 28.277 1.81 5.43-1.125 11.3-6.555 13.11-1.087.362-2.193.534-3.279.535z" fill="#fff"/></g><g><path d="m380.963 211.583c-1.815 0-3.654-.477-5.323-1.478-4.909-2.945-6.5-9.312-3.555-14.221 7.763-12.938 15.404-19.161 16.25-19.828 4.497-3.545 11.013-2.774 14.557 1.72 3.529 4.475 2.781 10.955-1.661 14.51-.23.191-5.672 4.767-11.369 14.263-1.945 3.239-5.378 5.034-8.899 5.034z" fill="#fff"/></g></g><path d="m65.543 5.146 8.91 25.053c.382 1.073 1.137 1.923 2.09 2.352l22.258 10.028c3.145 1.417 3.145 6.427 0 7.844l-22.259 10.028c-.953.429-1.708 1.279-2.09 2.352l-8.91 25.053c-1.259 3.539-5.71 3.539-6.969 0l-8.91-25.053c-.381-1.073-1.137-1.923-2.09-2.352l-22.257-10.028c-3.145-1.417-3.145-6.427 0-7.844l22.259-10.028c.953-.429 1.708-1.279 2.09-2.352l8.91-25.053c1.257-3.54 5.709-3.54 6.968 0z" fill="#e9c3d9"/><path d="m376.802 24.709 6.609 18.584c.283.796.843 1.426 1.55 1.745l16.511 7.439c2.333 1.051 2.333 4.767 0 5.818l-16.511 7.439c-.707.319-1.267.949-1.55 1.745l-6.609 18.584c-.934 2.625-4.236 2.625-5.169 0l-6.609-18.584c-.283-.796-.843-1.426-1.55-1.745l-16.511-7.439c-2.333-1.051-2.333-4.767 0-5.818l16.511-7.439c.707-.318 1.267-.949 1.55-1.745l6.609-18.584c.933-2.626 4.235-2.626 5.169 0z" fill="#e9c3d9"/><g fill="#d88aba"><ellipse cx="470.183" cy="100.578" rx="8.392" ry="8.392" transform="matrix(.122 -.993 .993 .122 313.023 554.989)"/><circle cx="155.697" cy="37.863" r="8.392"/></g></g></svg>