<svg id="Capa_1" enable-background="new 0 0 512 512" height="512" viewBox="0 0 512 512" width="512" xmlns="http://www.w3.org/2000/svg"><g><g><path d="m420.3 511.7s36.8-23.4 36.8-56.9-29.3-47.7-29.3-47.7 51.6-24.3 35.5-96.3c-16.1-72.1-67.9-77-67.9-77s6.3-99.8-87-46.2c0 0 6-134.1-83.2-78.4l8.3 237.2z" fill="#78eac4"/><path d="m457.1 454.8c0-33.5-29.3-47.7-29.3-47.7s51.6-24.3 35.5-96.3c-5.1-22.9-13.8-39-23.3-50.3 14.3 97.6-49.7 161-124 107.6-4.1-3-15 34.3-19.9 33.6l124.2 110.3s36.8-23.7 36.8-57.2z" fill="#71afc4"/><path d="m420.3 512c-12.2-44.5-34.2-90.9-69.1-119.1 6.6-18.6 10.1-38.6 10.1-69l1.1-60.4c0-21.6-6.6-41.7-17.8-58.4 5.2-5.2 9.5-12.3 12.6-21.3 9.4-27.3-7.8-65.3-16.3-68.2s-45.4 16.5-54.8 43.7c-.4 1.1-.7 2.1-1 3.2-8.7-2.3-17.8-3.6-27.2-3.6h-64.5c-4.8 0-9.4.4-13.9 1-.7-5.9-2.5-12.3-5.6-18.8-12.3-25.7-50.9-40.5-58.9-36.7s-20.5 43.2-8.2 68.9c4.1 8.5 9.2 15 15 19.6-11.4 12.9-18.9 27-22.7 37.6-9.3 25.6-13.9 60.4-13.9 60.4-25.2 23.7-33.2 56.2-23.1 84.4 8.3 23.3 24.7 40.3 46.6 51.5 19.2 9.8 50.3 13.4 67.4 11.9-9.5 20.8-14.5 50.9-17.8 73.3z" fill="#bdf4e3"/><path d="m351.2 392.9c6.6-18.6 10.1-38.6 10.1-69l1.1-60.4c0-21.6-6.6-41.7-17.8-58.4 5.2-5.2 9.5-12.3 12.6-21.3 9.4-27.3-7.8-65.3-16.3-68.2-4-1.4-7.2.4-18.7 5.4 6.7 12.5 14.1 29.8 12.4 50-1.1 12.8-17.6 26.3-21.9 31.3 9.4 15.9 16.6 69.2 16.6 89.8l-.3 15.3c0 21-9 49.7-13.9 69.3-2.9 11.4-4.4 21.7 4.1 29.8 11.5 10.9 20.4 21.4 28.1 40.7 8.5 21.5-7.4 44.8-30.5 44.8h-155.4c-1.2 6.9-2.3 13.7-3.2 19.8h262.1c-12.2-44.3-34.2-90.7-69.1-118.9z" fill="#b1b7e3"/><g><path d="m185.2 260.7c-3.4 0-6.2-2.8-6.2-6.2v-38.9c0-3.4 2.8-6.2 6.2-6.2s6.2 2.8 6.2 6.2v38.9c0 3.4-2.8 6.2-6.2 6.2z" fill="#90e0c5"/></g><g><path d="m219.1 244.8c-3.4 0-6.2-2.8-6.2-6.2v-38.9c0-3.4 2.8-6.2 6.2-6.2s6.2 2.8 6.2 6.2v38.9c0 3.4-2.7 6.2-6.2 6.2z" fill="#90e0c5"/></g><g><path d="m250.3 230.1c-3.4 0-6.2-2.8-6.2-6.2v-38.9c0-3.4 2.8-6.2 6.2-6.2s6.2 2.8 6.2 6.2v38.9c0 3.4-2.8 6.2-6.2 6.2z" fill="#90e0c5"/></g><g><path d="m283.9 240.4c-3.4 0-6.2-2.8-6.2-6.2v-74.4c0-3.4 2.8-6.2 6.2-6.2s6.2 2.8 6.2 6.2v74.4c0 3.4-2.7 6.2-6.2 6.2z" fill="#90e0c5"/></g><path d="m254.2 176.4c0-.5-.1-.9-.2-1.4-.7-18.1-6.2-33.8-18.8-46-.3-20.3-5.7-36.1-18.5-45.4-6.5-22.4-16.5-46.3-29.1-71.3-1.6-3.8-7.3-2.6-7.2 1.5-1.5 22.5-1.6 43.4 2.3 59.8-5.4 13.3-5.5 26.8 1.6 40.4-4.4 13.5-4.6 27.5 1.6 42.3-6.6 14.2-1.7 27.1.1 33.3 7.4 20.5 69.7 7.4 68.2-13.2z" fill="#cab4ef"/><path d="m254.2 176.4c0-.5-.1-.9-.2-1.4-.5-12.9-3.4-24.5-9.6-34.5.6 3.3 1 6.8 1.1 10.3.1.4.1.8.2 1.2 1.3 17.6-53.5 28.8-60 11.2-.3-1-.7-2.2-1.1-3.7-4.5 12.9-.2 24.3 1.4 30 7.4 20.6 69.7 7.5 68.2-13.1z" fill="#be87ef"/><g><g><path d="m218 93.3c-.7 0-1.3-.1-2-.3l-35.2-12c-3.3-1.1-5-4.6-3.9-7.9s4.6-5 7.9-3.9l35.2 11.9c3.3 1.1 5 4.6 3.9 7.9-.9 2.6-3.3 4.3-5.9 4.3z" fill="#a171e3"/></g><g><path d="m234.9 137.2c-.7 0-1.3-.1-2-.3l-50.6-16.9c-3.3-1.1-5-4.6-3.9-7.9s4.6-5 7.9-3.9l50.6 16.9c3.3 1.1 5 4.6 3.9 7.9-.9 2.5-3.3 4.2-5.9 4.2z" fill="#a171e3"/></g><g><path d="m254.2 182.6c-.6 0-1.2-.1-1.8-.3l-68.2-20.1c-3.3-1-5.2-4.4-4.2-7.7s4.4-5.2 7.7-4.2l68.2 20.1c3.3 1 5.2 4.4 4.2 7.7-.7 2.7-3.2 4.5-5.9 4.5z" fill="#a171e3"/></g></g><path d="m96.9 195.8c14.5-8.4 25.2-21.7 31.1-37.4 1.7-4.4 4-8.7 7.1-12.7 14.7-19 41.7-24.4 62.6-12.5 25 14.2 32.2 46.3 16.5 69.7-13.5 20.2-35.3 28.6-55.4 27.9-11.7-.4-38.8-7.6-59.4-13.6-9.9-2.8-11.5-16.2-2.5-21.4z" fill="#78eac4"/><path d="m197.7 133.2c-20.9-11.9-47.8-6.5-62.6 12.5-3.1 4-5.5 8.3-7.1 12.7-5.9 15.6-16.7 29-31.1 37.4-9 5.2-7.3 18.6 2.6 21.5 20.6 6 47.6 13.2 59.4 13.6 20.1.6 41.9-7.8 55.4-27.9 15.7-23.5 8.4-55.6-16.6-69.8zm2.3 46.4c-6.7 16.1-21.2 25-35.8 27.3-8.5 1.3-29.1-.2-44.8-1.7-7.6-.7-10.8-10-5.1-14.9 9.2-7.9 14.9-18.8 16.9-30.7.6-3.4 1.6-6.7 3.3-10 7.8-15.5 26.4-22.9 43.2-17.3 20.1 6.7 30.1 28.5 22.3 47.3z" fill="#71afc4"/><g fill="#90e0c5"><path d="m154.4 296.8c0 7.1-5.7 12.8-12.8 12.8s-12.8-5.7-12.8-12.8 5.7-12.8 12.8-12.8c7 0 12.8 5.7 12.8 12.8z"/><ellipse cx="271.5" cy="296.8" rx="12.8" ry="12.8"/></g><g><path d="m213.3 359.7c-1.9 0-3.7-.8-4.9-2.4-2.7-3.4-7.5-5.6-12.6-5.6-4.9 0-9.4 1.9-12.2 5.1-2.2 2.6-6.2 2.9-8.8.7s-2.9-6.2-.7-8.8c5.2-6 13.1-9.5 21.7-9.5 9 0 17.4 3.9 22.4 10.5 2.1 2.7 1.6 6.6-1.1 8.7-1.1.9-2.5 1.3-3.8 1.3z" fill="#90e0c5"/></g><g><path d="m150.4 181.2c-1.8 0-3.6-.5-5.3-1.5-4.8-2.8-6.3-9-3.8-14 3.9-7.7 8.8-13 13.3-16.6 5.8-4.7 14.5-1.9 16.5 5.3 1.1 4-.2 8.3-3.4 10.8-2.6 2.1-5.6 5.3-8 10.1-1.8 3.7-5.5 5.9-9.3 5.9z" fill="#fff"/></g><g><path d="m269.1 262.2c-6.3 0-12.4-3.1-16-8.5-1.9-2.9-1.1-6.7 1.8-8.6s6.7-1.1 8.6 1.8c1.8 2.7 5.4 3.7 8.3 2.3 3.1-1.4 6.8-.1 8.3 3s.1 6.8-3 8.3c-2.6 1.2-5.3 1.7-8 1.7z" fill="#90e0c5"/></g><g><path d="m140.2 262.4c-2.4 0-4.8-.5-7.2-1.4-3.2-1.3-4.7-5-3.4-8.1s4.9-4.7 8.1-3.4c2.9 1.2 6.5 0 8.2-2.7 1.8-3 5.6-3.9 8.5-2.2 3 1.8 3.9 5.6 2.2 8.5-3.5 5.9-9.9 9.3-16.4 9.3z" fill="#90e0c5"/></g><g><path d="m221.8 372.3c-1.5 0-3.1-.6-4.3-1.7-5.9-5.6-9.3-13.8-9.3-22.5 0-9.3 3.9-18.1 10.5-23.5 2.6-2.2 6.6-1.9 8.8.8 2.2 2.6 1.9 6.6-.8 8.8-3.8 3.2-6 8.4-6 14 0 5.3 2 10.2 5.4 13.5 2.5 2.4 2.6 6.3.3 8.8-1.3 1.1-2.9 1.8-4.6 1.8z" fill="#90e0c5"/></g><g><path d="m170.1 372.3c-1.7 0-3.3-.7-4.5-2-2.4-2.5-2.2-6.4.3-8.8 3.4-3.2 5.4-8.1 5.4-13.5 0-5.6-2.2-10.8-6-14-2.6-2.2-3-6.1-.8-8.8 2.2-2.6 6.1-3 8.8-.8 6.5 5.5 10.5 14.3 10.5 23.5 0 8.7-3.4 16.9-9.3 22.5-1.3 1.3-2.9 1.9-4.4 1.9z" fill="#90e0c5"/></g><g fill="#8bb6ef"><path d="m333 318.1c.7 2.6 1.1 5.6.9 8.7-.5 11.2-7.1 20-14.7 19.6-7.7-.3-13.5-9.7-13-20.8.1-2.8.6-5.4 1.4-7.8z"/><path d="m330.4 255.9c.9 2.5 1.4 5.3 1.5 8.2.3 10.7-5.4 19.5-12.7 19.7s-13.5-8.3-13.8-19c-.1-2.7.2-5.2.8-7.6z"/></g></g><path d="m467.6 68.4 8.5 24c.4 1 1.1 1.8 2 2.3l21.3 9.6c3 1.4 3 6.2 0 7.5l-21.3 9.6c-.9.4-1.6 1.2-2 2.3l-8.5 24c-1.2 3.4-5.5 3.4-6.7 0l-8.5-24c-.4-1-1.1-1.8-2-2.3l-21.3-9.6c-3-1.4-3-6.2 0-7.5l21.3-9.6c.9-.4 1.6-1.2 2-2.3l8.5-24c1.3-3.4 5.5-3.4 6.7 0z" fill="#cab4ef"/><path d="m90.9 1.9 6.3 17.8c.3.8.8 1.4 1.5 1.7l15.8 7.1c2.2 1 2.2 4.6 0 5.6l-15.8 7.1c-.7.3-1.2.9-1.5 1.7l-6.3 17.8c-.9 2.5-4.1 2.5-4.9 0l-6.3-17.8c-.3-.8-.8-1.4-1.5-1.7l-15.8-7.2c-2.2-1-2.2-4.6 0-5.6l15.8-7.1c.7-.3 1.2-.9 1.5-1.7l6.3-17.7c.9-2.5 4-2.5 4.9 0z" fill="#cab4ef"/><g fill="#a183e2"><circle cx="22.9" cy="110.2" r="12.7"/><path d="m398.4 42.2c0 5.4-4.4 9.8-9.8 9.8s-9.8-4.4-9.8-9.8 4.4-9.8 9.8-9.8 9.8 4.4 9.8 9.8z"/></g></g></svg>