<svg id="Capa_1" enable-background="new 0 0 512 512" height="512" viewBox="0 0 512 512" width="512" xmlns="http://www.w3.org/2000/svg"><g><g><g><path d="m419.136 505.792s38.633-23.619 38.633-56.976c0-33.356-29.187-47.533-29.187-47.533s51.376-24.166 35.34-95.984c-16.035-71.818-67.605-76.686-67.605-76.686s6.304-99.403-86.65-46.055c0 0 5.928-133.552-82.867-78.055l8.229 236.284z" fill="#f7c4db"/><path d="m457.769 448.816c0-33.356-29.187-47.533-29.187-47.533s51.376-24.166 35.34-95.984c-5.502-24.641-15.186-41.399-25.536-52.785 11.595 95.076-48.472 162.175-121.235 109.876-4.111-2.955-14.933 34.165-19.868 33.517l121.853 109.883c0 .002 38.633-23.617 38.633-56.974z" fill="#e893db"/><path d="m156.029 495.621c-39.132-15.258-74.449-42.143-98.938-76.566-25.963-36.496-39.686-79.527-39.686-124.44 0-49.133 17.019-97.176 47.923-135.277 30.436-37.525 73.043-63.97 119.971-74.463 18.68-4.184 37.209 7.58 41.386 26.26s-7.581 37.208-26.26 41.385c-65.885 14.732-113.704 74.491-113.704 142.095 0 60.884 38.411 115.85 95.581 136.776" fill="#fef2a8"/><path d="m419.136 505.792c-12.181-44.339-34.095-90.56-68.861-118.698 6.534-18.513 10.066-38.482 10.066-68.724l1.11-60.17c0-21.533-6.539-41.538-17.74-58.138 5.14-5.23 9.486-12.283 12.554-21.198 9.344-27.153-7.75-65.009-16.205-67.918-8.455-2.91-45.224 16.412-54.568 43.565-.369 1.073-.696 2.132-1.004 3.185-8.647-2.328-17.737-3.577-27.119-3.577h-64.232c-4.797 0-9.405.365-13.833 1.038-.657-5.902-2.471-12.207-5.622-18.77-12.301-25.617-50.659-40.387-58.635-36.557-7.976 3.831-20.433 43-8.132 68.617 4.07 8.475 9.199 14.943 14.903 19.499-11.312 12.825-18.808 26.864-22.645 37.416-9.26 25.465-13.89 60.188-13.89 60.188-25.084 23.613-33.064 55.924-23.027 84.027 8.282 23.188 24.626 40.189 46.377 51.345 19.117 9.806 50.141 13.32 67.13 11.843-9.441 20.77-14.427 50.669-17.777 73.027z" fill="#fef2a8"/><path d="m350.274 387.094c6.534-18.513 10.066-38.482 10.066-68.724l1.11-60.17c0-21.533-6.539-41.538-17.74-58.138 5.14-5.23 9.486-12.282 12.554-21.198 9.344-27.153-7.75-65.009-16.205-67.918-2.877-.99-9.035.599-16.273 4.189 6.254 13.299 13.365 33.679 11.915 51.086-1.06 12.723-17.513 26.184-21.817 31.161 9.378 15.794 16.557 68.927 16.557 89.414l-.281 15.276c0 20.969-8.994 49.473-13.865 69.013-2.841 11.394-4.427 21.634 4.089 29.72 11.451 10.872 20.319 21.333 27.945 40.582 8.49 21.427-7.376 44.665-30.424 44.665h-156.734c-1.221 6.915-2.269 13.615-3.186 19.74h261.151c-12.181-44.338-34.096-90.561-68.862-118.698z" fill="#eeb6a8"/><g><path d="m159.964 512c-.306 0-.615-.023-.927-.07-3.39-.508-5.727-3.669-5.219-7.058 3.276-21.87 7.542-46.198 14.583-65.596-17.529-.168-42.928-3.75-60.63-12.831-24.229-12.428-40.846-30.858-49.39-54.782-10.894-30.503-2.066-64.449 23.026-89.102 1.184-8.114 5.752-36.904 13.903-59.321 4.873-13.4 13.556-27.76 23.824-39.4 2.268-2.571 6.191-2.817 8.761-.55 2.571 2.268 2.817 6.191.549 8.762-13.179 14.942-19.403 29.756-21.467 35.432-8.926 24.547-13.525 58.546-13.57 58.887-.188 1.414-.859 2.721-1.898 3.7-22.659 21.331-30.873 50.996-21.437 77.419 7.447 20.851 22.037 36.971 43.364 47.909 17.221 8.833 46.502 12.682 63.759 11.182 2.199-.184 4.332.799 5.606 2.601 1.274 1.801 1.496 4.143.583 6.153-8.669 19.071-13.605 46.784-17.29 71.377-.46 3.077-3.108 5.288-6.13 5.288z" fill="#d08372"/></g><g><path d="m139.555 176.486c-1.393 0-2.808-.283-4.165-.881-5.229-2.303-7.601-8.409-5.298-13.638 8.48-19.252 23.705-24.699 25.413-25.257l6.423 19.669.175-.06c-.337.124-8.31 3.17-13.075 13.989-1.705 3.872-5.496 6.178-9.473 6.178z" fill="#fff"/></g><path d="m255.599 171.432c-.034-.463-.089-.927-.19-1.397-.65-18.056-6.137-33.689-18.685-45.785-.313-20.205-5.675-35.931-18.471-45.261-6.462-22.338-16.482-46.168-28.993-71.044-1.565-3.835-7.286-2.597-7.125 1.542-1.538 22.394-1.637 43.198 2.306 59.539-5.408 13.297-5.495 26.7 1.56 40.278-4.372 13.448-4.565 27.42 1.631 42.1-6.546 14.132-1.653 27.043.114 33.159 7.261 20.523 69.361 7.4 67.853-13.131z" fill="#bdf4e3"/><path d="m255.599 171.432c-.034-.463-.089-.927-.19-1.397-.461-12.823-3.38-24.415-9.517-34.395.604 3.307.972 6.729 1.103 10.266.089.401.138.797.168 1.192 1.327 17.517-53.338 28.714-59.729 11.203-.3-1.007-.703-2.232-1.116-3.637-4.483 12.831-.201 24.257 1.429 29.899 7.26 20.523 69.36 7.4 67.852-13.131z" fill="#b1b7e3"/><g><g><path d="m219.525 88.66c-.659 0-1.33-.106-1.989-.329l-35.083-11.864c-3.248-1.098-4.99-4.621-3.892-7.868s4.621-4.991 7.868-3.892l35.083 11.864c3.248 1.098 4.99 4.621 3.892 7.868-.874 2.589-3.29 4.221-5.879 4.221z" fill="#90e0c5"/></g><g><path d="m236.386 132.372c-.653 0-1.318-.104-1.971-.323l-50.384-16.859c-3.251-1.087-5.005-4.605-3.917-7.856 1.089-3.251 4.608-5.007 7.856-3.916l50.384 16.859c3.251 1.087 5.005 4.605 3.917 7.856-.869 2.597-3.289 4.239-5.885 4.239z" fill="#90e0c5"/></g><g><path d="m187.635 157.613c-2.421 0-4.721-1.426-5.721-3.796-6.339-15.018-6.949-30.641-1.816-46.433 1.061-3.259 4.565-5.04 7.823-3.984 3.26 1.06 5.044 4.563 3.984 7.823-4.243 13.052-3.77 25.406 1.447 37.767 1.333 3.158-.146 6.799-3.305 8.132-.789.333-1.608.491-2.412.491z" fill="#3c122c"/></g><g><path d="m255.602 177.641c-.581 0-1.171-.083-1.757-.256l-67.967-20.029c-3.289-.969-5.169-4.42-4.2-7.709s4.418-5.172 7.709-4.199l67.967 20.029c3.289.969 5.169 4.42 4.2 7.709-.797 2.703-3.27 4.455-5.952 4.455z" fill="#90e0c5"/></g></g><path d="m209.325 114.843c-5.549-17.878-24.54-27.881-42.419-22.325-44.915 13.939-85.951 42.04-111.057 82.073-1.641 2.617-8.114 12.056-9.732 15.562 2.784 1.747 40.396 12.135 55.293 20.529 2.183 1.23 4.385 2.421 6.596 3.592 14.059-42.979 34.155-43.097 78.993-57.013 17.88-5.549 27.875-24.54 22.326-42.418z" fill="#fef2a8"/><g><path d="m109.372 129.238c-1.891 0-3.758-.859-4.976-2.487-2.048-2.741-1.5-6.618 1.235-8.674.487-.366 12.129-9.009 30.605-13.454 3.335-.806 6.686 1.249 7.488 4.583.802 3.333-1.25 6.685-4.583 7.488-15.84 3.811-25.962 11.243-26.063 11.318-1.114.826-2.416 1.226-3.706 1.226z" fill="#d08372"/></g><g><path d="m277.434 175.256c-1.154-1.499-1.612-3.502-1.064-5.461.922-3.295 4.329-5.225 7.626-4.312.587.163 14.538 4.116 29.33 16.044 2.673 2.151 3.089 6.059.936 8.729-2.152 2.669-6.06 3.088-8.729.936-12.682-10.227-24.746-13.715-24.866-13.749-1.335-.377-2.446-1.165-3.233-2.187z" fill="#d08372"/></g><path d="m209.325 114.843c-5.549-17.878-24.54-27.881-42.419-22.325-11.066 3.435-21.799 7.793-32.091 12.995l14.044 65.629c12.484-7.389 19.423-8.072 38.141-13.881 17.879-5.549 27.874-24.54 22.325-42.418z" fill="#ef8bbd"/><path d="m176.837 422.458c3.667-.314 7.221 1.333 9.343 4.334 2.123 3.003 2.493 6.907.971 10.255-4.262 9.376-7.606 20.981-10.346 33.294h28.201v-268.482h-79.192c-8.828 11.795-13.292 22.483-14.948 27.037-8.775 24.132-13.313 57.685-13.358 58.021-.314 2.358-1.432 4.535-3.163 6.166-21.443 20.186-29.251 48.163-20.376 73.014 7.081 19.827 20.995 35.175 41.355 45.62 17.503 8.976 46.969 12.01 61.513 10.741z" fill="#fef2a8"/><path d="m289.013 429.233c52.238-21.011 87.02-70.931 88.613-127.175 2.13-75.243-54.942-138.875-129.93-144.864-18.518-1.48-32.332-17.691-30.852-36.209 1.478-18.519 17.687-32.334 36.209-30.854 110.709 8.843 194.967 102.768 191.823 213.831-2.35 83.011-44.044 150.186-121.125 181.19" fill="#fef2a8"/><path d="m284.004 94.955c-10.041-2.343-20.373-3.979-30.952-4.824-18.522-1.481-34.73 12.334-36.209 30.854-1.479 18.518 12.334 34.729 30.852 36.209 11.965.956 16.334 1.965 27.215 5.675z" fill="#ef8bbd"/><path d="m98.87 190.83c14.432-8.333 25.136-21.635 31.031-37.223 1.674-4.428 4.034-8.699 7.111-12.672 14.693-18.972 41.494-24.35 62.357-12.495 24.883 14.14 32.118 46.113 16.478 69.451-13.466 20.094-35.163 28.473-55.237 27.834-11.695-.372-38.661-7.567-59.137-13.508-9.913-2.875-11.541-16.226-2.603-21.387z" fill="#f7c4db"/><path d="m199.368 128.441c-20.862-11.855-47.664-6.477-62.357 12.495-3.076 3.972-5.436 8.244-7.11 12.672-5.895 15.587-16.599 28.889-31.031 37.223-8.938 5.161-7.31 18.512 2.602 21.388 20.476 5.941 47.443 13.136 59.137 13.508 20.074.639 41.771-7.741 55.237-27.835 15.64-23.338 8.405-55.311-16.478-69.451zm2.242 46.172c-6.715 16.077-21.1 24.932-35.656 27.162-8.48 1.299-28.976-.207-44.61-1.691-7.568-.719-10.724-9.987-5.053-14.849 9.158-7.85 14.893-18.733 16.822-30.596.548-3.37 1.613-6.721 3.239-9.954 7.765-15.444 26.273-22.849 43.065-17.215 20.028 6.719 29.992 28.469 22.193 47.143z" fill="#e893db"/><g fill="#d08372"><path d="m156.171 291.407c0 7.05-5.715 12.766-12.766 12.766-7.05 0-12.766-5.715-12.766-12.766s5.715-12.766 12.766-12.766 12.766 5.716 12.766 12.766z"/><path d="m285.668 291.407c0 7.05-5.715 12.766-12.766 12.766-7.05 0-12.766-5.715-12.766-12.766s5.716-12.766 12.766-12.766c7.051 0 12.766 5.716 12.766 12.766z"/></g><g><path d="m206.147 343.795c-12.297 0-22.3-10.634-22.3-23.705 0-3.428 2.779-6.207 6.207-6.207s6.207 2.78 6.207 6.207c0 6.226 4.435 11.29 9.885 11.29 5.451 0 9.885-5.065 9.885-11.29 0-3.428 2.779-6.207 6.207-6.207s6.207 2.78 6.207 6.207c.003 13.071-10.001 23.705-22.298 23.705z" fill="#d08372"/></g></g><path d="m81.202 1.878 6.304 17.726c.27.759.804 1.36 1.478 1.664l15.749 7.095c2.225 1.002 2.225 4.547 0 5.55l-15.749 7.095c-.674.304-1.209.905-1.478 1.664l-6.304 17.726c-.891 2.504-4.04 2.504-4.931 0l-6.304-17.726c-.27-.759-.804-1.36-1.479-1.664l-15.748-7.095c-2.225-1.002-2.225-4.547 0-5.55l15.749-7.095c.674-.304 1.209-.905 1.479-1.664l6.304-17.726c.89-2.504 4.04-2.504 4.93 0z" fill="#bdf4e3"/><circle cx="365.719" cy="36.122" fill="#78eac4" r="12.609"/><path d="m471.914 64.143 8.499 23.896c.364 1.023 1.084 1.834 1.993 2.243l21.231 9.565c2.999 1.351 2.999 6.13 0 7.481l-21.231 9.565c-.909.41-1.629 1.22-1.993 2.243l-8.499 23.896c-1.201 3.376-5.447 3.376-6.647 0l-8.498-23.896c-.364-1.023-1.084-1.834-1.993-2.243l-21.231-9.565c-2.999-1.351-2.999-6.13 0-7.481l21.231-9.565c.909-.41 1.629-1.22 1.993-2.243l8.498-23.896c1.2-3.376 5.446-3.376 6.647 0z" fill="#bdf4e3"/><ellipse cx="15.907" cy="109.246" fill="#78eac4" rx="9.793" ry="9.793" transform="matrix(.923 -.385 .385 .923 -40.831 14.544)"/></g><g><path d="m154.757 170.454c-2.615 0-5.237-.954-7.301-2.885-4.327-4.047-4.253-11.104-.201-15.426 6.055-6.459 12.424-10.29 17.939-12.558 7.114-2.926 14.904 2.34 14.8 10.032-.057 4.264-2.627 8.108-6.572 9.726-3.143 1.29-7.045 3.583-10.799 7.661-2.108 2.289-4.983 3.45-7.866 3.45z" fill="#fff"/></g></g></svg>