<svg id="Capa_1" enable-background="new 0 0 512 512" height="512" viewBox="0 0 512 512" width="512" xmlns="http://www.w3.org/2000/svg"><g><g><path d="m385.139 512s40.663-17.807 45.284-50.461c4.621-32.653-21.21-50.464-21.21-50.464s52.273-16.733 46.951-89.198-53.757-84.18-53.757-84.18 19.774-96.458-76.137-56.761c0 0 24.146-129.937-68.101-87.577l-24.895 232.411z" fill="#8bb6ef"/><path d="m409.213 411.075s52.273-16.733 46.951-89.198c-1.236-18.243-5.869-34.665-11.684-45.869 3.721 108.056-75.367 145.489-144.413 76.863-2.996-2.978-14.733 19.981-21.734 28.154l106.806 130.975s40.663-17.807 45.284-50.461c4.621-32.653-21.21-50.464-21.21-50.464z" fill="#8388ef"/><path d="m385.139 512c-15.779-42.493-40.687-75.703-69.548-97.448l-.01.249c11.693-16.569 20.811-35.429 29.303-65.493l17.998-59.505c6.046-21.406 5.162-43.13-1.311-62.778 6.578-3.756 12.879-9.547 18.432-17.548 16.913-24.37 10.548-66.803 2.96-72.069-7.589-5.267-49.566 3.617-66.479 27.987-.668.963-1.291 1.924-1.892 2.884-7.943-4.742-16.628-8.536-25.956-11.17l-63.855-18.035c-4.768-1.347-9.452-2.278-14.043-2.853 1.004-6.052.972-12.829-.319-20.238-5.036-28.919-39.021-54.373-48.026-52.805-9.005 1.569-32.386 37.011-27.351 65.93 1.666 9.569 4.949 17.438 9.34 23.569-14.847 9.573-26.24 21.425-33.018 30.838-16.353 22.715-30.706 55.935-30.706 55.935-31.566 16.432-48.572 46.311-46.485 77.067 1.722 25.377 13.197 46.868 31.687 64.065 16.252 15.116 46.106 27.32 63.41 30.622l2.656 1.28c-10.127 33.62-16.608 76.962-16.56 99.515" fill="#e7effa"/><g><path d="m197.351 264.423c-3.541 0-6.412-2.871-6.412-6.412v-40.048c0-3.541 2.871-6.412 6.412-6.412s6.412 2.871 6.412 6.412v40.048c0 3.541-2.871 6.412-6.412 6.412z" fill="#ad99c9"/></g><g><path d="m232.25 248.042c-3.541 0-6.412-2.871-6.412-6.412v-40.048c0-3.541 2.871-6.412 6.412-6.412s6.412 2.871 6.412 6.412v40.048c.001 3.541-2.87 6.412-6.412 6.412z" fill="#ad99c9"/></g><g><path d="m266.955 237.332c-3.541 0-6.412-2.871-6.412-6.412v-40.047c0-3.541 2.871-6.412 6.412-6.412s6.412 2.871 6.412 6.412v40.047c0 3.541-2.871 6.412-6.412 6.412z" fill="#ad99c9"/></g><g><path d="m303.359 255c-3.541 0-6.412-2.871-6.412-6.412v-76.562c0-3.541 2.871-6.412 6.412-6.412s6.412 2.871 6.412 6.412v76.562c.001 3.541-2.871 6.412-6.412 6.412z" fill="#ad99c9"/></g><path d="m274.653 184.792c.101-.468.182-.945.218-1.44 4.617-18.084 3.733-35.176-5.179-50.82 5.577-20.116 4.844-37.264-5.12-50.239.103-24.021-2.885-50.559-8.036-78.857-.434-4.256-6.464-4.696-7.511-.548-8.049 21.746-14.208 42.336-15.061 59.68-9.234 11.602-13.225 24.861-10.188 40.373-8.251 12.054-12.513 25.846-10.649 42.199-10.604 12.099-9.517 26.32-9.548 32.896 1.217 22.457 66.587 27.543 71.074 6.756z" fill="#ffe266"/><path d="m274.653 184.792c.101-.468.182-.945.218-1.44 3.279-12.843 3.764-25.182.588-36.861-.365 3.454-.997 6.952-1.898 10.496-.028.423-.096.83-.181 1.23-3.788 17.748-61.228 12.919-62.46-6.299-.004-1.086-.046-2.417-.046-3.93-8.182 11.41-7.266 23.982-7.295 30.048 1.217 22.457 66.587 27.543 71.074 6.756z" fill="#efaa66"/><g><g><path d="m264.819 92.507c-1.273 0-2.558-.378-3.679-1.164l-31.314-21.979c-2.898-2.035-3.599-6.034-1.564-8.932 2.036-2.899 6.037-3.598 8.933-1.565l31.314 21.979c2.898 2.035 3.599 6.034 1.565 8.932-1.249 1.778-3.236 2.729-5.255 2.729z" fill="#d0844b"/></g><g><path d="m268.794 140.741c-1.266 0-2.544-.374-3.662-1.153l-45.022-31.388c-2.905-2.025-3.618-6.022-1.593-8.927 2.025-2.906 6.022-3.619 8.928-1.593l45.022 31.388c2.905 2.025 3.618 6.022 1.593 8.927-1.247 1.789-3.241 2.746-5.266 2.746z" fill="#d0844b"/></g><g><path d="m272.108 189.57c-1.19 0-2.393-.33-3.467-1.023l-58.988-38.017c-2.978-1.919-3.836-5.887-1.916-8.864 1.917-2.976 5.886-3.835 8.863-1.916l58.988 38.016c2.978 1.919 3.835 5.887 1.916 8.864-1.225 1.903-3.288 2.94-5.396 2.94z" fill="#d0844b"/></g></g><path d="m113.67 158.355c16.731-4.054 31.215-14.118 41.599-27.85 2.949-3.9 6.533-7.446 10.739-10.487 20.089-14.522 48.219-12.044 65.441 5.784 20.542 21.263 18.397 55.059-3.904 73.632-19.2 15.991-43.145 17.975-62.853 11.493-11.482-3.776-36.112-18.763-54.674-30.617-8.986-5.738-6.71-19.444 3.652-21.955z" fill="#8bb6ef"/><path d="m231.449 125.802c-17.223-17.827-45.352-20.305-65.441-5.784-4.206 3.041-7.789 6.587-10.739 10.487-10.383 13.731-24.868 23.796-41.599 27.85-10.362 2.511-12.638 16.217-3.653 21.955 18.562 11.854 43.193 26.841 54.674 30.617 19.709 6.482 43.654 4.498 62.854-11.493 22.3-18.573 24.445-52.369 3.904-73.632zm-11.23 46.413c-11.339 13.978-28.175 18.562-43.251 16.532-8.783-1.183-28.657-8.647-43.719-14.673-7.291-2.917-7.719-13.022-.682-16.189 11.364-5.112 20.218-14.227 25.587-25.422 1.525-3.18 3.557-6.191 6.11-8.922 12.195-13.044 32.696-14.991 47.696-4.515 17.891 12.495 21.429 36.955 8.259 53.189z" fill="#8388ef"/><g><path d="m173.811 159.839c-2.587 0-5.181-.934-7.235-2.824-4.343-3.998-4.623-10.759-.625-15.102 6.189-6.723 12.73-10.661 18.369-12.966 7.089-2.897 14.832 2.4 14.728 10.058-.058 4.262-2.627 8.105-6.57 9.723-3.143 1.289-7.046 3.583-10.801 7.662-2.107 2.288-4.982 3.449-7.866 3.449z" fill="#fff"/></g><g fill="#fff"><path d="m146.552 264.761c-.979 7.217-7.624 12.274-14.841 11.295s-12.274-7.624-11.294-14.841c.979-7.217 7.624-12.274 14.841-11.295 7.216.98 12.273 7.624 11.294 14.841z"/><ellipse cx="258.078" cy="280.974" rx="23.433" ry="23.433" transform="matrix(.707 -.707 .707 .707 -123.09 264.784)"/></g><path d="m159.819 383.476c-4.812.013-8.303-13.098-6.893-25.99 3.454-31.578-4.007-54.332 24.737-54.332 22.202 0 21.404 22.639 25.028 54.198 1.48 12.884-1.941 26.014-6.753 26.027z" fill="#ef8bbd"/><path d="m202.69 357.352c-3.624-31.559-2.826-54.198-25.028-54.198-28.744 0-21.282 22.754-24.737 54.332-1.41 12.892 2.081 26.003 6.893 25.99l12.604-.034-.057-.082c-3.466.016-5.97-9.223-4.943-18.314 2.515-22.269 9.551-38.303 17.863-38.341 8.073-.038 14.99 15.028 17.748 36.278-.017-1.855-.126-3.746-.343-5.631z" fill="#e068bd"/><g><path d="m252.746 394.078c-2.244 0-4.422-1.179-5.598-3.276-11.238-20.029-5.064-46.302 13.765-58.566 2.968-1.934 6.939-1.094 8.872 1.873s1.095 6.94-1.874 8.873c-13.282 8.652-17.58 27.289-9.58 41.545 1.733 3.088.634 6.997-2.454 8.73-.991.556-2.069.821-3.131.821z" fill="#ad99c9"/></g><g><path d="m89.466 361.288c-1.864 0-3.712-.808-4.979-2.367-2.235-2.748-1.818-6.786.93-9.021 12.684-10.312 15.547-29.222 6.381-42.155-2.048-2.889-1.365-6.892 1.524-8.94 2.89-2.047 6.891-1.366 8.94 1.524 12.993 18.333 9.065 45.034-8.754 59.522-1.19.967-2.62 1.437-4.042 1.437z" fill="#ad99c9"/></g><path d="m407.31 512c-15.76-42.441-40.626-75.62-69.441-97.366 11.637-16.529 20.723-35.362 29.186-65.326l17.998-59.505c6.046-21.407 5.162-43.13-1.311-62.778 6.578-3.756 12.879-9.546 18.433-17.548 16.913-24.37 10.548-66.803 2.96-72.069-3-2.082-11.383-1.943-21.46.482-1.436.359-2.931.724-4.421 1.174 4.946 8.299 4.185 46.385-12.461 67.813-5.745 7.396-11.845 12.639-17.921 15.923 3.009 19.109.996 39.941-6.874 60.141l-22.891 56.096c-7.344 18.85-14.294 32.954-21.67 44.785-6.037 9.684-5.638 22.037 1.161 31.201 9.297 12.53 17.325 27.367 23.648 44.265 6.622 17.696-7.044 36.382-25.909 35.334l-157.613-3.355c-.78 7.877-1.191 15.017-1.184 20.734h6.678 263.092z" fill="#dcb6f5"/></g><path d="m474.905 49.85 8.779 24.685c.376 1.057 1.12 1.894 2.059 2.317l21.932 9.881c3.098 1.396 3.098 6.333 0 7.729l-21.932 9.881c-.939.423-1.683 1.261-2.059 2.318l-8.779 24.685c-1.24 3.488-5.626 3.488-6.867 0l-8.779-24.685c-.376-1.057-1.12-1.895-2.059-2.318l-21.932-9.881c-3.098-1.396-3.098-6.333 0-7.729l21.932-9.881c.939-.423 1.683-1.26 2.059-2.317l8.779-24.685c1.241-3.487 5.627-3.487 6.867 0z" fill="#fef2a8"/><path d="m71.683 22.826 6.512 18.311c.279.784.831 1.405 1.527 1.719l16.269 7.33c2.298 1.035 2.298 4.697 0 5.733l-16.269 7.33c-.696.314-1.248.935-1.527 1.719l-6.512 18.311c-.92 2.587-4.174 2.587-5.094 0l-6.512-18.311c-.279-.784-.831-1.405-1.527-1.719l-16.268-7.33c-2.298-1.035-2.298-4.697 0-5.733l16.268-7.33c.697-.314 1.249-.935 1.527-1.719l6.512-18.311c.921-2.586 4.174-2.586 5.094 0z" fill="#fef2a8"/><g fill="#ffe266"><circle cx="15.027" cy="144.612" r="13.025"/><path d="m391.842 22.883c0 5.587-4.529 10.116-10.116 10.116s-10.116-4.529-10.116-10.116 4.529-10.116 10.116-10.116 10.116 4.529 10.116 10.116z"/></g></g></svg>