<svg id="Capa_1" enable-background="new 0 0 512 512" height="512" viewBox="0 0 512 512" width="512" xmlns="http://www.w3.org/2000/svg"><g><g><g><path d="m399.281 267.898c0 44.159 7.071 111.417 54.445 111.417 47.375 0 54.445-67.257 54.445-111.417z" fill="#fff"/><path d="m399.281 267.898c0 44.159 7.071 111.417 54.445 111.417 47.375 0 54.445-67.257 54.445-111.417z" fill="#fff"/><g><path d="m453.726 453.427c-5.757 0-10.425-4.668-10.425-10.425v-70.817c0-5.757 4.668-10.425 10.425-10.425s10.425 4.668 10.425 10.425v70.817c0 5.757-4.668 10.425-10.425 10.425z" fill="#ad99c9"/></g><path d="m505.187 312.629c-5.195 34.475-18.676 66.686-51.461 66.686s-46.265-32.211-51.461-66.686z" fill="#ef8bbd"/><path d="m480.143 312.629c-5.067 22.905-15.922 42.239-38.363 42.239-22.685 0-33.529-19.758-38.524-42.99h-1.101c5.112 34.757 18.549 67.437 51.572 67.437 32.785 0 46.268-32.21 51.463-66.686l-10.51-12.827z" fill="#e068bd"/><path d="m505.189 312.629c1.595-10.586 2.409-21.385 2.76-31.53.25-7.215-5.521-13.2-12.74-13.2h-82.966c-7.219 0-12.99 5.985-12.74 13.2.351 10.146 1.165 20.945 2.76 31.53" fill="#e7effa"/><g><path d="m482.959 454.243h-58.467c-5.757 0-10.425-4.668-10.425-10.425s4.668-10.425 10.425-10.425h58.467c5.757 0 10.425 4.668 10.425 10.425.001 5.757-4.667 10.425-10.425 10.425z" fill="#ad99c9"/></g></g><g><path d="m393.807 473.509c-27.987 18.495-79.269 22.811-102.227 4.762 4.001-1.773-4.608-49.875-2.38-53.09 3.694-5.329 55.459 11.181 72.2 4.168 8.414-3.525 47.639-39.362 68.414-22.728 20.775 16.635-8.02 48.393-36.007 66.888z" fill="#e7effa"/><path d="m430.921 407.571c-.354-.316-.711-.631-1.094-.938-.004-.004-.008-.007-.013-.011s-.01-.008-.016-.012c-.362-.289-.733-.55-1.103-.816-13.922-9.629-35.274 2.291-50.52 12.458 10.633 10.258 27.575 26.794 38.65 36.808 16.924-16.522 27.269-35.534 14.096-47.489z" fill="#78eac4"/></g><path d="m63.554 496.282s-36.31-17.527-40.405-46.465 18.796-44.722 18.796-44.722-46.325-14.829-41.609-79.048c4.716-64.22 47.64-74.601 47.64-74.601s-17.524-85.482 67.474-50.303c0 0-21.398-115.152 60.352-77.612l22.062 205.967z" fill="#bdf4e3"/><path d="m116.329 325.428c-61.733 104.803-108.645 40.794-115.508 22.813 5.849 45.557 41.125 56.854 41.125 56.854s-22.892 15.785-18.796 44.722c4.095 28.938 40.405 46.465 40.405 46.465l91.99-114.231c-10.242-12.582-37.243-59.974-39.216-56.623z" fill="#b1b7e3"/><path d="m63.554 496.282c13.984-37.658 36.057-67.089 61.634-86.36l.009.221c-10.363-14.684-18.443-31.398-25.969-58.041l-15.95-52.734c-5.358-18.971-4.575-38.222 1.162-55.635-5.829-3.329-11.414-8.46-16.335-15.552-14.988-21.597-9.348-59.202-2.623-63.869s43.926 3.206 58.914 24.803c.592.853 1.144 1.705 1.677 2.556 7.039-4.202 14.736-7.564 23.002-9.899l56.589-15.983c4.226-1.194 8.377-2.019 12.445-2.528-.89-5.363-.861-11.369.282-17.936 4.463-25.629 34.581-48.186 42.561-46.796s28.701 32.799 24.238 58.428c-1.477 8.48-4.386 15.454-8.277 20.887 13.158 8.484 23.254 18.987 29.261 27.329 14.494 20.131 27.214 49.57 27.214 49.57 27.975 14.562 43.045 41.042 41.195 68.298-.757 44.036-46.088 77.279-84.277 83.913l-2.354 1.134c8.974 29.795 14.718 68.205 14.676 88.192" fill="#e7effa"/><path d="m333.39 254.744s-12.72-29.439-27.214-49.57c-6.006-8.341-16.103-18.844-29.261-27.328 3.828-5.345 6.698-12.188 8.196-20.481.802-4.145.87-8.81.419-13.177-2.268-22.255-17.89-44.493-24.576-45.657-3.014-.525-9.186 2.369-15.94 7.55 8.142 6.868 21.265 32.283 16.705 52.77-1.713 7.695-4.673 13.951-8.465 18.756 11.675 8.324 20.464 18.364 25.603 26.252 12.401 19.037 22.781 46.514 22.781 46.514 24.972 14.518 37.628 39.387 34.772 64.245-2.357 20.51-12.474 37.5-28.116 50.744-9.066 7.676-21.058 17.403-33.275 22.037-9.469 3.591-18.166 9.13-16.949 19.476 1.388 11.809 1.817 32.458 2.88 45.59.984 12.153-8.926 22.403-21.104 21.834l-166.558-.413c-3.565 7.1-6.827 14.568-9.734 22.397h239.076c.017-14.503-3.001-38.504-8.017-62.023-1.936-9.001-4.173-17.916-6.659-26.168l2.354-1.135c37.964-6.313 83.256-38.948 84.277-83.913 1.85-27.258-13.22-53.738-41.195-68.3z" fill="#dcb6f5"/><path d="m161.195 204.559c-.09-.415-.161-.838-.193-1.276-4.091-16.027-3.309-31.174 4.59-45.037-4.942-17.827-4.293-33.024 4.537-44.522-.092-21.288 2.557-44.806 7.122-69.885.384-3.772 5.729-4.162 6.656-.486 7.133 19.271 12.592 37.519 13.347 52.889 8.183 10.282 11.72 22.032 9.029 35.779 7.312 10.683 11.089 22.905 9.438 37.398 9.398 10.722 8.434 23.325 8.461 29.153-1.079 19.901-59.011 24.409-62.987 5.987z" fill="#ffe266"/><path d="m161.195 204.559c-.09-.415-.161-.838-.193-1.276-2.906-11.382-3.335-22.317-.522-32.667.324 3.061.884 6.161 1.682 9.301.025.375.085.736.161 1.09 3.357 15.729 54.261 11.449 55.353-5.582.004-.962.041-2.143.041-3.483 7.251 10.112 6.439 21.253 6.465 26.629-1.079 19.902-59.011 24.41-62.987 5.988z" fill="#efaa66"/><g><g><path d="m169.911 123.348c-1.97 0-3.908-.928-5.126-2.662-1.985-2.828-1.301-6.73 1.527-8.714l27.751-19.477c2.827-1.984 6.728-1.3 8.713 1.526 1.985 2.828 1.301 6.73-1.527 8.714l-27.751 19.477c-1.092.767-2.346 1.136-3.587 1.136z" fill="#d0844b"/></g><g><path d="m166.389 166.094c-1.977 0-3.921-.935-5.137-2.679-1.976-2.834-1.28-6.734 1.554-8.709l39.899-27.816c2.833-1.977 6.734-1.28 8.708 1.554 1.976 2.834 1.28 6.734-1.554 8.709l-39.899 27.816c-1.089.759-2.337 1.125-3.571 1.125z" fill="#d0844b"/></g><g><path d="m161.201 210.816c-2.055 0-4.068-1.012-5.264-2.868-1.871-2.904-1.035-6.775 1.869-8.646l54.525-35.141c2.906-1.872 6.776-1.033 8.647 1.869 1.871 2.904 1.034 6.775-1.869 8.646l-54.525 35.141c-1.048.676-2.223.999-3.383.999z" fill="#d0844b"/></g></g><path d="m303.861 181.13c-14.828-3.593-27.664-12.512-36.865-24.681-2.614-3.456-5.79-6.599-9.517-9.294-17.803-12.87-42.732-10.674-57.995 5.126-18.204 18.844-16.303 48.794 3.459 65.254 17.015 14.172 38.235 15.93 55.702 10.186 10.175-3.346 32.003-16.628 48.453-27.133 7.963-5.086 5.945-17.233-3.237-19.458z" fill="#bdf4e3"/><path d="m202.943 217.535c17.015 14.172 38.235 15.93 55.702 10.186 10.175-3.347 32.003-16.628 48.453-27.133 7.963-5.085 5.945-17.232-3.237-19.457-14.828-3.593-27.664-12.512-36.865-24.681-2.614-3.457-5.79-6.599-9.517-9.294-17.803-12.87-42.732-10.673-57.995 5.126-18.205 18.843-16.304 48.793 3.459 65.253zm13.812-71.258c13.293-9.284 31.461-7.559 42.269 4.001 2.263 2.421 4.064 5.088 5.415 7.907 4.758 9.921 12.604 17.999 22.675 22.53 6.237 2.806 5.857 11.762-.604 14.347-13.348 5.34-30.961 11.955-38.745 13.003-13.36 1.8-28.281-2.263-38.33-14.651-11.671-14.388-8.535-36.064 7.32-47.137z" fill="#b1b7e3"/><g><path d="m250.563 183.399c-2.813 0-5.617-1.131-7.673-3.365-6.956-7.556-14.491-7.942-14.583-7.942 0 0 0 0-.001 0-.047.001-.096.001-.144.001-5.692 0-10.344-4.575-10.421-10.285-.078-5.757 4.527-10.487 10.284-10.565 1.668-.047 16.88.192 30.206 14.67 3.899 4.236 3.626 10.832-.61 14.731-2.004 1.844-4.535 2.755-7.058 2.755z" fill="#fff"/></g><g><path d="m187.725 337.634c-24.367 0-44.191-19.823-44.191-44.19s19.824-44.191 44.191-44.191 44.191 19.823 44.191 44.191c0 24.366-19.824 44.19-44.191 44.19zm0-75.87c-17.469 0-31.68 14.212-31.68 31.68s14.212 31.679 31.68 31.679c17.469 0 31.68-14.212 31.68-31.679.001-17.469-14.211-31.68-31.68-31.68z" fill="#ad99c9"/></g><path d="m170.072 353.747c0 3.981 3.227 7.209 7.209 7.209 3.981 0 7.209-3.227 7.209-7.209 0-3.981-3.227-7.209-7.209-7.209-3.981.001-7.209 3.228-7.209 7.209z" fill="#ad99c9"/><path d="m170.072 375.168c0 3.981 3.227 7.209 7.209 7.209 3.981 0 7.209-3.228 7.209-7.209s-3.227-7.209-7.209-7.209c-3.981 0-7.209 3.227-7.209 7.209z" fill="#ad99c9"/><g><path d="m267.762 326.453c-1.054 0-2.122-.267-3.102-.828-2.998-1.716-4.037-5.538-2.32-8.537 3.491-6.098 10.015-9.794 17.042-9.623 5.863.135 11.259 2.897 14.804 7.577 2.086 2.754 1.546 6.677-1.208 8.763-2.755 2.087-6.678 1.544-8.763-1.209-1.228-1.621-3.095-2.577-5.122-2.625-2.469-.053-4.687 1.221-5.896 3.333-1.156 2.019-3.265 3.149-5.435 3.149z" fill="#ad99c9"/></g><g><path d="m288.421 269.948c-2.99 0-5.634-2.151-6.158-5.198-.585-3.405 1.701-6.639 5.106-7.223l20.728-3.559c3.409-.591 6.638 1.701 7.224 5.106.585 3.405-1.701 6.639-5.106 7.223l-20.728 3.559c-.359.063-.715.092-1.066.092z" fill="#ad99c9"/></g><g><path d="m181.408 302.948c-2.467 0-4.805-1.469-5.794-3.894-1.305-3.199.231-6.85 3.429-8.155l19.473-7.944c3.199-1.307 6.849.23 8.155 3.429 1.305 3.199-.231 6.85-3.429 8.155l-19.473 7.944c-.774.315-1.574.465-2.361.465z" fill="#ad99c9"/></g></g><path d="m477.767 99.328 8.564 24.08c.366 1.031 1.092 1.848 2.008 2.261l21.394 9.639c3.022 1.362 3.022 6.178 0 7.539l-21.394 9.639c-.916.413-1.642 1.23-2.008 2.261l-8.564 24.08c-1.21 3.402-5.488 3.402-6.698 0l-8.564-24.08c-.367-1.031-1.092-1.848-2.009-2.261l-21.394-9.639c-3.022-1.362-3.022-6.177 0-7.539l21.394-9.639c.916-.413 1.642-1.23 2.009-2.261l8.564-24.08c1.209-3.402 5.488-3.402 6.698 0z" fill="#fef2a8"/><path d="m55.04 25.327 6.353 17.862c.272.765.81 1.371 1.49 1.677l15.87 7.15c2.242 1.01 2.242 4.582 0 5.592l-15.87 7.15c-.679.306-1.218.912-1.49 1.677l-6.353 17.863c-.897 2.524-4.071 2.524-4.969 0l-6.353-17.862c-.272-.765-.81-1.371-1.49-1.677l-15.87-7.15c-2.242-1.01-2.242-4.582 0-5.592l15.87-7.15c.68-.306 1.218-.912 1.49-1.677l6.353-17.862c.898-2.524 4.072-2.524 4.969-.001z" fill="#fef2a8"/><g fill="#ffe266"><circle cx="315.627" cy="28.424" r="12.706"/><path d="m408.272 73.021c0 5.45-4.418 9.868-9.868 9.868s-9.868-4.418-9.868-9.868 4.418-9.868 9.868-9.868 9.868 4.418 9.868 9.868z"/></g></g></svg>