<svg id="Capa_1" enable-background="new 0 0 512 512" height="512" viewBox="0 0 512 512" width="512" xmlns="http://www.w3.org/2000/svg"><g><g><path d="m403.304 511.728s37.097-23.608 37.097-57.333-29.509-48.058-29.509-48.058 51.943-24.433 35.731-97.044c-16.213-72.611-68.352-77.533-68.352-77.533s6.374-100.501-87.608-46.564c0 0 5.993-135.027-83.782-78.918l8.32 238.894z" fill="#fef2a8"/><path d="m410.892 406.337s51.943-24.432 35.731-97.044c-2.916-13.059-9.729-32.994-17.918-43.331 20.573 104.075-53.023 156.721-130.474 101.053-4.156-2.987-15.098 34.542-20.088 33.888l125.191 111.097s37.066-23.88 37.066-57.605c.001-33.725-29.508-48.058-29.508-48.058z" fill="#eeb6a8"/><path d="m403.334 512c-12.315-44.828-34.472-91.56-69.622-120.009 6.606-18.717 10.177-38.907 10.177-69.483l1.122-60.835c0-21.771-6.611-41.997-17.936-58.781 5.196-5.288 9.591-12.418 12.693-21.432 9.447-27.453-7.836-65.727-16.384-68.668-8.549-2.942-45.723 16.593-55.17 44.046-.373 1.085-.704 2.156-1.015 3.22-8.743-2.354-17.933-3.616-27.418-3.616h-64.941c-4.85 0-9.509.369-13.986 1.049-.664-5.967-2.498-12.342-5.684-18.978-12.437-25.899-51.218-40.832-59.282-36.96-8.065 3.873-20.658 43.475-8.222 69.374 4.115 8.569 9.3 15.108 15.067 19.715-11.437 12.967-19.016 27.161-22.895 37.829-9.362 25.746-14.043 60.853-14.043 60.853-25.362 23.876-33.43 56.543-23.282 84.956 8.373 23.444 24.898 40.633 46.889 51.913 19.328 9.914 50.695 13.467 67.871 11.973-9.546 20.999-14.586 51.228-17.973 73.834z" fill="#b2e7f1"/><path d="m333.712 391.991c6.606-18.717 10.177-38.907 10.177-69.483l1.122-60.835c0-21.771-6.611-41.997-17.936-58.781 5.196-5.288 9.591-12.418 12.693-21.432 9.447-27.453-7.836-65.727-16.384-68.668-4.034-1.388-12.057 1.961-16.804 4.409 6.73 12.627 12.107 31.048 10.405 51.477-1.072 12.863-17.707 26.473-22.058 31.505 9.482 15.969 16.741 69.688 16.741 90.402l-.284 15.445c0 21.201-9.093 50.02-14.018 69.775-2.872 11.52-4.477 21.873 4.134 30.048 11.577 10.992 20.543 21.569 28.254 41.03 8.584 21.664-7.458 45.159-30.76 45.159h-156.473c-1.235 6.991-2.294 13.764-3.222 19.958h264.035c-12.315-44.828-34.471-91.56-69.622-120.009z" fill="#a7adf1"/><path d="m235.999 173.947c-.034-.468-.09-.938-.193-1.413-.657-18.255-6.204-34.061-18.891-46.29-.316-20.428-5.737-36.328-18.675-45.761-6.534-22.584-16.665-46.678-29.313-71.829-1.582-3.877-7.366-2.625-7.204 1.559-1.555 22.641-1.655 43.675 2.332 60.196-5.468 13.443-5.556 26.995 1.578 40.722-4.421 13.597-4.615 27.723 1.649 42.565-6.618 14.288-1.671 27.341.115 33.525 7.34 20.752 70.127 7.484 68.602-13.274z" fill="#f7c4db"/><path d="m235.999 173.947c-.034-.468-.09-.938-.193-1.413-.466-12.965-3.417-24.685-9.622-34.775.611 3.344.982 6.803 1.115 10.379.09.405.139.806.17 1.205 1.342 17.711-53.927 29.032-60.389 11.326-.303-1.018-.711-2.257-1.128-3.678-4.533 12.973-.203 24.525 1.445 30.229 7.34 20.753 70.127 7.485 68.602-13.273z" fill="#e893db"/><g><g><path d="m199.526 90.261c-.667 0-1.344-.107-2.011-.333l-35.471-11.994c-3.284-1.11-5.045-4.672-3.935-7.955 1.111-3.283 4.673-5.045 7.956-3.935l35.471 11.994c3.284 1.11 5.045 4.672 3.935 7.955-.885 2.617-3.328 4.268-5.945 4.268z" fill="#c56cb7"/></g><g><path d="m216.573 134.455c-.66 0-1.332-.105-1.992-.327l-50.94-17.044c-3.287-1.099-5.06-4.656-3.96-7.943s4.659-5.06 7.943-3.959l50.94 17.044c3.287 1.099 5.06 4.656 3.96 7.943-.879 2.627-3.326 4.286-5.951 4.286z" fill="#c56cb7"/></g><g><path d="m236.001 180.226c-.587 0-1.184-.084-1.777-.258l-68.718-20.251c-3.324-.98-5.225-4.469-4.246-7.794.98-3.325 4.465-5.228 7.795-4.245l68.718 20.251c3.324.98 5.225 4.469 4.246 7.794-.805 2.732-3.306 4.503-6.018 4.503z" fill="#c56cb7"/></g></g><path d="m77.538 193.56c14.591-8.425 25.414-21.874 31.374-37.634 1.693-4.477 4.079-8.796 7.189-12.812 14.855-19.181 41.953-24.619 63.046-12.633 25.158 14.296 32.473 46.622 16.66 70.218-13.615 20.316-35.551 28.788-55.847 28.142-11.824-.376-39.088-7.65-59.79-13.658-10.023-2.907-11.669-16.406-2.632-21.623z" fill="#fef2a8"/><path d="m179.146 130.481c-21.093-11.986-48.191-6.548-63.046 12.633-3.11 4.016-5.496 8.335-7.189 12.812-5.96 15.76-16.782 29.209-31.374 37.634-9.036 5.218-7.391 18.716 2.631 21.624 20.702 6.007 47.967 13.281 59.79 13.658 20.296.646 42.232-7.827 55.847-28.142 15.814-23.597 8.499-55.923-16.659-70.219zm2.267 46.682c-6.789 16.255-21.333 25.208-36.049 27.462-8.574 1.314-29.296-.209-45.102-1.709-7.651-.726-10.843-10.097-5.109-15.013 9.259-7.937 15.057-18.94 17.008-30.934.554-3.407 1.631-6.795 3.275-10.064 7.851-15.615 26.564-23.101 43.54-17.405 20.249 6.793 30.322 28.783 22.437 47.663z" fill="#eeb6a8"/><g fill="#95cde6"><ellipse cx="122.566" cy="295.248" rx="12.907" ry="12.907" transform="matrix(.707 -.707 .707 .707 -172.873 173.143)"/><ellipse cx="253.493" cy="295.248" rx="12.907" ry="12.907" transform="matrix(.231 -.973 .973 .231 -92.332 473.672)"/></g><g><path d="m161.343 358.664c-.606 0-1.223-.088-1.834-.272-3.318-1.001-5.186-4.538-4.185-7.857 1.999-6.629 10.464-18.971 28.266-18.367 21.768.772 27.537 17.5 27.772 18.212 1.086 3.291-.701 6.841-3.992 7.927-3.292 1.085-6.84-.701-7.927-3.992-.315-.858-3.698-9.156-16.298-9.603-12.186-.446-15.49 8.5-15.825 9.52-.818 2.707-3.291 4.432-5.977 4.432z" fill="#95cde6"/></g><g><path d="m131.465 178.777c-1.811 0-3.655-.472-5.351-1.478-4.796-2.843-6.311-9.074-3.802-14.053 3.906-7.751 8.835-13.109 13.393-16.761 5.873-4.706 14.636-1.914 16.661 5.334 1.115 3.991-.184 8.317-3.426 10.898-2.609 2.076-5.669 5.32-8.086 10.224-1.821 3.694-5.532 5.836-9.389 5.836z" fill="#fff"/></g><g><g><path d="m252.548 266.412c-5.97 0-11.838-2.76-15.538-7.804-2.05-2.796-1.446-6.723 1.349-8.772 2.794-2.05 6.722-1.445 8.772 1.348 1.895 2.584 5.609 3.434 8.455 1.933 3.065-1.616 6.862-.443 8.479 2.622 1.617 3.067.443 6.862-2.623 8.479-2.81 1.483-5.865 2.194-8.894 2.194z" fill="#95cde6"/></g><g><path d="m122.832 264.527c-2.969 0-5.962-.684-8.726-2.114-3.079-1.592-4.285-5.378-2.693-8.458 1.593-3.08 5.379-4.284 8.457-2.693 2.847 1.472 6.552.581 8.433-2.029 2.027-2.813 5.949-3.451 8.761-1.421 2.812 2.027 3.447 5.949 1.421 8.761-3.7 5.133-9.625 7.954-15.653 7.954z" fill="#95cde6"/></g></g></g><path d="m463.098 86.346 8.592 24.16c.368 1.034 1.096 1.854 2.015 2.268l21.465 9.671c3.033 1.366 3.033 6.198 0 7.564l-21.465 9.671c-.919.414-1.647 1.234-2.015 2.268l-8.592 24.16c-1.214 3.413-5.507 3.413-6.721 0l-8.592-24.16c-.368-1.034-1.096-1.854-2.015-2.268l-21.465-9.671c-3.033-1.366-3.033-6.198 0-7.564l21.465-9.671c.919-.414 1.647-1.234 2.015-2.268l8.592-24.16c1.215-3.413 5.508-3.413 6.721 0z" fill="#f7c4db"/><path d="m322.235 1.899 6.374 17.921c.273.767.813 1.375 1.495 1.682l15.923 7.174c2.249 1.014 2.249 4.598 0 5.611l-15.923 7.174c-.682.307-1.222.915-1.495 1.683l-6.374 17.921c-.9 2.532-4.085 2.532-4.985 0l-6.374-17.921c-.273-.767-.813-1.375-1.495-1.683l-15.923-7.174c-2.249-1.014-2.249-4.598 0-5.611l15.923-7.174c.682-.307 1.222-.915 1.495-1.682l6.374-17.921c.9-2.532 4.084-2.532 4.985 0z" fill="#f7c4db"/><g fill="#ef8bbd"><circle cx="27.303" cy="49.743" r="12.748"/><path d="m411.258 55.825c0 5.468-4.433 9.901-9.901 9.901s-9.901-4.433-9.901-9.901 4.433-9.901 9.901-9.901 9.901 4.432 9.901 9.901z"/></g></g></svg>