<svg id="Capa_1" enable-background="new 0 0 512 512" height="512" viewBox="0 0 512 512" width="512" xmlns="http://www.w3.org/2000/svg"><g><g><path d="m49.683 511.724s-37.561-23.903-37.561-58.049 29.878-48.659 29.878-48.659-52.593-24.738-36.177-98.257c16.415-73.519 69.206-78.503 69.206-78.503s-6.454-101.757 88.703-47.146c0 0-6.068-136.715 84.829-79.904l-8.424 241.88z" fill="#fef2a8"/><path d="m49.683 511.724 125.474-111.101c-6.917-5.621-35.929-77.647-38.974-73.732-85.625 110.089-127.869 31.879-133.014 10.442-.133.899-.23 1.77-.337 2.65 2.864 47.95 39.168 65.033 39.168 65.033s-29.878 14.512-29.878 48.659c0 34.146 37.561 58.049 37.561 58.049z" fill="#eeb6a8"/><path d="m49.652 512c12.469-45.388 34.903-92.705 70.492-121.509-6.688-18.951-10.304-39.393-10.304-70.351l-1.136-61.595c0-22.043 6.694-42.522 18.16-59.515-5.261-5.354-9.711-12.573-12.852-21.7-9.565-27.796 7.934-66.548 16.589-69.526 8.656-2.979 46.295 16.8 55.86 44.596.378 1.098.713 2.183 1.028 3.261 8.852-2.383 18.157-3.661 27.761-3.661h65.753c4.91 0 9.628.374 14.16 1.062.673-6.042 2.529-12.496 5.755-19.215 12.592-26.223 51.858-41.343 60.023-37.422s20.916 44.019 8.325 70.241c-4.166 8.676-9.417 15.297-15.256 19.961 11.58 13.129 19.253 27.5 23.181 38.302 9.479 26.068 14.219 61.614 14.219 61.614 25.678 24.173 33.847 57.248 23.572 86.017-8.478 23.737-25.21 41.141-47.475 52.561-19.57 10.038-49.151 18.767-66.542 17.255 6.897 19.437 12.591 46.737 16.02 69.625h-267.333z" fill="#b2e7f1"/><path d="m391.411 286.542s-4.74-35.546-14.219-61.614c-3.928-10.802-11.601-25.173-23.181-38.302 5.839-4.665 11.09-11.285 15.256-19.961 12.592-26.223-.159-66.32-8.325-70.242-3.857-1.852-14.656.549-26.303 6.358 2.481.695 4.837 1.376 5.069 1.428 7.996 1.781 15.249 31.935 9.533 57.614-1.891 8.496-5.159 15.404-9.347 20.71 12.891 9.191-.748 21.314 4.926 30.024 13.693 21.019 14.607 77.116 14.607 77.116 25.074 24.291 24.183 45.968 21.156 59.943-4.824 22.279-14.496 38.395-35.247 51.2-14.726 9.087-38.241 9.503-51.729 14.62-10.455 3.966-19.492 10.029-18.715 21.505.693 10.23 1.084 18.065.301 32.561-.727 13.442-11.479 24.84-24.926 24.212l-194.777-.832c-2.145 6.373-4.093 12.764-5.838 19.118h267.335c-3.429-22.888-6.355-48.363-16.02-69.625 17.392 1.512 46.972-7.217 66.542-17.255 22.265-11.421 38.997-28.824 47.475-52.561 10.274-28.769 2.105-61.844-23.573-86.017z" fill="#a7adf1"/><path d="m219.079 169.722c.035-.474.091-.95.195-1.43.665-18.483 6.282-34.487 19.127-46.869.32-20.683 5.809-36.782 18.908-46.333 6.615-22.867 16.873-47.262 29.68-72.727 1.602-3.925 7.458-2.658 7.294 1.578 1.574 22.924 1.676 44.221-2.361 60.949 5.536 13.612 5.626 27.332-1.597 41.231 4.476 13.767 4.673 28.07-1.669 43.097 6.701 14.467 1.692 27.683-.116 33.944-7.433 21.011-71.005 7.577-69.461-13.44z" fill="#f7c4db"/><path d="m219.079 169.722c.035-.474.091-.95.195-1.43.472-13.127 3.46-24.993 9.743-35.209-.765 3.748-.907 7.779-1.301 11.729-1.359 17.932 54.601 29.395 61.144 11.468.307-1.031.72-2.285 1.142-3.724 4.59 13.135.206 24.831-1.463 30.607-7.432 21.01-71.004 7.576-69.46-13.441z" fill="#e893db"/><g><g><path d="m256.008 84.988c-2.65 0-5.123-1.671-6.019-4.321-1.124-3.325.66-6.931 3.984-8.055l35.914-12.144c3.32-1.123 6.931.659 8.055 3.984s-.659 6.931-3.984 8.055l-35.914 12.144c-.674.229-1.361.337-2.036.337z" fill="#c56cb7"/></g><g><path d="m238.747 129.736c-2.657 0-5.135-1.68-6.025-4.34-1.113-3.328.682-6.928 4.01-8.042l51.576-17.258c3.33-1.114 6.929.682 8.042 4.01 1.114 3.328-.682 6.929-4.009 8.042l-51.577 17.258c-.668.224-1.348.33-2.017.33z" fill="#c56cb7"/></g><g><path d="m223.172 174.871c-2.745 0-5.277-1.793-6.093-4.56-.992-3.366.933-6.9 4.299-7.891l65.481-19.296c3.367-.989 6.899.933 7.891 4.299.993 3.366-.932 6.9-4.298 7.891l-65.482 19.296c-.599.176-1.204.261-1.798.261z" fill="#c56cb7"/></g></g><path d="m379.52 189.579c-14.774-8.531-25.732-22.147-31.766-38.104-1.714-4.533-4.13-8.905-7.279-12.972-15.04-19.421-42.477-24.927-63.834-12.791-25.472 14.474-32.879 47.205-16.868 71.096 13.785 20.57 35.996 29.148 56.545 28.494 11.971-.381 39.577-7.746 60.538-13.828 10.148-2.945 11.814-16.612 2.664-21.895z" fill="#fef2a8"/><path d="m259.774 196.808c13.785 20.569 35.996 29.148 56.545 28.494 11.971-.381 39.577-7.746 60.538-13.828 10.146-2.944 11.813-16.611 2.663-21.894-14.774-8.531-25.732-22.148-31.766-38.104-1.714-4.533-4.13-8.906-7.279-12.972-15.041-19.421-42.477-24.927-63.834-12.791-25.471 14.474-32.877 47.204-16.867 71.095zm37.29-72.09c17.189-5.767 36.136 1.813 44.085 17.623 1.664 3.31 2.755 6.741 3.316 10.19 1.975 12.144 7.846 23.285 17.221 31.321 5.806 4.977 2.574 14.465-5.173 15.2-16.004 1.519-36.986 3.061-45.666 1.731-14.901-2.283-29.626-11.347-36.5-27.805-7.984-19.116 2.216-41.382 22.717-48.26z" fill="#eeb6a8"/><g fill="#95cde6"><circle cx="333.93" cy="292.538" r="13.068"/><circle cx="201.366" cy="292.538" r="13.068"/></g><g><path d="m296.334 335.737c-2.205 0-4.347-1.148-5.521-3.198-1.228-2.145-3.486-3.472-5.989-3.385-2.06.047-3.956 1.019-5.202 2.664-2.118 2.798-6.103 3.348-8.902 1.231-2.798-2.119-3.349-6.104-1.23-8.902 3.6-4.755 9.082-7.561 15.04-7.699 7.109-.132 13.765 3.58 17.312 9.775 1.744 3.046.689 6.928-2.357 8.672-.996.571-2.081.842-3.151.842z" fill="#95cde6"/></g><g><path d="m324.92 174.613c-3.906 0-7.663-2.169-9.507-5.91-2.448-4.964-5.546-8.248-8.187-10.351-3.282-2.613-4.598-6.993-3.469-11.033 2.05-7.338 10.922-10.167 16.868-5.404 4.614 3.697 9.604 9.12 13.559 16.967 2.539 5.038 1.015 11.344-3.835 14.227-1.72 1.023-3.592 1.504-5.429 1.504z" fill="#fff"/></g><path d="m376.984 435.214c0 36.065-33.631 57.644-62.834 57.644-.459-4.277-11.863-46.521-13.184-50.483-.709-2.126 23.945 2.473 25.869-13.203 1.198-9.762-19.022-48.598 8.011-57.832s42.138 27.809 42.138 63.874z" fill="#b2e7f1"/><path d="m374.444 409.934c-5.342-25.793-19.001-45.63-39.598-38.595-22.381 7.645-12.412 35.728-8.937 50.543 16.125-3.934 32.597-7.309 48.535-11.948z" fill="#fef2a8"/><ellipse cx="464.992" cy="207.613" fill="#95cde6" rx="11.782" ry="11.782" transform="matrix(.973 -.23 .23 .973 -35.261 112.387)"/><g><g><path d="m464.992 182.473c-5.849 0-10.591-4.741-10.591-10.591v-35.31c0-5.849 4.742-10.591 10.591-10.591 6.413 0 12.382-2.566 16.807-7.226 4.421-4.657 6.672-10.765 6.339-17.2-.626-12.05-10.58-21.681-22.662-21.925-11.751-.23-21.818 8.33-23.436 19.927-.149 1.065-.224 2.156-.224 3.246 0 5.849-4.742 10.591-10.591 10.591s-10.591-4.741-10.591-10.591c0-2.067.144-4.146.428-6.176 3.101-22.215 22.414-38.642 44.84-38.174 23.131.466 42.19 18.917 43.389 42.004.638 12.294-3.671 23.971-12.131 32.882-5.866 6.178-13.408 10.504-21.577 12.527v26.015c0 5.851-4.742 10.592-10.591 10.592z" fill="#95cde6"/></g></g><g><path d="m193.54 259.246c-1.787 0-3.562-.749-4.819-2.209-2.29-2.66-1.99-6.671.67-8.961 7.245-6.238 18.156-6.233 25.381.007 2.656 2.294 2.949 6.307.655 8.963-2.295 2.655-6.307 2.948-8.963.655-2.455-2.122-6.312-2.117-8.782.007-1.199 1.033-2.674 1.538-4.142 1.538z" fill="#95cde6"/></g><g><path d="m328.37 261.732c-4.369 0-8.74-1.447-12.296-4.362-2.714-2.225-3.11-6.229-.884-8.943 2.225-2.713 6.226-3.112 8.943-.885 2.509 2.058 6.366 1.956 8.777-.233 2.601-2.358 6.618-2.161 8.976.437 2.358 2.6 2.162 6.618-.438 8.976-3.672 3.332-8.373 5.01-13.078 5.01z" fill="#95cde6"/></g></g><path d="m64.331 3.715 6.453 18.146c.276.777.823 1.392 1.514 1.704l16.122 7.263c2.278 1.026 2.278 4.655 0 5.681l-16.122 7.263c-.69.311-1.237.927-1.514 1.703l-6.453 18.146c-.912 2.564-4.136 2.564-5.048 0l-6.453-18.146c-.276-.777-.823-1.392-1.514-1.703l-16.122-7.263c-2.278-1.026-2.278-4.655 0-5.681l16.122-7.263c.69-.311 1.237-.927 1.514-1.704l6.453-18.146c.913-2.563 4.137-2.563 5.048 0z" fill="#f7c4db"/><g fill="#ef8bbd"><ellipse cx="15.564" cy="114.162" rx="12.907" ry="12.907" transform="matrix(.16 -.987 .987 .16 -99.618 111.238)"/><ellipse cx="398.697" cy="40.484" rx="10.025" ry="10.025" transform="matrix(.973 -.23 .23 .973 1.364 92.685)"/></g></g></svg>