<svg id="Capa_1" enable-background="new 0 0 512 512" height="512" viewBox="0 0 512 512" width="512" xmlns="http://www.w3.org/2000/svg"><g><g><path d="m399.153 507.119s36.663-23.331 36.663-56.661-29.164-47.495-29.164-47.495 51.335-24.147 35.312-95.909-67.552-76.626-67.552-76.626 6.299-99.325-86.582-46.019c0 0 5.923-133.447-82.801-77.994l8.223 236.098z" fill="#bdf4e3"/><path d="m406.653 402.962s51.335-24.146 35.312-95.909c-2.882-12.906-8.587-30.951-18.436-43.873 20.332 102.857-51.676 155.936-128.22 100.92-4.108-2.952-14.921 34.138-19.853 33.491l123.727 109.797s36.633-23.6 36.633-56.931c.001-33.329-29.163-47.495-29.163-47.495z" fill="#b1b7e3"/><path d="m399.184 507.389c-12.171-44.303-34.068-90.489-68.807-118.605 6.529-18.498 10.058-38.451 10.058-68.669l1.109-60.123c0-21.516-6.534-41.505-17.726-58.093 5.135-5.226 9.479-12.273 12.544-21.182 9.336-27.132-7.744-64.957-16.193-67.864s-45.188 16.399-54.525 43.53c-.369 1.072-.695 2.13-1.003 3.182-8.64-2.326-17.723-3.574-27.098-3.574h-64.181c-4.793 0-9.398.365-13.822 1.037-.657-5.898-2.469-12.197-5.618-18.755-12.291-25.596-50.618-40.354-58.589-36.527-7.97 3.828-20.416 42.966-8.126 68.563 4.066 8.469 9.191 14.931 14.891 19.484-11.303 12.815-18.793 26.843-22.627 37.386-9.252 25.445-13.879 60.141-13.879 60.141-25.064 23.595-33.038 55.88-23.009 83.96 8.275 23.17 24.607 40.158 46.34 51.305 19.102 9.798 50.101 13.31 67.077 11.833-9.434 20.753-14.416 50.629-17.763 72.97h260.947z" fill="#e7effa"/><path d="m330.377 388.784c6.529-18.498 10.058-38.451 10.058-68.669l1.109-60.123c0-21.516-6.534-41.505-17.726-58.093 5.135-5.226 9.479-12.273 12.544-21.182 9.336-27.132-7.665-65.198-16.193-67.864-3.638-1.138-5.284-.521-16.146 4.128 6.651 12.479 11.504 30.914 9.821 51.104-1.059 12.712-17.499 26.163-21.799 31.136 9.371 15.782 16.545 68.873 16.545 89.344l-.281 15.264c0 20.953-8.986 49.435-13.854 68.958-2.839 11.386-4.424 21.617 4.085 29.697 11.441 10.863 20.303 21.317 27.923 40.55 8.484 21.41-7.371 44.63-30.4 44.63h-154.64c-1.221 6.909-2.267 13.603-3.184 19.724h260.945c-12.171-44.303-34.068-90.488-68.807-118.604z" fill="#dcb6f5"/><path d="m233.807 173.292c-.034-.462-.089-.927-.19-1.396-.649-18.042-6.132-33.662-18.67-45.749-.312-20.189-5.67-35.903-18.456-45.225-6.457-22.32-16.47-46.132-28.97-70.988-1.564-3.832-7.28-2.595-7.12 1.54-1.537 22.376-1.636 43.164 2.304 59.492-5.404 13.286-5.491 26.679 1.559 40.246-4.369 13.438-4.561 27.399 1.63 42.067-6.54 14.121-1.652 27.021.114 33.132 7.254 20.509 69.306 7.396 67.799-13.119z" fill="#ffe266"/><path d="m233.807 173.292c-.034-.462-.089-.927-.19-1.396-.461-12.813-3.377-24.396-9.51-34.368.603 3.305.971 6.724 1.102 10.258.089.4.138.797.168 1.191 1.327 17.504-53.296 28.692-59.682 11.194-.3-1.006-.702-2.231-1.115-3.634-4.48 12.821-.201 24.238 1.428 29.875 7.254 20.508 69.306 7.395 67.799-13.12z" fill="#efaa66"/><g><g><path d="m197.761 90.586c-.659 0-1.33-.106-1.988-.329l-35.056-11.855c-3.246-1.097-4.986-4.618-3.889-7.862 1.096-3.245 4.622-4.987 7.862-3.889l35.056 11.855c3.246 1.097 4.986 4.618 3.889 7.862-.874 2.586-3.288 4.218-5.874 4.218z" fill="#d0844b"/></g><g><path d="m214.608 134.263c-.653 0-1.316-.104-1.97-.323l-50.343-16.846c-3.249-1.086-5-4.601-3.913-7.85 1.087-3.25 4.605-5.002 7.85-3.913l50.343 16.846c3.249 1.086 5 4.601 3.913 7.85-.868 2.595-3.287 4.236-5.88 4.236z" fill="#d0844b"/></g><g><path d="m233.81 179.496c-.581 0-1.171-.083-1.757-.255l-67.914-20.013c-3.286-.968-5.165-4.417-4.196-7.703.968-3.286 4.421-5.164 7.703-4.196l67.914 20.013c3.286.968 5.165 4.417 4.196 7.703-.796 2.701-3.267 4.451-5.946 4.451z" fill="#d0844b"/></g></g><path d="m77.2 192.675c14.421-8.327 25.117-21.618 31.006-37.193 1.673-4.424 4.031-8.693 7.105-12.662 14.681-18.957 41.462-24.331 62.308-12.485 24.863 14.128 32.093 46.077 16.465 69.397-13.456 20.078-35.135 28.451-55.193 27.812-11.685-.372-38.631-7.561-59.091-13.498-9.904-2.874-11.531-16.214-2.6-21.371z" fill="#bdf4e3"/><path d="m177.619 130.335c-20.846-11.845-47.627-6.471-62.308 12.485-3.074 3.969-5.432 8.237-7.105 12.662-5.89 15.575-16.586 28.867-31.007 37.194-8.931 5.157-7.304 18.497 2.6 21.371 20.46 5.937 47.406 13.126 59.091 13.498 20.058.638 41.738-7.735 55.193-27.813 15.629-23.321 8.4-55.269-16.464-69.397zm2.241 46.136c-6.709 16.065-21.083 24.913-35.628 27.141-8.473 1.298-28.953-.207-44.575-1.689-7.562-.718-10.716-9.979-5.049-14.837 9.151-7.844 14.881-18.718 16.809-30.572.547-3.367 1.612-6.715 3.236-9.947 7.759-15.432 26.253-22.831 43.031-17.201 20.013 6.712 29.969 28.446 22.176 47.105z" fill="#b1b7e3"/><g><path d="m130.496 178.066c-1.791 0-3.614-.467-5.29-1.462-4.74-2.813-6.232-8.975-3.75-13.897 3.86-7.656 8.73-12.948 13.232-16.556 5.804-4.65 14.464-1.889 16.465 5.274 1.102 3.944-.182 8.219-3.386 10.77-2.578 2.052-5.602 5.258-7.992 10.104-1.8 3.65-5.466 5.767-9.279 5.767z" fill="#fff"/></g><path d="m270.688 403.606c33.856 9.646 50.546 37.764 42.735 65.178-4.16-1.972-45.302-3.347-49.357-2.928-6.722.694 4.628-8.26-12.463-16.79-8.59-4.287-50.709 4.858-52.147-22.988s37.376-32.118 71.232-22.472z" fill="#e7effa"/><g><path d="m323.298 512c-.427 0-.86-.044-1.294-.136-3.351-.711-5.491-4.004-4.779-7.355 1.43-6.736 12.257-66.426-47.022-87.979-7.402-2.691-21.143-4.702-28.484-4.702-3.425 0-6.202-2.777-6.202-6.202s2.777-6.203 6.202-6.203c8.566 0 23.758 2.19 32.723 5.449 24.788 9.012 42.44 25.655 51.05 48.129 8.913 23.269 5.673 45.574 3.867 54.084-.618 2.916-3.194 4.915-6.061 4.915z" fill="#ad99c9"/></g><g><path d="m266.829 511.831c-3.422 0-6.199-2.772-6.203-6.194-.001-.684.08-1.467.314-3.63 4.347-40.19-2.824-48.716-5.895-50.867-3.383-2.37-6.393-3.135-12.814-3.743-3.413-.294-5.942-3.299-5.647-6.711.293-3.414 3.304-5.952 6.711-5.647 9.072.908 13.307 2.753 17.574 4.96 16.798 8.685 14.87 40.544 12.405 63.343-.104.964-.222 2.051-.243 2.391-.054 3.375-2.804 6.096-6.193 6.1-.004-.002-.006-.002-.009-.002z" fill="#ad99c9"/></g><path d="m246.277 399.228c-25.642-1.884-47.917 5.633-46.821 26.85 1.191 23.055 30.266 20.753 45.112 21.712.619-16.19 1.801-32.359 1.709-48.562z" fill="#78eac4"/><path d="m127.446 403.606c-29.535 8.415-54.001 68.563-56.097 101.988 0 0 59.018-.383 63.073.036 6.723.694-4.982-48.033 12.109-56.563 8.59-4.287 50.709 4.858 52.147-22.988 1.437-27.847-37.376-32.119-71.232-22.473z" fill="#e7effa"/><g><path d="m104.48 432.098c-1.529 0-3.059-.561-4.258-1.693-2.491-2.352-2.603-6.278-.25-8.769 12.834-13.589 28.233-20.434 49.931-22.194 3.408-.286 6.407 2.265 6.684 5.681.277 3.414-2.266 6.408-5.681 6.684-18.664 1.514-31.199 7.001-41.915 18.348-1.221 1.291-2.864 1.943-4.511 1.943z" fill="#ad99c9"/></g><g><path d="m135.138 507.852c-.013 0-.025 0-.038 0-3.415-.02-6.17-2.774-6.165-6.189.002-1.435.835-16.189 3.882-31.552 4.396-22.163 10.874-33.284 20.387-34.998 3.374-.612 6.595 1.633 7.204 5.005.607 3.371-1.633 6.596-5.005 7.204-1.555.28-6.45 5.319-10.381 25.015-2.808 14.076-3.668 27.988-3.682 29.356-.037 3.401-2.805 6.159-6.202 6.159z" fill="#ad99c9"/></g><path d="m151.856 399.228c25.642-1.884 47.917 5.633 46.821 26.85-1.191 23.055-30.266 20.753-45.112 21.712-.619-16.19-1.8-32.359-1.709-48.562z" fill="#78eac4"/><g><path d="m142.349 281.111c-.881 0-1.777-.189-2.628-.587l-15.863-7.432c-3.101-1.454-4.438-5.147-2.985-8.249 1.454-3.102 5.146-4.437 8.249-2.985l15.863 7.432c3.101 1.454 4.438 5.146 2.985 8.249-1.055 2.252-3.289 3.572-5.621 3.572z" fill="#ad99c9"/></g><g><path d="m230.666 281.85c-2.332 0-4.566-1.32-5.621-3.572-1.453-3.102-.116-6.795 2.985-8.249l15.863-7.432c3.104-1.449 6.796-.116 8.249 2.985 1.453 3.102.116 6.795-2.985 8.249l-15.863 7.432c-.851.399-1.747.587-2.628.587z" fill="#ad99c9"/></g><g fill="#ffe266"><path d="m122.38 289.177 12.03 21.996 21.997 12.03-21.997 12.03-12.03 21.996-12.03-21.996-21.996-12.03 21.996-12.03z"/><path d="m251.014 289.177 12.031 21.996 21.996 12.03-21.996 12.03-12.031 21.996-12.03-21.996-21.996-12.03 21.996-12.03z"/></g></g><path d="m471.01 102.978 8.492 23.877c.363 1.022 1.083 1.832 1.992 2.242l21.214 9.558c2.997 1.35 2.997 6.125 0 7.476l-21.214 9.558c-.908.409-1.628 1.219-1.992 2.242l-8.492 23.877c-1.2 3.373-5.442 3.373-6.642 0l-8.492-23.877c-.363-1.022-1.083-1.832-1.992-2.242l-21.214-9.558c-2.997-1.35-2.997-6.125 0-7.476l21.214-9.558c.909-.409 1.628-1.219 1.992-2.242l8.492-23.877c1.2-3.373 5.442-3.373 6.642 0z" fill="#fef2a8"/><path d="m67.246 1.877 6.299 17.712c.27.758.804 1.359 1.477 1.663l15.736 7.09c2.223 1.002 2.223 4.544 0 5.545l-15.736 7.09c-.674.303-1.208.904-1.477 1.663l-6.299 17.712c-.89 2.502-4.037 2.502-4.927 0l-6.299-17.713c-.27-.758-.804-1.359-1.477-1.663l-15.736-7.09c-2.223-1.002-2.223-4.544 0-5.545l15.736-7.09c.674-.304 1.208-.905 1.477-1.663l6.299-17.712c.89-2.502 4.037-2.502 4.927.001z" fill="#fef2a8"/><circle cx="19.644" cy="109.684" fill="#ffe266" r="12.599"/><ellipse cx="308.967" cy="56.073" fill="#ffe266" rx="9.785" ry="9.785" transform="matrix(.924 -.383 .383 .924 2.061 122.505)"/><path d="m422.484 16.561 6.299 17.712c.27.758.804 1.359 1.477 1.663l15.736 7.09c2.223 1.002 2.223 4.544 0 5.545l-15.736 7.09c-.674.304-1.208.904-1.477 1.663l-6.299 17.712c-.89 2.502-4.037 2.502-4.927 0l-6.299-17.712c-.27-.758-.804-1.359-1.477-1.663l-15.736-7.09c-2.223-1.002-2.223-4.544 0-5.545l15.736-7.09c.674-.303 1.208-.904 1.477-1.663l6.299-17.712c.89-2.502 4.037-2.502 4.927 0z" fill="#fef2a8"/></g></svg>