<svg id="Capa_1" enable-background="new 0 0 512 512" height="512" viewBox="0 0 512 512" width="512" xmlns="http://www.w3.org/2000/svg"><g><g><path d="m457.523 511.729s36.888-23.474 36.888-57.009-29.343-47.787-29.343-47.787 51.65-24.295 35.529-96.497-67.966-77.096-67.966-77.096 6.338-99.934-87.113-46.301c0 0 5.96-134.266-83.309-78.473l8.273 237.547z" fill="#bdf4e3"/><path d="m503.699 335.334c-.839-24.083-7.495-51.237-24.841-73.321 14.529 97.951-51.222 159.435-125.816 105.821-4.133-2.97-15.013 34.347-19.975 33.697l124.456 110.199c19.402-11.628 48.604-46.666 32.303-78.623-8.253-18.156-24.758-26.173-24.758-26.173 0-.001 39.534-18.597 38.631-71.6z" fill="#b1b7e3"/><path d="m458.114 510.181c-12.342-44.016-34.247-89.61-68.724-117.514 6.569-18.611 10.12-38.687 10.12-69.091l1.116-60.492c0-21.648-6.574-41.76-17.834-58.449 5.167-5.258 9.537-12.348 12.621-21.311 9.393-27.298-7.792-65.356-16.292-68.281s-45.465 16.499-54.859 43.797c-.371 1.079-.7 2.144-1.009 3.202-8.693-2.34-17.831-3.596-27.264-3.596h-64.575c-4.822 0-9.455.367-13.907 1.043-.66-5.934-2.484-12.272-5.652-18.871-12.367-25.753-50.929-40.602-58.948-36.751s-20.542 43.23-8.175 68.983c4.092 8.521 9.248 15.022 14.982 19.603-11.373 12.894-18.908 27.007-22.766 37.616-9.309 25.601-13.964 60.51-13.964 60.51-25.218 23.74-33.24 56.222-23.15 84.475 8.326 23.312 24.758 40.404 46.624 51.62 19.219 9.858 50.409 13.391 67.488 11.906-9.492 20.881-14.504 50.939-17.872 73.417h260.655c.949.003 1.642-.902 1.385-1.816z" fill="#e7effa"/><path d="m389.39 392.668c6.569-18.611 10.12-38.687 10.12-69.091l1.116-60.492c0-21.648-6.574-41.76-17.834-58.449 5.167-5.258 9.537-12.348 12.621-21.311 9.393-27.298-7.792-65.356-16.292-68.281-3.231-1.112-10.575 1.012-18.953 5.562 6.344 12.591 13.102 31.073 11.524 50.009-1.066 12.79-17.607 26.324-21.933 31.327 9.428 15.879 16.646 69.295 16.646 89.892l-.282 15.358c0 21.081-9.042 49.738-13.939 69.381-2.856 11.455-4.451 21.75 4.11 29.879 11.515 10.933 20.433 21.454 28.102 40.816 8.53 21.536-7.431 44.886-30.594 44.886h-154.525c-1.228 6.952-2.28 13.687-3.203 19.845h260.655c.949 0 1.642-.905 1.385-1.819-12.342-44.015-34.247-89.608-68.724-117.512z" fill="#dcb6f5"/><path d="m291.162 175.854c-.034-.465-.09-.933-.192-1.405-.653-18.152-6.169-33.869-18.784-46.029-.314-20.313-5.705-36.123-18.57-45.503-6.497-22.457-16.571-46.415-29.148-71.424-1.573-3.855-7.324-2.611-7.163 1.55-1.546 22.513-1.646 43.429 2.319 59.857-5.437 13.368-5.525 26.843 1.569 40.493-4.396 13.52-4.589 27.567 1.639 42.325-6.581 14.207-1.662 27.187.115 33.336 7.298 20.634 69.731 7.441 68.215-13.2z" fill="#ffe266"/><path d="m291.162 175.854c-.034-.465-.09-.933-.192-1.405-.464-12.891-3.398-24.546-9.568-34.579.607 3.325.977 6.765 1.109 10.321.09.403.139.802.169 1.198 1.335 17.611-53.623 28.868-60.048 11.262-.302-1.013-.707-2.244-1.122-3.657-4.507 12.9-.202 24.386 1.437 30.058 7.298 20.636 69.731 7.443 68.215-13.198z" fill="#efaa66"/><g><g><path d="m254.894 92.639c-.663 0-1.337-.106-1.999-.33l-35.271-11.927c-3.265-1.104-5.017-4.646-3.913-7.911s4.647-5.016 7.911-3.913l35.271 11.927c3.265 1.104 5.017 4.646 3.913 7.911-.881 2.602-3.309 4.243-5.912 4.243z" fill="#d0844b"/></g><g><path d="m271.846 136.584c-.657 0-1.324-.104-1.982-.324l-50.652-16.949c-3.269-1.093-5.031-4.63-3.938-7.898 1.094-3.268 4.632-5.032 7.898-3.938l50.653 16.949c3.267 1.093 5.031 4.63 3.937 7.898-.873 2.612-3.307 4.262-5.916 4.262z" fill="#d0844b"/></g><g><path d="m288.6 181.34c-.585 0-1.178-.082-1.767-.256l-65.765-19.38c-3.306-.974-5.196-4.444-4.222-7.75s4.444-5.196 7.75-4.222l65.766 19.38c3.306.974 5.196 4.444 4.221 7.75-.801 2.718-3.287 4.478-5.983 4.478z" fill="#d0844b"/></g></g><path d="m133.595 195.356c14.509-8.378 25.271-21.75 31.197-37.422 1.683-4.451 4.056-8.746 7.148-12.739 14.771-19.073 41.716-24.48 62.69-12.562 25.016 14.215 32.29 46.359 16.566 69.822-13.538 20.201-35.351 28.626-55.532 27.983-11.757-.374-38.868-7.607-59.453-13.581-9.965-2.89-11.602-16.313-2.616-21.501z" fill="#bdf4e3"/><path d="m234.63 132.633c-20.974-11.918-47.919-6.511-62.69 12.562-3.093 3.993-5.465 8.288-7.148 12.74-5.926 15.671-16.688 29.044-31.197 37.422-8.985 5.188-7.349 18.611 2.616 21.502 20.585 5.973 47.696 13.206 59.453 13.581 20.181.642 41.994-7.783 55.532-27.984 15.723-23.464 8.45-55.608-16.566-69.823zm2.254 46.419c-6.75 16.163-21.212 25.065-35.846 27.307-8.525 1.306-29.131-.208-44.848-1.7-7.608-.722-10.782-10.04-5.08-14.928 9.207-7.892 14.972-18.833 16.912-30.76.551-3.388 1.622-6.757 3.256-10.008 7.806-15.526 26.414-22.971 43.295-17.307 20.135 6.756 30.152 28.623 22.311 47.396z" fill="#b1b7e3"/><g fill="#ad99c9"><ellipse cx="178.368" cy="296.47" rx="12.834" ry="12.834" transform="matrix(.23 -.973 .973 .23 -151.152 401.952)"/><ellipse cx="308.557" cy="296.47" rx="12.834" ry="12.834" transform="matrix(.707 -.707 .707 .707 -119.262 305.017)"/></g><g><path d="m187.217 180.657c-1.805 0-3.642-.472-5.33-1.475-4.765-2.833-6.261-9.03-3.765-13.98 3.884-7.702 8.784-13.027 13.314-16.656 5.839-4.678 14.552-1.899 16.565 5.307 1.109 3.968-.183 8.27-3.407 10.836-2.594 2.064-5.636 5.29-8.04 10.165-1.812 3.673-5.501 5.803-9.337 5.803z" fill="#fff"/></g><path d="m260.887 326.113c5.965-.016 10.263 5.764 8.488 11.458-4.349 13.947-16.473 23.999-30.776 24.037s-26.48-9.948-30.905-23.871c-1.806-5.685 2.462-11.488 8.426-11.504z" fill="#ef8bbd"/><g><path d="m348.233 495.474c-.591 0-1.193-.085-1.789-.263-5.282-1.578-10.023-2.989-14.327-4.269-28.699-8.537-38.368-11.414-59.214-19.815-3.198-1.288-4.744-4.924-3.457-8.121 1.289-3.197 4.927-4.742 8.121-3.456 20.304 8.182 29.068 10.789 58.108 19.428 4.309 1.281 9.055 2.693 14.342 4.273 3.302.987 5.179 4.464 4.193 7.766-.808 2.708-3.29 4.457-5.977 4.457z" fill="#ad99c9"/></g><g><path d="m361.156 453.043c-.591 0-1.192-.085-1.789-.263-6.92-2.068-13.288-4.028-19.446-5.924-20.679-6.367-37.013-11.396-53.357-13.983-3.404-.539-5.727-3.735-5.187-7.139.539-3.405 3.739-5.724 7.139-5.188 17.217 2.726 33.925 7.87 55.077 14.383 6.134 1.888 12.476 3.841 19.346 5.895 3.302.987 5.179 4.464 4.193 7.766-.808 2.704-3.29 4.453-5.976 4.453z" fill="#ad99c9"/></g><path d="m288.517 420.545c-2.23-.431-4.341-1.186-6.455-1.52 0-.043.001-.086.001-.129 0-20.18-.055-35.084-14.186-36.54-12.018-1.238-13.853 11.466-14.134 27.706-2.724-2.255-5.922-3.749-9.451-4.227-12.469-1.691-24.336 9.908-26.505 25.906s6.18 30.338 18.649 32.028c5.169.701 16.049.786 18.518 1.845 10.35 4.171 5.497 1.53 17.896 5.532z" fill="#78eac4"/></g><path d="m477.702 36.09 8.544 24.024c.366 1.028 1.09 1.844 2.004 2.255l21.344 9.617c3.015 1.358 3.015 6.163 0 7.521l-21.344 9.616c-.914.412-1.638 1.227-2.004 2.256l-8.544 24.024c-1.207 3.394-5.476 3.394-6.683 0l-8.544-24.024c-.366-1.029-1.09-1.844-2.004-2.256l-21.344-9.616c-3.015-1.359-3.015-6.163 0-7.521l21.344-9.617c.914-.412 1.638-1.227 2.004-2.255l8.544-24.024c1.208-3.394 5.476-3.394 6.683 0z" fill="#fef2a8"/><path d="m72.071 38.869 6.338 17.82c.271.763.809 1.368 1.486 1.673l15.833 7.133c2.237 1.008 2.237 4.572 0 5.579l-15.833 7.133c-.678.305-1.215.91-1.486 1.673l-6.338 17.82c-.895 2.518-4.062 2.518-4.957 0l-6.338-17.82c-.271-.763-.808-1.368-1.486-1.673l-15.833-7.133c-2.237-1.008-2.237-4.572 0-5.579l15.833-7.133c.678-.305 1.215-.91 1.486-1.673l6.338-17.82c.895-2.517 4.062-2.517 4.957 0z" fill="#fef2a8"/><g fill="#ffe266"><path d="m408.371 9.845c0 5.438-4.408 9.845-9.845 9.845-5.438 0-9.845-4.408-9.845-9.845s4.408-9.845 9.845-9.845 9.845 4.408 9.845 9.845z"/><ellipse cx="12.82" cy="149.714" rx="12.676" ry="12.676" transform="matrix(.122 -.993 .993 .122 -137.338 144.146)"/></g></g></svg>