<svg id="Capa_1" enable-background="new 0 0 512 512" height="512" viewBox="0 0 512 512" width="512" xmlns="http://www.w3.org/2000/svg"><g><g><path d="m113.606 511.728s-37.002-23.547-37.002-57.186 29.434-47.935 29.434-47.935-51.81-24.37-35.639-96.795 68.176-77.334 68.176-77.334-6.358-100.243 87.383-46.444c0 0-5.978-134.681 83.567-78.715l-8.299 238.281z" fill="#bdf4e3"/><path d="m113.575 512 123.639-109.72c-6.815-5.536-35.395-76.492-38.395-72.635-84.351 108.452-125.966 31.404-131.035 10.286-.132.892-.226 1.759-.331 2.634 2.831 47.219 38.584 64.043 38.584 64.043s-29.434 14.297-29.434 47.934c0 33.639 36.972 57.458 36.972 57.458z" fill="#b1b7e3"/><path d="m113.575 512c12.284-44.713 34.383-91.326 69.444-119.702-6.589-18.669-10.151-38.807-10.151-69.304l-1.119-60.679c0-21.715 6.595-41.889 17.89-58.63-5.183-5.274-9.566-12.386-12.66-21.377-9.423-27.382 7.816-65.558 16.342-68.492 8.527-2.934 45.606 16.55 55.029 43.933.372 1.082.702 2.15 1.012 3.212 8.72-2.348 17.887-3.607 27.348-3.607h64.775c4.837 0 9.484.368 13.95 1.047.663-5.952 2.492-12.31 5.669-18.929 12.405-25.833 51.087-40.727 59.13-36.865 8.044 3.863 20.605 43.364 8.201 69.197-4.104 8.547-9.277 15.069-15.029 19.664 11.408 12.933 18.967 27.091 22.836 37.732 9.338 25.68 14.007 60.697 14.007 60.697 25.296 23.813 33.343 56.397 23.222 84.737-8.352 23.384-24.835 40.529-46.769 51.78-19.279 9.889-50.565 13.433-67.697 11.943 9.521 20.945 14.549 51.097 17.927 73.644h-263.357z" fill="#e7effa"/><path d="m450.25 289.896s-4.669-35.017-14.007-60.697c-3.87-10.641-11.429-24.799-22.837-37.732 5.752-4.595 10.925-11.117 15.029-19.664 12.404-25.832-.157-65.334-8.201-69.197-2.539-1.219-8.134-.564-14.988 1.708-2.911 1.033-6.771 2.379-9.795 4.006 13.105 2.985 18.429 29.872 13.256 58.714-1.863 8.37-5.083 15.175-9.208 20.402 12.7 9.054-.737 20.998 4.853 29.578 13.489 20.706 14.389 75.968 14.389 75.968 24.701 23.93 23.823 45.283 20.842 59.052-4.753 21.947-14.28 37.823-34.723 50.438-14.507 8.952-37.671 9.362-50.96 14.403-10.299 3.906-19.202 9.879-18.436 21.185.682 10.078 1.068 17.796.296 32.077-.716 13.242-11.308 24.47-24.555 23.852l-191.927-.455c-.061.103-.116.198-.176.299-2.025 6.057-3.869 12.13-5.528 18.168h263.358c-3.378-22.547-8.406-52.7-17.927-73.644 17.133 1.49 48.418-2.054 67.697-11.943 21.934-11.25 38.417-28.395 46.769-51.78 10.122-28.342 2.075-60.925-23.221-84.738z" fill="#dcb6f5"/><path d="m280.482 174.814c.034-.467.09-.935.192-1.409.655-18.208 6.188-33.973 18.843-46.171.315-20.376 5.723-36.235 18.627-45.644 6.517-22.527 16.622-46.559 29.238-71.645 1.578-3.867 7.347-2.619 7.186 1.555 1.551 22.583 1.651 43.563-2.326 60.042 5.454 13.409 5.542 26.926-1.573 40.618 4.409 13.562 4.603 27.652-1.645 42.456 6.601 14.251 1.667 27.271-.115 33.439-7.323 20.697-69.948 7.463-68.427-13.241z" fill="#ffe266"/><path d="m280.482 174.814c.034-.467.09-.935.192-1.409.465-12.931 3.408-24.621 9.598-34.685-.609 3.335-.98 6.786-1.112 10.353-.09.404-.139.804-.169 1.202-1.339 17.666 53.789 28.957 60.234 11.297.303-1.016.709-2.251 1.125-3.668 4.521 12.939.203 24.462-1.441 30.151-7.323 20.697-69.948 7.463-68.427-13.241z" fill="#efaa66"/><g><g><path d="m316.861 91.341c-2.611 0-5.047-1.646-5.93-4.257-1.107-3.275.65-6.827 3.925-7.935l35.38-11.964c3.274-1.111 6.828.649 7.935 3.925 1.107 3.275-.65 6.827-3.925 7.935l-35.38 11.964c-.664.225-1.34.332-2.005.332z" fill="#d0844b"/></g><g><path d="m299.858 135.424c-2.618 0-5.059-1.656-5.935-4.275-1.097-3.279.671-6.826 3.95-7.923l50.809-17.002c3.278-1.1 6.825.671 7.923 3.949 1.097 3.279-.672 6.826-3.95 7.923l-50.809 17.002c-.66.221-1.329.326-1.988.326z" fill="#d0844b"/></g><g><path d="m280.479 181.076c-2.704 0-5.199-1.767-6.002-4.492-.977-3.316.919-6.797 4.235-7.774l68.542-20.198c3.317-.975 6.797.919 7.774 4.234.977 3.316-.919 6.797-4.235 7.774l-68.542 20.198c-.591.174-1.186.258-1.772.258z" fill="#d0844b"/></g></g><path d="m438.536 194.376c-14.554-8.404-25.349-21.818-31.293-37.538-1.688-4.465-4.068-8.773-7.171-12.779-14.817-19.132-41.845-24.556-62.884-12.601-25.093 14.259-32.389 46.503-16.617 70.038 13.58 20.264 35.46 28.714 55.704 28.07 11.793-.375 38.988-7.631 59.637-13.623 9.996-2.899 11.638-16.363 2.624-21.567z" fill="#bdf4e3"/><path d="m320.572 201.497c13.58 20.264 35.46 28.714 55.704 28.07 11.793-.376 38.988-7.631 59.637-13.623 9.996-2.9 11.637-16.364 2.624-21.569-14.554-8.404-25.349-21.818-31.293-37.537-1.688-4.465-4.068-8.773-7.17-12.779-14.817-19.132-41.845-24.556-62.884-12.601-25.095 14.26-32.391 46.504-16.618 70.039zm36.734-71.017c16.933-5.682 35.598 1.786 43.429 17.361 1.64 3.261 2.714 6.64 3.266 10.039 1.946 11.964 7.729 22.938 16.965 30.855 5.719 4.903 2.536 14.25-5.096 14.974-15.766 1.497-36.435 3.016-44.987 1.705-14.679-2.249-29.186-11.178-35.957-27.392-7.864-18.832 2.184-40.766 22.38-47.542z" fill="#b1b7e3"/><g><path d="m384.747 179.632c-3.848 0-7.548-2.137-9.365-5.821-2.412-4.891-5.463-8.126-8.065-10.197-3.234-2.574-4.53-6.889-3.418-10.87 2.019-7.229 10.759-10.016 16.617-5.323 4.544 3.64 9.458 8.981 13.353 16.706 2.505 4.968 1.001 11.189-3.783 14.029-1.691 1.005-3.531 1.476-5.339 1.476z" fill="#fff"/></g><g><path d="m247.141 309.289c-3.457 0-6.26-2.803-6.26-6.26v-13.963c0-3.457 2.803-6.26 6.26-6.26h30.718c3.457 0 6.26 2.803 6.26 6.26s-2.803 6.26-6.26 6.26h-24.458v7.703c0 3.457-2.803 6.26-6.26 6.26z" fill="#ad99c9"/></g><g><path d="m378.581 309.289c-3.457 0-6.26-2.803-6.26-6.26v-13.963c0-3.457 2.803-6.26 6.26-6.26h30.717c3.457 0 6.26 2.803 6.26 6.26s-2.803 6.26-6.26 6.26h-24.458v7.703c0 3.457-2.802 6.26-6.259 6.26z" fill="#ad99c9"/></g><g><path d="m259.642 259.089c-1.76 0-3.509-.738-4.747-2.175-2.256-2.62-1.961-6.572.659-8.828 7.137-6.146 17.887-6.143 25.005.007 2.616 2.26 2.904 6.213.644 8.829-2.261 2.615-6.214 2.904-8.83.644-2.418-2.089-6.218-2.086-8.65.007-1.182 1.018-2.635 1.516-4.081 1.516z" fill="#ad99c9"/></g><g><path d="m382.814 259.089c-1.76 0-3.508-.738-4.747-2.175-2.256-2.62-1.961-6.573.659-8.828 7.137-6.145 17.886-6.143 25.005.007 2.616 2.26 2.904 6.213.644 8.829-2.261 2.615-6.214 2.904-8.829.644-2.419-2.089-6.218-2.088-8.65.007-1.183 1.018-2.636 1.516-4.082 1.516z" fill="#ad99c9"/></g><g><path d="m333.266 355.409c-10.482 0-19.009-9.027-19.009-20.122 0-3.457 2.803-6.26 6.26-6.26s6.26 2.803 6.26 6.26c0 4.193 2.911 7.603 6.49 7.603 3.578 0 6.49-3.41 6.49-7.603 0-3.457 2.803-6.26 6.26-6.26s6.26 2.803 6.26 6.26c-.002 11.095-8.529 20.122-19.011 20.122z" fill="#ad99c9"/></g><g fill="#f7c4db"><ellipse cx="410.904" cy="350.926" rx="32.236" ry="26.267"/><ellipse cx="246.514" cy="350.926" rx="32.236" ry="26.267"/></g></g><path d="m152.23 2.553 8.57 24.098c.367 1.032 1.093 1.849 2.01 2.262l21.41 9.646c3.025 1.363 3.025 6.182 0 7.545l-21.41 9.646c-.917.413-1.643 1.231-2.01 2.262l-8.57 24.098c-1.211 3.405-5.493 3.405-6.703 0l-8.57-24.098c-.367-1.032-1.093-1.849-2.01-2.262l-21.41-9.646c-3.025-1.363-3.025-6.182 0-7.545l21.41-9.646c.917-.413 1.643-1.231 2.01-2.262l8.57-24.098c1.21-3.404 5.492-3.404 6.703 0z" fill="#fef2a8"/><path d="m72.282 97.201 6.357 17.876c.272.765.811 1.372 1.491 1.678l15.882 7.155c2.244 1.011 2.244 4.586 0 5.597l-15.882 7.155c-.68.306-1.219.913-1.491 1.678l-6.357 17.875c-.898 2.525-4.074 2.525-4.972 0l-6.357-17.875c-.272-.765-.811-1.372-1.491-1.678l-15.882-7.155c-2.244-1.011-2.244-4.586 0-5.597l15.882-7.155c.68-.306 1.219-.913 1.491-1.678l6.357-17.876c.898-2.526 4.074-2.526 4.972 0z" fill="#fef2a8"/><g fill="#ffe266"><circle cx="467.081" cy="53.307" r="12.715"/><path d="m51.956 235.493c0 5.454-4.422 9.876-9.876 9.876s-9.876-4.421-9.876-9.876c0-5.454 4.421-9.876 9.876-9.876 5.454 0 9.876 4.421 9.876 9.876z"/></g></g></svg>