<svg id="Capa_1" enable-background="new 0 0 512 512" height="512" viewBox="0 0 512 512" width="512" xmlns="http://www.w3.org/2000/svg"><g><g><path d="m156.629 417.518c-29.513-11.045-57.57-22.083-79.888-27.572l-18.019 20.416 1.281 27.628c22.019 11.881 52.967 23.123 83.985 34.731" fill="#fef2a8"/><path d="m29.593 399.432c-4.708 14.187 8.445 26.727 30.543 38.629 10.234-8.442 17.668-35.84 16.604-48.112-24.592-6.048-42.22-5.361-47.147 9.483z" fill="#ef8bbd"/></g><g><path d="m396.666 505.936s39.255-17.191 43.716-48.713-20.475-48.716-20.475-48.716 50.462-16.153 45.325-86.108-51.895-81.264-51.895-81.264 19.089-93.117-73.5-54.795c0 0 23.31-125.437-65.742-84.544l-24.033 224.362z" fill="#f7c4db"/><path d="m419.906 408.507s50.462-16.153 45.325-86.108c-1.193-17.612-5.767-34.004-11.279-44.28 3.592 104.314-72.757 140.45-139.412 74.201-2.844-2.827-13.844 18.549-20.637 26.765l102.763 126.853s39.255-17.191 43.716-48.713c4.46-31.524-20.476-48.718-20.476-48.718z" fill="#e893db"/><path d="m396.666 505.936c-15.233-41.022-39.278-73.081-67.139-94.073l-.01.241c11.288-15.995 20.091-34.202 28.288-63.225l17.375-57.444c5.837-20.665 4.983-41.636-1.266-60.603 6.35-3.626 12.433-9.216 17.794-16.941 16.327-23.526 10.183-64.489 2.857-69.573s-47.849 3.492-64.176 27.018c-.645.93-1.246 1.858-1.827 2.785-7.668-4.578-16.052-8.24-25.057-10.783l-61.643-17.411c-4.603-1.3-9.125-2.199-13.557-2.754.969-5.842.938-12.385-.308-19.537-4.861-27.918-37.669-52.49-46.363-50.976-8.693 1.514-31.265 35.729-26.403 63.647 1.609 9.237 4.778 16.834 9.017 22.753-14.333 9.242-25.331 20.683-31.874 29.77-15.789 21.929-29.644 53.998-29.644 53.998-30.473 15.863-46.889 44.707-44.875 74.398 1.662 24.498 12.74 45.244 30.59 61.847 15.689 14.592 44.509 26.374 61.214 29.561l2.564 1.236c-9.776 32.456-16.033 74.297-15.987 96.069" fill="#fef2a8"/><path d="m396.666 505.936c-15.214-40.971-39.219-73.001-67.037-93.994 11.234-15.956 20.006-34.137 28.175-63.063l17.375-57.444c5.836-20.665 4.983-41.636-1.266-60.603 6.35-3.626 12.433-9.216 17.794-16.941 16.327-23.526 10.183-64.489 2.857-69.573-3.318-2.303-13.455-1.801-25.061 1.622 3.064 14.145 1.658 50.347-12.398 68.442-3.594 4.626-7.331 8.38-11.113 11.312-3.647 2.828-5.634 7.254-5.259 11.854 1.325 16.24-1.025 33.478-7.565 50.264l-22.099 54.153c-7.059 18.117-13.74 31.692-20.825 43.083-5.837 9.384-5.56 21.394 1.025 30.269 8.975 12.097 22.948 25.126 29.052 41.439 6.393 17.083-13.021 36.417-31.233 35.405l-151.986-3.369c-.936 8.216-.807 12.053-.866 17.146h260.43z" fill="#eeb6a8"/><path d="m290.006 190.061c.098-.452.176-.913.211-1.39 4.457-17.458 3.604-33.958-5-49.06 5.384-19.419 4.677-35.973-4.942-48.499.1-23.189-2.785-48.808-7.758-76.126-.419-4.109-6.24-4.534-7.251-.529-7.77 20.993-13.716 40.87-14.539 57.613-8.914 11.201-12.767 24-9.836 38.974-7.965 11.637-12.079 24.951-10.28 40.738-10.237 11.68-9.187 25.408-9.217 31.757 1.175 21.678 64.281 26.589 68.612 6.522z" fill="#bdf4e3"/><path d="m290.006 190.061c.098-.452.176-.913.211-1.39 3.165-12.398 3.633-24.31.568-35.584-.352 3.334-.963 6.711-1.832 10.132-.027.409-.092.802-.175 1.188-3.657 17.133-59.107 12.471-60.297-6.081-.004-1.048-.045-2.334-.045-3.794-7.898 11.015-7.015 23.151-7.042 29.007 1.175 21.678 64.281 26.589 68.612 6.522z" fill="#b1b7e3"/><g><g><path d="m280.512 100.972c-1.229 0-2.469-.365-3.551-1.124l-30.229-21.218c-2.798-1.965-3.474-5.825-1.51-8.623 1.966-2.798 5.827-3.474 8.624-1.51l30.229 21.217c2.798 1.965 3.474 5.825 1.51 8.624-1.206 1.715-3.124 2.634-5.073 2.634z" fill="#90e0c5"/></g><g><path d="m284.35 147.535c-1.222 0-2.456-.362-3.535-1.113l-43.463-30.3c-2.804-1.956-3.493-5.813-1.537-8.618 1.955-2.804 5.812-3.492 8.618-1.537l43.463 30.3c2.804 1.956 3.493 5.814 1.537 8.618-1.203 1.725-3.127 2.65-5.083 2.65z" fill="#90e0c5"/></g><g><path d="m290 196.252c-1.149 0-2.31-.32-3.347-.988l-59.395-38.279c-2.874-1.852-3.703-5.683-1.85-8.556 1.851-2.873 5.682-3.704 8.556-1.85l59.395 38.279c2.875 1.852 3.703 5.683 1.85 8.556-1.183 1.837-3.174 2.838-5.209 2.838z" fill="#90e0c5"/></g></g><path d="m134.598 164.539c16.152-3.914 30.134-13.629 40.158-26.886 2.847-3.765 6.307-7.188 10.367-10.124 19.393-14.019 46.548-11.627 63.175 5.583 19.83 20.527 17.76 53.152-3.768 71.082-18.535 15.437-41.65 17.352-60.677 11.095-11.084-3.645-34.861-18.113-52.781-29.557-8.674-5.538-6.476-18.769 3.526-21.193z" fill="#f7c4db"/><path d="m248.298 133.113c-16.626-17.21-43.782-19.602-63.175-5.583-4.06 2.935-7.52 6.358-10.367 10.124-10.024 13.256-24.006 22.972-40.158 26.886-10.003 2.424-12.2 15.655-3.526 21.195 17.919 11.443 41.697 25.911 52.781 29.557 19.026 6.257 42.142 4.342 60.677-11.095 21.528-17.932 23.598-50.557 3.768-71.084zm-10.841 44.806c-10.946 13.493-27.199 17.92-41.753 15.959-8.479-1.142-27.665-8.348-42.205-14.164-7.038-2.816-7.452-12.572-.658-15.628 10.97-4.935 19.517-13.734 24.7-24.542 1.472-3.07 3.434-5.976 5.899-8.613 11.773-12.592 31.564-14.471 46.044-4.358 17.271 12.061 20.687 35.674 7.973 51.346z" fill="#e893db"/><g><path d="m192.657 165.971c-2.502 0-5.011-.905-6.995-2.737-4.23-3.904-4.184-10.74-.247-14.939 5.845-6.235 11.99-9.935 17.312-12.126 6.87-2.828 14.394 2.257 14.294 9.685-.055 4.088-2.489 7.822-6.277 9.363-3.046 1.239-6.842 3.457-10.493 7.423-2.035 2.211-4.81 3.331-7.594 3.331z" fill="#fff"/></g></g><g><path d="m6.185 382.792c-1.115 0-2.245-.301-3.262-.934-2.904-1.806-3.793-5.622-1.989-8.526 13.468-21.664 31.104-23.119 31.848-23.169 3.415-.246 6.368 2.339 6.601 5.749.234 3.387-2.302 6.325-5.677 6.596-.643.065-12.382 1.473-22.257 17.361-1.173 1.886-3.196 2.923-5.264 2.923z" fill="#d08372"/></g><path d="m228.955 295.926c5.896.486 9.376 10.002 6.863 18.861-6.154 21.699-19.473 36.567-33.613 35.402s-24.845-18.013-27.364-40.427c-1.029-9.151 3.961-17.969 9.858-17.483z" fill="#ef8bbd"/><path d="m228.955 295.926-44.256-3.647c-5.896-.486-10.886 8.332-9.858 17.483 2.519 22.414 13.224 39.261 27.364 40.427 1.887.155 3.759.017 5.602-.377-6.79-2.557-12.72-8.799-13.963-19.857-.649-5.774 4.994-15.673 8.715-15.367l27.926 2.301c1.567.129 2.858 1.276 3.715 2.97.582-1.646 1.125-3.334 1.618-5.072 2.513-8.859-.966-18.375-6.863-18.861z" fill="#e068bd"/><g><path d="m279.87 430.768c39.537-14.796 75.432-28.644 102.216-34.739l13.794 17.718 2.607 29.672c-23.888 12.841-59.297 25.679-98.748 40.442" fill="#fef2a8"/><path d="m428.982 405.231c-4.441-13.797-21.609-14.954-46.895-9.2-1.464 11.542 6.066 39.68 16.4 47.387 22.652-12.178 34.947-24.358 30.495-38.187z" fill="#ef8bbd"/></g><g><g><path d="m169.093 263.485c-.346 0-.697-.029-1.05-.09-3.369-.575-5.635-3.774-5.059-7.144.294-1.722-.1-3.455-1.109-4.88s-2.514-2.373-4.236-2.667c-1.722-.293-3.456.1-4.882 1.109-1.426 1.01-2.373 2.514-2.667 4.236-.575 3.37-3.768 5.637-7.143 5.06-3.37-.575-5.636-3.774-5.06-7.143 1.756-10.283 11.548-17.222 21.836-15.465 4.982.85 9.335 3.591 12.256 7.716 2.921 4.124 4.06 9.138 3.209 14.121-.516 3.015-3.134 5.147-6.095 5.147z" fill="#d08372"/></g><g><path d="m296.388 285.229c-.345 0-.696-.029-1.049-.09-3.37-.575-5.636-3.774-5.06-7.143.294-1.723-.1-3.457-1.109-4.883-1.01-1.425-2.514-2.372-4.236-2.666-1.721-.292-3.457.1-4.883 1.109-1.426 1.01-2.373 2.514-2.667 4.236-.575 3.369-3.769 5.642-7.143 5.06-3.37-.575-5.636-3.774-5.06-7.143.85-4.982 3.591-9.335 7.716-12.256 4.125-2.922 9.138-4.062 14.122-3.209 4.981.85 9.334 3.59 12.255 7.715 2.921 4.124 4.06 9.139 3.209 14.121-.515 3.018-3.134 5.149-6.095 5.149z" fill="#d08372"/></g></g><path d="m95.937 62.749-20.511-12.86c-4.813-3.018-6.269-9.366-3.251-14.18l15.563-24.822c3.018-4.813 9.366-6.269 14.18-3.251l20.511 12.86c4.813 3.018 6.269 9.366 3.251 14.18l-15.563 24.822c-3.018 4.813-9.367 6.269-14.18 3.251z" fill="#a183e2"/><path d="m394.049 70.402-17.233 7.475c-6.586 2.857-14.241-.166-17.098-6.752l-9.5-21.901c-2.857-6.586.166-14.241 6.753-17.098l17.233-7.475c6.586-2.857 14.241.166 17.098 6.752l9.5 21.901c2.857 6.586-.167 14.241-6.753 17.098z" fill="#ffe266"/><path d="m468.065 221.825-14.146-13.628c-5-4.816-5.148-12.774-.332-17.773l17.158-17.811c4.816-5 12.774-5.148 17.773-.332l14.146 13.627c5 4.816 5.148 12.774.332 17.773l-17.158 17.811c-4.816 5-12.773 5.149-17.773.333z" fill="#b2e7f1"/><ellipse cx="488.58" cy="58.515" fill="#8bb6ef" rx="23.42" ry="23.42" transform="matrix(.924 -.383 .383 .924 14.798 191.426)"/><ellipse cx="37.983" cy="174.656" fill="#ffa585" rx="23.42" ry="23.42" transform="matrix(.707 -.707 .707 .707 -112.376 78.013)"/></g></svg>