<svg id="Capa_1" enable-background="new 0 0 512.064 512.064" height="512" viewBox="0 0 512.064 512.064" width="512" xmlns="http://www.w3.org/2000/svg"><g><g><g><path d="m42.397 353.562c19.704 21.638 46.811 23.663 64.332 7.708-3.007-2.368-.644-44.26-1.832-47.433-1.969-5.262-23.042 18.271-35.714 8.702-6.369-4.81-15.139-39.55-36.403-30.32-21.263 9.228-10.087 39.705 9.617 61.343z" fill="#e7effa"/><path d="m30.109 337.007c-10.887-18.393-13.53-37.757 2.671-44.789 17.605-7.641 26.646 14.857 32.85 25.555-11.824 6.449-23.424 13.309-35.521 19.234z" fill="#a183e2"/></g><g><path d="m73.828 469.742c-4.623-24.273 7.749-43.604 27.404-47.348.075 3.231 23.983 24.733 25.523 27.143 2.555 3.997-18.439 4.435-18.401 17.842.019 6.739 19.032 30.27 2.022 39.95s-31.925-13.314-36.548-37.587z" fill="#e7effa"/><path d="m78.778 486.43c6.902 16.675 18.638 28.275 31.598 20.899 14.083-8.015 3.474-25.523-.605-35.136-10.348 4.716-20.861 9.072-30.993 14.237z" fill="#a183e2"/></g><g><path d="m201.473 442.183c19.646 39.033 32.792 77.872 50.028 68.366 17.236-9.505 4.476-44.816-15.17-83.849-6.429 5.161-21.911 12.857-34.858 15.483z" fill="#e7effa"/><path d="m226.488 493.013c7.879 15.168 17.272 22.432 25.013 17.536 8.352-4.605 9.647-15.28 6.543-29.491-11.418-1.789-25.424 3.268-31.556 11.955z" fill="#a183e2"/></g><g><path d="m270.34 376.885s28.264-12.888 31.562-36.484c3.299-23.595-15.945-36.509-15.945-36.509s38.731-12.014 34.49-64.401-40.238-60.93-40.238-60.93 14.289-69.691-56.739-41.146c0 0 17.4-93.884-50.898-63.408l-17.544 167.953z" fill="#cab4ef"/><path d="m320.447 239.491c-1.727-19.481-7.351-32.941-14.356-41.976 10.049 81.935-47.606 115.697-104.727 68.118-1.949-1.624-6.937 9.317-11.303 17.319l80.279 93.934s28.264-12.889 31.562-36.484c3.299-23.595-15.945-36.509-15.945-36.509s38.731-12.015 34.49-64.402z" fill="#be87ef"/><path d="m269.312 376.956c-4.232-32.568-14.14-67.308-35.949-90.65 6.452-12.449 10.925-26.225 13.916-47.617l6.735-42.452c2.13-15.232-.518-30.029-6.799-42.879 4.153-3.191 7.925-7.75 10.977-13.753 9.294-18.283.946-46.751-4.747-49.645s-33.613 7.137-42.907 25.42c-.367.722-.703 1.439-1.025 2.154-5.887-2.502-12.193-4.284-18.829-5.212l-45.435-6.352c-3.393-.474-6.689-.672-9.887-.634.119-4.24-.541-8.879-2.121-13.833-6.168-19.336-31.84-33.577-37.861-31.656s-18.705 28.396-12.537 47.733c2.041 6.398 5.029 11.479 8.613 15.267-9.27 7.953-15.96 17.143-19.718 24.227-9.068 17.097-15.777 41.202-15.777 41.202-20.078 14.223-28.918 36.289-24.597 57.16 3.565 17.221 13.446 30.864 27.728 40.906 12.553 8.827 34.151 14.38 46.314 15.015-8.732 13.758-15.121 34.451-19.702 49.935l-.38 1.331c-3.415 12.278-4.584 25.354-3.598 39.03 4.155 57.659 46.236 68.819 97.826 65.101s94.035-20.5 89.88-78.159z" fill="#e7effa"/><path d="m269.43 378.593-.118-1.637c-4.232-32.568-14.14-67.308-35.949-90.65 6.452-12.449 10.925-26.225 13.916-47.617l6.735-42.453c2.13-15.231-.518-30.029-6.799-42.88 4.153-3.191 7.925-7.75 10.977-13.753 9.294-18.283.946-46.751-4.747-49.645-3.329-1.692-14.253 1.04-24.612 7.25 4.202 8.116 7.768 28.24 1.037 42.121-2.682 5.531-5.975 9.742-9.587 12.702 5.327 11.741 7.501 25.297 5.545 39.287l-6.143 38.999c-2.207 15.79-9.506 35.109-15.229 48.041-2.239 5.06-1.358 10.952 2.215 15.176 15.788 18.665 27.957 36.914 30.987 63.467l.089 1.501c3.148 52.868-33.644 68.589-78.234 72.395-33.933 2.896-63.039-2.16-76.403-28.038 8.59 47.904 48.387 57.356 96.44 53.893 51.59-3.717 94.035-20.5 89.88-78.159z" fill="#dcb6f5"/><path d="m186.325 124.198c.022-.331.029-.665.003-1.007 1.326-12.836-1.009-24.437-8.689-34.234 1.777-14.323-.461-25.977-8.59-33.843-2.362-16.44-7.094-34.288-13.483-53.121-.728-2.867-4.897-2.557-5.193.386-3.302 15.688-5.43 30.395-4.256 42.344-5.14 8.871-6.527 18.343-2.879 28.645-4.423 9.081-5.941 18.945-3.01 29.941-6.027 9.349-3.843 18.966-3.198 23.466 3.106 15.237 48.331 12.095 49.295-2.577z" fill="#b2e7f1"/><path d="m186.325 124.198c.022-.331.029-.665.003-1.007.942-9.116.023-17.604-3.331-25.271.1 2.399.022 4.856-.235 7.371.024.292.019.578.001.86-.793 12.522-40.569 15.037-43.358 2.018-.113-.742-.276-1.649-.43-2.683-4.44 8.633-2.541 17.138-1.946 21.29 3.107 15.236 48.332 12.094 49.296-2.578z" fill="#a7adf1"/><g><g><path d="m169.6 63.963c-.946 0-1.905-.214-2.808-.667l-23.643-11.86c-3.097-1.554-4.348-5.324-2.795-8.421 1.554-3.097 5.323-4.348 8.421-2.795l23.644 11.86c3.097 1.554 4.348 5.324 2.795 8.421-1.101 2.195-3.315 3.462-5.614 3.462z" fill="#95cde6"/></g><g><path d="m177.205 96.55c-.939 0-1.893-.211-2.791-.659l-33.972-16.907c-3.102-1.543-4.365-5.31-2.821-8.411 1.544-3.103 5.311-4.366 8.412-2.821l33.972 16.906c3.102 1.544 4.365 5.311 2.821 8.412-1.097 2.205-3.316 3.48-5.621 3.48z" fill="#95cde6"/></g><g><path d="m186.321 130.474c-.866 0-1.745-.181-2.586-.562l-46.097-20.888c-3.156-1.43-4.555-5.147-3.125-8.304 1.43-3.156 5.148-4.554 8.304-3.125l46.097 20.888c3.156 1.43 4.555 5.147 3.125 8.304-1.049 2.317-3.331 3.687-5.718 3.687z" fill="#95cde6"/></g></g><path d="m73.542 122.422c11.033-4.468 19.92-12.818 25.631-23.262 1.622-2.966 3.714-5.755 6.283-8.26 12.269-11.967 31.759-13.121 45.345-2.672 16.203 12.462 18.159 35.795 4.788 50.757-11.512 12.882-27.689 16.664-41.825 14.227-8.236-1.42-26.6-9.175-40.496-15.403-6.728-3.016-6.559-12.621.274-15.387z" fill="#cab4ef"/><path d="m150.8 88.227c-13.585-10.449-33.076-9.295-45.345 2.672-2.569 2.506-4.66 5.294-6.283 8.261-5.711 10.443-14.598 18.794-25.631 23.262-6.833 2.767-7.001 12.372-.275 15.386 13.896 6.228 32.26 13.983 40.496 15.403 14.136 2.437 30.313-1.345 41.825-14.227 13.372-14.962 11.416-38.294-4.787-50.757zm-2.98 32.883c-6.339 10.708-17.391 15.55-27.908 15.688-6.127.081-20.476-3.012-31.388-5.607-5.282-1.257-6.599-8.125-2.106-11.003 7.254-4.647 12.387-11.778 14.925-19.979.721-2.33 1.806-4.594 3.275-6.721 7.02-10.157 20.844-13.564 32.165-7.919 13.503 6.732 18.4 23.103 11.037 35.541z" fill="#be87ef"/><g><path d="m113.736 120.493c-2.283 0-4.593-.746-6.548-2.312-4.304-3.447-5.027-9.78-1.89-14.315 2.568-3.712 5.393-6.543 8.161-8.701 6.338-4.94 15.654-1.059 16.723 6.905.491 3.656-.98 7.294-3.874 9.583-1.266 1.001-2.635 2.378-3.915 4.261-2.023 2.975-5.311 4.579-8.657 4.579z" fill="#fff"/></g></g><g><path d="m265.263 323.632c-19.514-21.809-46.603-24.071-64.262-8.269 2.986 2.394 18.964 32.656 20.124 35.84 1.923 5.279 4.494-6.462 17.082 3.217 6.327 4.865 14.793 39.68 36.137 30.637 21.343-9.043 10.433-39.616-9.081-61.425z" fill="#e7effa"/><g><path d="m214.13 363.742c-2.33 0-4.567-1.303-5.651-3.54-1.472-3.039-.272-6.679 2.676-8.261.277-.177.673-.464 1.174-.819 4.964-3.509 16.586-11.727 27.38-9.14 3.494.838 8.378 3.201 11.804 9.703 1.615 3.065.439 6.86-2.627 8.475-3.064 1.612-6.86.438-8.475-2.626-1.34-2.545-2.711-3.13-3.626-3.349-5.27-1.261-14.258 5.094-17.212 7.183-1.25.884-1.939 1.371-2.714 1.747-.88.425-1.812.627-2.729.627zm-2.739-11.922c-.048.023-.103.05-.165.084.054-.028.108-.056.165-.084z" fill="#ad99c9"/></g><path d="m277.406 340.293c10.726 18.488 13.2 37.874-3.062 44.764-17.671 7.487-26.515-15.089-32.626-25.841 11.879-6.345 23.54-13.104 35.688-18.923z" fill="#a183e2"/></g><g fill="#ad99c9"><path d="m104.794 198c-.737 4.805-5.229 8.103-10.034 7.366s-8.103-5.229-7.366-10.034 5.229-8.103 10.034-7.366 8.103 5.229 7.366 10.034z"/><path d="m193.046 211.531c-.737 4.805-5.229 8.103-10.034 7.366s-8.103-5.229-7.366-10.034 5.229-8.103 10.034-7.366 8.103 5.229 7.366 10.034z"/></g><path d="m145.776 235.415c-1.128 7.36-7.457 12.496-14.135 11.472s-11.177-7.82-10.049-15.18 7.457-12.496 14.135-11.472 11.177 7.82 10.049 15.18z" fill="#ef8bbd"/><path d="m358.29 399.718c8.129-8.152 19.168-12.733 30.681-12.733h16.556l-.546-.923c-2.275-4.158-3.49-8.978-3.282-14.1.559-13.726 11.621-25.049 25.332-25.901 15.742-.978 28.814 11.5 28.814 27.031 0 1.168-.082 2.316-.226 3.445 16.999 3.693 29.499 19.445 28.073 37.852-1.376 17.757-15.975 31.972-33.761 32.915-15.665.83-29.282-8.41-34.956-21.826l-57.754-.008c-9.093-.001-13.653-10.99-7.232-17.428z" fill="#e7effa"/></g><path d="m456.448 109.423 8.589 24.151c.368 1.034 1.096 1.853 2.014 2.267l21.458 9.668c3.031 1.366 3.031 6.196 0 7.561l-21.458 9.668c-.919.414-1.647 1.233-2.014 2.267l-8.589 24.152c-1.214 3.412-5.505 3.412-6.718 0l-8.589-24.152c-.368-1.034-1.096-1.853-2.014-2.267l-21.458-9.668c-3.031-1.366-3.031-6.196 0-7.561l21.458-9.668c.919-.414 1.647-1.233 2.014-2.267l8.589-24.151c1.214-3.412 5.505-3.412 6.718 0z" fill="#b2e7f1"/><path d="m400.049 225.845 6.371 17.915c.273.767.813 1.375 1.494 1.682l15.917 7.171c2.249 1.013 2.249 4.596 0 5.609l-15.917 7.171c-.682.307-1.221.915-1.494 1.682l-6.371 17.915c-.9 2.531-4.083 2.531-4.983 0l-6.371-17.915c-.273-.767-.813-1.375-1.494-1.682l-15.917-7.171c-2.249-1.013-2.249-4.596 0-5.609l15.917-7.171c.682-.307 1.221-.915 1.494-1.682l6.371-17.915c.9-2.531 4.083-2.531 4.983 0z" fill="#b2e7f1"/><path d="m350.289 81.096c0 5.466-4.431 9.898-9.898 9.898-5.466 0-9.898-4.431-9.898-9.898 0-5.466 4.431-9.898 9.898-9.898 5.466.001 9.898 4.432 9.898 9.898z" fill="#8bb6ef"/></g></svg>