<svg id="Capa_1" enable-background="new 0 0 512 512" height="512" viewBox="0 0 512 512" width="512" xmlns="http://www.w3.org/2000/svg"><g><g><path d="m332.274 512h-152.405c-34.818 0-63.487-23.571-65.105-53.528l-9.494-117.005h302.394l-10.298 117.222c-1.747 29.867-30.372 53.311-65.092 53.311z" fill="#b2e7f1"/><path d="m346.449 341.467-8.213 93.493c-1.394 23.821-24.224 42.519-51.916 42.519h-121.552c-27.762 0-50.622-18.79-51.924-42.672l1.92 23.667c1.618 29.954 30.287 53.526 65.105 53.526h152.405c34.72 0 63.345-23.444 65.092-53.311l10.298-117.222z" fill="#a7adf1"/><g><g><path d="m304.102 510.342c-.092 0-.186-.002-.28-.006-3.47-.152-6.159-3.088-6.007-6.557l6.931-158.246c.152-3.469 3.077-6.152 6.557-6.007 3.47.152 6.159 3.088 6.007 6.557l-6.931 158.246c-.148 3.376-2.931 6.013-6.277 6.013z" fill="#95cde6"/></g><g><path d="m211.674 510.342c-3.346 0-6.13-2.637-6.277-6.013l-6.932-158.246c-.152-3.47 2.537-6.405 6.007-6.557 3.476-.144 6.406 2.537 6.557 6.007l6.931 158.246c.152 3.47-2.537 6.405-6.007 6.557-.092.004-.186.006-.279.006z" fill="#95cde6"/></g></g><g><g><path d="m394.229 194.046c-11.483 27.972-34.332 37.173-54.465 28.908s-29.926-30.866-18.443-58.838 51.316-46.033 60.026-42.457c8.712 3.576 24.365 44.415 12.882 72.387z" fill="#f7c4db"/></g><g><path d="m121.347 192.312c11.363 27.68 33.974 36.785 53.896 28.607 19.923-8.179 29.614-30.544 18.25-58.225-11.363-27.68-50.781-45.553-59.4-42.015-8.62 3.539-24.11 43.953-12.746 71.633z" fill="#f7c4db"/></g></g><path d="m408.01 351.349h-303.085c-16.688 0-29.521-12.643-27.396-26.9 12.992-87.169 88.157-154.034 178.938-154.034s165.947 66.865 178.938 154.034c2.125 14.257-10.708 26.9-27.395 26.9z" fill="#d49c8d"/><path d="m435.406 324.449c-12.992-87.169-88.157-154.034-178.938-154.034-5.453 0-10.848.248-16.179.72 68.419 6.671 123.347 59.384 133.389 126.763 1.759 11.799-8.862 22.263-22.674 22.263h-250.841c-8.62 0-15.997-4.077-19.897-10.01-1.094 4.7-2.017 9.466-2.737 14.298-2.125 14.257 10.708 26.9 27.396 26.9h303.085c16.687 0 29.52-12.643 27.396-26.9z" fill="#c7758d"/><g><path d="m292.769 181.562c.066-.472.112-.95.111-1.443 3.256-18.261 1.132-35.136-8.843-49.991 4.059-20.344 2.081-37.287-8.742-49.419-1.651-23.816-6.55-49.899-13.722-77.571-.741-4.187-6.75-4.183-7.484.005-6.39 22.14-10.992 42.997-10.57 60.25-8.305 12.174-11.293 25.605-7.151 40.758-7.298 12.55-10.515 26.53-7.474 42.602-9.627 12.766-7.511 26.781-7.061 33.301 2.845 22.169 68.006 22.438 70.936 1.508z" fill="#ef8bbd"/><path d="m292.769 181.562c.066-.472.112-.95.111-1.443 2.312-12.968 1.892-25.233-2.108-36.577-.042 3.837-.755 7.818-1.204 11.774-2.459 17.867-59.741 17.274-62.366-1.684-.083-1.076-.222-2.393-.333-3.892-7.276 11.907-5.451 24.3-5.036 30.314 2.845 22.169 68.006 22.438 70.936 1.508z" fill="#e068bd"/><g><g><path d="m275.816 90.746c-1.097 0-2.208-.287-3.219-.891l-32.641-19.498c-2.981-1.781-3.954-5.641-2.173-8.623 1.78-2.981 5.641-3.956 8.623-2.173l32.641 19.498c2.981 1.781 3.954 5.641 2.173 8.623-1.177 1.971-3.264 3.064-5.404 3.064z" fill="#b74a96"/></g><g><path d="m283.276 138.262c-1.09 0-2.195-.284-3.201-.881l-46.914-27.822c-2.987-1.772-3.973-5.629-2.201-8.616 1.771-2.986 5.629-3.973 8.616-2.201l46.914 27.822c2.987 1.772 3.973 5.629 2.201 8.616-1.174 1.982-3.267 3.082-5.415 3.082z" fill="#b74a96"/></g><g><path d="m292.763 187.851c-1.017 0-2.048-.247-3.003-.768l-63.875-34.809c-3.049-1.662-4.174-5.481-2.513-8.531 1.662-3.049 5.48-4.175 8.531-2.513l63.875 34.809c3.049 1.662 4.174 5.481 2.513 8.531-1.142 2.095-3.3 3.281-5.528 3.281z" fill="#b74a96"/></g></g></g><path d="m187.509 306.804c-5.308 5.308-13.914 5.308-19.222 0l-24.9-24.901c-5.308-5.308-5.308-13.914 0-19.222 5.308-5.308 13.914-5.308 19.222 0l24.9 24.9c5.308 5.308 5.308 13.915 0 19.223z" fill="#a183e2"/><path d="m234.752 287.372c-4.081-6.301-2.281-14.717 4.02-18.797l29.557-19.143c6.301-4.081 14.717-2.281 18.797 4.02 4.081 6.301 2.281 14.716-4.02 18.797l-29.557 19.143c-6.301 4.08-14.716 2.28-18.797-4.02z" fill="#ffe266"/><path d="m338.547 310.922c-6.899-2.958-10.094-10.949-7.136-17.849l13.877-32.365c2.958-6.899 10.949-10.094 17.848-7.136 6.899 2.958 10.094 10.949 7.136 17.849l-13.877 32.365c-2.957 6.899-10.948 10.094-17.848 7.136z" fill="#78eac4"/><g><path d="m139.611 259.757c-2.151 0-4.322-.66-6.189-2.03-4.668-3.423-5.677-9.982-2.254-14.649 6.875-9.375 19.715-21.104 28.623-26.146 5.039-2.851 11.433-1.079 14.283 3.958 2.851 5.037 1.079 11.432-3.958 14.283-6.405 3.625-16.913 13.301-22.045 20.3-2.053 2.801-5.234 4.284-8.46 4.284z" fill="#fff"/></g><g><path d="m188.227 222.738c-4.415 0-8.522-2.812-9.963-7.238-1.793-5.504 1.216-11.418 6.72-13.21 1.88-.613 3.757-1.127 5.579-1.53 5.654-1.25 11.246 2.32 12.495 7.971 1.25 5.652-2.319 11.246-7.971 12.495-1.161.257-2.376.591-3.612.993-1.079.352-2.173.519-3.248.519z" fill="#fff"/></g></g><path d="m52.306 34.921 9.009 25.332c.386 1.085 1.149 1.944 2.113 2.378l22.507 10.14c3.18 1.433 3.18 6.499 0 7.931l-22.507 10.14c-.964.434-1.727 1.294-2.113 2.378l-9.009 25.332c-1.273 3.579-5.774 3.579-7.047 0l-9.009-25.33c-.386-1.085-1.149-1.944-2.113-2.378l-22.507-10.141c-3.18-1.432-3.18-6.499 0-7.931l22.507-10.14c.964-.434 1.727-1.294 2.113-2.378l9.009-25.332c1.273-3.58 5.774-3.58 7.047-.001z" fill="#b2e7f1"/><path d="m476.04 100.702 6.683 18.791c.286.805.853 1.442 1.567 1.764l16.695 7.522c2.359 1.063 2.359 4.821 0 5.883l-16.695 7.522c-.715.322-1.281.96-1.567 1.764l-6.683 18.791c-.944 2.655-4.283 2.655-5.227 0l-6.683-18.791c-.286-.805-.853-1.442-1.567-1.764l-16.695-7.522c-2.359-1.063-2.359-4.821 0-5.883l16.695-7.522c.715-.322 1.281-.96 1.567-1.764l6.683-18.791c.944-2.655 4.283-2.655 5.227 0z" fill="#b2e7f1"/><g fill="#8bb6ef"><ellipse cx="162.602" cy="59.314" rx="8.486" ry="8.486" transform="matrix(.16 -.987 .987 .16 78.072 210.352)"/><ellipse cx="380.551" cy="44.614" rx="14.878" ry="14.878" transform="matrix(.071 -.998 .998 .071 309.073 421.045)"/></g></g></svg>