<svg id="Capa_1" enable-background="new 0 0 512 512" height="512" viewBox="0 0 512 512" width="512" xmlns="http://www.w3.org/2000/svg"><g><g><path d="m419.575 511.724s37.561-23.903 37.561-58.049-29.878-48.659-29.878-48.659 52.593-24.738 36.177-98.257c-16.415-73.519-69.206-78.502-69.206-78.502s6.454-101.757-88.703-47.146c0 0 6.068-136.715-84.829-79.904l8.424 241.88z" fill="#bdf4e3"/><path d="m453.473 434.031c-.319-.806-.655-1.594-1.005-2.364-8.403-18.487-25.21-26.65-25.21-26.65s52.593-24.738 36.177-98.257c0-.001 0-.001 0-.002-4.563-20.433-11.936-35.566-20.204-46.775 20.83 105.376-51.623 161.585-130.043 105.221-4.208-3.025-15.286 34.974-20.339 34.311l126.726 112.21s14.672-9.337 25.677-24.677c1.1-1.534 2.164-3.128 3.173-4.778.504-.825.995-1.665 1.47-2.518 4.271-7.679 7.242-16.473 7.242-26.076-.001-7.471-1.43-14.001-3.664-19.645z" fill="#b1b7e3"/><path d="m419.607 512c-12.469-45.388-34.902-92.705-70.492-121.509 6.689-18.951 10.304-39.393 10.304-70.351l1.136-61.595c0-22.043-6.694-42.522-18.16-59.515 5.261-5.354 9.711-12.573 12.852-21.7 9.565-27.796-7.934-66.548-16.589-69.526-8.655-2.979-46.295 16.8-55.86 44.596-.378 1.098-.712 2.183-1.028 3.26-8.852-2.383-18.157-3.661-27.761-3.661h-65.753c-4.91 0-9.628.374-14.16 1.062-.673-6.042-2.529-12.496-5.755-19.215-12.592-26.223-51.858-41.343-60.023-37.422s-20.916 44.019-8.325 70.242c4.166 8.676 9.417 15.296 15.256 19.961-11.58 13.129-19.253 27.5-23.181 38.302-9.479 26.068-14.219 61.614-14.219 61.614-25.68 24.172-33.849 57.247-23.574 86.016 8.478 23.737 25.21 41.141 47.475 52.562 19.57 10.038 51.328 13.635 68.72 12.123-9.665 21.262-14.769 51.869-18.198 74.757h267.335z" fill="#e7effa"/><path d="m349.114 390.491c6.689-18.951 10.304-39.393 10.304-70.351l1.136-61.595c0-22.043-6.694-42.522-18.16-59.515 5.261-5.354 9.711-12.573 12.852-21.7 9.565-27.796-7.934-66.548-16.589-69.526-3.036-1.045-9.649.709-17.356 4.629 6.496 12.83 12.526 32.152 10.876 51.955-1.085 13.024-17.928 26.804-22.333 31.898 9.6 16.168 16.95 70.56 16.95 91.532l-.288 15.638c0 21.465-9.207 50.645-14.193 70.647-2.908 11.664-4.533 22.146 4.185 30.424 11.722 11.129 20.8 21.839 28.607 41.543 8.691 21.934-7.551 45.723-31.145 45.723h-158.439c-.93 5.267-1.75 10.409-2.501 15.281-.008.05-.016.103-.024.152-.25 1.624-.492 3.218-.725 4.774h267.335c-12.469-45.389-34.902-92.705-70.492-121.509z" fill="#dcb6f5"/><path d="m250.179 169.722c-.035-.474-.091-.95-.195-1.43-.665-18.484-6.282-34.487-19.127-46.869-.32-20.683-5.809-36.782-18.908-46.333-6.615-22.867-16.873-47.262-29.68-72.727-1.602-3.925-7.458-2.658-7.294 1.578-1.575 22.924-1.676 44.221 2.361 60.949-5.536 13.612-5.626 27.332 1.597 41.231-4.476 13.767-4.673 28.07 1.669 43.097-6.701 14.467-1.692 27.683.116 33.944 7.434 21.011 71.005 7.577 69.461-13.44z" fill="#ffe266"/><path d="m250.179 169.722c-.035-.474-.091-.95-.195-1.43-.472-13.127-3.46-24.993-9.743-35.209.765 3.748.907 7.779 1.301 11.729 1.359 17.932-54.601 29.395-61.144 11.468-.307-1.031-.72-2.285-1.143-3.724-4.589 13.135-.206 24.831 1.463 30.607 7.434 21.01 71.005 7.576 69.461-13.441z" fill="#efaa66"/><g><g><path d="m213.251 84.989c-.675 0-1.362-.108-2.036-.337l-35.915-12.145c-3.325-1.124-5.108-4.73-3.984-8.055s4.735-5.111 8.055-3.984l35.914 12.145c3.325 1.124 5.108 4.73 3.984 8.055-.895 2.65-3.368 4.321-6.018 4.321z" fill="#d0844b"/></g><g><path d="m230.511 129.736c-.669 0-1.349-.106-2.018-.33l-51.577-17.258c-3.327-1.113-5.123-4.714-4.009-8.042 1.114-3.329 4.717-5.121 8.042-4.01l51.577 17.258c3.327 1.113 5.123 4.714 4.009 8.042-.889 2.659-3.367 4.34-6.024 4.34z" fill="#d0844b"/></g><g><path d="m250.182 176.078c-.596 0-1.2-.084-1.8-.261l-69.577-20.503c-3.367-.992-5.291-4.525-4.298-7.891.992-3.368 4.528-5.29 7.891-4.299l69.577 20.503c3.367.992 5.291 4.525 4.298 7.891-.814 2.767-3.346 4.56-6.091 4.56z" fill="#d0844b"/></g></g><path d="m89.738 189.579c14.774-8.531 25.732-22.147 31.766-38.104 1.714-4.533 4.13-8.905 7.279-12.972 15.041-19.421 42.477-24.927 63.834-12.791 25.472 14.474 32.879 47.205 16.868 71.096-13.785 20.57-35.996 29.148-56.545 28.494-11.971-.381-39.577-7.746-60.538-13.828-10.147-2.945-11.814-16.612-2.664-21.895z" fill="#bdf4e3"/><path d="m192.616 125.712c-21.357-12.135-48.793-6.63-63.834 12.791-3.149 4.066-5.565 8.439-7.279 12.972-6.034 15.957-16.992 29.574-31.766 38.104-9.149 5.283-7.483 18.95 2.663 21.894 20.961 6.082 48.566 13.447 60.538 13.828 20.549.654 42.76-7.924 56.545-28.494 16.012-23.89 8.605-56.62-16.867-71.095zm2.296 47.266c-6.874 16.458-21.599 25.523-36.5 27.805-8.681 1.33-29.662-.212-45.666-1.731-7.747-.736-10.978-10.223-5.173-15.2 9.375-8.036 15.245-19.177 17.221-31.321.561-3.45 1.651-6.88 3.316-10.19 7.949-15.81 26.896-23.39 44.085-17.623 20.5 6.878 30.7 29.144 22.717 48.26z" fill="#b1b7e3"/><g fill="#ad99c9"><circle cx="135.328" cy="292.538" r="13.068"/><circle cx="267.892" cy="292.538" r="13.068"/></g><g><path d="m196.891 356.705c-12.588 0-22.829-10.886-22.829-24.267 0-3.509 2.845-6.354 6.354-6.354s6.354 2.845 6.354 6.354c0 6.373 4.54 11.558 10.12 11.558s10.119-5.185 10.119-11.558c0-3.509 2.845-6.354 6.354-6.354s6.354 2.845 6.354 6.354c.002 13.381-10.238 24.267-22.826 24.267z" fill="#ad99c9"/></g><g><path d="m144.338 174.613c-1.573 0-3.17-.352-4.676-1.095-5.246-2.587-7.401-8.937-4.814-14.183 9.525-19.314 25.337-24.212 27.109-24.707l5.699 20.4.182-.053c-.351.112-8.64 2.875-13.992 13.728-1.845 3.74-5.602 5.91-9.508 5.91z" fill="#fff"/></g></g><path d="m476.275 112.403 8.7 24.462c.372 1.047 1.11 1.877 2.04 2.296l21.734 9.792c3.07 1.383 3.07 6.275 0 7.659l-21.734 9.792c-.93.419-1.668 1.249-2.04 2.297l-8.7 24.462c-1.229 3.456-5.576 3.456-6.805 0l-8.7-24.462c-.372-1.047-1.11-1.877-2.04-2.297l-21.733-9.792c-3.07-1.383-3.07-6.275 0-7.659l21.733-9.792c.931-.419 1.668-1.249 2.04-2.296l8.7-24.462c1.23-3.456 5.576-3.456 6.805 0z" fill="#fef2a8"/><path d="m62.624 8.826 6.453 18.146c.276.777.823 1.393 1.513 1.704l16.122 7.264c2.278 1.026 2.278 4.655 0 5.681l-16.122 7.262c-.69.311-1.237.927-1.513 1.703l-6.453 18.146c-.912 2.563-4.136 2.563-5.048 0l-6.453-18.146c-.276-.777-.823-1.393-1.514-1.703l-16.122-7.264c-2.278-1.026-2.278-4.655 0-5.681l16.122-7.264c.69-.311 1.237-.927 1.514-1.704l6.453-18.146c.912-2.562 4.136-2.562 5.048.002z" fill="#fef2a8"/><g fill="#ffe266"><circle cx="13.856" cy="119.273" r="12.907"/><path d="m405.679 85.679c0 5.537-4.488 10.025-10.025 10.025s-10.025-4.488-10.025-10.025c0-5.536 4.488-10.025 10.025-10.025 5.536 0 10.025 4.489 10.025 10.025z"/></g></g></svg>