<svg id="Capa_1" enable-background="new 0 0 512 512" height="512" viewBox="0 0 512 512" width="512" xmlns="http://www.w3.org/2000/svg"><g><g><g><path d="m173.154 417.719c-64.261-24.048-116.912-45.378-126.647-16.044s49.179 50.62 113.44 74.668" fill="#e7effa"/><path d="m46.507 401.675c-4.98 15.006 8.01 27.905 30.486 40.147 11.66-7.218 19.791-37.685 18.173-50.826-25.5-6.231-43.383-5.218-48.659 10.679z" fill="#ffe266"/></g><path d="m426.749 512s40.663-17.807 45.284-50.461c4.621-32.653-21.21-50.464-21.21-50.464s52.273-16.733 46.951-89.198-53.757-84.18-53.757-84.18 19.774-96.457-76.137-56.761c0 0 24.146-129.937-68.101-87.577l-24.895 232.411z" fill="#fef2a8"/><path d="m497.774 321.878c-1.413-18.018-4.941-32.046-11.683-45.869 3.721 108.056-75.367 145.488-144.414 76.863-2.996-2.978-14.733 19.981-21.735 28.154l106.807 130.974s28.796-12.615 40.675-36.075c14.677-29.518-3.51-57.254-16.601-64.85 0 0 52.272-16.733 46.951-89.197z" fill="#eeb6a8"/><path d="m426.749 512c-15.779-42.493-40.687-75.703-69.548-97.448l-.01.249c11.693-16.569 20.811-35.429 29.303-65.493l17.998-59.505c6.046-21.406 5.162-43.13-1.311-62.778 6.578-3.756 12.879-9.547 18.432-17.548 16.913-24.37 10.548-66.803 2.96-72.069-7.589-5.267-49.566 3.617-66.479 27.987-.668.963-1.291 1.924-1.892 2.884-7.943-4.742-16.628-8.536-25.955-11.17l-63.855-18.035c-4.768-1.347-9.452-2.278-14.043-2.853 1.004-6.052.971-12.829-.319-20.238-5.036-28.919-39.021-54.373-48.026-52.805s-32.386 37.01-27.35 65.93c1.666 9.568 4.949 17.438 9.34 23.569-14.847 9.573-26.24 21.425-33.018 30.838-16.355 22.715-30.708 55.935-30.708 55.935-31.566 16.432-48.572 46.311-46.485 77.067 1.722 25.377 13.197 46.868 31.687 64.066 16.252 15.116 46.106 27.32 63.41 30.622l2.657 1.28c-10.127 33.62-16.608 76.962-16.56 99.515" fill="#e7effa"/><g><path d="m159.956 482.756c-.294 0-.591-.02-.89-.062-3.508-.487-5.956-3.725-5.47-7.233 3.108-22.396 8.139-46.025 13.802-64.826 1.022-3.391 4.6-5.31 7.989-4.29 3.391 1.021 5.312 4.598 4.29 7.989-5.48 18.197-10.356 41.12-13.378 62.89-.445 3.209-3.193 5.532-6.343 5.532z" fill="#ad99c9"/></g><path d="m316.263 184.792c.101-.469.182-.945.218-1.44 4.617-18.084 3.733-35.176-5.179-50.82 5.577-20.116 4.844-37.264-5.12-50.239.103-24.021-2.885-50.559-8.036-78.857-.434-4.256-6.464-4.696-7.511-.548-8.049 21.746-14.208 42.336-15.061 59.68-9.234 11.602-13.225 24.861-10.188 40.373-8.251 12.054-12.513 25.846-10.649 42.199-10.604 12.099-9.517 26.32-9.548 32.896 1.217 22.457 66.587 27.543 71.074 6.756z" fill="#bdf4e3"/><path d="m316.263 184.792c.101-.469.182-.945.218-1.44 3.279-12.843 3.763-25.182.589-36.861-.365 3.454-.998 6.952-1.898 10.495-.028.423-.096.831-.181 1.23-3.788 17.748-61.228 12.919-62.46-6.299-.004-1.086-.046-2.418-.046-3.93-8.182 11.41-7.266 23.982-7.295 30.048 1.216 22.458 66.586 27.544 71.073 6.757z" fill="#b1b7e3"/><g><g><path d="m306.428 92.507c-1.273 0-2.558-.378-3.679-1.164l-31.314-21.979c-2.898-2.035-3.599-6.034-1.564-8.932 2.036-2.899 6.036-3.597 8.933-1.565l31.314 21.979c2.898 2.035 3.599 6.034 1.564 8.932-1.248 1.778-3.235 2.729-5.254 2.729z" fill="#90e0c5"/></g><g><path d="m310.403 140.741c-1.266 0-2.544-.374-3.662-1.153l-45.022-31.387c-2.905-2.025-3.618-6.022-1.593-8.927 2.026-2.906 6.021-3.619 8.928-1.593l45.022 31.387c2.905 2.025 3.618 6.022 1.593 8.927-1.247 1.788-3.241 2.746-5.266 2.746z" fill="#90e0c5"/></g><g><path d="m310.402 187.432c-1.19 0-2.393-.33-3.467-1.023l-55.671-35.879c-2.977-1.919-3.835-5.887-1.916-8.864 1.917-2.976 5.886-3.835 8.863-1.916l55.671 35.879c2.978 1.919 3.836 5.887 1.916 8.864-1.226 1.902-3.289 2.939-5.396 2.939z" fill="#90e0c5"/></g></g><path d="m155.279 158.355c16.731-4.054 31.215-14.118 41.599-27.85 2.949-3.9 6.533-7.446 10.739-10.487 20.089-14.522 48.218-12.044 65.441 5.784 20.541 21.263 18.397 55.059-3.904 73.632-19.2 15.991-43.145 17.975-62.853 11.493-11.482-3.776-36.112-18.763-54.674-30.617-8.986-5.738-6.709-19.444 3.652-21.955z" fill="#fef2a8"/><path d="m273.058 125.801c-17.223-17.827-45.352-20.305-65.441-5.784-4.206 3.041-7.789 6.587-10.739 10.487-10.383 13.731-24.868 23.796-41.599 27.85-10.361 2.511-12.638 16.217-3.652 21.955 18.562 11.854 43.192 26.841 54.674 30.617 19.709 6.481 43.654 4.498 62.854-11.493 22.3-18.572 24.445-52.368 3.903-73.632zm-11.23 46.414c-11.339 13.978-28.175 18.563-43.251 16.532-8.783-1.183-28.657-8.647-43.719-14.673-7.291-2.917-7.719-13.022-.682-16.188 11.364-5.112 20.218-14.227 25.587-25.422 1.525-3.18 3.557-6.191 6.11-8.922 12.195-13.044 32.696-14.99 47.696-4.515 17.891 12.494 21.429 36.953 8.259 53.188z" fill="#eeb6a8"/><g><path d="m215.421 159.839c-2.613 0-5.233-.952-7.297-2.882-4.329-4.047-4.257-11.106-.205-15.429 6.057-6.462 12.427-10.29 17.942-12.555 7.113-2.921 14.9 2.342 14.796 10.032-.057 4.263-2.627 8.106-6.571 9.724-3.143 1.289-7.045 3.583-10.799 7.661-2.107 2.288-4.981 3.449-7.866 3.449z" fill="#fff"/></g><path d="m254.08 293.812c6.108.503 9.712 10.361 7.109 19.537-6.375 22.478-20.172 37.879-34.819 36.672s-25.736-18.659-28.346-41.877c-1.065-9.479 4.103-18.613 10.211-18.11z" fill="#ef8bbd"/><path d="m254.08 293.812-45.844-3.778c-6.108-.503-11.277 8.631-10.211 18.11 2.609 23.218 13.699 40.67 28.346 41.877 1.955.161 3.894.017 5.803-.391-7.034-2.648-13.176-9.115-14.464-20.57-.672-5.981 5.174-16.236 9.028-15.918l28.927 2.384c1.623.134 2.96 1.322 3.848 3.077.603-1.705 1.166-3.454 1.676-5.254 2.603-9.176-1.001-19.034-7.109-19.537z" fill="#e068bd"/><g fill="#ad99c9"><ellipse cx="171.1" cy="252.357" rx="13.187" ry="13.187" transform="matrix(.79 -.613 .613 .79 -118.737 157.732)"/><ellipse cx="303.812" cy="269.166" rx="13.187" ry="13.187" transform="matrix(.47 -.883 .883 .47 -76.555 410.845)"/></g><path d="m424.572 137.408c-3.462-2.403-14.086-1.85-26.217 1.764 4.588 9.371 3.479 46.21-12.802 67.168-5.745 7.395-11.845 12.639-17.921 15.923 3.009 19.109.996 39.941-6.874 60.141l-22.891 56.096c-7.344 18.85-14.295 32.953-21.67 44.785-6.036 9.684-5.638 22.036 1.161 31.2 9.297 12.53 17.326 27.368 23.648 44.266 6.622 17.696-7.044 36.382-25.909 35.333l-156.87-3.489c-1.14 10.002-1.265 14.457-1.25 21.405h237.819 31.953c-15.76-42.441-40.626-75.62-69.441-97.366 11.134-15.815 19.933-33.747 28.085-61.512.367-1.488.758-2.996 1.194-4.539l17.998-59.505c1.471-5.207 2.524-10.432 3.194-15.642 1.942-15.962.228-31.763-4.598-46.41.09-.051.178-.112.267-.164-.06-.187-.113-.376-.174-.562 6.578-3.756 12.879-9.546 18.432-17.548 5.696-8.208 8.744-18.465 10.002-28.661 2.281-19.827-2.164-39.233-7.136-42.683z" fill="#dcb6f5"/><g><path d="m22.259 384.438c-1.155 0-2.325-.313-3.379-.967-3.008-1.87-3.929-5.824-2.06-8.831 13.951-22.442 32.22-23.949 32.991-24.002 3.55-.239 6.595 2.423 6.838 5.956.242 3.508-2.385 6.552-5.881 6.833-.665.068-12.825 1.525-23.056 17.984-1.215 1.952-3.31 3.026-5.453 3.027z" fill="#ad99c9"/></g></g><path d="m473.072 39.03 8.779 24.685c.376 1.057 1.12 1.894 2.059 2.317l21.932 9.881c3.098 1.396 3.098 6.333 0 7.729l-21.932 9.881c-.939.423-1.683 1.26-2.059 2.317l-8.779 24.685c-1.24 3.487-5.626 3.487-6.867 0l-8.779-24.685c-.376-1.057-1.12-1.894-2.059-2.317l-21.932-9.881c-3.098-1.396-3.098-6.333 0-7.729l21.932-9.881c.939-.423 1.683-1.261 2.059-2.317l8.779-24.685c1.24-3.488 5.627-3.488 6.867 0z" fill="#bdf4e3"/><circle cx="16.86" cy="158.001" fill="#78eac4" r="13.025"/><path d="m401.832 12.062c0 5.587-4.529 10.116-10.116 10.116s-10.116-4.529-10.116-10.116 4.529-10.116 10.116-10.116c5.586 0 10.116 4.529 10.116 10.116z" fill="#78eac4"/><path d="m78.591 39.154 6.512 18.311c.279.784.831 1.405 1.527 1.719l16.269 7.33c2.298 1.035 2.298 4.697 0 5.733l-16.269 7.33c-.696.314-1.248.935-1.527 1.719l-6.512 18.311c-.92 2.587-4.174 2.587-5.094 0l-6.512-18.311c-.279-.784-.831-1.405-1.527-1.719l-16.269-7.33c-2.298-1.035-2.298-4.697 0-5.733l16.269-7.33c.697-.314 1.248-.935 1.527-1.719l6.512-18.311c.92-2.587 4.174-2.587 5.094 0z" fill="#bdf4e3"/></g></svg>