<svg id="Capa_1" enable-background="new 0 0 512 512" height="512" viewBox="0 0 512 512" width="512" xmlns="http://www.w3.org/2000/svg"><g><g><path d="m386.364 512s40.663-17.807 45.284-50.461c4.621-32.653-21.21-50.464-21.21-50.464s52.273-16.733 46.951-89.198-53.757-84.18-53.757-84.18 19.774-96.457-76.137-56.761c0 0 24.146-129.937-68.101-87.577l-24.895 232.411z" fill="#ffc7b6"/><path d="m410.438 411.075s52.273-16.733 46.951-89.197c-1.236-18.244-5-32.293-11.684-45.869 3.721 108.056-75.367 145.488-144.413 76.863-2.996-2.978-14.733 19.981-21.735 28.154l106.807 130.974s40.663-17.808 45.284-50.461c4.62-32.653-21.21-50.464-21.21-50.464z" fill="#ef95b6"/><path d="m386.364 512c-15.779-42.493-40.687-75.703-69.548-97.448l-.01.249c11.693-16.569 20.812-35.429 29.303-65.493l17.998-59.505c6.046-21.406 5.162-43.13-1.311-62.778 6.578-3.756 12.879-9.547 18.432-17.548 16.913-24.37 10.548-66.803 2.96-72.069-7.589-5.267-49.566 3.617-66.479 27.987-.668.963-1.291 1.924-1.892 2.884-7.943-4.742-16.628-8.536-25.956-11.17l-63.855-18.035c-4.768-1.347-9.452-2.278-14.043-2.853 1.004-6.052.972-12.829-.319-20.238-5.036-28.919-39.021-54.373-48.026-52.805s-32.386 37.01-27.35 65.93c1.666 9.568 4.949 17.438 9.34 23.569-14.847 9.573-26.24 21.425-33.018 30.838-16.355 22.715-30.707 55.935-30.707 55.935-31.566 16.432-48.572 46.311-46.485 77.067 1.722 25.377 13.197 46.868 31.687 64.066 16.252 15.116 46.106 27.32 63.41 30.622l2.657 1.28c-10.127 33.62-16.608 76.962-16.56 99.515" fill="#e7effa"/><path d="m316.922 414.634c11.637-16.529 20.723-35.362 29.186-65.326l17.998-59.505c6.046-21.406 5.162-43.129-1.311-62.778 6.578-3.756 12.879-9.546 18.432-17.548 16.912-24.37 10.548-66.803 2.96-72.069-3.402-2.361-13.719-1.868-25.586 1.578 4.693 9.065 3.679 46.251-12.709 67.347-5.745 7.395-11.845 12.639-17.921 15.923 3.009 19.109.996 39.941-6.874 60.141l-22.891 56.095c-7.344 18.85-14.295 32.953-21.67 44.785-6.036 9.684-5.639 22.037 1.161 31.201 9.297 12.53 17.326 27.367 23.648 44.265 6.622 17.696-7.044 36.382-25.909 35.334l-157.589-3.508c-.829 8.2-1.268 15.531-1.255 21.431h269.772c-15.76-42.441-40.626-75.62-69.442-97.366z" fill="#dcb6f5"/><path d="m275.877 184.792c.101-.469.182-.945.218-1.44 4.617-18.084 3.733-35.176-5.179-50.82 5.577-20.116 4.844-37.264-5.12-50.239.103-24.021-2.885-50.559-8.036-78.857-.434-4.256-6.464-4.696-7.511-.548-8.048 21.746-14.208 42.336-15.06 59.68-9.234 11.602-13.225 24.861-10.188 40.373-8.251 12.054-12.513 25.846-10.649 42.199-10.604 12.099-9.517 26.32-9.548 32.896 1.216 22.457 66.587 27.543 71.073 6.756z" fill="#bdf4e3"/><path d="m275.877 184.792c.101-.469.182-.945.218-1.44 3.279-12.843 3.764-25.182.589-36.861-.365 3.454-.997 6.952-1.898 10.495-.028.423-.096.831-.181 1.23-3.788 17.748-61.228 12.919-62.46-6.299-.004-1.086-.046-2.418-.046-3.93-8.182 11.41-7.266 23.982-7.295 30.048 1.216 22.458 66.587 27.544 71.073 6.757z" fill="#b1b7e3"/><g><g><path d="m266.043 92.508c-1.273 0-2.558-.378-3.679-1.165l-31.313-21.979c-2.899-2.034-3.6-6.033-1.565-8.933 2.035-2.898 6.035-3.601 8.932-1.564l31.314 21.979c2.898 2.035 3.599 6.033 1.565 8.933-1.248 1.777-3.236 2.729-5.254 2.729z" fill="#90e0c5"/></g><g><path d="m270.018 140.741c-1.266 0-2.545-.375-3.662-1.153l-45.022-31.388c-2.906-2.025-3.618-6.022-1.593-8.928 2.025-2.905 6.023-3.617 8.927-1.593l45.023 31.387c2.905 2.025 3.618 6.022 1.593 8.928-1.246 1.789-3.24 2.747-5.266 2.747z" fill="#90e0c5"/></g><g><path d="m275.871 191.206c-1.19 0-2.393-.331-3.467-1.024l-61.526-39.652c-2.977-1.918-3.835-5.886-1.916-8.863 1.918-2.978 5.886-3.837 8.864-1.916l61.525 39.652c2.978 1.918 3.836 5.886 1.916 8.863-1.225 1.903-3.289 2.94-5.396 2.94z" fill="#90e0c5"/></g></g><path d="m114.894 158.355c16.731-4.054 31.215-14.118 41.599-27.85 2.949-3.9 6.533-7.446 10.739-10.487 20.089-14.522 48.219-12.044 65.441 5.784 20.542 21.263 18.397 55.059-3.904 73.632-19.2 15.991-43.145 17.975-62.853 11.493-11.482-3.776-36.112-18.763-54.674-30.617-8.986-5.738-6.709-19.444 3.652-21.955z" fill="#ffc7b6"/><path d="m232.673 125.801c-17.223-17.827-45.352-20.305-65.441-5.784-4.206 3.041-7.789 6.587-10.739 10.487-10.383 13.731-24.868 23.796-41.599 27.85-10.362 2.511-12.638 16.217-3.653 21.955 18.562 11.854 43.192 26.841 54.674 30.617 19.709 6.481 43.654 4.498 62.854-11.493 22.301-18.572 24.445-52.368 3.904-73.632zm-11.23 46.414c-11.339 13.978-28.175 18.563-43.251 16.532-8.783-1.183-28.657-8.647-43.719-14.673-7.291-2.917-7.719-13.022-.682-16.188 11.364-5.112 20.218-14.227 25.586-25.422 1.525-3.18 3.557-6.191 6.11-8.922 12.195-13.044 32.696-14.99 47.696-4.515 17.892 12.494 21.43 36.953 8.26 53.188z" fill="#ef95b6"/><g><path d="m175.036 159.839c-2.615 0-5.237-.954-7.301-2.885-4.327-4.047-4.253-11.104-.201-15.426 6.055-6.459 12.424-10.29 17.939-12.558 7.114-2.926 14.904 2.341 14.8 10.032-.057 4.264-2.627 8.107-6.572 9.726-3.143 1.289-7.045 3.583-10.799 7.661-2.108 2.289-4.983 3.45-7.866 3.45z" fill="#fff"/></g><path d="m195.948 309.728c4.935.949 7.355 7.475 4.769 12.931-6.335 13.363-18.334 21.538-30.168 19.261s-19.943-14.32-20.868-29.08c-.377-6.026 4.291-11.188 9.226-10.238z" fill="#ef8bbd"/><path d="m171.395 327.321c3.479 0 6.468 2.067 7.826 5.037 1.357-2.969 4.347-5.037 7.825-5.037 4.754 0 8.608 3.854 8.608 8.608v24.259c0 4.754-3.854 8.608-8.608 8.608-4.754 0-8.608-3.854-8.608-8.608v-7.189c-1.557 2.216-4.129 3.668-7.043 3.668-4.754 0-8.608-3.854-8.608-8.608v-12.13c0-4.754 3.854-8.608 8.608-8.608z" fill="#8bb6ef"/><g><path d="m133.973 271.892c-.296 0-.595-.021-.898-.063l-25.482-3.569c-3.507-.492-5.952-3.733-5.46-7.24.491-3.508 3.728-5.943 7.24-5.462l25.482 3.569c3.507.492 5.952 3.733 5.461 7.24-.45 3.207-3.196 5.525-6.343 5.525z" fill="#ad99c9"/></g><g><path d="m138.222 254.059c-.296 0-.595-.021-.898-.063l-25.483-3.569c-3.507-.492-5.952-3.733-5.461-7.24.491-3.508 3.724-5.945 7.24-5.462l25.483 3.569c3.507.492 5.952 3.733 5.46 7.24-.448 3.208-3.194 5.525-6.341 5.525z" fill="#ad99c9"/></g><g><path d="m266.091 308.2c-.743 0-1.499-.13-2.237-.405l-24.114-8.98c-3.319-1.236-5.008-4.928-3.771-8.247 1.235-3.319 4.931-5.007 8.247-3.772l24.114 8.98c3.319 1.236 5.007 4.928 3.772 8.247-.962 2.581-3.409 4.177-6.011 4.177z" fill="#ad99c9"/></g><g><path d="m270.834 290.493c-.743 0-1.499-.13-2.237-.405l-24.114-8.98c-3.319-1.236-5.008-4.928-3.771-8.247 1.236-3.318 4.928-5.005 8.247-3.772l24.114 8.98c3.319 1.236 5.007 4.928 3.772 8.247-.961 2.581-3.409 4.177-6.011 4.177z" fill="#ad99c9"/></g></g><path d="m458.859 70.498 8.779 24.685c.376 1.057 1.12 1.894 2.059 2.317l21.932 9.881c3.098 1.396 3.098 6.333 0 7.729l-21.932 9.881c-.939.423-1.683 1.26-2.059 2.317l-8.779 24.685c-1.24 3.487-5.626 3.487-6.867 0l-8.779-24.685c-.376-1.057-1.12-1.894-2.059-2.317l-21.932-9.881c-3.099-1.396-3.099-6.333 0-7.729l21.932-9.881c.939-.423 1.683-1.261 2.059-2.317l8.779-24.685c1.241-3.487 5.627-3.487 6.867 0z" fill="#bdf4e3"/><path d="m80.285 11.58 6.512 18.311c.279.784.831 1.405 1.527 1.719l16.269 7.33c2.298 1.035 2.298 4.697 0 5.733l-16.269 7.33c-.696.314-1.248.935-1.527 1.719l-6.512 18.311c-.92 2.587-4.174 2.587-5.093 0l-6.512-18.311c-.279-.784-.831-1.405-1.527-1.719l-16.269-7.33c-2.298-1.035-2.298-4.697 0-5.733l16.269-7.33c.697-.314 1.248-.935 1.527-1.719l6.512-18.311c.919-2.586 4.173-2.586 5.093 0z" fill="#bdf4e3"/><g fill="#78eac4"><circle cx="31.072" cy="123.034" r="13.025"/><path d="m387.619 43.531c0 5.587-4.529 10.116-10.116 10.116s-10.116-4.529-10.116-10.116 4.529-10.116 10.116-10.116 10.116 4.529 10.116 10.116z"/></g></g></svg>