<svg id="Capa_1" enable-background="new 0 0 512 512" height="512" viewBox="0 0 512 512" width="512" xmlns="http://www.w3.org/2000/svg"><g><g><path d="m406.736 511.73s36.786-23.409 36.786-56.851c0-33.441-29.261-47.654-29.261-47.654s51.507-24.227 35.43-96.228c-16.076-72.001-67.777-76.882-67.777-76.882s6.32-99.656-86.871-46.172c0 0 5.943-133.892-83.078-78.254l8.25 236.886z" fill="#bdf4e3"/><path d="m414.261 407.225s51.507-24.227 35.43-96.229c-4.04-18.094-10.33-31.946-17.484-42.55-.472-.552-.88-1.129-1.2-1.74-.001-.001-.002-.002-.002-.004 20.399 103.2-53.023 157.318-129.823 102.118-3.779-2.716-13.211 28.325-18.568 33.005l124.074 109.861c.143-.07.297-.147.461-.229 4.042-2.695 36.372-25.228 36.372-56.579.001-33.44-29.26-47.653-29.26-47.653z" fill="#b1b7e3"/><path d="m406.767 512c-12.212-44.451-34.182-90.791-69.037-119 6.55-18.56 10.091-38.58 10.091-68.898l1.113-60.323c0-21.588-6.556-41.644-17.785-58.286 5.153-5.243 9.51-12.314 12.586-21.252 9.367-27.222-7.77-65.174-16.247-68.091s-45.339 16.454-54.706 43.676c-.37 1.076-.698 2.138-1.007 3.193-8.669-2.334-17.782-3.586-27.188-3.586h-64.395c-4.809 0-9.429.366-13.868 1.04-.659-5.917-2.477-12.238-5.636-18.818-12.332-25.681-50.787-40.489-58.784-36.649s-20.485 43.11-8.153 68.791c4.08 8.497 9.222 14.981 14.941 19.549-11.341 12.858-18.856 26.932-22.703 37.511-9.283 25.529-13.925 60.342-13.925 60.342-25.148 23.673-33.148 56.066-23.086 84.24 8.303 23.247 24.689 40.292 46.495 51.476 19.166 9.831 50.268 13.354 67.301 11.873-9.465 20.823-14.464 50.798-17.822 73.213h261.815z" fill="#e7effa"/><path d="m337.73 392.999c6.55-18.56 10.091-38.58 10.091-68.898l1.113-60.323c0-21.588-6.556-41.644-17.785-58.286 5.153-5.243 9.51-12.314 12.586-21.252 9.367-27.222-7.77-65.174-16.247-68.091-3.008-1.035-9.603.742-17.263 4.676 6.384 12.554 12.534 31.341 10.918 50.74-1.063 12.755-17.558 26.251-21.872 31.24 9.402 15.835 16.6 69.103 16.6 89.642l-.282 15.315c0 21.022-9.016 49.599-13.9 69.188-2.848 11.423-4.439 21.689 4.099 29.796 11.48 10.899 20.37 21.388 28.017 40.685 8.512 21.481-7.395 44.779-30.502 44.779h-155.157c-.911 5.159-1.725 10.196-2.462 14.967-.007.048-.016.099-.023.148-.245 1.59-.482 3.151-.71 4.675h261.815c-12.211-44.451-34.181-90.791-69.036-119.001z" fill="#dcb6f5"/><path d="m240.838 176.789c-.034-.464-.089-.93-.191-1.401-.651-18.102-6.152-33.775-18.732-45.901-.313-20.256-5.689-36.022-18.518-45.376-6.479-22.395-16.525-46.286-29.067-71.225-1.569-3.844-7.304-2.603-7.143 1.546-1.542 22.451-1.641 43.308 2.312 59.69-5.422 13.331-5.509 26.768 1.564 40.38-4.383 13.482-4.577 27.49 1.635 42.207-6.562 14.168-1.657 27.112.114 33.243 7.279 20.576 69.538 7.42 68.026-13.163z" fill="#ffe266"/><path d="m240.838 176.789c-.034-.464-.089-.93-.191-1.401-.463-12.856-3.389-24.477-9.542-34.482.605 3.316.974 6.746 1.106 10.292.09.402.138.799.168 1.195 1.331 17.562-53.473 28.788-59.881 11.231-.301-1.01-.705-2.238-1.119-3.647-4.495 12.864-.202 24.319 1.432 29.975 7.28 20.576 69.539 7.42 68.027-13.163z" fill="#efaa66"/><g><g><path d="m204.672 93.805c-.661 0-1.333-.106-1.994-.329l-35.173-11.893c-3.256-1.101-5.003-4.633-3.902-7.889 1.102-3.256 4.634-5.001 7.889-3.902l35.173 11.893c3.256 1.101 5.003 4.633 3.902 7.889-.878 2.595-3.3 4.231-5.895 4.231z" fill="#d0844b"/></g><g><path d="m221.575 137.628c-.655 0-1.321-.104-1.976-.323l-50.511-16.902c-3.259-1.09-5.017-4.617-3.927-7.876 1.091-3.259 4.619-5.018 7.876-3.927l50.511 16.902c3.259 1.091 5.017 4.617 3.927 7.876-.871 2.604-3.297 4.25-5.9 4.25z" fill="#d0844b"/></g><g><path d="m240.84 183.013c-.582 0-1.174-.082-1.761-.255l-68.141-20.079c-3.297-.971-5.182-4.432-4.211-7.728.972-3.297 4.43-5.183 7.728-4.211l68.14 20.08c3.297.971 5.182 4.432 4.211 7.728-.797 2.71-3.277 4.465-5.966 4.465z" fill="#d0844b"/></g></g><path d="m83.709 196.236c14.469-8.355 25.201-21.69 31.11-37.318 1.679-4.439 4.045-8.721 7.129-12.704 14.73-19.02 41.6-24.412 62.516-12.527 24.946 14.176 32.2 46.231 16.52 69.628-13.5 20.145-35.252 28.546-55.377 27.905-11.724-.373-38.76-7.586-59.288-13.543-9.939-2.882-11.571-16.267-2.61-21.441z" fill="#bdf4e3"/><path d="m184.463 133.688c-20.916-11.885-47.786-6.493-62.516 12.527-3.084 3.982-5.45 8.265-7.128 12.704-5.909 15.627-16.641 28.963-31.11 37.318-8.961 5.174-7.329 18.559 2.608 21.442 20.528 5.957 47.564 13.169 59.288 13.543 20.125.64 41.877-7.761 55.378-27.906 15.68-23.398 8.427-55.452-16.52-69.628zm2.248 46.29c-6.732 16.118-21.153 24.996-35.746 27.231-8.501 1.303-29.05-.208-44.723-1.695-7.587-.72-10.752-10.012-5.066-14.887 9.182-7.87 14.931-18.781 16.865-30.674.549-3.378 1.617-6.738 3.247-9.98 7.785-15.483 26.34-22.907 43.174-17.259 20.079 6.737 30.068 28.543 22.249 47.264z" fill="#b1b7e3"/><g><g><path d="m141.156 303.293c-3.437 0-6.223-2.786-6.223-6.223 0-3.626-2.95-6.575-6.575-6.575-3.626 0-6.575 2.95-6.575 6.575 0 3.437-2.786 6.223-6.223 6.223s-6.223-2.786-6.223-6.223c0-10.489 8.533-19.022 19.022-19.022 10.488 0 19.022 8.533 19.022 19.022-.001 3.436-2.788 6.223-6.225 6.223z" fill="#ad99c9"/></g><g><path d="m270.983 303.293c-3.437 0-6.223-2.786-6.223-6.223 0-3.626-2.95-6.575-6.575-6.575-3.626 0-6.575 2.95-6.575 6.575 0 3.437-2.786 6.223-6.223 6.223s-6.223-2.786-6.223-6.223c0-10.489 8.533-19.022 19.022-19.022s19.022 8.533 19.022 19.022c-.002 3.436-2.788 6.223-6.225 6.223z" fill="#ad99c9"/></g></g><g><path d="m137.183 181.579c-1.541 0-3.104-.345-4.579-1.072-5.138-2.533-7.249-8.752-4.716-13.889 3.922-7.954 8.933-13.411 13.552-17.102 5.808-4.64 14.468-1.826 16.468 5.333 1.105 3.957-.183 8.247-3.397 10.805-2.587 2.059-5.621 5.275-8.018 10.137-1.806 3.663-5.485 5.787-9.31 5.788z" fill="#fff"/></g><path d="m208.469 328.605c5.948-.016 10.235 5.748 8.464 11.426-4.337 13.909-16.427 23.932-30.69 23.97s-26.407-9.92-30.819-23.805c-1.801-5.669 2.455-11.456 8.403-11.472z" fill="#ef8bbd"/></g><path d="m471.727 103.322 8.52 23.957c.365 1.026 1.087 1.839 1.998 2.249l21.285 9.59c3.007 1.355 3.007 6.146 0 7.501l-21.285 9.59c-.911.411-1.633 1.223-1.998 2.249l-8.52 23.957c-1.204 3.385-5.46 3.385-6.664 0l-8.52-23.957c-.365-1.026-1.087-1.839-1.998-2.249l-21.285-9.59c-3.007-1.355-3.007-6.146 0-7.501l21.285-9.59c.911-.411 1.633-1.223 1.998-2.249l8.52-23.957c1.204-3.385 5.46-3.385 6.664 0z" fill="#fef2a8"/><path d="m66.616 1.883 6.32 17.771c.271.761.806 1.364 1.482 1.668l15.789 7.113c2.231 1.005 2.231 4.559 0 5.564l-15.789 7.113c-.676.305-1.212.907-1.482 1.668l-6.32 17.771c-.893 2.511-4.05 2.511-4.943 0l-6.32-17.771c-.271-.761-.806-1.364-1.482-1.668l-15.789-7.112c-2.231-1.005-2.231-4.559 0-5.564l15.789-7.113c.676-.305 1.212-.908 1.482-1.668l6.32-17.771c.893-2.512 4.05-2.512 4.943-.001z" fill="#fef2a8"/><g fill="#ffe266"><ellipse cx="18.856" cy="110.05" rx="12.641" ry="12.641" transform="matrix(.923 -.386 .386 .923 -40.982 15.785)"/><path d="m402.588 77.149c0 5.422-4.396 9.818-9.818 9.818s-9.818-4.396-9.818-9.818 4.396-9.818 9.818-9.818c5.422.001 9.818 4.396 9.818 9.818z"/></g></g></svg>