<svg id="Capa_1" enable-background="new 0 0 512 512" height="512" viewBox="0 0 512 512" width="512" xmlns="http://www.w3.org/2000/svg"><g><g><path d="m126.904 501.156s-36.589-23.284-36.589-56.547 29.105-47.4 29.105-47.4-51.232-24.098-35.241-95.715c15.99-71.617 67.415-76.471 67.415-76.471s-6.287-99.124 86.408-45.926c0 0-5.911-133.178 82.634-77.837l-8.206 235.622z" fill="#78eac4"/><path d="m211.091 317.528c-83.409 107.24-124.56 31.054-129.572 10.172-.151 1.021-.268 2.022-.387 3.024 1.35 49.1 38.287 66.485 38.287 66.485s-29.105 14.137-29.105 47.399c0 33.263 36.559 56.816 36.559 56.816l50.881-45.294 72.08-66.435c-4.922.646-35.643-76.152-38.743-72.167z" fill="#71afc4"/><path d="m126.873 501.425c12.147-44.214 33.999-90.306 68.668-118.365-6.515-18.461-10.038-38.374-10.038-68.531l-1.107-60.001c0-21.473 6.521-41.421 17.69-57.975-5.125-5.215-9.46-12.248-12.519-21.139-9.317-27.077 7.729-64.826 16.16-67.727 8.432-2.901 45.097 16.366 54.415 43.442.368 1.07.694 2.126 1.001 3.176 8.623-2.321 17.687-3.567 27.043-3.567h64.052c4.783 0 9.379.364 13.794 1.035.655-5.886 2.464-12.173 5.606-18.718 12.266-25.544 50.516-40.273 58.47-36.454 7.954 3.82 20.375 42.88 8.109 68.424-4.058 8.452-9.173 14.901-14.861 19.445 11.281 12.789 18.755 26.789 22.582 37.311 9.234 25.393 13.851 60.02 13.851 60.02 25.013 23.547 32.971 55.767 22.962 83.791-8.258 23.123-24.557 40.077-46.246 51.202-19.064 9.778-50 13.283-66.941 11.809 9.415 20.711 14.387 50.527 17.727 72.822z" fill="#bdf4e3"/><path d="m459.79 281.801s-4.617-34.626-13.851-60.02c-3.826-10.522-11.301-24.521-22.582-37.31 5.688-4.544 10.803-10.993 14.861-19.445 12.266-25.545-.155-64.604-8.109-68.424-2.994-1.437-10.283-.25-18.86 3.155 6.746 6.338 11.93 32.293 6.931 54.745-1.843 8.277-5.026 15.005-9.105 20.174 12.558 8.952-.729 20.763 4.798 29.247 13.338 20.475 14.229 75.12 14.229 75.12 24.425 23.663 23.557 44.778 20.609 58.392-4.7 21.702-14.121 37.402-34.335 49.875-14.345 8.852-37.251 9.257-50.391 14.241-10.184 3.863-18.988 9.769-18.23 20.949.675 9.965 1.056 17.597.293 31.718-.708 13.095-11.182 24.197-24.281 23.586l-187.328-.437c-2.85 8.002-5.37 16.06-7.567 24.057h260.418c-3.34-22.296-8.312-52.111-17.727-72.823 16.941 1.474 47.878-2.031 66.941-11.809 21.689-11.125 37.988-28.078 46.246-51.202 10.011-28.023 2.053-60.242-22.96-83.789z" fill="#b1b7e3"/><path d="m291.917 168.003c.034-.461.089-.925.19-1.393.648-18.005 6.119-33.594 18.632-45.656.312-20.148 5.659-35.83 18.419-45.134 6.444-22.275 16.436-46.039 28.912-70.845 1.56-3.824 7.265-2.59 7.105 1.537 1.534 22.331 1.633 43.077-2.3 59.372 5.393 13.259 5.48 26.625-1.556 40.165 4.36 13.41 4.552 27.343-1.626 41.982 6.527 14.092 1.648 26.967-.113 33.066-7.24 20.465-69.167 7.379-67.663-13.094z" fill="#cab4ef"/><path d="m291.917 168.003c.034-.461.089-.925.19-1.393.46-12.787 3.37-24.347 9.491-34.298-.602 3.298-.969 6.71-1.1 10.237-.089.4-.137.795-.167 1.189-1.324 17.468 53.188 28.634 59.562 11.171.299-1.004.701-2.226 1.113-3.627 4.471 12.795.201 24.189-1.425 29.815-7.241 20.465-69.168 7.379-67.664-13.094z" fill="#be87ef"/><g><g><path d="m327.89 85.463c-2.582 0-4.991-1.628-5.864-4.209-1.095-3.238.643-6.751 3.881-7.846l34.985-11.83c3.239-1.097 6.752.643 7.847 3.881s-.643 6.751-3.881 7.846l-34.985 11.83c-.657.222-1.325.328-1.983.328z" fill="#a171e3"/></g><g><path d="m311.077 129.052c-2.589 0-5.002-1.637-5.869-4.227-1.085-3.242.664-6.75 3.906-7.834l50.242-16.811c3.24-1.086 6.75.663 7.834 3.905 1.085 3.242-.664 6.75-3.906 7.834l-50.242 16.811c-.651.218-1.314.322-1.965.322z" fill="#a171e3"/></g><g><path d="m294.105 173.549c-2.674 0-5.141-1.747-5.935-4.442-.966-3.279.909-6.721 4.188-7.687l65.586-19.327c3.279-.967 6.721.909 7.687 4.187.966 3.28-.909 6.721-4.188 7.687l-65.586 19.327c-.584.173-1.173.255-1.752.255z" fill="#a171e3"/></g></g><path d="m448.207 187.347c-14.392-8.31-25.066-21.574-30.944-37.118-1.669-4.415-4.023-8.675-7.09-12.636-14.651-18.919-41.378-24.282-62.182-12.46-24.813 14.1-32.028 45.984-16.431 69.256 13.428 20.037 35.064 28.394 55.082 27.756 11.662-.371 38.553-7.546 58.972-13.471 9.883-2.867 11.506-16.181 2.593-21.327z" fill="#78eac4"/><path d="m331.559 194.389c13.428 20.037 35.064 28.394 55.082 27.757 11.662-.372 38.553-7.546 58.971-13.471 9.884-2.868 11.507-16.182 2.594-21.328-14.392-8.31-25.066-21.575-30.944-37.118-1.669-4.415-4.023-8.675-7.09-12.636-14.651-18.919-41.378-24.282-62.182-12.46-24.813 14.099-32.027 45.983-16.431 69.256zm36.325-70.225c16.744-5.618 35.201 1.766 42.944 17.167 1.621 3.225 2.683 6.566 3.23 9.927 1.924 11.83 7.643 22.682 16.775 30.51 5.656 4.848 2.508 14.091-5.039 14.807-15.59 1.48-36.029 2.982-44.485 1.686-14.515-2.223-28.86-11.054-35.556-27.086-7.775-18.621 2.16-40.311 22.131-47.011z" fill="#71afc4"/><path d="m354.176 335.697h29.224v176.076h-29.224z" fill="#ffe266" transform="matrix(-1 0 0 -1 737.576 847.47)"/><path d="m332.782 511.773h21.395v-176.076h-29.224v168.246c-.001 4.324 3.505 7.83 7.829 7.83z" fill="#8bb6ef"/><path d="m383.4 335.697h29.224v144.595c2.326-.579 4.795-.893 7.354-.893 13.845 0 27.957 9.125 27.957 20.382v4.385c0 4.35-3.544 7.867-7.894 7.834l-29.961-.227h-26.68z" fill="#ef8bbd"/><g><path d="m322.171 350.149c-2.286.001-4.483-1.27-5.559-3.46-1.509-3.069-.244-6.778 2.824-8.287 10.961-5.389 29.176-8.606 48.725-8.606 18.677 0 35.808 2.844 47 7.803 3.125 1.384 4.537 5.042 3.152 8.167-1.385 3.126-5.04 4.539-8.167 3.151-9.527-4.221-25.222-6.741-41.984-6.741-17.481 0-34.058 2.811-43.263 7.337-.88.431-1.811.636-2.728.636z" fill="#90e0c5"/></g><g><path d="m395.019 172.766c-3.805.001-7.464-2.113-9.26-5.756-2.384-4.835-5.402-8.034-7.975-10.082-3.198-2.545-4.479-6.812-3.38-10.749 1.997-7.148 10.638-9.905 16.43-5.265 4.492 3.599 9.352 8.879 13.203 16.516 2.478 4.912.995 11.063-3.735 13.874-1.673.996-3.494 1.462-5.283 1.462z" fill="#fff"/></g><g><path d="m313.384 362.621c-1.896 0-3.767-.867-4.98-2.507-2.034-2.748-1.455-6.624 1.293-8.657 4.313-3.193 6.787-7.891 6.787-12.89 0-5.294-2.851-10.332-7.626-13.475-2.856-1.88-3.647-5.719-1.767-8.574 1.88-2.857 5.717-3.647 8.574-1.767 8.266 5.44 13.2 14.344 13.2 23.816 0 8.964-4.302 17.288-11.802 22.84-1.108.82-2.399 1.214-3.679 1.214z" fill="#90e0c5"/></g><g><path d="m422.521 362.621c-1.279 0-2.57-.395-3.677-1.215-7.501-5.551-11.803-13.876-11.803-22.84 0-9.472 4.935-18.376 13.2-23.816 2.853-1.88 6.694-1.09 8.574 1.767 1.879 2.855 1.089 6.695-1.767 8.574-4.776 3.143-7.627 8.181-7.627 13.475 0 4.998 2.474 9.697 6.788 12.89 2.748 2.033 3.327 5.91 1.293 8.657-1.215 1.641-3.086 2.508-4.981 2.508z" fill="#90e0c5"/></g><g><path d="m421.963 298.596c-1.021 0-2.056-.254-3.01-.787-3.393-1.895-14.574-8.713-16.005-16.866-1.64-9.35 10.488-16.744 15.777-19.49 3.037-1.573 6.772-.39 8.346 2.644s.392 6.768-2.64 8.344c-3.823 1.996-7.92 5.11-9.07 6.824 1.103 1.835 5.476 5.404 9.635 7.74 2.979 1.673 4.042 5.443 2.373 8.425-1.135 2.024-3.238 3.166-5.406 3.166z" fill="#90e0c5"/></g><g><path d="m308.1 301.691c-2.323 0-4.549-1.314-5.605-3.554-1.455-3.092-.13-6.777 2.96-8.235 4.054-1.927 8.399-5.288 8.977-6.915-.45-1.544-4.731-5.151-9.365-7.342-3.086-1.459-4.415-5.144-2.961-8.234 1.453-3.088 5.127-4.423 8.22-2.974 2.602 1.218 15.627 7.792 16.469 17.61.88 10.25-12.072 17.176-16.062 19.055-.852.399-1.75.589-2.633.589z" fill="#90e0c5"/></g><ellipse cx="455.338" cy="452.891" fill="#ffe266" rx="13.22" ry="13.22" transform="matrix(.991 -.137 .137 .991 -57.559 66.395)"/><circle cx="289.357" cy="480.598" fill="#8bb6ef" r="13.22"/><ellipse cx="265.095" cy="429.317" fill="#ef8bbd" rx="16.977" ry="16.977" transform="matrix(.523 -.852 .852 .523 -239.47 430.84)"/></g><path d="m65.551 148.882 8.475 23.829c.363 1.02 1.081 1.829 1.988 2.237l21.171 9.538c2.991 1.348 2.991 6.113 0 7.461l-21.171 9.538c-.907.408-1.625 1.217-1.988 2.237l-8.475 23.829c-1.197 3.367-5.431 3.367-6.628 0l-8.475-23.829c-.363-1.02-1.081-1.829-1.988-2.237l-21.171-9.538c-2.991-1.348-2.991-6.113 0-7.461l21.171-9.538c.907-.409 1.625-1.217 1.988-2.237l8.475-23.829c1.197-3.367 5.431-3.367 6.628 0z" fill="#cab4ef"/><path d="m164.218 1.873 6.286 17.676c.269.757.802 1.357 1.474 1.66l15.704 7.075c2.219 1 2.219 4.535 0 5.534l-15.704 7.076c-.672.303-1.205.903-1.474 1.659l-6.286 17.676c-.888 2.497-4.029 2.497-4.917 0l-6.286-17.676c-.269-.757-.802-1.356-1.474-1.659l-15.704-7.076c-2.219-1-2.219-4.535 0-5.534l15.704-7.075c.672-.303 1.205-.903 1.474-1.66l6.286-17.676c.888-2.497 4.029-2.497 4.917 0z" fill="#cab4ef"/><g fill="#a183e2"><ellipse cx="100.275" cy="100.758" rx="12.573" ry="12.573" transform="matrix(.083 -.997 .997 .083 -8.426 192.362)"/><ellipse cx="249.935" cy="32.761" rx="9.766" ry="9.765" transform="matrix(.993 -.123 .123 .993 -2.131 30.857)"/></g></g></svg>