<svg id="Capa_1" enable-background="new 0 0 512 512" height="512" viewBox="0 0 512 512" width="512" xmlns="http://www.w3.org/2000/svg"><g><g><path d="m448.864 510.64s36.657-23.327 36.657-56.651-29.159-47.487-29.159-47.487 51.326-24.142 35.306-95.891-67.54-76.612-67.54-76.612 6.298-99.307-86.567-46.011c0 0 5.922-133.423-82.787-77.98l8.221 236.057z" fill="#bdf4e3"/><path d="m456.362 406.501s51.326-24.142 35.306-95.891c-4.888-21.893-13.084-37.55-22.11-48.751 13.819 96.917-51.997 159.475-125.878 106.373-3.766-2.707-13.165 28.226-18.503 32.889l123.686 109.519s36.657-23.327 36.657-56.652c0-33.324-29.158-47.487-29.158-47.487z" fill="#b1b7e3"/><path d="m448.894 510.91c-12.169-44.296-34.062-90.473-68.795-118.584 6.527-18.495 10.056-38.444 10.056-68.657l1.109-60.112c0-21.512-6.533-41.498-17.723-58.082 5.134-5.225 9.477-12.27 12.542-21.178 9.335-27.127-7.743-64.946-16.19-67.852-8.447-2.907-45.18 16.396-54.515 43.522-.368 1.072-.695 2.13-1.003 3.182-8.639-2.326-17.72-3.573-27.093-3.573h-64.17c-4.792 0-9.396.365-13.82 1.037-.656-5.897-2.468-12.195-5.617-18.752-12.289-25.592-50.609-40.347-58.578-36.521-7.969 3.827-20.413 42.959-8.124 68.55 4.066 8.467 9.19 14.928 14.888 19.48-11.301 12.813-18.79 26.838-22.623 37.38-9.251 25.44-13.876 60.13-13.876 60.13-25.059 23.591-33.032 55.87-23.005 83.945 8.273 23.166 24.603 40.151 46.332 51.296 19.099 9.796 50.092 13.307 67.065 11.831-9.432 20.75-14.413 50.62-17.76 72.957h260.9z" fill="#e7effa"/><path d="m380.099 392.326c6.527-18.495 10.056-38.445 10.056-68.657l1.109-60.112c0-21.512-6.533-41.498-17.723-58.083 5.134-5.224 9.477-12.27 12.542-21.177 9.335-27.127-7.743-64.946-16.19-67.852-3.131-1.077-10.149.901-18.216 5.193 6.303 12.677 13.421 31.676 11.892 50.029-1.059 12.711-17.496 26.159-21.796 31.131 9.369 15.779 16.542 68.86 16.542 89.328l-.281 15.262c0 20.949-8.985 49.426-13.852 68.946-2.838 11.383-4.423 21.613 4.085 29.691 11.44 10.862 20.299 21.313 27.918 40.543 8.482 21.407-7.37 44.623-30.395 44.623h-154.611c-.908 5.14-1.719 10.159-2.453 14.915-.007.048-.016.098-.023.147-.244 1.584-.48 3.139-.708 4.659h260.898c-12.168-44.298-34.061-90.475-68.794-118.586z" fill="#dcb6f5"/><path d="m283.546 176.872c-.034-.462-.089-.927-.19-1.396-.649-18.038-6.131-33.656-18.667-45.74-.312-20.185-5.669-35.896-18.453-45.217-6.456-22.316-16.467-46.124-28.965-70.976-1.563-3.831-7.279-2.594-7.118 1.54-1.536 22.372-1.636 43.157 2.304 59.481-5.403 13.284-5.49 26.674 1.559 40.239-4.368 13.435-4.56 27.394 1.629 42.059-6.539 14.118-1.651 27.017.114 33.126 7.253 20.506 69.294 7.395 67.787-13.116z" fill="#ffe266"/><path d="m283.546 176.872c-.034-.462-.089-.927-.19-1.396-.461-12.811-3.377-24.392-9.508-34.361.603 3.304.971 6.722 1.102 10.256.089.4.138.797.168 1.191 1.326 17.501-53.286 28.687-59.672 11.192-.3-1.006-.702-2.23-1.115-3.634-4.479 12.819-.201 24.233 1.427 29.87 7.254 20.504 69.295 7.393 67.788-13.118z" fill="#efaa66"/><g><g><path d="m247.506 94.179c-.658 0-1.328-.106-1.987-.328l-35.049-11.852c-3.245-1.097-4.985-4.617-3.889-7.861 1.098-3.244 4.616-4.986 7.861-3.888l35.05 11.852c3.244 1.097 4.985 4.617 3.888 7.861-.874 2.585-3.287 4.216-5.874 4.216z" fill="#d0844b"/></g><g><path d="m264.351 137.849c-.652 0-1.316-.104-1.969-.322l-50.335-16.842c-3.248-1.087-5-4.601-3.913-7.849s4.604-5.001 7.849-3.913l50.335 16.842c3.248 1.087 5 4.601 3.913 7.849-.869 2.595-3.287 4.235-5.88 4.235z" fill="#d0844b"/></g><g><path d="m277.927 181.418c-.58 0-1.17-.082-1.755-.254l-62.28-18.353c-3.285-.968-5.164-4.416-4.196-7.701s4.413-5.165 7.701-4.196l62.28 18.353c3.285.968 5.164 4.416 4.196 7.701-.796 2.701-3.266 4.45-5.946 4.45z" fill="#d0844b"/></g></g><path d="m126.967 196.252c14.418-8.325 25.112-21.614 31.001-37.187 1.673-4.423 4.03-8.691 7.104-12.659 14.678-18.953 41.454-24.327 62.297-12.483 24.859 14.126 32.087 46.069 16.462 69.384-13.453 20.074-35.129 28.446-55.184 27.808-11.683-.372-38.624-7.56-59.08-13.495-9.903-2.875-11.529-16.213-2.6-21.368z" fill="#bdf4e3"/><path d="m227.369 133.922c-20.843-11.843-47.618-6.47-62.297 12.483-3.073 3.968-5.431 8.236-7.103 12.66-5.889 15.573-16.583 28.862-31.001 37.187-8.929 5.156-7.303 18.494 2.599 21.367 20.456 5.936 47.397 13.123 59.08 13.496 20.055.638 41.731-7.734 55.184-27.808 15.625-23.316 8.397-55.259-16.462-69.385zm2.24 46.128c-6.708 16.062-21.079 24.908-35.621 27.136-8.472 1.298-28.948-.207-44.567-1.689-7.56-.718-10.714-9.977-5.048-14.835 9.149-7.843 14.878-18.715 16.806-30.567.547-3.367 1.612-6.714 3.236-9.945 7.757-15.429 26.248-22.827 43.023-17.198 20.008 6.713 29.962 28.442 22.171 47.098z" fill="#b1b7e3"/><g><g><path d="m184.214 302.933c-3.425 0-6.201-2.777-6.201-6.201 0-3.613-2.939-6.552-6.552-6.552s-6.552 2.939-6.552 6.552c0 3.425-2.777 6.201-6.201 6.201-3.425 0-6.201-2.777-6.201-6.201 0-10.452 8.503-18.955 18.955-18.955s18.955 8.503 18.955 18.955c-.002 3.424-2.779 6.201-6.203 6.201z" fill="#ad99c9"/></g><g><path d="m313.586 302.933c-3.425 0-6.201-2.777-6.201-6.201 0-3.613-2.939-6.552-6.552-6.552s-6.552 2.939-6.552 6.552c0 3.425-2.777 6.201-6.201 6.201-3.425 0-6.201-2.777-6.201-6.201 0-10.452 8.503-18.955 18.955-18.955s18.955 8.503 18.955 18.955c-.002 3.424-2.778 6.201-6.203 6.201z" fill="#ad99c9"/></g></g><g><path d="m180.254 181.646c-1.535 0-3.094-.344-4.563-1.068-5.12-2.524-7.224-8.721-4.699-13.841 3.908-7.926 8.901-13.365 13.505-17.042 5.788-4.623 14.418-1.82 16.411 5.314 1.101 3.943-.182 8.218-3.385 10.768-2.577 2.051-5.601 5.257-7.99 10.102-1.801 3.649-5.468 5.766-9.279 5.767z" fill="#fff"/></g><g><g><path d="m207.843 382.208c-10.452 0-18.955-8.503-18.955-18.955 0-4.932 1.893-9.43 4.991-12.805-3.098-3.375-4.991-7.873-4.991-12.805 0-10.452 8.503-18.955 18.955-18.955 3.425 0 6.201 2.777 6.201 6.201 0 3.425-2.777 6.201-6.201 6.201-3.613 0-6.552 2.939-6.552 6.552s2.939 6.552 6.552 6.552c3.425 0 6.201 2.777 6.201 6.201 0 3.425-2.777 6.304-6.201 6.304-3.613 0-6.552 2.939-6.552 6.552s2.939 6.552 6.552 6.552c3.425 0 6.201 2.777 6.201 6.201s-2.777 6.204-6.201 6.204z" fill="#ad99c9"/></g></g><ellipse cx="301.766" cy="346.557" fill="#f7c4db" rx="31.935" ry="26.021"/><ellipse cx="138.911" cy="346.557" fill="#f7c4db" rx="31.935" ry="26.021"/><g><path d="m81.55 207.904c-3.107-10.305-13.808-16.435-24.346-13.764-8.352 2.117-14.157 9.146-15.124 17.218-4.695-6.637-13.148-10.051-21.5-7.934-10.351 2.624-16.791 12.788-14.954 23.138 1.644 21.095 50.613 43.596 50.613 43.596s33.513-43.326 25.311-62.254z" fill="#ffa585"/><path d="m81.55 207.904c0-.001 0-.001 0-.001-3.108-10.305-13.808-16.434-24.346-13.763-5.94 1.506-10.579 5.501-13.119 10.583 9.739-6.344 21.184-2.801 23.642 5.333 4.321 9.915-5.492 27.262-13.077 38.82-8.423 13.289-28.43 1.507-38.769-4.931 1.292 1.263 2.664 2.504 4.095 3.719.954.942 2.131 1.758 3.192 2.592 13.685 10.688 30.705 18.794 32.843 19.795.081.038.163.076.227.105 9.79-14.446 31.287-41.808 25.312-62.252z" fill="#ef7c85"/></g></g><path d="m478.061 56.452 8.49 23.873c.363 1.022 1.083 1.832 1.991 2.241l21.21 9.556c2.997 1.35 2.997 6.124 0 7.474l-21.21 9.556c-.908.409-1.628 1.219-1.991 2.241l-8.49 23.873c-1.199 3.373-5.441 3.373-6.641 0l-8.49-23.873c-.364-1.022-1.083-1.832-1.991-2.241l-21.21-9.556c-2.996-1.35-2.996-6.124 0-7.474l21.21-9.556c.908-.409 1.628-1.219 1.991-2.241l8.49-23.873c1.2-3.372 5.442-3.372 6.641 0z" fill="#fef2a8"/><path d="m70.843 2.967 6.298 17.709c.27.758.803 1.359 1.477 1.662l15.733 7.089c2.223 1.001 2.223 4.543 0 5.544l-15.733 7.089c-.674.303-1.207.904-1.477 1.662l-6.298 17.708c-.89 2.502-4.036 2.502-4.926 0l-6.298-17.709c-.27-.758-.803-1.359-1.477-1.662l-15.733-7.089c-2.223-1.001-2.223-4.543 0-5.544l15.733-7.089c.674-.303 1.207-.904 1.477-1.662l6.298-17.709c.89-2.501 4.036-2.501 4.926.001z" fill="#fef2a8"/><g fill="#ffe266"><ellipse cx="368.775" cy="36.713" rx="12.597" ry="12.597" transform="matrix(.993 -.122 .122 .993 -1.723 45.334)"/><path d="m19.567 114.99c0 5.403-4.38 9.784-9.784 9.784-5.403 0-9.784-4.38-9.784-9.784 0-5.403 4.38-9.783 9.784-9.783s9.784 4.38 9.784 9.783z"/></g></g></svg>