<svg id="Capa_1" enable-background="new 0 0 512 512" height="512" viewBox="0 0 512 512" width="512" xmlns="http://www.w3.org/2000/svg"><g><g><g><path d="m37.886 208.465c-19.332 27.881-18.388 104.27 4.622 119.656 10.93 6.386 13.213 12.6 24.343 1.915 8.831-8.478 17.011-43.014 18.471-43.979 5.472-3.615-12.152-39.072-4.683-55.842 3.754-8.428 41.039-27.548 24.688-48.929-16.35-21.381-48.108-.702-67.441 27.179z" fill="#e7effa"/><path d="m53.438 190.26c18.035-17.125 39.431-25.264 51.889-8.974 13.537 17.702-9.691 33.854-20.216 43.672-10.596-11.538-21.601-22.715-31.673-34.698z" fill="#78eac4"/></g><path d="m396.575 508.621s39.923-21.057 44.482-53.272-20.925-49.787-20.925-49.787 51.572-16.508 46.321-88.001-53.036-83.051-53.036-83.051 19.509-95.164-75.116-56c0 0 23.822-128.195-67.187-86.402l-24.561 229.294z" fill="#bdf4e3"/><path d="m420.131 405.562s51.572-16.509 46.321-88.002c-1.219-17.999-5.695-33.966-11.527-45.254 3.671 106.608-74.356 143.538-142.477 75.833-3.014-2.996-14.998 20.619-21.848 28.233l105.78 132.008c.359-.09.752-.19 1.179-.303 6.167-3.489 39.364-23.522 43.497-52.728 4.559-32.215-20.925-49.787-20.925-49.787z" fill="#b1b7e3"/><path d="m396.38 507.662c-15.568-41.923-40.141-74.688-68.615-96.141l-.01.246c11.536-16.347 20.532-34.954 28.91-64.615l17.757-58.707c5.965-21.119 5.093-42.551-1.294-61.936 6.489-3.706 12.706-9.419 18.185-17.313 16.686-24.043 10.407-65.907 2.92-71.102-7.487-5.196-48.901 3.569-65.587 27.612-.659.95-1.273 1.898-1.867 2.846-7.836-4.678-16.405-8.421-25.607-11.02l-62.998-17.793c-4.705-1.329-9.325-2.247-13.855-2.814.991-5.971.958-12.657-.314-19.967-4.968-28.532-38.498-53.643-47.382-52.096s-31.952 36.514-26.984 65.046c1.644 9.44 4.883 17.204 9.215 23.253-14.648 9.445-25.888 21.138-32.575 30.424-16.136 22.41-30.296 55.185-30.296 55.185-31.143 16.211-47.92 45.69-45.861 76.034 1.699 25.037 13.02 46.239 31.262 63.206 16.034 14.913 45.488 26.954 62.56 30.211l2.621 1.263c-9.991 33.169-16.385 75.93-16.338 98.18" fill="#e7effa"/><g><path d="m52.436 333.866c-2.857 0-5.449-1.949-6.146-4.85-1.186-4.939-2.448-13.514-2.448-19.676 0-20.977 8.987-40.119 27.476-58.522 2.473-2.466 6.481-2.459 8.946.021 2.465 2.475 2.456 6.482-.021 8.946-15.981 15.908-23.749 32.117-23.749 49.555 0 4.934 1.088 12.522 2.097 16.721.817 3.397-1.277 6.813-4.674 7.629-.495.119-.992.176-1.481.176z" fill="#ad99c9"/></g><path d="m287.376 182.314c.1-.462.18-.933.215-1.421 4.555-17.842 3.683-34.704-5.109-50.138 5.502-19.846 4.779-36.764-5.051-49.565.102-23.699-2.846-49.881-7.928-77.8-.428-4.199-6.377-4.633-7.41-.541-7.941 21.454-14.018 41.768-14.858 58.879-9.11 11.447-13.048 24.527-10.052 39.831-8.141 11.893-12.345 25.499-10.506 41.633-10.462 11.937-9.389 25.967-9.42 32.455 1.199 22.157 65.692 27.175 70.119 6.667z" fill="#ffe266"/><path d="m287.376 182.314c.1-.462.18-.933.215-1.421 3.235-12.671 3.713-24.844.581-36.366-.36 3.407-.984 6.859-1.872 10.355-.028.417-.094.819-.179 1.214-3.737 17.51-60.406 12.745-61.622-6.215-.004-1.071-.046-2.385-.046-3.877-8.072 11.257-7.169 23.66-7.197 29.645 1.2 22.155 65.693 27.173 70.12 6.665z" fill="#efaa66"/><g><g><path d="m277.673 91.267c-1.256 0-2.524-.373-3.63-1.149l-30.893-21.684c-2.859-2.008-3.55-5.953-1.544-8.813 2.009-2.859 5.955-3.55 8.813-1.543l30.894 21.684c2.859 2.008 3.55 5.952 1.543 8.813-1.231 1.753-3.192 2.692-5.183 2.692z" fill="#d0844b"/></g><g><path d="m281.595 138.854c-1.249 0-2.51-.37-3.613-1.138l-44.418-30.966c-2.866-1.998-3.57-5.941-1.571-8.808s5.94-3.568 8.808-1.571l44.418 30.966c2.866 1.997 3.57 5.941 1.571 8.808-1.23 1.763-3.196 2.709-5.195 2.709z" fill="#d0844b"/></g><g><path d="m285.332 187.329c-1.174 0-2.361-.326-3.421-1.01l-58.663-37.808c-2.938-1.893-3.784-5.807-1.891-8.744 1.892-2.938 5.808-3.786 8.744-1.89l58.663 37.808c2.938 1.893 3.784 5.807 1.891 8.744-1.209 1.876-3.244 2.9-5.323 2.9z" fill="#d0844b"/></g></g><path d="m128.552 156.231c16.507-4 30.797-13.929 41.041-27.477 2.91-3.848 6.445-7.347 10.595-10.346 19.819-14.327 47.572-11.882 64.563 5.706 20.266 20.978 18.15 54.321-3.851 72.645-18.943 15.777-42.566 17.734-62.01 11.339-11.328-3.725-35.628-18.511-53.941-30.207-8.866-5.66-6.62-19.183 3.603-21.66z" fill="#bdf4e3"/><path d="m244.751 124.114c-16.992-17.588-44.744-20.033-64.563-5.706-4.15 3-7.685 6.498-10.595 10.347-10.244 13.547-24.534 23.477-41.041 27.477-10.223 2.477-12.469 16-3.604 21.661 18.313 11.695 42.613 26.481 53.941 30.207 19.445 6.395 43.068 4.437 62.011-11.339 22.001-18.326 24.117-51.668 3.851-72.647zm-11.079 45.792c-11.187 13.79-27.797 18.314-42.671 16.31-8.665-1.167-28.273-8.531-43.133-14.476-7.193-2.878-7.616-12.848-.673-15.971 11.211-5.043 19.946-14.036 25.243-25.081 1.504-3.138 3.509-6.108 6.028-8.803 12.032-12.869 32.257-14.789 47.057-4.454 17.651 12.326 21.142 36.458 8.149 52.475z" fill="#b1b7e3"/><g><path d="m187.886 157.695c-2.58 0-5.166-.941-7.202-2.846-4.269-3.993-4.197-10.955-.199-15.219 5.977-6.376 12.261-10.153 17.703-12.388 7.018-2.882 14.7 2.311 14.598 9.897-.056 4.177-2.543 7.992-6.412 9.566-3.113 1.266-6.994 3.533-10.726 7.587-2.08 2.258-4.917 3.403-7.762 3.403z" fill="#fff"/></g><path d="m327.87 411.602c11.481-16.307 20.445-34.888 28.795-64.45l17.757-58.707c5.965-21.119 5.093-42.551-1.294-61.935 6.49-3.706 12.706-9.42 18.185-17.313 16.686-24.044 10.407-65.908 2.92-71.102-3.334-2.315-13.401-1.851-25.011 1.488 3.45 11.901 1.47 44.74-13.485 63.99-5.668 7.296-11.686 12.469-17.681 15.71 2.969 18.852.983 39.405-6.782 59.334l-22.584 55.343c-7.246 18.597-14.103 32.511-21.379 44.185-5.956 9.553-5.001 21.349 1.145 30.781 12.301 18.874 37.021 67.962 41.213 98.736h66.711c-15.548-41.871-40.081-74.605-68.51-96.06z" fill="#dcb6f5"/><g><g><path d="m218.92 512c-2.285 0-4.491-1.241-5.618-3.409-5.081-9.772-8.493-18.932-11.235-26.292-1.337-3.59-2.491-6.69-3.611-9.268-1.391-3.205.079-6.931 3.284-8.323 3.206-1.391 6.931.078 8.323 3.284 1.253 2.887 2.462 6.133 3.861 9.891 2.62 7.035 5.882 15.79 10.604 24.872 1.612 3.099.406 6.919-2.695 8.531-.932.484-1.93.714-2.913.714z" fill="#ad99c9"/></g><g><path d="m258.923 483.513c-5.051 0-9.895-1.767-14.228-5.227-5.1-4.073-10.191-14.336-11.722-17.946-1.364-3.217.137-6.93 3.354-8.294 3.218-1.365 6.929.137 8.294 3.354 1.928 4.544 5.912 11.356 7.97 13 2.706 2.161 5.37 2.872 8.384 2.24 6.171-1.297 11.999-7.909 13.007-9.831 1.538-3.136 5.326-4.421 8.462-2.884 3.136 1.539 4.428 5.339 2.888 8.475-1.731 3.525-10.026 13.996-21.443 16.554-1.67.373-3.329.559-4.966.559z" fill="#ad99c9"/></g><path d="m200.417 477.541c-11.045-23.785-11.906-47.748 8.732-54.354 22.426-7.178 30.715 21.392 36.983 35.21-15.223 6.43-30.223 13.389-45.715 19.144z" fill="#78eac4"/></g><g><g><path d="m163.348 350.028c-10.662 0-19.337-8.675-19.337-19.337 0-5.031 1.932-9.619 5.092-13.062-3.16-3.443-5.092-8.033-5.092-13.063 0-10.662 8.675-19.337 19.337-19.337 3.494 0 6.326 2.833 6.326 6.326 0 3.494-2.833 6.326-6.326 6.326-3.686 0-6.685 2.998-6.685 6.685 0 3.686 2.998 6.685 6.685 6.685 3.494 0 6.326 2.833 6.326 6.326 0 3.494-2.833 6.431-6.326 6.431-3.686 0-6.685 2.998-6.685 6.684s2.998 6.685 6.685 6.685c3.494 0 6.326 2.833 6.326 6.326s-2.833 6.325-6.326 6.325z" fill="#ad99c9"/></g></g><g><g><path d="m138.441 261.626c-1.425 0-2.87-.159-4.316-.49-10.394-2.379-16.913-12.77-14.534-23.164.78-3.406 4.178-5.53 7.578-4.755 3.406.78 5.535 4.172 4.755 7.578-.398 1.74-.095 3.532.854 5.043.949 1.513 2.43 2.565 4.17 2.964 3.594.825 7.184-1.43 8.007-5.024.779-3.406 4.176-5.531 7.578-4.755 3.406.779 5.535 4.172 4.755 7.578-2.048 8.948-10.034 15.024-18.847 15.025z" fill="#ad99c9"/></g><g><path d="m251.065 285.809c-1.425 0-2.87-.159-4.316-.49-10.394-2.381-16.913-12.772-14.535-23.165.779-3.405 4.168-5.537 7.578-4.755 3.405.779 5.535 4.172 4.755 7.579-.822 3.592 1.432 7.185 5.026 8.008 3.59.826 7.183-1.431 8.006-5.025.78-3.406 4.177-5.53 7.578-4.755 3.406.78 5.535 4.172 4.755 7.579-2.048 8.946-10.034 15.023-18.847 15.024z" fill="#ad99c9"/></g></g><g><path d="m339.774 258.126-12.271 22.435-22.435 12.27 22.435 12.271 12.271 22.435 12.27-22.435 22.435-12.271-22.435-12.27z" fill="#ffe266"/></g><g><path d="m402.493 188.326-12.27 22.435-22.435 12.27 22.435 12.271 12.27 22.435 12.271-22.435 22.435-12.271-22.435-12.27z" fill="#ffe266"/></g></g><path d="m474.121 27.996 8.661 24.354c.371 1.043 1.105 1.869 2.031 2.286l21.638 9.749c3.057 1.377 3.057 6.248 0 7.625l-21.638 9.749c-.926.417-1.66 1.244-2.031 2.286l-8.661 24.354c-1.224 3.441-5.551 3.441-6.775 0l-8.661-24.354c-.371-1.043-1.105-1.869-2.031-2.286l-21.637-9.749c-3.057-1.377-3.057-6.248 0-7.625l21.637-9.749c.927-.417 1.661-1.244 2.031-2.286l8.661-24.354c1.224-3.44 5.551-3.44 6.775 0z" fill="#fef2a8"/><path d="m93.067 14.46 6.425 18.065c.275.773.82 1.386 1.507 1.696l16.05 7.231c2.268 1.022 2.268 4.634 0 5.656l-16.05 7.231c-.687.31-1.232.923-1.507 1.696l-6.425 18.065c-.908 2.552-4.118 2.552-5.025 0l-6.425-18.065c-.275-.774-.82-1.386-1.507-1.696l-16.05-7.231c-2.268-1.022-2.268-4.634 0-5.656l16.05-7.231c.687-.31 1.232-.923 1.507-1.696l6.425-18.065c.907-2.553 4.117-2.553 5.025 0z" fill="#fef2a8"/><g fill="#ffe266"><ellipse cx="16.107" cy="111.842" rx="12.85" ry="12.85" transform="matrix(.071 -.998 .998 .071 -96.595 119.98)"/><path d="m380.938 31.334c0 5.512-4.469 9.981-9.981 9.981s-9.981-4.468-9.981-9.981c0-5.512 4.468-9.98 9.981-9.98 5.513-.001 9.981 4.468 9.981 9.98z"/></g></g></svg>