<svg id="Capa_1" enable-background="new 0 0 512 512" height="512" viewBox="0 0 512 512" width="512" xmlns="http://www.w3.org/2000/svg"><g><g><path d="m488.786 509.015c-6.335 0-12.645-2.577-17.229-7.645l-314.971-348.261c-8.602-9.512-7.865-24.195 1.646-32.798 9.51-8.602 24.194-7.866 32.798 1.646l314.972 348.261c8.602 9.511 7.865 24.195-1.646 32.798-4.444 4.018-10.016 5.999-15.57 5.999z" fill="#ffdcb6"/><g><path d="m75.531 45.966s18.589-40.126 57.907-34.928c37.695 4.983 49.229 41.237 49.229 41.237s77.865 7.427 130.756 42.156c34.439 22.613 32.343 49.829 22.811 70.376-7.943 17.121-21.902 30.73-38.952 38.826l-38.342 18.206z" fill="#a183e2"/><path d="m159.297 226.164 37.206 64.02c1.95 3.355 6.469 4.11 9.404 1.572l96.865-83.787c3.693-3.194 4.024-8.805.732-12.412l-87.911-96.313c-4.045-3.986-12.71-12.046-20.411-18.745 7.292-3.755 13.07-11.574 15.287-23.247 3.648-19.21-11.564-43.054-17.546-44.19s-28.876 15.471-32.524 34.681c-.875 4.608-1.008 8.856-.524 12.696-34.733-7.497-70.927 17.883-95.085 61.309-31.002 55.726-28.764 115.231-3.548 131.715 26.005 17 65.733 4.8 98.055-27.299z" fill="#f7c4db"/><path d="m61.242 253.463c22.544 14.737 55.399 7.518 84.804-15.574l-101.124-63.088c-7.352 36.309-.838 67.445 16.32 78.662z" fill="#ef8bbd"/><path d="m161.049 205.483c-2.736-4.793-9.285-5.54-13.109-1.561-27.748 28.875-77.426 42.577-98.446 28.836-1.475-.964-2.857-2.104-4.15-3.393 3.196 10.893 8.576 19.311 15.897 24.097 26.005 17 65.733 4.801 98.055-27.299 0 0 .001-.001.002-.002 5.146-4.933 6.283-12.738 2.749-18.929z" fill="#e893db"/><path d="m61.242 253.463c22.544 14.737 55.398 7.518 84.804-15.574l-23.486-14.653c-26.405 14.839-57.544 19.668-73.065 9.522-1.472-.962-2.85-2.099-4.14-3.383 3.195 10.887 8.569 19.304 15.887 24.088z" fill="#e068bd"/><path d="m215.593 99.244c-4.045-3.986-12.711-12.046-20.411-18.745 7.292-3.755 13.07-11.574 15.287-23.247 3.648-19.21-11.564-43.054-17.546-44.19-4.311-.819-17.402 7.577-25.747 19.521 5.787 5.142 14.775 22.338 11.86 36.412-.509 2.459-1.202 4.714-2.052 6.76-4.114 9.914-1.802 21.331 5.721 28.987l.103.105 63.093 71.47c8.479 9.605 7.366 24.312-2.461 32.532l-63.392 53.02 16.456 28.316c1.95 3.355 6.469 4.11 9.404 1.572l96.865-83.787c3.693-3.194 4.024-8.805.732-12.411z" fill="#e893db"/><path d="m309.087 252.493-34.644 30.93-25.828-28.61 35.13-30.357z" fill="#efa5b6"/><path d="m.872 10.426 80.808 106.256c10.441 8.526 52.871-43.435 42.431-51.962l-117.218-61.193c-4.372-2.225-8.817 2.868-6.021 6.899z" fill="#e7effa"/><path d="m153.496 138.341c3.392 5.837 1.41 13.318-4.427 16.71s-13.318 1.41-16.71-4.427-1.41-13.318 4.426-16.71c5.837-3.391 13.318-1.41 16.711 4.427z" fill="#c56cb7"/></g><g><path d="m73.31 236.558c-4.565 0-8.774-2.987-10.121-7.59-1.321-4.516-2.169-9.459-2.522-14.693-.391-5.813 4.005-10.843 9.818-11.234 5.803-.392 10.842 4.005 11.234 9.818.249 3.709.828 7.135 1.72 10.185 1.636 5.592-1.571 11.452-7.163 13.087-.988.29-1.986.427-2.966.427z" fill="#fff"/></g><g><path d="m76.617 178.729c-.838 0-1.69-.1-2.54-.311-5.657-1.399-9.108-7.117-7.71-12.773.825-3.336 1.663-6.379 2.564-9.303 1.715-5.568 7.619-8.694 13.188-6.976 5.569 1.715 8.692 7.619 6.976 13.188-.783 2.541-1.517 5.208-2.245 8.154-1.188 4.806-5.496 8.021-10.233 8.021z" fill="#fff"/></g></g><path d="m440.515 177.797 9.069 25.5c.388 1.092 1.157 1.957 2.127 2.394l22.656 10.207c3.201 1.442 3.201 6.542 0 7.984l-22.656 10.207c-.97.437-1.739 1.302-2.127 2.394l-9.069 25.5c-1.281 3.603-5.812 3.603-7.093 0l-9.069-25.5c-.388-1.092-1.157-1.957-2.127-2.394l-22.656-10.207c-3.201-1.442-3.201-6.542 0-7.984l22.656-10.207c.97-.437 1.739-1.302 2.127-2.394l9.069-25.5c1.281-3.602 5.811-3.602 7.093 0z" fill="#e9c3d9"/><path d="m120.046 383.993 6.727 18.915c.288.81.858 1.452 1.578 1.776l16.806 7.572c2.374 1.07 2.374 4.853 0 5.922l-16.806 7.572c-.72.324-1.29.966-1.578 1.776l-6.727 18.915c-.95 2.672-4.311 2.672-5.262 0l-6.727-18.915c-.288-.81-.858-1.452-1.578-1.776l-16.806-7.572c-2.374-1.07-2.374-4.853 0-5.922l16.806-7.572c.719-.324 1.29-.966 1.578-1.776l6.727-18.915c.951-2.672 4.312-2.672 5.262 0z" fill="#e9c3d9"/><g fill="#d88aba"><circle cx="52.078" cy="338.999" r="8.542"/><ellipse cx="235.933" cy="378.14" rx="14.977" ry="14.977" transform="matrix(.123 -.993 .993 .123 -168.285 565.923)"/></g></g></svg>