<svg id="Capa_1" enable-background="new 0 0 512 512" height="512" viewBox="0 0 512 512" width="512" xmlns="http://www.w3.org/2000/svg"><g><g><path d="m449.13 511.724s37.561-23.903 37.561-58.049-29.878-48.659-29.878-48.659 52.593-24.738 36.177-98.257c-16.415-73.519-69.206-78.502-69.206-78.502s6.454-101.757-88.703-47.146c0 0 6.068-136.715-84.829-79.904l8.424 241.88z" fill="#bdf4e3"/><path d="m456.813 405.016s.127-.061.35-.174c4.529-2.307 51.457-28.084 35.827-98.084-4.826-21.614-12.797-37.299-21.645-48.68 14.754 99.692-52.652 161.714-128.602 107.125-4.208-3.025-15.287 34.974-20.339 34.311l126.757 112.486c17.788-12.823 37.8-34.095 37.53-58.325 0-34.147-29.878-48.659-29.878-48.659z" fill="#b1b7e3"/><path d="m449.161 512c-12.469-45.388-34.903-92.705-70.492-121.509 6.689-18.951 10.304-39.393 10.304-70.351l1.136-61.595c0-22.043-6.694-42.522-18.16-59.515 5.261-5.354 9.711-12.573 12.852-21.7 9.565-27.796-9.291-65.911-17.947-68.889-8.655-2.979-44.938 16.163-54.503 43.959-.378 1.098-.712 2.183-1.028 3.26-8.852-2.383-18.157-3.661-27.761-3.661h-65.753c-4.91 0-9.628.374-14.16 1.062-.673-6.042-2.529-12.496-5.755-19.215-12.592-26.223-51.858-41.343-60.023-37.422s-20.916 44.019-8.325 70.242c4.166 8.676 9.417 15.296 15.256 19.961-11.58 13.129-19.253 27.5-23.181 38.302-9.479 26.068-14.219 61.614-14.219 61.614-25.678 24.173-33.847 57.248-23.572 86.017 8.478 23.737 25.21 41.141 47.475 52.562 19.57 10.038 51.328 13.635 68.72 12.123-9.665 21.262-14.769 51.869-18.198 74.757h267.334z" fill="#e7effa"/><path d="m378.669 390.491c6.689-18.951 10.304-39.393 10.304-70.351l1.136-61.595c0-22.043-6.694-42.522-18.16-59.515 5.261-5.354 9.711-12.573 12.852-21.7 8.053-23.402-3.078-54.571-11.964-65.617-2.582-3.21-6.727-4.86-10.771-4.074-2.872.558-6.341 2.013-11.183 4.786 6.814 12.785 12.573 31.278 10.849 51.963-1.085 13.024-17.928 26.804-22.333 31.898 9.6 16.168 16.95 70.559 16.95 91.532l-.288 15.638c0 21.465-9.207 50.645-14.193 70.647-2.908 11.664-4.532 22.146 4.185 30.424 11.725 11.133 20.805 21.845 28.614 41.561 8.686 21.929-7.566 45.705-31.152 45.705l-158.438-.001c-1.25 7.078-2.312 13.937-3.251 20.208h267.335c-12.469-45.388-34.903-92.705-70.492-121.509z" fill="#dcb6f5"/><path d="m279.734 169.722c-.035-.474-.091-.95-.195-1.43-.665-18.484-6.282-34.487-19.127-46.869-.32-20.683-5.809-36.782-18.908-46.333-6.615-22.867-16.873-47.262-29.68-72.727-1.602-3.925-7.458-2.658-7.294 1.578-1.575 22.924-1.676 44.221 2.361 60.949-5.536 13.612-5.626 27.332 1.597 41.231-4.476 13.767-4.673 28.07 1.669 43.097-6.701 14.467-1.692 27.683.116 33.944 7.433 21.011 71.005 7.577 69.461-13.44z" fill="#ffe266"/><path d="m279.734 169.722c-.035-.474-.091-.95-.195-1.43-.472-13.127-3.46-24.993-9.743-35.209.618 3.386.995 6.888 1.129 10.509.092.41.141.816.172 1.22 1.359 17.932-54.601 29.395-61.144 11.468-.307-1.031-.72-2.285-1.142-3.724-4.589 13.135-.206 24.831 1.463 30.607 7.432 21.01 71.004 7.576 69.46-13.441z" fill="#efaa66"/><g><g><path d="m242.805 84.989c-.675 0-1.362-.108-2.036-.336l-35.914-12.144c-3.325-1.124-5.108-4.731-3.984-8.055 1.123-3.326 4.734-5.109 8.055-3.984l35.914 12.144c3.325 1.124 5.108 4.731 3.984 8.055-.896 2.649-3.369 4.32-6.019 4.32z" fill="#d0844b"/></g><g><path d="m260.065 129.735c-.669 0-1.349-.106-2.018-.33l-51.577-17.258c-3.327-1.113-5.123-4.714-4.009-8.042s4.717-5.121 8.042-4.01l51.577 17.258c3.327 1.113 5.123 4.714 4.009 8.042-.889 2.66-3.367 4.34-6.024 4.34z" fill="#d0844b"/></g><g><path d="m275.495 177.743c-.678 0-1.366-.109-2.043-.339l-65.337-22.168c-3.323-1.127-5.103-4.735-3.976-8.059s4.741-5.105 8.059-3.976l65.337 22.168c3.323 1.127 5.103 4.735 3.976 8.059-.898 2.647-3.37 4.315-6.016 4.315z" fill="#d0844b"/></g></g><path d="m119.292 189.579c14.774-8.531 25.732-22.147 31.766-38.104 1.714-4.533 4.13-8.905 7.279-12.972 15.041-19.421 42.477-24.927 63.834-12.791 25.472 14.474 32.879 47.205 16.868 71.096-13.785 20.57-35.996 29.148-56.545 28.494-11.972-.381-39.577-7.746-60.538-13.828-10.147-2.945-11.813-16.612-2.664-21.895z" fill="#bdf4e3"/><path d="m222.17 125.712c-21.357-12.135-48.793-6.63-63.834 12.791-3.149 4.066-5.565 8.439-7.279 12.972-6.034 15.957-16.992 29.574-31.766 38.104-9.149 5.283-7.483 18.95 2.663 21.894 20.961 6.082 48.566 13.447 60.538 13.828 20.549.654 42.76-7.924 56.545-28.494 16.012-23.89 8.606-56.62-16.867-71.095zm2.296 47.266c-6.874 16.458-21.599 25.523-36.5 27.805-8.681 1.33-29.662-.212-45.666-1.731-7.747-.736-10.978-10.223-5.173-15.2 9.375-8.036 15.245-19.177 17.221-31.321.561-3.45 1.651-6.88 3.316-10.19 7.949-15.81 26.896-23.39 44.085-17.623 20.501 6.878 30.701 29.144 22.717 48.26z" fill="#b1b7e3"/><g fill="#ad99c9"><circle cx="164.883" cy="292.538" r="13.068"/><circle cx="297.447" cy="292.538" r="13.068"/></g><g><g><path d="m156.345 254.594c-1.786 0-3.562-.749-4.818-2.209-2.29-2.66-1.99-6.671.669-8.961 7.244-6.237 18.156-6.235 25.382.007 2.656 2.294 2.95 6.307.656 8.963-2.293 2.656-6.306 2.949-8.963.655-2.456-2.122-6.315-2.119-8.782.007-1.2 1.032-2.676 1.538-4.144 1.538z" fill="#ad99c9"/></g><g><path d="m288.909 254.594c-1.786 0-3.562-.749-4.819-2.209-2.29-2.66-1.99-6.671.669-8.961 7.244-6.237 18.156-6.235 25.382.007 2.656 2.294 2.95 6.307.656 8.963-2.293 2.656-6.307 2.949-8.963.655-2.456-2.122-6.315-2.119-8.782.007-1.2 1.032-2.675 1.538-4.143 1.538z" fill="#ad99c9"/></g></g><ellipse cx="228.351" cy="338.227" fill="#ef8bbd" rx="18.164" ry="20.017"/><g><path d="m173.893 174.612c-1.829 0-3.689-.475-5.404-1.489-4.862-2.873-6.407-9.185-3.867-14.229 3.954-7.85 8.946-13.277 13.561-16.975 5.948-4.766 14.822-1.941 16.873 5.4 1.129 4.041-.187 8.421-3.469 11.034-2.641 2.102-5.739 5.386-8.187 10.35-1.844 3.74-5.6 5.909-9.507 5.909z" fill="#fff"/></g><g><path d="m73.204 150.967c-1.908 0-3.84-.516-5.581-1.598l-27.619-17.169c-4.967-3.088-6.491-9.618-3.404-14.585s9.616-6.493 14.586-3.403l27.619 17.169c4.968 3.088 6.491 9.618 3.404 14.585-2.006 3.227-5.465 5.001-9.005 5.001z" fill="#ad99c9"/></g><g><path d="m62.771 192.77c-.944 0-1.903-.127-2.857-.393l-50.759-14.183c-5.632-1.574-8.924-7.417-7.349-13.05 1.573-5.634 7.419-8.923 13.05-7.35l50.759 14.183c5.632 1.574 8.923 7.417 7.349 13.05-1.307 4.679-5.562 7.743-10.193 7.743z" fill="#ad99c9"/></g></g><path d="m475.811 38.769 8.7 24.462c.372 1.047 1.11 1.877 2.04 2.296l21.734 9.792c3.07 1.383 3.07 6.275 0 7.659l-21.734 9.792c-.93.419-1.668 1.249-2.04 2.297l-8.7 24.462c-1.229 3.456-5.576 3.456-6.805 0l-8.7-24.462c-.372-1.047-1.11-1.877-2.04-2.297l-21.733-9.792c-3.07-1.383-3.07-6.275 0-7.659l21.733-9.792c.931-.419 1.668-1.249 2.04-2.296l8.7-24.462c1.23-3.456 5.576-3.456 6.805 0z" fill="#fef2a8"/><path d="m73.492 16.161 6.453 18.146c.276.777.823 1.392 1.513 1.703l16.122 7.263c2.278 1.026 2.278 4.655 0 5.681l-16.122 7.263c-.69.311-1.237.927-1.513 1.703l-6.453 18.146c-.912 2.564-4.136 2.564-5.048 0l-6.453-18.146c-.276-.777-.823-1.393-1.514-1.703l-16.122-7.263c-2.278-1.026-2.278-4.655 0-5.681l16.122-7.263c.69-.311 1.237-.927 1.514-1.703l6.453-18.146c.912-2.563 4.137-2.563 5.048 0z" fill="#fef2a8"/><g fill="#ffe266"><circle cx="366.139" cy="32.278" r="12.907"/><ellipse cx="31.915" cy="255.091" rx="10.025" ry="10.025" transform="matrix(.973 -.23 .23 .973 -57.754 14.157)"/></g></g></svg>