<svg id="Capa_1" enable-background="new 0 0 512.004 512.004" height="512" viewBox="0 0 512.004 512.004" width="512" xmlns="http://www.w3.org/2000/svg"><g><g><path d="m102.661 84.523s31.002-21.691 57.852-.943c25.742 19.892 18.689 51.669 18.689 51.669s56.616 37.927 78.602 87.397 29.132 122.026 29.132 122.026l-109.183-.592z" fill="#b2e7f1"/><path d="m435.731 344.046h-219.379l-32.987-160.932c-1.278-4.688-4.224-14.375-7.04-22.642 7.009.358 14.644-2.942 21.303-10.624 10.957-12.642 9.955-36.82 6.018-40.232s-28.012-.969-38.969 11.673c-2.628 3.032-4.553 6.118-5.845 9.167-22.47-20.478-60.155-17.263-96.695 4.474-46.891 27.895-70.816 72.875-59.25 95.91 11.928 23.755 46.561 31.81 84.271 21.961v114.587c-13.232 13.718-21.385 32.367-21.385 52.931 0 42.124 34.148 76.273 76.273 76.273h293.685c42.124 0 76.272-34.148 76.272-76.273s-34.148-76.273-76.272-76.273z" fill="#e7effa"/><path d="m66.576 431.334c5.34 36.902 37.088 65.257 75.47 65.257h293.685c38.382 0 70.129-28.354 75.47-65.257z" fill="#ef8bbd"/><path d="m439.868 344.161c8.397 11.254 13.369 25.214 13.369 40.335 0 37.289-30.229 67.518-67.518 67.518h-259.976c-25.991 0-48.538-14.695-59.823-36.221-.088 1.498-.146 3.005-.146 4.525 0 42.124 34.148 76.273 76.273 76.273h293.685c42.124 0 76.272-34.149 76.272-76.273 0-40.736-31.936-74.008-72.136-76.157z" fill="#dcb6f5"/><path d="m435.731 496.591c38.382 0 70.129-28.354 75.47-65.257h-76.852c-12.281 12.741-29.536 20.68-48.63 20.68h-259.976c-19.094 0-36.335-7.937-48.611-20.68h-10.556c5.34 36.902 37.088 65.257 75.47 65.257z" fill="#e068bd"/><path d="m23.678 166.737c-20.341 23.394-28.54 48.67-20.791 64.101 9.946 19.809 35.685 28.689 65.825 25.386 3.489-.647 5.58-1.183 5.58-1.183z" fill="#8bb6ef"/><path d="m97.345 238.253c.036-4.666-4.413-8.12-8.896-6.828-8.19 2.36-16.984 3.441-25.724 3.437l-9.381 11.847 20.948 8.78c4.182-.655 8.433-1.539 12.724-2.655.493-.148.982-.296 1.469-.444 5.263-1.601 8.861-6.45 8.86-11.952z" fill="#dcb6f5"/><path d="m3.098 210.472c-.673-1.341-1.22-2.776-1.622-4.277-.01.038-.023.082-.033.12-2.285 9.375-1.898 17.868 1.443 24.522 9.946 19.809 35.684 28.689 65.825 25.386 3.111-.301 5.58-.733 5.58-.733l-11.566-20.63c-26.432-.012-52.372-9.939-59.627-24.388z" fill="#8388ef"/><path d="m62.712 25.102 14.096 113.341c4.058 10.796 57.784-9.401 53.726-20.197l-60.403-95.66c-2.277-3.525-7.754-1.668-7.419 2.516z" fill="#ffe266"/><circle cx="110.164" cy="185.339" fill="#ad99c9" r="10.458"/><g><path d="m400.313 392.002c-3.465 0-6.274-2.809-6.274-6.274v-12.652c0-3.465 2.809-6.274 6.274-6.274s6.274 2.809 6.274 6.274v12.652c0 3.465-2.81 6.274-6.274 6.274z" fill="#ad99c9"/></g><g><path d="m365.023 409.152c-3.465 0-6.274-2.809-6.274-6.274v-12.652c0-3.465 2.809-6.274 6.274-6.274s6.274 2.809 6.274 6.274v12.652c0 3.465-2.809 6.274-6.274 6.274z" fill="#ad99c9"/></g><g><path d="m305.988 394.97c-3.465 0-6.274-2.809-6.274-6.274v-12.652c0-3.465 2.809-6.274 6.274-6.274s6.274 2.809 6.274 6.274v12.652c0 3.465-2.81 6.274-6.274 6.274z" fill="#ad99c9"/></g><g><path d="m177.884 462.638c-5.075 0-10.143-.021-15.447-.064-5.775-.046-10.419-4.765-10.373-10.54.047-5.746 4.72-10.372 10.454-10.372.03 0 .057 0 .086.001 13.625.109 25.689.079 40.341-.103 5.811-.09 10.514 4.551 10.585 10.326.072 5.775-4.551 10.514-10.326 10.585-9.101.112-17.218.167-25.32.167z" fill="#fff"/></g><g><path d="m132.148 462.471h-6.406c-5.774 0-10.457-4.681-10.457-10.456s4.682-10.457 10.457-10.457h6.406c5.775 0 10.456 4.681 10.456 10.457.001 5.774-4.681 10.456-10.456 10.456z" fill="#fff"/></g></g><g fill="#fef2a8"><path d="m430.114 200.378 8.589 24.152c.368 1.034 1.096 1.853 2.014 2.267l21.458 9.668c3.032 1.366 3.032 6.196 0 7.562l-21.458 9.668c-.919.414-1.647 1.233-2.014 2.268l-8.589 24.152c-1.213 3.412-5.505 3.412-6.718 0l-8.589-24.152c-.368-1.034-1.096-1.854-2.015-2.268l-21.458-9.668c-3.031-1.366-3.031-6.196 0-7.562l21.458-9.668c.919-.414 1.647-1.233 2.015-2.267l8.589-24.152c1.213-3.413 5.505-3.413 6.718 0z"/><path d="m270.846 24.174 6.372 17.916c.273.767.813 1.375 1.494 1.682l15.917 7.171c2.249 1.013 2.249 4.596 0 5.609l-15.917 7.171c-.681.307-1.221.915-1.494 1.682l-6.372 17.916c-.9 2.531-4.083 2.531-4.984 0l-6.371-17.916c-.273-.767-.813-1.375-1.494-1.682l-15.917-7.171c-2.249-1.013-2.249-4.596 0-5.609l15.917-7.171c.682-.307 1.222-.915 1.494-1.682l6.371-17.916c.901-2.531 4.084-2.531 4.984 0z"/><path d="m409.565 54.631 6.371 17.916c.273.767.813 1.375 1.494 1.682l15.917 7.171c2.249 1.013 2.249 4.596 0 5.609l-15.917 7.171c-.681.307-1.221.915-1.494 1.682l-6.371 17.916c-.9 2.531-4.083 2.531-4.984 0l-6.371-17.916c-.273-.767-.813-1.375-1.494-1.682l-15.917-7.171c-2.249-1.013-2.249-4.596 0-5.609l15.917-7.171c.682-.307 1.221-.915 1.494-1.682l6.371-17.916c.901-2.531 4.084-2.531 4.984 0z"/></g><circle cx="318.286" cy="164.34" fill="#ffe266" r="12.744"/><ellipse cx="174.507" cy="25.311" fill="#ffe266" rx="9.898" ry="9.898" transform="matrix(.924 -.383 .383 .924 3.598 68.708)"/></g></svg>