<svg id="Capa_1" enable-background="new 0 0 512 512" height="512" viewBox="0 0 512 512" width="512" xmlns="http://www.w3.org/2000/svg"><g><g><g><path d="m77.1 475.7c24.9 26.4 58.6 28.4 80 8.2-3.8-2.9-12.7-48.4-14.2-52.3 0 0-17.3 16.7-33.2 5.1-8-5.8-19.6-48.8-45.8-36.9-26.2 11.8-11.7 49.4 13.2 75.9z" fill="#ffc7b6"/><path d="m61.5 455.4c-13.9-22.6-17.6-46.6 2.4-55.7 21.7-9.9 33.4 17.9 41.3 31-14.6 8.3-28.8 17.1-43.7 24.7z" fill="#ffa585"/></g><path d="m398.4 512s39.4-18.7 44-51.3-21.2-50.4-21.2-50.4 52.2-16.7 46.9-89-53.7-84-53.7-84 19.7-96.3-76-56.7c0 0 24.1-129.7-68-87.4l-24.9 232z" fill="#ffa585"/><path d="m421.2 410.4s52.2-16.7 46.9-89c-1-13.1-3.3-24.1-6.6-33.5-1.8-4.3-3.5-8.2-4.7-11.4-.1-.3-.3-.6-.4-.9 3.7 107.9-75.2 145.2-144.2 76.7-2.9-2.9-14.3 19.2-21.3 27.7l107.5 132s39.4-18.7 44-51.3-21.2-50.3-21.2-50.3z" fill="#ef7c85"/><path d="m398.4 512c-15.8-42.4-40.6-75.6-69.4-97.3v.2c11.7-16.5 20.8-35.4 29.3-65.4l18-59.4c6-21.4 5.2-43.1-1.3-62.7 6.6-3.8 12.9-9.5 18.4-17.5 16.9-24.3 10.5-66.7 3-71.9-7.6-5.3-49.5 3.6-66.4 27.9-.7 1-1.3 1.9-1.9 2.9-7.9-4.7-16.6-8.5-25.9-11.2l-63.7-18c-4.8-1.3-9.4-2.3-14-2.8 1-6 1-12.8-.3-20.2-5-28.9-39-54.3-47.9-52.7-9 1.6-32.3 36.9-27.3 65.8 1.7 9.6 4.9 17.4 9.3 23.5-14.8 9.6-26.2 21.4-33 30.8-16.3 22.7-30.7 55.8-30.7 55.8-31.5 16.4-48.5 46.2-46.4 76.9 1.7 25.3 13.2 46.8 31.6 64 16.2 15.1 46 27.3 63.3 30.6l2.7 1.3c-10.1 33.6-16.6 76.8-16.5 99.3" fill="#ffc7b6"/><path d="m286.9 184.5c.1-.5.2-.9.2-1.4 4.6-18.1 3.7-35.1-5.2-50.7 5.6-20.1 4.8-37.2-5.1-50.2.1-24-2.9-50.5-8-78.7-.4-4.2-6.5-4.7-7.5-.5-8 21.7-14.2 42.3-15 59.6-9.2 11.6-13.2 24.8-10.2 40.3-8.2 12-12.5 25.8-10.6 42.1-10.6 12.1-9.5 26.3-9.5 32.8 1.1 22.3 66.4 27.4 70.9 6.7z" fill="#ffe266"/><path d="m286.9 184.5c.1-.5.2-.9.2-1.4 3.3-12.8 3.8-25.1.6-36.8-.4 3.4-1 6.9-1.9 10.5 0 .4-.1.8-.2 1.2-3.8 17.7-61.1 12.9-62.4-6.3 0-1.1 0-2.4 0-3.9-8.2 11.4-7.3 23.9-7.3 30 1.2 22.3 66.5 27.4 71 6.7z" fill="#efaa66"/><g><g><path d="m277.1 92.3c-1.3 0-2.6-.4-3.7-1.2l-31.3-21.9c-2.9-2-3.6-6-1.6-8.9s6-3.6 8.9-1.6l31.3 21.9c2.9 2 3.6 6 1.6 8.9-1.2 1.9-3.2 2.8-5.2 2.8z" fill="#d0844b"/></g><g><path d="m281 140.5c-1.3 0-2.5-.4-3.7-1.2l-44.9-31.3c-2.9-2-3.6-6-1.6-8.9s6-3.6 8.9-1.6l44.9 31.3c2.9 2 3.6 6 1.6 8.9-1.2 1.8-3.1 2.8-5.2 2.8z" fill="#d0844b"/></g><g><path d="m286.9 190.9c-1.2 0-2.4-.3-3.5-1l-61.4-39.6c-3-1.9-3.8-5.9-1.9-8.8 1.9-3 5.9-3.8 8.8-1.9l61.4 39.6c3 1.9 3.8 5.9 1.9 8.8-1.2 1.8-3.2 2.9-5.3 2.9z" fill="#d0844b"/></g></g><path d="m126.2 158.1c16.7-4 31.2-14.1 41.5-27.8 2.9-3.9 6.5-7.4 10.7-10.5 20.1-14.5 48.1-12 65.3 5.8 20.5 21.2 18.4 55-3.9 73.5-19.2 16-43.1 17.9-62.7 11.5-11.5-3.8-36-18.7-54.6-30.6-8.9-5.7-6.7-19.4 3.7-21.9z" fill="#ffa585"/><path d="m243.8 125.6c-17.2-17.8-45.3-20.3-65.3-5.8-4.2 3-7.8 6.6-10.7 10.5-10.4 13.7-24.8 23.8-41.5 27.8-10.3 2.5-12.6 16.2-3.6 21.9 18.5 11.8 43.1 26.8 54.6 30.6 19.7 6.5 43.6 4.5 62.7-11.5 22.1-18.6 24.3-52.3 3.8-73.5zm-11.3 46.3c-11.3 14-28.1 18.5-43.2 16.5-8.8-1.2-28.6-8.6-43.6-14.6-7.3-2.9-7.7-13-.7-16.2 11.3-5.1 20.2-14.2 25.5-25.4 1.5-3.2 3.6-6.2 6.1-8.9 12.2-13 32.6-15 47.6-4.5 18 12.5 21.5 36.9 8.3 53.1z" fill="#ef7c85"/><g><path d="m186.2 159.6c-2.6 0-5.2-1-7.3-2.9-4.3-4-4.2-11.1-.2-15.4 6-6.5 12.4-10.3 17.9-12.5 7.1-2.9 14.9 2.3 14.8 10-.1 4.3-2.6 8.1-6.6 9.7-3.1 1.3-7 3.6-10.8 7.6-2 2.3-4.9 3.5-7.8 3.5z" fill="#fff"/></g><path d="m158.7 373.4c-4.8 0-8.3-13.1-6.9-25.9 3.4-31.5-4-54.2 24.7-54.2 22.2 0 21.4 22.6 25 54.1 1.5 12.9-1.9 26-6.7 26z" fill="#f7c4db"/><g><path d="m184.1 316.8c8.1 0 15 15 17.7 36.2 0-1.9-.1-3.7-.3-5.6-3.6-31.5-2.8-54.1-25-54.1-28.7 0-23.9 22.9-24.7 54.2-1.4 12.4 1.8 24.9 6.3 25.9h.1l13-.1c-3.5 0-6-9.2-4.9-18.3 2.5-22.2 9.5-38.2 17.8-38.2z" fill="#ef8bbd"/></g><path d="m329 414.8c11.6-16.5 20.7-35.3 29.1-65.2l18-59.4c6-21.4 5.2-43.1-1.3-62.7 6.6-3.8 12.9-9.5 18.4-17.5 16.9-24.3 10.5-66.7 3-71.9-3.5-2.4-14.2-1.8-26.5 1.8 4.3 10 3 46-13 66.6-5.7 7.4-11.8 12.6-17.9 15.9 3 19.1 1 39.9-6.9 60l-22.9 56c-7.3 18.8-14.3 32.9-21.6 44.7-6 9.7-5.6 22 1.2 31.1 9.3 12.5 17.3 27.3 23.6 44.2 6.6 17.7-7 36.3-25.9 35.3l-156.1-3.5c-.8 8.3-1.3 15.7-1.3 21.7h269.3c-15.6-42.3-40.4-75.4-69.2-97.1z" fill="#ef95b6"/><g fill="#d07297"><g><path d="m257.8 263.7c1.9 7-2.2 14.3-9.2 16.2s-14.3-2.2-16.2-9.2z"/><path d="m245 286.8c-3.4 0-6.7-.9-9.7-2.6-4.5-2.6-7.8-6.8-9.2-11.8-.9-3.4 1.1-6.9 4.5-7.9l25.4-6.9c3.4-.9 6.9 1.1 7.9 4.5 1.4 5 .7 10.3-1.9 14.9-2.6 4.5-6.8 7.8-11.8 9.2-1.7.4-3.4.6-5.2.6zm-.4-12.8c.7 0 1.5 0 2.2-.2s1.4-.5 2-.9z"/></g><g><path d="m146.2 256.6c-5.2 5.1-13.5 5-18.6-.1-5.1-5.2-5-13.5.1-18.6z"/><path d="m137 266.8c-.1 0-.1 0-.2 0-5.2 0-10.1-2.1-13.8-5.8s-5.7-8.7-5.6-13.9 2.1-10.1 5.8-13.8c2.5-2.5 6.6-2.4 9.1.1l18.5 18.8c2.5 2.5 2.4 6.6-.1 9.1-3.7 3.5-8.6 5.5-13.7 5.5zm-6.1-16.7c.3.7.7 1.3 1.3 1.8.5.5 1.1 1 1.8 1.3z"/></g></g><g><path d="m232.7 250.6c-2.6 0-5-1.6-6-4.2-1.2-3.3.5-7 3.8-8.2l16.9-6.3c3.3-1.2 7 .4 8.2 3.8 1.2 3.3-.5 7-3.8 8.2l-16.9 6.3c-.7.3-1.4.4-2.2.4z" fill="#d07297"/></g><g><g><path d="m299.1 253.9c-1.6 0-3.3-.6-4.6-1.9-2.5-2.5-2.5-6.6 0-9.1l7.7-7.6c1.2-1.2 1.8-2.9 1.4-4.6l-1.6-8.7c-.7-3.5 1.6-6.8 5.1-7.5s6.8 1.6 7.5 5.1l1.7 8.7c1.2 5.9-.7 12-5 16.2l-7.7 7.6c-1.3 1.2-2.9 1.8-4.5 1.8z" fill="#ef8bbd"/></g><g><path d="m308.1 272c-1.7 0-3.5-.7-4.7-2.1-2.4-2.6-2.2-6.7.4-9 0 0 2.9-2.6 4.2-3.9l5.9-5.8c5.1-5.1 12.8-6.6 19.5-3.8l7.6 3.2c1.1.5 4 1.4 5.5 1.8 3.4 1 5.3 4.6 4.3 8s-4.6 5.3-8 4.3c-.5-.1-4.7-1.4-6.7-2.3l-7.6-3.2c-1.9-.8-4.1-.4-5.6 1.1l-5.9 5.7c-1.5 1.5-4.4 4.2-4.6 4.3-1.2 1.1-2.8 1.7-4.3 1.7z" fill="#ef8bbd"/></g><g><path d="m345.6 244.8c-.8 0-1.6-.2-2.5-.5l-9.7-4c-5.6-2.3-9.6-7.2-10.7-13.1l-1.8-9.2c-.7-3.5 1.6-6.8 5.1-7.5s6.8 1.6 7.5 5.1l1.8 9.2c.3 1.7 1.5 3.1 3.1 3.8l9.7 4c3.3 1.4 4.8 5.1 3.5 8.4-1.1 2.3-3.5 3.8-6 3.8z" fill="#ef8bbd"/></g></g><g><path d="m361 463.3c-17.9 31.6-50.1 41.5-75.7 27.1 3-3.7 14.3-44.6 14.9-48.8.9-6.9 7.2 6.6 19.9-8.4 6.4-7.6 7.4-52 35.7-46.7 28.2 5.2 23 45.2 5.2 76.8z" fill="#ffc7b6"/><g><path d="m310.7 447.6c-3.3 0-7.2-.4-11.5-1.5-3.4-.9-5.5-4.4-4.6-7.8s4.4-5.5 7.8-4.6c7.3 1.9 12.2 1 14.7.3 1.4-1.1 4.6-5.6 5.6-9.1.9-3.4 4.5-5.4 7.9-4.5s5.4 4.5 4.5 7.9c-1.7 6.1-7.6 15.8-13.5 17.7-2.7.8-6.4 1.6-10.9 1.6z" fill="#d07297"/></g><path d="m371.3 439.9c8.1-25.3 6-49.4-15.6-53.5-23.4-4.4-29.1 25.4-33.6 40.1 16 4.5 32.9 9.5 49.2 13.4z" fill="#ffa585"/></g><g><path d="m134.4 498.3c-.2 0-.3 0-.5 0-3.5-.3-6.2-3.3-5.9-6.9 0-.4 3.2-40.6 8.2-54 1.3-3.3 5-5 8.3-3.7s5 5 3.7 8.3c-3.3 8.6-6.5 37.1-7.4 50.3-.3 3.5-3.1 6-6.4 6z" fill="#d07297"/></g><g fill="#ffe266"><path d="m59.3 127.5-.6-62 57.4 25.3z"/><path d="m34.1 202.7-21.8-33.3 37.5-9.1z"/></g></g><path d="m464.7 38 8.8 24.6c.4 1.1 1.1 1.9 2.1 2.3l21.9 9.9c3.1 1.4 3.1 6.3 0 7.7l-21.9 9.9c-.9.4-1.7 1.3-2.1 2.3l-8.8 24.6c-1.2 3.5-5.6 3.5-6.9 0l-8.8-24.6c-.4-1.1-1.1-1.9-2.1-2.3l-21.9-9.9c-3.1-1.4-3.1-6.3 0-7.7l21.9-9.9c.9-.4 1.7-1.3 2.1-2.3l8.8-24.6c1.3-3.5 5.7-3.5 6.9 0z" fill="#fef2a8"/><path d="m393.6 11c0 5.6-4.5 10.1-10.1 10.1s-10.1-4.5-10.1-10.1 4.5-10.1 10.1-10.1c5.6 0 10.1 4.6 10.1 10.1z" fill="#ffe266"/></g></svg>