<svg id="Capa_1" enable-background="new 0 0 512 512" height="512" viewBox="0 0 512 512" width="512" xmlns="http://www.w3.org/2000/svg"><g><g><path d="m101.275 512c-8.095 0-16.004-4.06-20.586-11.444-20.334-32.772-31.083-70.556-31.083-109.266 0-55.428 21.585-107.539 60.779-146.733s91.304-60.779 146.733-60.779c55.428 0 107.539 21.585 146.733 60.779s60.779 91.305 60.779 146.733c0 38.709-10.747 76.492-31.082 109.266-7.047 11.357-21.963 14.851-33.321 7.804-11.356-7.046-14.85-21.964-7.804-33.321 15.576-25.104 23.81-54.065 23.81-83.749 0-87.736-71.379-159.114-159.115-159.114s-159.113 71.378-159.113 159.114c0 29.686 8.233 58.646 23.809 83.749 7.047 11.356 3.553 26.275-7.803 33.321-3.972 2.465-8.381 3.64-12.736 3.64z" fill="#a183e2"/><g fill="#9762e2"><path d="m115.028 462.895c.664 21.124-23.019 31.622-35.814 12.353-17.899-27.865-27.992-59.669-29.422-92.444-.113 2.82-.184 5.647-.184 8.485 0 38.711 10.748 76.495 31.083 109.267 4.58 7.384 12.49 11.444 20.584 11.444 4.354 0 8.763-1.175 12.736-3.64 11.356-7.047 14.85-21.965 7.803-33.321-2.452-3.953-4.701-8.012-6.786-12.144z"/><path d="m403.852 244.557c-39.194-39.194-91.305-60.779-146.733-60.779-1.629 0-3.255.022-4.879.059 50.931 1.208 98.629 20.936 134.785 55.863 37.332 36.063 57.892 84.01 57.892 135.011 0 35.617-10.237 70.381-29.606 100.537-5.64 8.78-16.567 12.426-26.334 9.528-1.138 9.091 2.955 18.437 11.25 23.583 11.358 7.046 26.274 3.553 33.321-7.804 20.335-32.774 31.082-70.557 31.082-109.266.002-55.428-21.584-107.538-60.778-146.732z"/><path d="m247.262 228.31c-83.568 0-158.327 66.501-158.327 147.227 0 24.837 6.505 49.113 18.836 70.68-6.426-17.481-9.766-36.055-9.766-54.927 0-87.736 71.378-159.114 159.114-159.114 17.496 0 34.337 2.846 50.096 8.087-18.398-7.685-38.668-11.953-59.953-11.953z"/></g><g><path d="m297.622 180.646c.065-.469.111-.945.11-1.436 3.239-18.168 1.127-34.959-8.798-49.738 4.038-20.242 2.07-37.099-8.698-49.17-1.643-23.695-6.517-49.648-13.652-77.18-.737-4.166-6.716-4.161-7.447.005-6.357 22.029-10.936 42.78-10.517 59.945-8.263 12.112-11.236 25.476-7.115 40.553-7.261 12.487-10.462 26.396-7.437 42.387-9.578 12.701-7.473 26.646-7.026 33.133 2.832 22.058 67.665 22.326 70.58 1.501z" fill="#8bb6ef"/><path d="m297.622 180.646c.065-.469.111-.945.11-1.436 2.3-12.903 1.882-25.106-2.097-36.392-.109 3.432-.479 6.928-1.109 10.488.003.419-.034.826-.089 1.226-2.446 17.777-59.44 17.187-62.051-1.675-.083-1.07-.221-2.38-.331-3.872-7.239 11.846-5.424 24.177-5.011 30.161 2.83 22.057 67.663 22.325 70.578 1.5z" fill="#8388ef"/><g><g><path d="m280.754 90.289c-1.092 0-2.197-.286-3.203-.886l-32.476-19.399c-2.966-1.772-3.934-5.613-2.162-8.58 1.771-2.966 5.612-3.936 8.58-2.162l32.476 19.399c2.966 1.772 3.935 5.613 2.163 8.579-1.172 1.961-3.249 3.049-5.378 3.049z" fill="#6280cc"/></g><g><path d="m288.176 137.565c-1.085 0-2.184-.283-3.185-.876l-46.677-27.682c-2.972-1.763-3.953-5.601-2.19-8.573 1.762-2.971 5.6-3.953 8.573-2.19l46.677 27.682c2.973 1.763 3.952 5.601 2.19 8.573-1.169 1.971-3.251 3.066-5.388 3.066z" fill="#6280cc"/></g><g><path d="m297.616 186.904c-1.012 0-2.038-.245-2.989-.764l-63.552-34.633c-3.034-1.654-4.153-5.454-2.5-8.488s5.453-4.154 8.488-2.5l63.552 34.633c3.035 1.654 4.154 5.454 2.5 8.488-1.135 2.083-3.283 3.264-5.499 3.264z" fill="#6280cc"/></g></g></g><g><g><path d="m441.377 198.261c-18.326 31.829-47.315 39.23-70.224 26.04s-31.062-41.977-12.736-73.806 69.19-47.164 79.101-41.457c9.91 5.707 22.185 57.394 3.859 89.223z" fill="#b2e7f1"/><path d="m441.376 198.261c15.749-27.353 8.899-69.372.371-84.271-1.396-2.438-2.836-4.15-4.23-4.952-1.18-.68-2.961-1.061-5.179-1.152 6.881 11.629 15.411 32.992 2.742 54.996-14.623 25.398-37.755 31.303-56.034 20.778-12.97-7.468-20.007-21.202-17.78-37.623-1.019 1.448-1.972 2.934-2.85 4.458-18.325 31.828-10.173 60.613 12.734 73.804 11.78 6.939 26.431 8.206 39.151 3.014 11.552-4.579 22.485-14.132 31.075-29.052z" fill="#a7adf1"/></g><path d="m84.043 195.196c16.474 32.397 44.741 41.201 68.059 29.344s32.855-39.886 16.381-72.283-65.951-50.166-76.039-45.037c-10.088 5.131-24.876 55.579-8.401 87.976z" fill="#b2e7f1"/></g><g><g fill="#ffa585"><path d="m372.286 197.736 77.852.414c3.698.02 6.68 3.033 6.66 6.731l-.414 77.852c-.02 3.698-3.033 6.68-6.731 6.66l-77.852-.414c-3.698-.02-6.68-3.033-6.66-6.731l.414-77.852c.019-3.698 3.033-6.68 6.731-6.66z"/><ellipse cx="410.57" cy="273.103" rx="24.722" ry="24.722" transform="matrix(.495 -.869 .869 .495 -30.026 494.525)"/><ellipse cx="441.341" cy="243.299" rx="24.722" ry="24.722" transform="matrix(.404 -.915 .915 .404 40.474 548.719)"/><circle cx="379.4" cy="241.6" r="24.722"/><path d="m392.783 194.221c9.706-9.603 25.359-9.52 34.962.186s9.52 25.359-.186 34.962-25.359 9.52-34.962-.186-9.519-25.359.186-34.962z"/><path d="m431.891 218.47 4.394 4.441c11.42 11.542 11.321 30.156-.221 41.575l-4.441 4.394c-11.542 11.42-30.156 11.321-41.575-.221l-4.395-4.441c-11.419-11.542-11.32-30.156.221-41.575l4.441-4.394c11.542-11.42 30.156-11.321 41.576.221z"/></g><g><path d="m410.975 282.343c-.071 0-.142 0-.212 0-10.358-.055-20.075-4.141-27.36-11.503-15.04-15.201-14.908-39.803.292-54.841 7.312-7.236 16.99-11.213 27.268-11.213h.212c10.358.055 20.075 4.14 27.36 11.503l.001.001c15.039 15.201 14.907 39.802-.293 54.841-7.312 7.235-16.989 11.212-27.268 11.212zm-.009-65.044c-6.963 0-13.516 2.693-18.47 7.595-10.295 10.186-10.385 26.849-.198 37.146 4.934 4.987 11.515 7.754 18.531 7.792 6.998.052 13.626-2.659 18.614-7.595 10.295-10.186 10.384-26.849.198-37.146-4.934-4.987-11.515-7.754-18.531-7.792-.049 0-.096 0-.144 0z" fill="#be545e"/></g><path d="m395.415 228.011h31.108v31.108h-31.108z" fill="#ffa585" transform="matrix(.711 -.703 .703 .711 -52.479 359.474)"/><g><path d="m410.804 276.95-13.51-20.739-20.279-12.996 20.757-12.192 13.474-21.488 12.968 21.962 20.938 11.925-20.736 13.007zm-9.873-33.27 5.379 3.447 4.59 7.045 4.582-6.908 5.296-3.323-5.647-3.216-4.207-7.123-4.177 6.662z" fill="#be545e"/></g></g><g><g fill="#f7c4db"><path d="m220.388 168.147 76.201-14.64c3.702-.711 7.279 1.713 7.99 5.415l14.64 76.201c.711 3.702-1.713 7.279-5.415 7.99l-76.201 14.64c-3.702.711-7.279-1.713-7.99-5.415l-14.64-76.201c-.711-3.701 1.713-7.278 5.415-7.99z"/><ellipse cx="272.432" cy="234.686" rx="24.722" ry="24.722" transform="matrix(.679 -.734 .734 .679 -84.864 275.136)"/><ellipse cx="296.84" cy="199.481" rx="24.722" ry="24.722" transform="matrix(.936 -.353 .353 .936 -51.319 117.678)"/><ellipse cx="235.745" cy="209.824" rx="24.722" ry="24.722" transform="matrix(.892 -.451 .451 .892 -69.322 128.978)"/><ellipse cx="260.154" cy="174.619" rx="24.722" ry="24.722" transform="matrix(.488 -.873 .873 .488 -19.254 316.405)"/><path d="m282.755 176.955 5.172 3.505c13.441 9.109 16.953 27.388 7.844 40.829l-3.505 5.172c-9.109 13.441-27.389 16.953-40.829 7.844l-5.172-3.505c-13.441-9.109-16.953-27.388-7.844-40.829l3.505-5.172c9.108-13.44 27.388-16.952 40.829-7.844z"/></g><g><path d="m267.038 244.397c-7.487 0-15.046-2.158-21.697-6.665-8.575-5.811-14.374-14.613-16.328-24.786-1.954-10.172.17-20.497 5.981-29.071 11.995-17.701 36.153-22.343 53.857-10.347 8.574 5.811 14.372 14.613 16.328 24.786 1.954 10.173-.17 20.497-5.982 29.071-7.488 11.05-19.72 17.012-32.159 17.012zm.098-65.025c-8.427 0-16.71 4.038-21.783 11.523-3.936 5.808-5.375 12.801-4.051 19.691s5.251 12.852 11.059 16.788c5.809 3.936 12.803 5.375 19.691 4.051 6.89-1.324 12.852-5.251 16.788-11.059s5.375-12.801 4.051-19.691-5.25-12.852-11.059-16.788l3.51-5.179-3.51 5.179c-4.505-3.052-9.626-4.515-14.696-4.515z" fill="#c56cb7"/></g><path d="m251.542 190.077h31.108v31.108h-31.108z" fill="#f7c4db" transform="matrix(-.561 .828 -.828 -.561 587.161 99.881)"/><g><path d="m273.408 238.414-17.275-17.725-22.414-8.818 17.999-15.985 9.052-23.692 16.981 19.03 22.852 7.64-17.82 16.78zm-16.137-30.724 5.946 2.339 5.868 6.021 3.156-7.665 4.553-4.287-6.164-2.061-5.508-6.172-2.806 7.345z" fill="#c56cb7"/></g></g><g><g fill="#fef2a8"><path d="m107.025 185.976 71.426 32.356c3.228 1.462 4.659 5.264 3.197 8.491l-32.356 71.426c-1.462 3.228-5.264 4.659-8.492 3.197l-71.426-32.356c-3.228-1.462-4.659-5.264-3.197-8.491l32.356-71.426c1.462-3.228 5.264-4.659 8.492-3.197z"/><ellipse cx="111.503" cy="270.52" rx="24.722" ry="24.722" transform="matrix(.999 -.046 .046 .999 -12.239 5.375)"/><path d="m143.043 232.717c12.778-4.811 27.036 1.648 31.847 14.427 4.811 12.778-1.649 27.036-14.427 31.847s-27.036-1.648-31.847-14.427c-4.81-12.778 1.649-27.036 14.427-31.847z"/><path d="m87.179 205.907c12.778-4.811 27.036 1.648 31.847 14.426s-1.648 27.036-14.426 31.847-27.036-1.648-31.847-14.427c-4.812-12.777 1.648-27.035 14.426-31.846z"/><ellipse cx="136.139" cy="214.378" rx="24.722" ry="24.722" transform="matrix(.215 -.977 .977 .215 -102.485 301.271)"/><path d="m153.249 229.329 2.201 5.847c5.721 15.195-1.96 32.151-17.155 37.871l-5.847 2.201c-15.195 5.72-32.151-1.96-37.871-17.156l-2.201-5.847c-5.72-15.195 1.96-32.151 17.156-37.871l5.847-2.201c15.194-5.72 32.15 1.961 37.87 17.156z"/></g><g><path d="m123.895 282.511c-5.446 0-10.876-1.162-15.984-3.476-9.435-4.274-16.641-11.967-20.291-21.661s-3.305-20.229.969-29.664c4.274-9.436 11.967-16.642 21.661-20.291 9.694-3.65 20.23-3.305 29.664.968 9.435 4.275 16.641 11.967 20.291 21.661s3.305 20.229-.969 29.664-11.967 16.641-21.661 20.291c-4.445 1.674-9.068 2.508-13.68 2.508zm.03-65.079c-3.124 0-6.254.565-9.266 1.698-6.566 2.472-11.776 7.353-14.671 13.744-2.895 6.39-3.128 13.526-.656 20.092s7.353 11.776 13.744 14.671 13.525 3.127 20.092.656c6.566-2.472 11.776-7.353 14.671-13.744 2.895-6.39 3.128-13.526.656-20.092s-7.353-11.776-13.744-14.671c-3.46-1.567-7.138-2.354-10.826-2.354z" fill="#d08372"/></g><path d="m108.359 228.158h31.108v31.108h-31.108z" fill="#fef2a8" transform="matrix(-.936 .352 -.352 -.936 325.746 428.138)"/><g><path d="m110.149 274.128-3.88-24.445-13.217-20.135 23.924-2.668 21.066-14.125 2.886 25.34 14.253 19.426-24.236 3.422zm4.551-34.405 3.506 5.341 1.318 8.304 7.001-4.439 6.192-.874-3.845-5.24-.936-8.219-6.531 4.379z" fill="#d08372"/></g></g><g><path d="m104.842 175.921c-4.706 0-8.975-3.207-10.128-7.984-3.607-14.942 1.483-29.066 2.075-30.628 2.042-5.384 8.06-8.096 13.448-6.052 5.369 2.037 8.079 8.029 6.069 13.402-.098.271-3.428 9.647-1.319 18.384 1.351 5.598-2.092 11.232-7.69 12.583-.822.2-1.645.295-2.455.295z" fill="#fff"/></g></g><path d="m391.374 6.207 6.649 18.696c.285.801.848 1.435 1.56 1.755l16.611 7.484c2.347 1.057 2.347 4.796 0 5.854l-16.611 7.484c-.711.32-1.275.955-1.56 1.755l-6.649 18.696c-.939 2.641-4.261 2.641-5.201 0l-6.649-18.696c-.285-.801-.848-1.435-1.559-1.755l-16.611-7.484c-2.347-1.057-2.347-4.796 0-5.854l16.611-7.484c.711-.32 1.275-.955 1.559-1.755l6.649-18.696c.94-2.641 4.262-2.641 5.201 0z" fill="#cab4ef"/><path d="m41.145 48.38 6.649 18.696c.285.8.848 1.435 1.559 1.755l16.611 7.484c2.347 1.057 2.347 4.796 0 5.854l-16.611 7.484c-.711.32-1.275.955-1.559 1.755l-6.649 18.696c-.939 2.641-4.261 2.641-5.201 0l-6.649-18.696c-.285-.801-.848-1.435-1.56-1.755l-16.611-7.484c-2.347-1.057-2.347-4.796 0-5.854l16.611-7.484c.711-.32 1.275-.955 1.56-1.755l6.649-18.696c.94-2.642 4.262-2.642 5.201 0z" fill="#cab4ef"/><g fill="#a183e2"><path d="m502.635 116.709c0 4.663-3.78 8.443-8.443 8.443s-8.443-3.78-8.443-8.443 3.78-8.443 8.443-8.443 8.443 3.78 8.443 8.443z"/><ellipse cx="154.115" cy="35.061" rx="14.803" ry="14.803" transform="matrix(.122 -.993 .993 .122 100.486 183.737)"/></g></g></svg>