<svg id="Capa_1" enable-background="new 0 0 512.048 512.048" height="512" viewBox="0 0 512.048 512.048" width="512" xmlns="http://www.w3.org/2000/svg"><g><g><g><path d="m35.117 429.431h47.194c19.368 0 35.069 15.701 35.069 35.069v4.821c0 19.368-15.701 35.069-35.069 35.069h-47.194c-19.368 0-35.069-15.701-35.069-35.069v-4.821c0-19.368 15.701-35.069 35.069-35.069z" fill="#b2e7f1"/><path d="m37.527 504.391h6.51c3.151 0 5.704-2.554 5.704-5.704v-63.551c0-3.15-2.554-5.704-5.704-5.704l-6.534-.297c-20.7 0-37.456 12.542-37.456 37.777-1.008 19.602 14.069 38.564 37.48 37.479z" fill="#ffe266"/></g><path d="m126.604 445.009c2.883 9.09 6.803 17.837 11.648 26.154 12.026 20.642 36.329 34.26 61.128 34.26l203.742-1.032c24.799 0 47.882-12.586 59.908-33.228 11.15-19.137 17.396-40.552 17.396-63.169 0-81.259-80.493-147.131-179.785-147.131" fill="#b2e7f1"/><path d="m291.993 462.168s90.87-.891 99.687-71.737c8.105-65.121-60.289-68.388-60.289-68.388s5.622-88.646-77.274-41.071c0 0 5.287-119.1-73.899-69.609l7.339 210.715z" fill="#fef2a8"/><path d="m391.68 390.43c3.818-30.673-9.339-47.621-24.324-56.971 6.706 60.6-27.519 95.32-70.018 92.183-3.046-.225-15.275 18.764-18.763 31.376l13.418 5.151c0-.001 90.869-.892 99.687-71.739z" fill="#eeb6a8"/><path d="m292.088 463.373c5.827-16.509 8.977-34.317 8.977-61.287l.99-53.659c0-19.203-5.832-37.043-15.82-51.847 4.583-4.664 8.46-10.953 11.195-18.904 8.332-24.214-6.911-57.974-14.452-60.568-7.54-2.595-40.33 14.636-48.662 38.85-.329.957-.621 1.901-.895 2.84-7.711-2.076-15.817-3.189-24.184-3.189h-57.281c-4.278 0-8.387.326-12.336.925-.586-5.264-2.203-10.886-5.014-16.739-10.97-22.844-45.176-36.016-52.29-32.6-7.113 3.416-18.222 38.347-7.252 61.191 3.629 7.558 8.203 13.326 13.29 17.389-10.088 11.437-16.772 23.957-20.194 33.367-8.257 22.709-12.387 53.675-12.387 53.675-22.369 21.058-29.486 49.872-20.535 74.934 7.385 20.679 21.962 35.84 41.358 45.789 17.049 8.745 44.715 11.879 59.865 10.561 34.398-1.101 130.14-1.285 155.627-40.728z" fill="#b2e7f1"/><path d="m297.43 277.676c8.332-24.215-6.911-57.973-14.452-60.568-2.741-.943-8.826.745-15.854 4.426 5.493 11.659 11.512 29.239 10.21 44.868-.945 11.345-15.618 23.351-19.456 27.788 8.363 14.086 18.319 51.565 21.458 77.076l.187 27.869c-3.464 31.328-15.251 33.05-13.646 34.836 6.419 3.587 17.337 7.694 26.635 28.185 8.788-18.158 8.553-47.196 8.553-60.07l.99-53.659c0-19.203-5.832-37.043-15.82-51.847 4.583-4.663 8.459-10.952 11.195-18.904z" fill="#a7adf1"/><g><path d="m91.794 505.476c-.627 0-1.265-.097-1.894-.298-.457-.147-11.245-3.621-16.13-6.127-21.761-11.161-36.687-27.72-44.363-49.216-1.015-2.841-1.727-7.018-2.355-10.704-.182-1.07-.349-2.048-.5-2.837-.644-3.358 1.556-6.603 4.915-7.247 3.355-.642 6.603 1.556 7.247 4.915.164.859.347 1.923.545 3.088.462 2.706 1.159 6.796 1.81 8.62 6.583 18.432 19.486 32.685 38.353 42.362 2.624 1.346 9.308 3.764 14.264 5.355 3.256 1.045 5.048 4.532 4.003 7.788-.844 2.627-3.277 4.301-5.895 4.301z" fill="#95cde6"/></g><path d="m205.901 271.05c-.03-.413-.079-.827-.17-1.246-.579-16.102-5.473-30.043-16.663-40.83-.279-18.018-5.061-32.043-16.472-40.363-5.763-19.92-14.699-41.172-25.856-63.356-1.395-3.42-6.497-2.316-6.354 1.375-1.372 19.97-1.46 38.523 2.057 53.096-4.823 11.858-4.901 23.811 1.391 35.919-3.899 11.993-4.071 24.453 1.454 37.544-5.837 12.603-1.474 24.117.102 29.57 6.475 18.303 61.856 6.599 60.511-11.709z" fill="#f7c4db"/><path d="m205.901 271.05c-.03-.413-.079-.827-.17-1.246-.411-11.435-3.014-21.773-8.487-30.673.538 2.949.867 6.001.983 9.155.08.357.123.711.15 1.063 1.184 15.622-47.566 25.607-53.266 9.99-.268-.898-.627-1.991-.995-3.244-3.998 11.442-.179 21.632 1.274 26.663 6.475 18.304 61.856 6.6 60.511-11.708z" fill="#e893db"/><g><g><path d="m173.73 197.89c-.658 0-1.326-.106-1.984-.329l-31.286-10.579c-3.239-1.095-4.977-4.609-3.882-7.848 1.096-3.24 4.607-4.979 7.848-3.882l31.286 10.579c3.239 1.095 4.977 4.609 3.882 7.848-.872 2.583-3.282 4.211-5.864 4.211z" fill="#c56cb7"/></g><g><path d="m188.766 236.872c-.652 0-1.314-.104-1.966-.322l-44.931-15.034c-3.242-1.084-4.992-4.593-3.906-7.836 1.085-3.243 4.596-4.993 7.836-3.906l44.931 15.034c3.242 1.084 4.992 4.593 3.907 7.836-.867 2.59-3.282 4.228-5.871 4.228z" fill="#c56cb7"/></g><g><path d="m205.903 277.243c-.581 0-1.169-.083-1.754-.255l-60.612-17.862c-3.28-.966-5.156-4.409-4.188-7.689.966-3.281 4.412-5.153 7.689-4.188l60.612 17.862c3.28.966 5.156 4.409 4.188 7.689-.793 2.696-3.26 4.443-5.935 4.443z" fill="#c56cb7"/></g></g><path d="m66.131 288.349c12.87-7.432 22.416-19.294 27.673-33.195 1.493-3.949 3.598-7.758 6.341-11.3 13.103-16.919 37.004-21.715 55.609-11.143 22.19 12.609 28.642 41.123 14.695 61.936-12.009 17.919-31.358 25.392-49.259 24.822-10.429-.332-34.478-6.748-52.738-12.047-8.84-2.565-10.291-14.471-2.321-19.073z" fill="#fef2a8"/><path d="m155.754 232.71c-18.605-10.572-42.506-5.776-55.609 11.143-2.743 3.542-4.848 7.352-6.341 11.301-5.257 13.901-14.802 25.763-27.673 33.195-7.971 4.602-6.519 16.508 2.32 19.073 18.26 5.299 42.309 11.715 52.738 12.047 17.902.57 37.251-6.903 49.259-24.823 13.948-20.813 7.497-49.326-14.694-61.936zm2 41.176c-5.988 14.337-18.816 22.234-31.797 24.223-7.562 1.159-25.84-.184-39.782-1.508-6.749-.641-9.564-8.906-4.506-13.242 8.167-7.001 13.281-16.706 15.002-27.285.489-3.005 1.439-5.994 2.888-8.877 6.925-13.773 23.43-20.376 38.405-15.352 17.859 5.992 26.745 25.388 19.79 42.041z" fill="#eeb6a8"/><g><path d="m113.696 276.404c-1.785 0-3.6-.464-5.271-1.454-4.711-2.789-6.251-8.914-3.79-13.805 3.273-6.504 7.354-11.151 11.23-14.432 5.646-4.78 14.374-1.96 16.365 5.164l.098.349c1.055 3.775-.247 7.765-3.214 10.326-2.028 1.751-4.306 4.345-6.154 8.093-1.797 3.645-5.457 5.759-9.264 5.759z" fill="#fff"/></g><g><path d="m469.146 508.93h-42.374c-20.699 0-37.48-16.78-37.48-37.48 0-20.699 16.78-37.48 37.48-37.48h42.374c20.699 0 37.48 16.78 37.48 37.48-.001 20.7-16.781 37.48-37.48 37.48z" fill="#b2e7f1"/><path d="m469.146 433.971h-6.51c-3.151 0-5.704 2.554-5.704 5.704v63.551c0 3.15 2.554 5.704 5.704 5.704h6.51c20.7 0 37.48-16.78 37.48-37.48-.001-20.699-16.781-37.479-37.48-37.479z" fill="#ffe266"/></g><g><path d="m86.498 383.861c-3.148 0-5.842-2.389-6.156-5.588-.334-3.403 2.156-6.433 5.559-6.766l22.107-2.166c3.393-.337 6.433 2.155 6.766 5.559.334 3.403-2.155 6.433-5.559 6.766l-22.107 2.166c-.204.02-.409.029-.61.029z" fill="#95cde6"/></g><g><path d="m226.854 385.407c-.247 0-.496-.015-.747-.045l-22.055-2.651c-3.395-.408-5.817-3.491-5.409-6.886s3.502-5.821 6.886-5.409l22.055 2.651c3.395.408 5.817 3.491 5.409 6.886-.378 3.144-3.05 5.454-6.139 5.454z" fill="#95cde6"/></g><g><g><path d="m268.902 443.181h-29.454c-3.419 0-6.192-2.772-6.192-6.192 0-3.419 2.772-6.192 6.192-6.192h29.454c3.419 0 6.192 2.772 6.192 6.192s-2.773 6.192-6.192 6.192z" fill="#95cde6"/></g><path d="m230.924 505.423h6.51c3.15 0 5.704-2.554 5.704-5.704v-63.551c0-3.15-2.554-5.704-5.704-5.704h-6.51c-20.699 0-37.48 16.78-37.48 37.48 0 20.698 16.781 37.479 37.48 37.479z" fill="#ffe266"/></g><path d="m441.024 363.99c4.968 15.234 10.584 53.781 3.94 68.772-.247.558-.507 1.104-.762 1.655 9.989.064 13.364-.776 23.35-.518 1.081.028 8.785.869 9.88.879 1.956-8.685 2.995-17.633 2.995-26.783 0-63.134-48.594-116.973-116.84-137.852 38.68 22.702 64.44 53.986 77.437 93.847z" fill="#a7adf1"/><g><path d="m243.138 436.167c0-3.15-2.554-5.704-5.704-5.704h-6.51c-20.699 0-37.479 16.78-37.479 37.48 0 3.919.604 7.697 1.72 11.249 15.597.74 31.835 1.449 47.974 1.974v-44.999z" fill="#ffe266"/><path d="m230.924 505.423h6.51c.512 0 1.005-.074 1.477-.201l-11.164.057c1.049.088 2.106.144 3.177.144z" fill="#ffe266"/><path d="m384.822 467.14c-9.794 15.212-74.837 16.204-141.683 14.026v18.552c0 2.638-1.794 4.852-4.227 5.504l164.211-.831c1.273 0 2.54-.042 3.803-.108 5.137 2.951 11.087 4.647 17.436 4.647h45.861c20.105 0 36.403-16.298 36.403-36.403-45.356 3.187-97.567 10.089-121.804-5.387z" fill="#a7adf1"/><path d="m506.598 472.53c-16.212 1.14-33.295 2.749-49.667 3.645v27.051c0 3.15 2.554 5.704 5.704 5.704h6.51c22.368.616 37.927-16.81 37.453-36.4z" fill="#efaa66"/><path d="m243.138 499.718v-18.552c-16.139-.525-32.377-1.235-47.974-1.974 4.473 14.232 17.208 24.795 32.583 26.087l11.164-.057c2.434-.651 4.227-2.865 4.227-5.504z" fill="#ffe266"/><path d="m243.138 499.718v-18.552c-16.139-.525-32.377-1.235-47.974-1.974 4.473 14.232 17.208 24.795 32.583 26.087l11.164-.057c2.434-.651 4.227-2.865 4.227-5.504z" fill="#efaa66"/></g><path d="m125.565 441.677c-5.385.012-9.276-6.811-7.681-13.525 3.907-16.445 14.839-28.286 27.754-28.314s23.925 11.764 27.94 28.192c1.639 6.707-2.206 13.546-7.591 13.558z" fill="#ef8bbd"/><path d="m139.815 441.645c-3.801.008-6.546-4.807-5.421-9.545 2.757-11.606 10.473-19.963 19.588-19.983s16.885 8.303 19.719 19.897c.065.266.114.532.155.798.188-1.537.119-3.163-.277-4.782-4.015-16.427-15.025-28.22-27.94-28.192-12.915.029-23.847 11.869-27.754 28.314-1.595 6.714 2.295 13.537 7.681 13.525l40.421-.089z" fill="#e068bd"/><path d="m299.819 60.45c2.901 17.416 1.223 34.232-8.692 56.256-10.525 23.38-39.646 42.438-53.609 41.515-14.566-.963 3.034-19.299-8.112-43.738-4.983-10.926-36.97-32.604-33.985-65.419 2.462-27.065 25.23-47.646 52.347-45.853 27.117 1.792 47.383 29.216 52.051 57.239z" fill="#b2e7f1"/><g><path d="m227.543 111.404c.001.003.001.006.002.009.003.004.005.007.007.011-.003-.006-.006-.012-.009-.02z" fill="#af30fa" opacity=".3"/><path d="m247.768 3.21c-.024-.002-.047-.001-.071-.003-.939-.061-1.873-.092-2.8-.097-.06 0-.119.002-.179.002-.919-.001-1.833.019-2.74.066 18.943 3.999 32.837 23.967 36.233 44.352 2.281 13.696 1.339 28.805-6.458 46.125-7.006 15.563-27.564 44.837-41.316 23.291 8.952 23.197-6.992 40.343 7.081 41.274 13.963.923 43.084-18.135 53.609-41.515 9.915-22.024 11.593-38.84 8.692-56.256-4.668-28.021-24.934-55.446-52.051-57.239z" fill="#a7adf1"/></g><g fill="#95cde6"><path d="m228.976 45.525c-.058 4.578-3.817 8.242-8.395 8.184s-8.242-3.817-8.184-8.395 3.817-8.242 8.395-8.184c4.579.058 8.243 3.817 8.184 8.395z"/><path d="m274.754 46.051c-.079 6.233-5.197 11.221-11.429 11.142-6.233-.079-11.221-5.196-11.142-11.429s5.196-11.221 11.429-11.142c6.233.078 11.222 5.196 11.142 11.429z"/></g><path d="m234.261 82.722c-3.285.009-2.794-11.567-2.457-16.452.521-7.558 1.929-11.318 8.756-11.302 4.391.01 7.814 2.722 9.908 9.156 2.027 6.227.823 18.382-2.462 18.391z" fill="#95cde6"/><g><path d="m405.85 505.986c-.891 0-1.796-.192-2.654-.601-12.616-5.998-20.641-17.123-23.851-33.066-.675-3.353 1.496-6.617 4.847-7.292 3.353-.678 6.617 1.495 7.292 4.847 2.432 12.078 8.002 20.035 17.028 24.326 3.088 1.468 4.402 5.162 2.934 8.251-1.06 2.231-3.281 3.535-5.596 3.535z" fill="#95cde6"/></g></g><path d="m478.162 112.629 8.477 23.836c.363 1.02 1.081 1.829 1.988 2.238l21.177 9.541c2.992 1.348 2.992 6.115 0 7.463l-21.177 9.541c-.907.409-1.625 1.217-1.988 2.238l-8.477 23.836c-1.198 3.368-5.433 3.368-6.63 0l-8.477-23.836c-.363-1.021-1.081-1.829-1.988-2.238l-21.177-9.541c-2.992-1.348-2.992-6.115 0-7.463l21.177-9.541c.907-.409 1.625-1.217 1.988-2.238l8.477-23.836c1.197-3.368 5.432-3.368 6.63 0z" fill="#f7c4db"/><path d="m51.597 46.927 6.288 17.681c.269.757.802 1.357 1.475 1.66l15.709 7.077c2.219 1 2.219 4.536 0 5.536l-15.709 7.077c-.673.303-1.205.903-1.475 1.66l-6.288 17.681c-.888 2.498-4.03 2.498-4.918 0l-6.288-17.681c-.269-.757-.802-1.357-1.475-1.66l-15.709-7.077c-2.219-1-2.219-4.536 0-5.536l15.709-7.077c.673-.303 1.206-.903 1.475-1.66l6.288-17.681c.888-2.498 4.03-2.498 4.918 0z" fill="#f7c4db"/><g fill="#ef8bbd"><circle cx="363.968" cy="166.367" r="12.577"/><path d="m430.641 54.686c0 5.395-4.374 9.768-9.768 9.768-5.395 0-9.768-4.373-9.768-9.768s4.373-9.768 9.768-9.768c5.394 0 9.768 4.374 9.768 9.768z"/></g></g></svg>