<svg id="Capa_1" enable-background="new 0 0 512 512" height="512" viewBox="0 0 512 512" width="512" xmlns="http://www.w3.org/2000/svg"><g><g><path d="m400.201 508.406s37.074-23.592 37.074-57.296c0-33.703-29.49-48.027-29.49-48.027s51.91-24.417 35.708-96.982-68.308-77.484-68.308-77.484 6.37-100.437-87.552-46.534c0 0 5.99-134.941-83.728-78.868l8.315 238.742z" fill="#ffa585"/><path d="m407.784 403.083c0-.001.006-.003.007-.003.29-.137 51.858-24.618 35.701-96.979-4.867-21.796-12.974-37.483-21.934-48.773 16.003 99.708-50.799 160.772-126.364 106.459-4.154-2.985-15.088 34.52-20.075 33.866l125.113 111.026s.295-.48.886-.883c.394-.269.905-.625 1.516-1.065s1.322-.965 2.113-1.569c9.108-6.955 28.989-24.575 32.111-47.852.271-2.024.416-4.091.416-6.198 0-8.425-1.843-15.64-4.608-21.723-8.294-18.249-24.882-26.306-24.882-26.306z" fill="#ef7c85"/><path d="m400.232 508.679c-12.307-44.8-34.45-91.502-69.578-119.933 6.602-18.705 10.171-38.882 10.171-69.438l1.121-60.796c0-21.757-6.607-41.97-17.924-58.743 5.193-5.284 9.585-12.41 12.685-21.419 9.441-27.435-7.831-65.685-16.374-68.624-8.543-2.94-45.694 16.582-55.135 44.018-.373 1.084-.703 2.154-1.014 3.218-8.737-2.352-17.921-3.614-27.401-3.614h-64.9c-4.847 0-9.503.369-13.977 1.048-.664-5.964-2.496-12.334-5.68-18.966-12.429-25.882-51.185-40.806-59.245-36.936-8.059 3.871-20.645 43.448-8.217 69.33 4.112 8.564 9.294 15.098 15.058 19.702-11.43 12.958-19.004 27.143-22.881 37.805-9.356 25.73-14.034 60.815-14.034 60.815-25.345 23.859-33.408 56.505-23.267 84.9 8.368 23.429 24.882 40.607 46.859 51.88 19.316 9.908 50.662 13.458 67.828 11.966-9.54 20.986-14.577 51.196-17.962 73.787z" fill="#ffc7b6"/><path d="m400.232 508.679c-12.307-44.8-34.45-91.502-69.578-119.933 6.602-18.705 10.171-38.882 10.171-69.438l1.121-60.796c0-21.757-6.607-41.97-17.924-58.743 5.193-5.284 9.585-12.41 12.685-21.419 9.441-27.435-7.831-65.685-16.374-68.624-8.543-2.94-45.694 16.582-55.135 44.018-.373 1.084-.703 2.154-1.014 3.218-8.737-2.352-17.921-3.614-27.401-3.614h-64.9c-4.847 0-9.503.369-13.977 1.048-.664-5.964-2.496-12.334-5.68-18.966-12.429-25.882-51.185-40.806-59.245-36.936-8.059 3.871-20.645 43.448-8.217 69.33 4.112 8.564 9.294 15.098 15.058 19.702-11.43 12.958-19.004 27.143-22.881 37.805-9.356 25.73-14.034 60.815-14.034 60.815-25.345 23.859-33.408 56.505-23.267 84.9 8.368 23.429 24.882 40.607 46.859 51.88 19.316 9.908 50.662 13.458 67.828 11.966-9.54 20.986-14.577 51.196-17.962 73.787z" fill="#ffc7b6"/><path d="m400.232 508.679c-12.307-44.8-34.45-91.502-69.578-119.933 6.602-18.705 10.171-38.882 10.171-69.439l1.121-60.796c0-21.757-6.607-41.97-17.924-58.743 5.193-5.284 9.585-12.41 12.685-21.419 9.441-27.435-7.831-65.685-16.374-68.624-3.335-1.148-11.034 1.14-19.738 5.972 6.697 13.714 15.308 35.573 13.831 53.298-1.071 12.855-17.695 26.456-22.044 31.484 9.475 15.959 16.73 69.644 16.73 90.345l-.284 15.435c0 21.187-9.087 49.988-14.009 69.731-2.87 11.513-4.474 21.859 4.131 30.029 11.57 10.985 20.53 21.555 28.236 41.004 8.579 21.65-7.453 45.13-30.741 45.13h-157.352c-1.012 5.728-1.928 11.29-2.728 16.526z" fill="#ef95b6"/><path d="m233.002 170.841c-.034-.467-.09-.937-.192-1.412-.657-18.244-6.2-34.039-18.879-46.261-.316-20.415-5.734-36.305-18.663-45.732-6.53-22.57-16.654-46.649-29.295-71.783-1.581-3.875-7.361-2.624-7.199 1.558-1.554 22.627-1.654 43.648 2.33 60.158-5.465 13.435-5.553 26.978 1.576 40.697-4.418 13.588-4.612 27.705 1.648 42.538-6.614 14.279-1.67 27.324.115 33.503 7.336 20.738 70.083 7.478 68.559-13.266z" fill="#ffe266"/><path d="m233.002 170.841c-.034-.467-.09-.937-.192-1.412-.466-12.956-3.415-24.669-9.616-34.753.61 3.342.982 6.799 1.114 10.373.09.405.139.806.169 1.204 1.341 17.7-53.892 29.013-60.35 11.319-.303-1.018-.71-2.256-1.128-3.675-4.53 12.964-.203 24.509 1.444 30.209 7.336 20.739 70.083 7.479 68.559-13.265z" fill="#efaa66"/><g><g><path d="m196.552 87.208c-.666 0-1.343-.107-2.009-.333l-35.448-11.987c-3.282-1.11-5.042-4.669-3.932-7.95s4.669-5.044 7.95-3.932l35.448 11.987c3.281 1.11 5.042 4.669 3.933 7.95-.885 2.615-3.326 4.265-5.942 4.265z" fill="#d0844b"/></g><g><path d="m213.589 131.374c-.66 0-1.331-.105-1.991-.327l-50.907-17.034c-3.285-1.098-5.057-4.653-3.958-7.938 1.1-3.284 4.657-5.059 7.938-3.957l50.907 17.034c3.285 1.098 5.057 4.653 3.958 7.938-.879 2.625-3.324 4.284-5.947 4.284z" fill="#d0844b"/></g><g><path d="m233.005 177.115c-.587 0-1.184-.084-1.775-.258l-68.674-20.237c-3.323-.979-5.223-4.466-4.244-7.789s4.465-5.226 7.789-4.243l68.674 20.237c3.323.979 5.223 4.466 4.244 7.789-.805 2.731-3.304 4.501-6.014 4.501z" fill="#d0844b"/></g></g><path d="m74.642 190.441c14.582-8.42 25.398-21.86 31.354-37.61 1.692-4.474 4.076-8.79 7.184-12.803 14.845-19.169 41.926-24.603 63.006-12.625 25.142 14.287 32.452 46.593 16.649 70.174-13.606 20.303-35.529 28.77-55.811 28.124-11.816-.376-39.064-7.645-59.752-13.649-10.016-2.907-11.66-16.397-2.63-21.611z" fill="#ffa585"/><path d="m176.186 127.402c-21.08-11.978-48.16-6.544-63.006 12.625-3.108 4.013-5.492 8.33-7.184 12.804-5.956 15.75-16.771 29.19-31.354 37.61-9.031 5.214-7.386 18.704 2.629 21.61 20.689 6.004 47.936 13.273 59.752 13.649 20.283.645 42.206-7.822 55.811-28.124 15.804-23.581 8.494-55.887-16.648-70.174zm2.266 46.653c-6.784 16.244-21.319 25.192-36.027 27.444-8.568 1.313-29.277-.209-45.074-1.708-7.646-.726-10.836-10.091-5.105-15.003 9.254-7.932 15.048-18.928 16.997-30.915.554-3.405 1.63-6.791 3.273-10.058 7.846-15.604 26.547-23.087 43.513-17.394 20.235 6.789 30.303 28.766 22.423 47.634z" fill="#ef7c85"/><g fill="#d07297"><path d="m132.54 292.064c0 7.124-5.775 12.899-12.899 12.899s-12.899-5.775-12.899-12.899 5.775-12.899 12.899-12.899 12.899 5.775 12.899 12.899z"/><circle cx="250.485" cy="292.064" r="12.899"/></g><g><path d="m128.536 175.668c-1.811 0-3.653-.472-5.348-1.477-4.794-2.842-6.305-9.072-3.797-14.048 3.903-7.744 8.829-13.097 13.382-16.746 5.87-4.703 14.627-1.911 16.65 5.333 1.114 3.988-.184 8.312-3.424 10.891-2.607 2.075-5.664 5.316-8.08 10.215-1.821 3.691-5.529 5.832-9.383 5.832z" fill="#fff"/></g><g><path d="m193.577 342.419c-2.751 0-5.274-1.823-6.042-4.604-1.675-6.064-7.354-9.805-12.666-8.337-2.774.767-5.038 2.875-6.211 5.785-1.296 3.212-4.949 4.769-8.162 3.472-3.213-1.294-4.767-4.949-3.472-8.161 2.646-6.565 7.933-11.371 14.505-13.186 11.973-3.311 24.58 4.357 28.096 17.088.922 3.339-1.037 6.794-4.375 7.715-.558.154-1.121.228-1.673.228z" fill="#d07297"/></g><g><path d="m137.331 505.208c22.228 2.034 158.126-98.869 129.793-134.574-28.331-35.705-230.158 109.272-129.793 134.574z" fill="#ffc7b6"/><g><path d="m189.093 404.952c-2.001 0-3.967-.956-5.182-2.731-1.956-2.859-1.225-6.762 1.634-8.719 10.155-6.949 20.066-12.851 29.458-17.543 3.101-1.55 6.866-.291 8.414 2.807 1.548 3.099.291 6.866-2.808 8.414-8.882 4.438-18.296 10.048-27.981 16.675-1.082.741-2.314 1.097-3.535 1.097z" fill="#d07297"/></g><g><path d="m167.798 492.836c-2.05 0-4.059-1.004-5.262-2.851-1.89-2.902-1.069-6.788 1.834-8.678 26.696-17.382 64.362-48.693 84.698-74.905 2.123-2.737 6.064-3.234 8.8-1.111 2.737 2.123 3.234 6.063 1.111 8.799-22.173 28.579-61.037 60.326-87.764 77.728-1.057.69-2.243 1.018-3.417 1.018z" fill="#d07297"/></g><path d="m267.468 370.916c-7.615-9.597-27.766-6.137-51.211 4.54-.383 13.975 26.026 37.917 39.48 43.026 14.439-18.376 21.144-35.704 11.731-47.566z" fill="#ffa585"/></g><g><path d="m276.774 459.164c-54.404-39.296-116.654-111.579-149.782-77.569s46.524 65.673 100.928 104.968z" fill="#ffc7b6"/><g><path d="m279.413 467.362c-1.272 0-2.557-.386-3.667-1.187-10.303-7.442-20.937-15.754-32.195-24.554-24-18.76-48.817-38.158-70.664-49.016-3.102-1.542-4.366-5.306-2.825-8.409 1.542-3.102 5.307-4.366 8.408-2.825 22.987 11.425 48.314 31.222 72.807 50.367 11.162 8.724 21.704 16.965 31.815 24.267 2.808 2.028 3.44 5.949 1.412 8.757-1.227 1.697-3.146 2.6-5.091 2.6z" fill="#d07297"/></g><g><path d="m251.242 505.768c-1.272 0-2.557-.386-3.667-1.187-11.565-8.353-24.949-17.133-39.119-26.427-23.291-15.279-47.376-31.077-65.038-46.194-2.631-2.253-2.938-6.212-.686-8.843 2.252-2.632 6.211-2.939 8.843-.687 17.054 14.598 40.799 30.174 63.761 45.236 14.291 9.374 27.789 18.228 39.584 26.747 2.808 2.028 3.44 5.949 1.412 8.757-1.227 1.696-3.145 2.598-5.09 2.598z" fill="#d07297"/></g><path d="m128.524 383.51c-15.733 16.152-6.021 31.774 14.334 47.936 12.423-5.01 38.497-34.941 36.385-49.85-20.316-9.44-38.109-11.031-50.719 1.914z" fill="#ffa585"/></g><g><path d="m217.497 267.951c-1.77 0-3.529-.744-4.769-2.195-2.251-2.633-1.943-6.591.689-8.843l13.461-11.515c2.633-2.251 6.592-1.944 8.844.689 2.251 2.633 1.943 6.592-.689 8.843l-13.461 11.515c-1.183 1.011-2.632 1.506-4.075 1.506z" fill="#d07297"/></g></g><path d="m30.444 22.932 6.37 17.91c.273.767.813 1.375 1.494 1.681l15.912 7.169c2.248 1.013 2.248 4.595 0 5.608l-15.912 7.169c-.681.307-1.221.915-1.494 1.681l-6.37 17.91c-.9 2.53-4.082 2.53-4.982 0l-6.369-17.91c-.273-.767-.812-1.375-1.494-1.681l-15.913-7.169c-2.248-1.013-2.248-4.595 0-5.608l15.912-7.169c.681-.307 1.221-.915 1.494-1.681l6.369-17.91c.901-2.531 4.083-2.531 4.983 0z" fill="#fef2a8"/><ellipse cx="363.453" cy="38.424" fill="#ffe266" rx="12.74" ry="12.74" transform="matrix(.083 -.997 .997 .083 295.118 397.457)"/><path d="m477.675 59.314 8.587 24.145c.367 1.034 1.095 1.853 2.014 2.267l21.452 9.665c3.031 1.365 3.031 6.194 0 7.559l-21.452 9.665c-.918.414-1.646 1.233-2.014 2.267l-8.587 24.145c-1.213 3.411-5.503 3.411-6.716 0l-8.587-24.145c-.368-1.034-1.095-1.853-2.014-2.267l-21.452-9.665c-3.031-1.365-3.031-6.194 0-7.559l21.452-9.665c.919-.414 1.646-1.233 2.014-2.267l8.587-24.145c1.213-3.411 5.503-3.411 6.716 0z" fill="#fef2a8"/></g></svg>