<svg id="Capa_1" enable-background="new 0 0 512 512" height="512" viewBox="0 0 512 512" width="512" xmlns="http://www.w3.org/2000/svg"><g><g><path d="m405.018 511.729s36.898-23.481 36.898-57.025-29.351-47.8-29.351-47.8 51.664-24.301 35.539-96.523c-16.125-72.221-67.984-77.117-67.984-77.117s6.34-99.961-87.137-46.314c0 0 5.961-134.302-83.332-78.494l8.275 237.611z" fill="#78eac4"/><path d="m441.917 454.705c0-33.544-29.351-47.8-29.351-47.8s51.664-24.301 35.539-96.523c-4.493-20.123-11.761-35.014-19.908-46.034 14.066 97.515-53.226 156.966-127.687 103.446-4.134-2.971-15.017 34.357-19.98 33.706l124.519 110.5s36.868-23.752 36.868-57.295z" fill="#71afc4"/><path d="m405.049 512c-12.249-44.587-34.286-91.069-69.248-119.364 6.57-18.617 10.122-38.698 10.122-69.109l1.116-60.508c0-21.654-6.576-41.771-17.839-58.465 5.168-5.259 9.539-12.351 12.625-21.317 9.396-27.305-7.794-65.373-16.296-68.299-8.503-2.926-45.478 16.504-54.874 43.809-.371 1.079-.7 2.144-1.01 3.203-8.696-2.341-17.836-3.597-27.271-3.597h-64.592c-4.824 0-9.458.367-13.91 1.044-.661-5.935-2.484-12.276-5.654-18.876-12.37-25.76-50.943-40.613-58.964-36.761s-20.547 43.242-8.178 69.002c4.093 8.523 9.25 15.027 14.986 19.609-11.376 12.897-18.913 27.015-22.772 37.626-9.312 25.608-13.968 60.526-13.968 60.526-25.225 23.746-33.249 56.238-23.156 84.498 8.328 23.319 24.765 40.415 46.637 51.634 19.225 9.861 50.422 13.395 67.507 11.909-9.494 20.886-14.508 50.953-17.877 73.437h262.616z" fill="#bdf4e3"/><path d="m335.801 392.636c6.57-18.617 10.122-38.698 10.122-69.109l1.116-60.508c0-21.654-6.576-41.771-17.839-58.465 5.168-5.259 9.539-12.351 12.625-21.317 9.396-27.305-7.794-65.373-16.296-68.299-4.012-1.381-5.441.087-16.867 4.463 6.693 12.559 12.195 30.803 10.502 51.122-1.066 12.794-17.611 26.331-21.939 31.335 9.431 15.883 16.651 69.314 16.651 89.916l-.282 15.362c0 21.087-9.044 49.751-13.943 69.4-2.857 11.458-4.452 21.755 4.111 29.887 11.515 10.933 20.433 21.453 28.102 40.81 8.538 21.547-7.418 44.916-30.595 44.916h-155.632c-1.228 6.953-2.281 13.69-3.204 19.85h262.616c-12.249-44.586-34.286-91.068-69.248-119.363z" fill="#b1b7e3"/><path d="m238.613 175.764c-.034-.465-.089-.933-.192-1.405-.653-18.157-6.171-33.878-18.79-46.042-.314-20.318-5.707-36.132-18.575-45.515-6.499-22.463-16.575-46.428-29.156-71.443-1.574-3.856-7.326-2.611-7.165 1.55-1.547 22.519-1.646 43.441 2.319 59.873-5.439 13.371-5.526 26.85 1.569 40.504-4.397 13.524-4.59 27.574 1.64 42.336-6.582 14.211-1.662 27.195.114 33.345 7.303 20.639 69.752 7.443 68.236-13.203z" fill="#cab4ef"/><path d="m238.613 175.764c-.034-.465-.089-.933-.192-1.405-.464-12.895-3.399-24.552-9.571-34.588.607 3.326.977 6.767 1.109 10.323.09.403.139.802.169 1.199 1.335 17.616-53.637 28.876-60.064 11.266-.302-1.013-.707-2.245-1.122-3.658-4.508 12.903-.202 24.393 1.437 30.066 7.301 20.639 69.75 7.443 68.234-13.203z" fill="#be87ef"/><g><g><path d="m202.335 92.526c-.663 0-1.337-.107-2-.331l-35.28-11.93c-3.266-1.104-5.018-4.647-3.914-7.913 1.105-3.265 4.647-5.02 7.913-3.914l35.28 11.93c3.266 1.104 5.018 4.647 3.914 7.913-.88 2.603-3.309 4.245-5.913 4.245z" fill="#a171e3"/></g><g><path d="m219.291 136.483c-.657 0-1.325-.105-1.982-.325l-50.667-16.953c-3.27-1.093-5.033-4.631-3.939-7.9 1.095-3.269 4.634-5.033 7.9-3.938l50.666 16.953c3.27 1.093 5.033 4.631 3.939 7.9-.873 2.612-3.306 4.263-5.917 4.263z" fill="#a171e3"/></g><g><path d="m238.615 182.008c-.584 0-1.178-.083-1.767-.257l-68.348-20.141c-3.307-.974-5.198-4.445-4.224-7.752s4.445-5.2 7.752-4.223l68.349 20.141c3.307.974 5.198 4.445 4.223 7.752-.801 2.718-3.288 4.48-5.985 4.48z" fill="#a171e3"/></g></g><path d="m81.003 195.27c14.513-8.38 25.277-21.756 31.205-37.432 1.684-4.453 4.057-8.748 7.15-12.743 14.775-19.078 41.727-24.487 62.707-12.565 25.023 14.219 32.298 46.372 16.57 69.841-13.542 20.206-35.36 28.633-55.547 27.991-11.76-.374-38.878-7.609-59.469-13.584-9.967-2.892-11.604-16.318-2.616-21.508z" fill="#78eac4"/><path d="m182.065 132.531c-20.98-11.921-47.932-6.513-62.707 12.565-3.093 3.994-5.466 8.29-7.15 12.743-5.928 15.675-16.692 29.051-31.205 37.432-8.988 5.19-7.351 18.616 2.616 21.508 20.591 5.975 47.709 13.21 59.469 13.584 20.187.642 42.006-7.785 55.547-27.991 15.729-23.47 8.453-55.622-16.57-69.841zm2.255 46.431c-6.752 16.167-21.218 25.072-35.856 27.314-8.527 1.307-29.138-.208-44.86-1.7-7.61-.722-10.785-10.043-5.081-14.932 9.21-7.894 14.976-18.838 16.917-30.768.551-3.389 1.622-6.758 3.257-10.01 7.809-15.531 26.421-22.977 43.307-17.312 20.139 6.757 30.159 28.63 22.316 47.408z" fill="#71afc4"/><g><path d="m134.641 180.568c-1.802 0-3.636-.47-5.323-1.471-4.771-2.832-6.273-9.034-3.775-13.988 3.884-7.704 8.785-13.03 13.316-16.661 5.841-4.68 14.557-1.901 16.571 5.308 1.109 3.969-.183 8.273-3.408 10.839-2.594 2.065-5.638 5.291-8.042 10.168-1.812 3.675-5.503 5.805-9.339 5.805z" fill="#fff"/></g><g><path d="m108.639 314.781c-3.447 0-6.242-2.795-6.242-6.242v-13.923c0-3.447 2.795-6.242 6.242-6.242h30.631c3.447 0 6.242 2.795 6.242 6.242s-2.795 6.242-6.242 6.242h-24.389v7.681c0 3.447-2.795 6.242-6.242 6.242z" fill="#90e0c5"/></g><g><path d="m239.709 314.781c-3.447 0-6.242-2.795-6.242-6.242v-13.923c0-3.447 2.795-6.242 6.242-6.242h30.631c3.447 0 6.242 2.795 6.242 6.242s-2.795 6.242-6.242 6.242h-24.388v7.681c-.001 3.447-2.796 6.242-6.243 6.242z" fill="#90e0c5"/></g><g><path d="m195.557 351.208c-2.165 0-4.27-1.128-5.423-3.141-1.206-2.107-3.459-3.374-5.884-3.325-2.023.047-3.886 1.001-5.111 2.618-2.082 2.747-5.998 3.286-8.745 1.207-2.748-2.082-3.289-5.997-1.207-8.746 3.538-4.671 8.923-7.426 14.775-7.56 7.02-.201 13.521 3.516 17.006 9.602 1.713 2.992.676 6.806-2.315 8.519-.978.56-2.044.826-3.096.826z" fill="#90e0c5"/></g></g><path d="m477.037 91.355 8.546 24.03c.366 1.029 1.09 1.844 2.004 2.256l21.35 9.619c3.016 1.359 3.016 6.165 0 7.524l-21.35 9.619c-.914.412-1.638 1.227-2.004 2.256l-8.546 24.03c-1.207 3.395-5.477 3.395-6.684 0l-8.546-24.03c-.366-1.029-1.09-1.844-2.004-2.256l-21.35-9.619c-3.016-1.359-3.016-6.165 0-7.524l21.35-9.619c.914-.412 1.639-1.227 2.004-2.256l8.546-24.03c1.207-3.395 5.477-3.395 6.684 0z" fill="#cab4ef"/><path d="m75.582 1.889 6.339 17.825c.271.763.809 1.368 1.487 1.674l15.837 7.135c2.237 1.008 2.237 4.573 0 5.581l-15.837 7.135c-.678.305-1.215.91-1.487 1.673l-6.339 17.825c-.896 2.518-4.063 2.518-4.958 0l-6.339-17.825c-.271-.763-.809-1.368-1.487-1.673l-15.838-7.135c-2.237-1.008-2.237-4.573 0-5.581l15.837-7.135c.678-.306 1.215-.91 1.487-1.674l6.339-17.825c.896-2.519 4.063-2.519 4.959 0z" fill="#cab4ef"/><g fill="#a183e2"><ellipse cx="13.48" cy="115.155" rx="12.68" ry="12.679" transform="matrix(.995 -.099 .099 .995 -11.31 1.895)"/><path d="m407.687 65.103c0 5.439-4.409 9.848-9.848 9.848s-9.848-4.409-9.848-9.848 4.409-9.848 9.848-9.848 9.848 4.409 9.848 9.848z"/></g></g></svg>