<svg id="Capa_1" enable-background="new 0 0 512 512" height="512" viewBox="0 0 512 512" width="512" xmlns="http://www.w3.org/2000/svg"><g><g><path d="m463.992 510.794s37.412-26.508 37.412-60.407-29.662-48.306-29.662-48.306 52.211-24.559 35.915-97.545-68.704-77.933-68.704-77.933 6.407-101.02-88.06-46.804c0 0 6.024-135.724-84.214-79.325l99.699 411.09z" fill="#bdf4e3"/><path d="m501.404 450.387c0-33.899-29.661-48.306-29.661-48.306s52.211-24.559 35.915-97.545c-4.435-19.862-11.546-34.676-19.546-45.733 12.007 96.592-55.306 157.161-129.613 103.753-3.008-2.162.68 74.935 1.109 118.033l6.979 31.411h97.021c.001 0 37.796-27.714 37.796-61.613z" fill="#b1b7e3"/><path d="m406.526 512c0-28.092-13.284-69.179-38.184-90.248 14.314-9.962 32.157-62.192 36.086-100.221l1.128-61.149c0-21.883-6.646-42.213-18.028-59.084 5.223-5.315 9.64-12.482 12.758-21.543 9.496-27.594-7.876-66.066-16.469-69.022-8.593-2.957-45.959 16.679-55.455 44.273-.375 1.09-.707 2.167-1.02 3.237-8.788-2.366-18.025-3.635-27.56-3.635h-65.276c-4.875 0-9.558.371-14.058 1.054-.668-5.998-2.511-12.406-5.713-19.076-12.501-26.033-51.482-41.043-59.588-37.151-8.106 3.893-20.765 43.7-8.264 69.733 4.136 8.613 9.348 15.186 15.145 19.816-11.496 13.034-19.114 27.301-23.013 38.024-9.41 25.879-14.116 61.167-14.116 61.167-25.492 23.998-33.602 56.833-23.402 85.393 8.416 23.565 25.937 39.222 47.131 52.181 5.701 3.486 20.024 10.526 25.734 12.035-9.595 21.108-14.662 51.493-18.066 74.215" fill="#e7effa"/><path d="m368.342 421.751c14.314-9.962 32.156-62.192 36.086-100.221l1.128-61.149c0-21.883-6.646-42.213-18.028-59.084 5.223-5.315 9.64-12.482 12.758-21.543 9.496-27.594-7.876-66.066-16.469-69.022-4.155-1.43-9.834-.489-21.041 6.993 5.39 14.123 9.146 34.748 4.058 51.362-2.72 8.883-11.78 18.833-16.337 24.044 9.931 16.539 15.729 36.471 15.729 57.925l-.984 59.95c-2.648 28.796-17.311 67.561-29.604 88.217-4.812 8.086-4.081 18.279 1.843 25.59 8.77 10.823 16.559 23.531 21.958 36.421 6.754 16.123-5.128 33.943-22.607 34.161l-178.275 2.223c-.834 5.007-1.583 9.851-2.262 14.382h250.232c0-28.093-13.285-69.179-38.185-90.249z" fill="#dcb6f5"/><path d="m295.947 168.492c-.035-.47-.091-.943-.194-1.42-.66-18.35-6.236-34.237-18.989-46.529-.318-20.534-5.767-36.515-18.771-45.997-6.567-22.701-16.751-46.919-29.465-72.2-1.59-3.897-7.404-2.639-7.241 1.567-1.563 22.758-1.664 43.901 2.344 60.507-5.496 13.513-5.585 27.134 1.586 40.933-4.443 13.667-4.639 27.866 1.657 42.785-6.652 14.362-1.68 27.483.116 33.698 7.379 20.857 70.489 7.52 68.957-13.344z" fill="#ffe266"/><path d="m295.947 168.492c-.035-.47-.091-.943-.194-1.42-.469-13.032-3.435-24.812-9.672-34.954.614 3.361.987 6.838 1.121 10.433.091.407.14.81.171 1.211 1.349 17.802-54.205 29.182-60.701 11.385-.305-1.023-.714-2.269-1.134-3.697-4.556 13.04-.204 24.651 1.452 30.385 7.379 20.858 70.489 7.521 68.957-13.343z" fill="#efaa66"/><g><g><path d="m259.286 84.373c-.67 0-1.352-.108-2.022-.335l-35.654-12.056c-3.301-1.116-5.071-4.696-3.955-7.996 1.115-3.301 4.699-5.073 7.996-3.955l35.654 12.056c3.301 1.116 5.071 4.696 3.955 7.996-.888 2.631-3.343 4.29-5.974 4.29z" fill="#d0844b"/></g><g><path d="m276.421 128.796c-.664 0-1.339-.106-2.003-.329l-51.203-17.132c-3.303-1.105-5.085-4.68-3.98-7.984 1.106-3.304 4.683-5.088 7.984-3.98l51.203 17.132c3.303 1.105 5.086 4.68 3.98 7.984-.883 2.64-3.343 4.309-5.981 4.309z" fill="#d0844b"/></g><g><path d="m295.95 174.802c-.591 0-1.191-.084-1.786-.26l-69.073-20.355c-3.342-.985-5.253-4.492-4.267-7.834.985-3.342 4.493-5.252 7.834-4.267l69.073 20.355c3.342.985 5.253 4.492 4.267 7.834-.81 2.747-3.323 4.527-6.048 4.527z" fill="#d0844b"/></g></g><path d="m136.668 188.205c14.667-8.469 25.545-21.987 31.535-37.828 1.702-4.5 4.1-8.841 7.226-12.878 14.932-19.28 42.169-24.746 63.371-12.698 25.288 14.369 32.64 46.863 16.746 70.581-13.685 20.42-35.735 28.936-56.135 28.287-11.885-.378-39.29-7.69-60.099-13.728-10.073-2.923-11.727-16.491-2.644-21.736z" fill="#bdf4e3"/><path d="m238.801 124.801c-21.202-12.048-48.44-6.582-63.371 12.698-3.126 4.037-5.524 8.378-7.226 12.878-5.99 15.841-16.869 29.359-31.536 37.828-9.083 5.245-7.429 18.813 2.644 21.736 20.809 6.038 48.214 13.35 60.099 13.728 20.4.649 42.451-7.867 56.135-28.288 15.895-23.717 8.543-56.21-16.745-70.58zm2.279 46.923c-6.824 16.339-21.443 25.338-36.236 27.604-8.618 1.321-29.447-.21-45.335-1.718-7.691-.73-10.899-10.149-5.135-15.09 9.307-7.978 15.135-19.038 17.096-31.094.557-3.425 1.639-6.83 3.292-10.116 7.891-15.695 26.701-23.221 43.765-17.495 20.353 6.828 30.478 28.932 22.553 47.909z" fill="#b1b7e3"/><g fill="#ad99c9"><circle cx="181.928" cy="290.418" r="12.974"/><circle cx="313.531" cy="290.418" r="12.974"/></g><g><path d="m243.045 354.121c-12.497 0-22.663-10.807-22.663-24.092 0-3.484 2.825-6.308 6.308-6.308 3.484 0 6.308 2.825 6.308 6.308 0 6.327 4.507 11.475 10.047 11.475 5.539 0 10.046-5.148 10.046-11.475 0-3.484 2.825-6.308 6.308-6.308 3.484 0 6.308 2.825 6.308 6.308.001 13.284-10.165 24.092-22.662 24.092z" fill="#3c122c"/></g><g><path d="m190.873 173.346c-1.822 0-3.675-.475-5.38-1.487-4.821-2.861-6.339-9.128-3.815-14.133 3.926-7.787 8.88-13.17 13.46-16.839 5.903-4.729 14.71-1.922 16.746 5.363 1.121 4.012-.185 8.361-3.444 10.955-2.622 2.087-5.698 5.347-8.129 10.276-1.831 3.712-5.56 5.865-9.438 5.865z" fill="#fff"/></g><path d="m218.476 354.628c-6.029.013-10.384-7.625-8.599-15.141 4.374-18.411 16.613-31.667 31.071-31.699s26.785 13.171 31.28 31.562c1.835 7.509-2.47 15.166-8.499 15.179z" fill="#ef8bbd"/><path d="m234.429 354.593c-4.255.009-7.329-5.381-6.069-10.686 3.087-12.994 11.725-22.35 21.929-22.372 10.204-.023 18.904 9.295 22.076 22.275.072.297.127.596.173.893.211-1.721.133-3.541-.31-5.354-4.495-18.391-16.822-31.594-31.28-31.562s-26.697 13.288-31.071 31.699c-1.786 7.516 2.569 15.155 8.599 15.141l45.253-.099z" fill="#e068bd"/><g><path d="m174.969 254.171c-1.773 0-3.535-.743-4.784-2.192-2.273-2.64-1.975-6.623.664-8.897 7.188-6.192 18.022-6.193 25.198.007 2.636 2.277 2.927 6.261.649 8.898-2.276 2.636-6.258 2.929-8.898.649-2.438-2.106-6.267-2.103-8.717.007-1.189 1.026-2.655 1.528-4.112 1.528z" fill="#ad99c9"/></g><g><path d="m308.822 256.639c-4.337 0-8.677-1.436-12.206-4.33-2.694-2.209-3.089-6.183-.879-8.877 2.207-2.694 6.183-3.09 8.877-.879 2.493 2.042 6.32 1.942 8.714-.232 2.582-2.341 6.57-2.146 8.911.434 2.341 2.581 2.146 6.57-.434 8.911-3.646 3.306-8.312 4.973-12.983 4.973z" fill="#ad99c9"/></g></g><path d="m62.419 51.194 6.406 18.014c.274.771.817 1.382 1.503 1.691l16.005 7.211c2.261 1.019 2.261 4.621 0 5.64l-16.005 7.211c-.685.309-1.228.92-1.503 1.691l-6.406 18.014c-.905 2.545-4.106 2.545-5.011 0l-6.406-18.014c-.274-.771-.817-1.382-1.503-1.691l-16.004-7.211c-2.261-1.019-2.261-4.621 0-5.64l16.005-7.211c.685-.309 1.228-.92 1.503-1.691l6.406-18.014c.905-2.545 4.105-2.545 5.01 0z" fill="#fef2a8"/><ellipse cx="14.005" cy="160.841" fill="#ffe266" rx="12.814" ry="12.814" transform="matrix(.071 -.998 .998 .071 -147.424 163.409)"/><path d="m475.052 11.37 8.637 24.285c.37 1.04 1.102 1.864 2.026 2.28l21.576 9.721c3.048 1.373 3.048 6.23 0 7.603l-21.576 9.721c-.924.416-1.656 1.24-2.026 2.28l-8.637 24.285c-1.22 3.431-5.535 3.431-6.755 0l-8.637-24.285c-.37-1.04-1.102-1.864-2.026-2.28l-21.576-9.721c-3.048-1.373-3.048-6.23 0-7.603l21.576-9.721c.924-.416 1.656-1.24 2.026-2.28l8.637-24.285c1.22-3.431 5.535-3.431 6.755 0z" fill="#fef2a8"/></g></svg>