<svg id="Capa_1" enable-background="new 0 0 512 512" height="512" viewBox="0 0 512 512" width="512" xmlns="http://www.w3.org/2000/svg"><g><g><g><path d="m290.842 458.828 79.881-64.936 91.587 49.873-168.143 22.745c-4.352.589-6.733-4.911-3.325-7.682z" fill="#ffe266"/><path d="m318.321 439.831c-.142 6.03 9.331 11.145 21.159 11.425s21.533-4.382 21.675-10.412-9.331-11.145-21.159-11.425-21.532 4.382-21.675 10.412z" fill="#ffa585"/><g><path d="m340.516 457.472c-.392 0-.786-.004-1.183-.014-15.745-.372-27.445-8.013-27.215-17.774 0 0 0 0 0-.001.232-9.758 12.28-16.848 28.024-16.467 15.746.372 27.446 8.013 27.216 17.774-.225 9.515-11.68 16.482-26.842 16.482zm-15.958-17.494c.661 1.426 5.886 4.858 15.069 5.075 9.176.194 14.563-2.964 15.291-4.357-.662-1.427-5.888-4.858-15.069-5.075-9.153-.204-14.563 2.965-15.291 4.357z" fill="#3c122c"/></g><ellipse cx="402.544" cy="425.475" fill="#ffa585" rx="10.922" ry="21.423" transform="matrix(.024 -1 1 .024 -32.325 817.852)"/><path d="m385.132 375.038 78.361 50.603c5.722 3.695 7.365 11.329 3.67 17.05-3.695 5.722-11.329 7.365-17.05 3.67l-78.361-50.603c-5.722-3.695-7.365-11.329-3.67-17.051 3.695-5.72 11.328-7.363 17.05-3.669z" fill="#fef2a8"/></g><g><path d="m428.354 504.584-72.386-73.199-96.446 39.67 63.878 15.827 12.001-2.495 7.235 7.261 15.519-3.813 6.637 9.303 59.424 14.723c4.264 1.056 7.226-4.154 4.138-7.277z" fill="#ffe266"/><g><path d="m376.999 458.857c-1.599 0-3.198-.615-4.411-1.842l-21.031-21.267c-2.409-2.437-2.388-6.365.049-8.774 2.436-2.409 6.365-2.387 8.774.049l21.031 21.267c2.409 2.437 2.388 6.365-.049 8.775-1.21 1.195-2.787 1.792-4.363 1.792z" fill="#d0844b"/></g><path d="m403.091 482.725c-.511 6.01-10.482 10.07-22.271 9.068s-20.932-6.686-20.421-12.696 10.482-10.07 22.271-9.068c11.789 1.001 20.932 6.685 20.421 12.696z" fill="#ffa585"/><ellipse cx="320.917" cy="459.34" fill="#ffa585" rx="10.921" ry="21.423" transform="matrix(.085 -.996 .996 .085 -163.949 740.207)"/><path d="m343.683 411.083-83.376 41.827c-6.088 3.054-8.547 10.465-5.493 16.553 3.054 6.088 10.465 8.547 16.553 5.493l83.376-41.827c6.088-3.054 8.547-10.465 5.493-16.553-3.054-6.087-10.465-8.547-16.553-5.493z" fill="#fef2a8"/></g><g><g><path d="m65.499 438.87c19.034-17.749 43.207-17.578 57.579-2.165-2.837 1.88-19.417 27.401-20.701 30.127-2.127 4.521-3.462-6.084-15.387 1.478-5.994 3.801-16.287 33.956-34.465 24.234-18.177-9.722-6.06-35.925 12.974-53.674z" fill="#e7effa"/><path d="m53.407 452.652c-10.984 15.513-14.731 32.485-.881 39.893 15.05 8.05 24.695-11.235 30.97-20.268-10.012-6.574-19.797-13.496-30.089-19.625z" fill="#a183e2"/></g><g><path d="m305.186 402.668s29.769-13.575 33.243-38.427-16.795-38.454-16.795-38.454 40.794-12.654 36.327-67.831c-4.467-55.178-42.381-64.176-42.381-64.176s15.05-73.403-59.761-43.338c0 0 18.326-98.884-53.609-66.785l-18.479 176.898z" fill="#cab4ef"/><path d="m357.962 257.956c-1.826-21.247-7.501-34.7-16.361-45.823 10.114 81.245-47.561 120.167-104.12 73.057-2.366-1.971-9.258 14.778-13.984 21.894l43.747 51.188 41.596 42.49c8.06-4.537 26.872-17.077 29.59-36.52 3.474-24.852-16.795-38.454-16.795-38.454s40.794-12.654 36.327-67.832z" fill="#be87ef"/><path d="m316.654 401.415c-4.457-34.303-35.323-64.074-58.294-88.659 6.796-13.112 19.387-33.112 22.537-55.644l7.094-44.714c2.243-16.043-.546-31.629-7.161-45.163 4.374-3.361 8.347-8.163 11.561-14.486 9.789-19.257.996-49.241-5-52.289-5.996-3.049-35.403 7.517-45.192 26.774-.387.761-.741 1.516-1.08 2.268-6.2-2.635-12.842-4.512-19.832-5.489l-47.855-6.69c-3.574-.5-7.045-.707-10.414-.668.125-4.466-.569-9.352-2.234-14.57-6.496-20.366-33.536-35.366-39.878-33.343s-19.702 29.909-13.205 50.275c2.149 6.739 5.297 12.091 9.072 16.08-9.764 8.377-16.811 18.056-20.768 25.518-9.551 18.008-16.617 43.396-16.617 43.396-21.148 14.981-30.459 38.222-25.908 60.205 3.755 18.139 14.162 32.508 29.205 43.085 13.222 9.297 38.114 17.855 50.925 18.524-27.558-2.044-64.507 45.5-69.332 61.809l-.4 1.402c-3.597 12.932-10.535 27.743-4.959 43.815 18.14 52.287 88.862 55.9 151.525 51.22 54.327-4.058 106.751-29.996 106.336-80.931z" fill="#e7effa"/><path d="m316.654 401.414c-4.457-34.302-35.323-64.074-58.294-88.659 6.796-13.112 19.387-33.112 22.537-55.644l7.094-44.714c2.243-16.042-.546-31.628-7.161-45.163 4.374-3.362 8.347-8.163 11.561-14.486 9.789-19.256.996-49.241-5-52.29-5.052-2.568-26.716 4.527-39.271 18.341 6.271-2.363 16.887-6.657 19.008-5.603 5.355 2.66 9.034 24.159.381 40.79-2.841 5.46-6.364 9.602-10.25 12.495 5.945 11.738 7.528 33.227 5.588 47.104l-6.158 38.672c-2.027 14.496-14.173 36.71-22.737 51.801-4.331 7.632-2.32 17.332 4.747 22.532 20.626 15.178 39.803 25.724 43.201 50.356l.117 1.493c.556 44.084-38.885 66.674-87.282 69.987-55.822 3.822-118.857.436-135.213-44.883-.009-.024-.016-.049-.024-.073-2.564 9.157-4.18 19.004-.581 29.378 18.14 52.287 88.862 55.9 151.525 51.22 54.327-4.058 106.751-29.996 106.336-80.931z" fill="#dcb6f5"/><path d="m216.696 136.523c.023-.348.03-.7.003-1.061 1.397-13.52-1.063-25.739-9.152-36.057 1.871-15.086-.486-27.361-9.047-35.645-2.488-17.316-7.472-36.114-14.202-55.951-.766-3.02-5.158-2.694-5.469.407-3.478 16.524-5.719 32.014-4.483 44.599-5.414 9.343-6.875 19.32-3.033 30.171-4.658 9.564-6.257 19.954-3.17 31.536-6.348 9.847-4.048 19.976-3.369 24.717 3.273 16.046 50.907 12.737 51.922-2.716z" fill="#b2e7f1"/><path d="m216.696 136.523c.023-.348.03-.7.003-1.061.992-9.602.025-18.542-3.508-26.617.105 2.527.023 5.115-.247 7.763.025.308.02.608.001.906-.835 13.189-42.729 15.838-45.667 2.125-.119-.782-.291-1.736-.452-2.826-4.677 9.093-2.676 18.051-2.049 22.425 3.27 16.047 50.904 12.738 51.919-2.715z" fill="#a7adf1"/><g><g><path d="m199.081 72.676c-.935 0-1.884-.212-2.777-.659l-24.903-12.493c-3.063-1.537-4.3-5.265-2.763-8.328 1.536-3.063 5.264-4.298 8.327-2.764l24.903 12.493c3.063 1.537 4.3 5.265 2.763 8.328-1.088 2.17-3.277 3.423-5.55 3.423z" fill="#95cde6"/></g><g><path d="m207.09 106.999c-.929 0-1.872-.209-2.76-.651l-35.782-17.808c-3.068-1.526-4.317-5.251-2.79-8.319 1.527-3.067 5.252-4.316 8.319-2.789l35.782 17.808c3.068 1.526 4.317 5.251 2.79 8.319-1.085 2.179-3.279 3.44-5.559 3.44z" fill="#95cde6"/></g><g><path d="m216.692 142.729c-.856 0-1.726-.179-2.557-.555l-48.553-22.001c-3.121-1.414-4.505-5.09-3.09-8.212 1.414-3.121 5.088-4.507 8.212-3.09l48.552 22.001c3.121 1.414 4.505 5.091 3.09 8.212-1.037 2.29-3.293 3.645-5.654 3.645z" fill="#95cde6"/></g></g><path d="m97.905 134.651c11.62-4.705 20.981-13.501 26.996-24.501 1.709-3.124 3.912-6.061 6.617-8.7 12.923-12.604 33.451-13.82 47.76-2.815 17.066 13.126 19.126 37.701 5.043 53.46-12.125 13.568-29.163 17.551-44.052 14.985-8.674-1.495-28.016-9.664-42.653-16.224-7.085-3.174-6.907-13.291.289-16.205z" fill="#cab4ef"/><path d="m179.279 98.635c-14.309-11.005-34.837-9.79-47.76 2.815-2.706 2.639-4.909 5.576-6.617 8.7-6.015 10.999-15.376 19.795-26.996 24.501-7.197 2.914-7.374 13.031-.289 16.206 14.637 6.559 33.979 14.728 42.653 16.224 14.889 2.567 31.927-1.417 44.053-14.985 14.082-15.759 12.022-40.334-5.044-53.461zm-3.139 34.634c-6.677 11.279-18.317 16.378-29.394 16.523-6.453.085-21.567-3.172-33.06-5.906-5.563-1.323-6.95-8.558-2.218-11.589 7.641-4.895 13.047-12.406 15.72-21.043.759-2.454 1.902-4.839 3.45-7.079 7.394-10.698 21.955-14.287 33.878-8.341 14.222 7.092 19.38 24.335 11.624 37.435z" fill="#be87ef"/><g><path d="m140.241 131.947c-2.243 0-4.511-.728-6.437-2.254-4.31-3.417-4.991-9.751-1.853-14.268 2.997-4.316 6.326-7.477 9.523-9.789 6.215-4.493 14.983-.65 16.004 6.951l.06.45c.493 3.668-1.129 7.244-4.093 9.459-1.49 1.114-3.129 2.695-4.643 4.923-2 2.942-5.252 4.528-8.561 4.528z" fill="#fff"/></g></g><g><path d="m183.874 452.648c19.034-17.749 68.217-49.309 90.596-43.571-9.062 18.353-13.308 45.227-59.924 64.482-4.618 1.907-6.21 4.885-12.674 12.496-3.592 4.229-14.297 29.079-30.97 20.267-18.227-9.632-6.062-35.925 12.972-53.674z" fill="#e7effa"/><g><path d="m176.452 476.749c-1.166 0-2.344-.328-3.393-1.015-2.867-1.876-3.67-5.722-1.793-8.589.555-.849 1.156-1.782 1.792-2.773 3.909-6.083 8.775-13.654 13.799-18.34 13.799-12.868 26.227-17.29 41.555-14.785 3.382.553 5.675 3.742 5.122 7.124-.553 3.383-3.74 5.665-7.124 5.123-11.413-1.863-20.128 1.391-31.091 11.613-3.888 3.625-8.473 10.762-11.822 15.972-.656 1.022-1.276 1.985-1.849 2.861-1.19 1.82-3.174 2.809-5.196 2.809z" fill="#ad99c9"/></g><path d="m171.782 466.43c-10.984 15.513-14.731 32.484-.881 39.892 15.05 8.05 24.695-11.235 30.97-20.267-10.013-6.574-19.797-13.497-30.089-19.625z" fill="#a183e2"/></g><g><path d="m187.571 342.305c-.805 0-1.623-.158-2.411-.491-25.504-10.773-48.723-9.665-48.957-9.647-3.409.196-6.344-2.435-6.534-5.852-.189-3.417 2.419-6.343 5.837-6.538 1.056-.061 26.2-1.341 54.482 10.605 3.157 1.333 4.635 4.973 3.302 8.13-1.001 2.369-3.3 3.793-5.719 3.793z" fill="#ad99c9"/></g><g><g><path d="m226.126 408.035c-.548 0-1.1-.004-1.659-.013-8.152-.126-19.965-1.419-27.477-3.008-3.352-.709-5.495-4.002-4.786-7.354s3.996-5.495 7.354-4.787c6.73 1.424 17.756 2.628 25.101 2.742 22.375.358 30.238-6.924 35.137-17.947 1.392-3.131 5.058-4.542 8.19-3.15 3.131 1.391 4.541 5.058 3.15 8.189-7.766 17.473-21.685 25.328-45.01 25.328z" fill="#ad99c9"/></g><g><path d="m215.005 379.376c-5.201.001-12.673-1.593-12.764-1.613-3.349-.721-5.48-4.021-4.759-7.371.721-3.351 4.021-5.479 7.372-4.759 4.265.918 9.262 1.429 10.579 1.338 7.73-1.783 9.499-8.35 10.252-15.189.11-.991.196-1.774.385-2.523.84-3.322 4.214-5.331 7.535-4.496 3.274.827 5.277 4.117 4.53 7.392-.04.247-.072.583-.116.987-1.617 14.662-8.368 23.403-20.067 25.981-.813.179-1.828.253-2.947.253zm23.115-27.159c-.007.027-.013.056-.02.083.006-.026.013-.054.02-.083z" fill="#ad99c9"/></g><path d="m199.977 405.448c-20.823-3.631-37.08-14.083-31.96-30.782 5.564-18.145 28.288-10.49 40.317-8.282-2.746 13.033-5.041 26.163-8.357 39.064z" fill="#a183e2"/></g><ellipse cx="84.33" cy="347.963" fill="#a183e2" rx="20.576" ry="22.94" transform="matrix(.502 -.865 .865 .502 -258.884 246.011)"/><g><path d="m124.615 219.179c-.163 0-.328-.006-.494-.019l-21.364-1.682c-3.416-.268-5.967-3.257-5.698-6.672.269-3.416 3.238-5.976 6.672-5.698l21.364 1.682c3.416.269 5.967 3.257 5.698 6.672-.256 3.25-2.973 5.717-6.178 5.717z" fill="#ad99c9"/></g><g><path d="m127.248 204.141c-.163 0-.328-.006-.494-.019l-21.364-1.682c-3.416-.269-5.967-3.257-5.698-6.672.269-3.417 3.233-5.977 6.672-5.698l21.364 1.682c3.416.269 5.967 3.257 5.698 6.672-.256 3.249-2.973 5.717-6.178 5.717z" fill="#ad99c9"/></g><g><path d="m236.277 242.701c-.599 0-1.208-.088-1.811-.272l-20.499-6.249c-3.278-.999-5.125-4.467-4.126-7.744 1-3.276 4.465-5.124 7.744-4.125l20.498 6.249c3.278.999 5.125 4.466 4.126 7.744-.814 2.674-3.273 4.397-5.932 4.397z" fill="#ad99c9"/></g><g><path d="m239.327 227.742c-.599 0-1.208-.088-1.811-.272l-20.499-6.249c-3.278-.999-5.125-4.466-4.126-7.744.999-3.277 4.466-5.122 7.744-4.125l20.498 6.249c3.278.999 5.125 4.466 4.126 7.744-.815 2.674-3.273 4.397-5.932 4.397z" fill="#ad99c9"/></g><g><path d="m154.4 270.765c-1.864 0-3.749-.247-5.619-.766-11.844-3.283-18.641-16.198-15.152-28.788.916-3.303 4.335-5.236 7.636-4.322 3.302.915 5.237 4.334 4.322 7.636-1.662 5.997 1.257 12.06 6.507 13.516 5.254 1.454 10.874-2.24 12.536-8.236.916-3.303 4.334-5.235 7.636-4.322 3.302.916 5.236 4.334 4.321 7.636-2.937 10.602-12.248 17.646-22.187 17.646z" fill="#ad99c9"/></g><path d="m185.344 258.395c-4.871 3.633-19.996 8.768-23.629 3.897s5.603-17.904 10.474-21.537 11.764-2.629 15.397 2.242 2.629 11.765-2.242 15.398z" fill="#ef8bbd"/></g></g><path d="m440.21 54.869 8.494 23.884c.364 1.022 1.084 1.833 1.992 2.242l21.22 9.561c2.998 1.351 2.998 6.127 0 7.478l-21.22 9.561c-.909.409-1.629 1.22-1.992 2.242l-8.494 23.884c-1.2 3.374-5.444 3.374-6.644 0l-8.494-23.884c-.364-1.023-1.083-1.833-1.992-2.242l-21.22-9.561c-2.998-1.351-2.998-6.127 0-7.478l21.22-9.561c.909-.409 1.629-1.22 1.992-2.242l8.494-23.884c1.2-3.374 5.444-3.374 6.644 0z" fill="#b2e7f1"/><path d="m84.932 1.877 6.301 17.717c.27.759.804 1.36 1.478 1.663l15.741 7.092c2.224 1.002 2.224 4.545 0 5.547l-15.741 7.092c-.674.304-1.208.905-1.478 1.663l-6.301 17.717c-.89 2.503-4.038 2.503-4.928 0l-6.301-17.717c-.27-.759-.804-1.36-1.478-1.663l-15.741-7.092c-2.224-1.002-2.224-4.545 0-5.547l15.741-7.092c.674-.304 1.208-.905 1.478-1.663l6.301-17.717c.89-2.503 4.038-2.503 4.928 0z" fill="#b2e7f1"/><ellipse cx="23.207" cy="114.457" fill="#8bb6ef" rx="12.603" ry="12.603" transform="matrix(.123 -.993 .993 .123 -93.231 123.462)"/><path d="m355.658 31.901c0 5.406-4.383 9.788-9.788 9.788-5.406 0-9.788-4.382-9.788-9.788s4.382-9.788 9.788-9.788c5.405 0 9.788 4.382 9.788 9.788z" fill="#8bb6ef"/><path d="m476.208 171.401 6.301 17.717c.27.759.804 1.36 1.478 1.663l15.741 7.092c2.224 1.002 2.224 4.545 0 5.547l-15.741 7.092c-.674.304-1.208.905-1.478 1.663l-6.301 17.717c-.89 2.503-4.038 2.503-4.928 0l-6.301-17.717c-.27-.759-.804-1.36-1.478-1.663l-15.741-7.092c-2.224-1.002-2.224-4.545 0-5.547l15.741-7.092c.674-.304 1.208-.905 1.478-1.663l6.301-17.717c.89-2.503 4.038-2.503 4.928 0z" fill="#b2e7f1"/></g></svg>