<svg id="Capa_1" enable-background="new 0 0 512 512" height="512" viewBox="0 0 512 512" width="512" xmlns="http://www.w3.org/2000/svg"><g><g><path d="m420.42 511.724s37.561-23.903 37.561-58.049-29.878-48.659-29.878-48.659 52.593-24.738 36.177-98.257c-16.415-73.519-69.206-78.502-69.206-78.502s6.454-101.757-88.703-47.146c0 0 6.068-136.715-84.829-79.904l8.424 241.88z" fill="#bdf4e3"/><path d="m428.103 405.016s52.593-24.738 36.177-98.257c-4.585-20.535-12.009-35.718-20.326-46.944 16.49 101.24-53.213 160.522-129.921 105.388-4.208-3.025-15.286 34.974-20.339 34.311l126.726 112.21c18.116-12.272 37.721-34.062 37.561-58.049 0-34.147-29.878-48.659-29.878-48.659z" fill="#b1b7e3"/><path d="m420.451 512c-12.469-45.388-34.902-92.705-70.492-121.509 6.688-18.951 10.304-39.393 10.304-70.351l1.136-61.595c0-22.043-6.694-42.522-18.16-59.515 5.261-5.354 9.711-12.573 12.852-21.7 9.565-27.796-7.934-66.548-16.589-69.526-8.655-2.979-46.295 16.8-55.86 44.596-.378 1.098-.712 2.183-1.028 3.26-8.852-2.383-18.157-3.661-27.761-3.661h-65.753c-4.91 0-9.628.374-14.16 1.062-.673-6.042-2.529-12.496-5.755-19.215-12.592-26.223-51.858-41.342-60.024-37.422-8.165 3.921-20.916 44.019-8.325 70.242 4.166 8.676 9.417 15.297 15.256 19.961-11.58 13.129-19.253 27.5-23.181 38.302-9.479 26.068-14.219 61.614-14.219 61.614-25.678 24.173-33.847 57.248-23.572 86.016 8.478 23.738 25.21 41.141 47.475 52.562 19.57 10.038 51.328 13.635 68.72 12.123-9.665 21.262-14.769 51.869-18.198 74.757h267.334z" fill="#e7effa"/><path d="m349.959 390.491c6.688-18.951 10.304-39.393 10.304-70.351l1.136-61.595c0-22.043-6.694-42.522-18.16-59.515 5.261-5.354 9.711-12.573 12.852-21.7 9.565-27.796-7.934-66.548-16.589-69.526-4.084-1.406-5.25-.521-16.247 6.659 6.814 12.785 11.492 29.241 9.768 49.925-1.085 13.024-17.928 26.804-22.333 31.898 9.6 16.168 16.95 70.559 16.95 91.532l-.287 15.638c0 21.466-9.207 50.645-14.193 70.647-2.908 11.664-4.532 22.146 4.185 30.424 11.722 11.13 20.8 21.839 28.607 41.543 8.691 21.935-7.551 45.723-31.145 45.723h-158.429c-1.25 7.078-2.322 13.936-3.262 20.207h267.335c-12.469-45.388-34.902-92.705-70.492-121.509z" fill="#dcb6f5"/><path d="m251.024 169.722c-.035-.474-.091-.95-.195-1.43-.665-18.483-6.282-34.487-19.127-46.869-.32-20.683-5.809-36.782-18.908-46.333-6.615-22.867-16.873-47.262-29.68-72.727-1.602-3.925-7.458-2.658-7.294 1.578-1.574 22.924-1.676 44.221 2.361 60.949-5.536 13.612-5.626 27.332 1.597 41.231-4.476 13.767-4.673 28.07 1.669 43.097-6.701 14.467-1.692 27.683.117 33.944 7.432 21.011 71.004 7.577 69.46-13.44z" fill="#ffe266"/><path d="m251.024 169.722c-.035-.474-.091-.95-.195-1.43-.472-13.127-3.46-24.993-9.742-35.209.618 3.386.994 6.888 1.129 10.509.092.41.141.816.172 1.22 1.359 17.932-54.601 29.394-61.144 11.468-.307-1.031-.72-2.285-1.142-3.724-4.589 13.135-.206 24.831 1.463 30.607 7.431 21.01 71.003 7.576 69.459-13.441z" fill="#efaa66"/><g><g><path d="m214.095 84.989c-.675 0-1.361-.108-2.036-.336l-35.914-12.144c-3.325-1.124-5.108-4.731-3.984-8.055 1.125-3.324 4.732-5.107 8.055-3.984l35.914 12.144c3.325 1.124 5.108 4.731 3.985 8.055-.897 2.649-3.37 4.32-6.02 4.32z" fill="#d0844b"/></g><g><path d="m231.355 129.735c-.669 0-1.349-.106-2.017-.33l-51.576-17.258c-3.328-1.113-5.123-4.714-4.01-8.042 1.114-3.328 4.717-5.124 8.042-4.01l51.576 17.258c3.328 1.114 5.123 4.714 4.01 8.042-.89 2.66-3.367 4.34-6.025 4.34z" fill="#d0844b"/></g><g><path d="m246.892 174.859c-.595 0-1.199-.084-1.799-.261l-65.442-19.285c-3.367-.992-5.291-4.525-4.299-7.891.992-3.367 4.524-5.294 7.891-4.299l65.442 19.285c3.366.992 5.291 4.525 4.299 7.891-.815 2.767-3.347 4.56-6.092 4.56z" fill="#d0844b"/></g></g><path d="m90.582 189.579c14.774-8.531 25.732-22.147 31.766-38.104 1.714-4.533 4.13-8.905 7.279-12.972 15.04-19.421 42.477-24.927 63.834-12.791 25.472 14.474 32.879 47.205 16.868 71.096-13.785 20.57-35.996 29.148-56.545 28.494-11.971-.381-39.577-7.746-60.538-13.828-10.147-2.945-11.813-16.612-2.664-21.895z" fill="#bdf4e3"/><path d="m193.461 125.712c-21.357-12.135-48.793-6.63-63.834 12.791-3.149 4.066-5.565 8.439-7.279 12.972-6.034 15.957-16.992 29.574-31.766 38.104-9.149 5.283-7.483 18.95 2.663 21.894 20.961 6.082 48.566 13.447 60.538 13.828 20.55.654 42.76-7.924 56.545-28.494 16.011-23.89 8.605-56.62-16.867-71.095zm2.295 47.266c-6.874 16.458-21.599 25.523-36.5 27.805-8.681 1.33-29.662-.212-45.666-1.731-7.747-.736-10.979-10.224-5.173-15.2 9.375-8.036 15.245-19.177 17.221-31.321.561-3.45 1.651-6.88 3.316-10.19 7.949-15.81 26.896-23.39 44.085-17.623 20.501 6.878 30.701 29.144 22.717 48.26z" fill="#b1b7e3"/><g><path d="m145.184 174.612c-1.835 0-3.702-.479-5.42-1.498-4.855-2.88-6.387-9.188-3.846-14.228 3.955-7.847 8.945-13.272 13.56-16.969 5.947-4.765 14.819-1.937 16.87 5.402 1.129 4.04-.187 8.421-3.469 11.033-2.641 2.102-5.739 5.386-8.187 10.351-1.846 3.74-5.603 5.909-9.508 5.909z" fill="#fff"/></g><path d="m215.723 320.354c4.98.006 8.55 5.908 7.047 11.699-3.68 14.185-13.839 24.374-25.781 24.359-11.943-.015-22.076-10.229-25.721-24.423-1.488-5.795 2.096-11.688 7.076-11.682z" fill="#ef8bbd"/><ellipse cx="279.612" cy="353.363" fill="#f7c4db" rx="32.723" ry="26.663"/><ellipse cx="112.74" cy="353.363" fill="#f7c4db" rx="32.723" ry="26.663"/><g><path d="m297.43 264.176c-.461-10.344-8.991-18.589-19.449-18.589-8.289 0-15.363 5.182-18.173 12.481-2.81-7.299-9.884-12.481-18.173-12.481-10.272 0-18.68 7.956-19.413 18.041-3.453 20.06 36.89 52.616 36.89 52.616s41.492-32.48 38.318-52.068z" fill="#ffa585"/><path d="m297.43 264.176c-.462-10.344-8.991-18.589-19.449-18.589-5.655 0-10.741 2.414-14.297 6.264 11.895-4.631 19.988 3.12 20.347 11.065 1.685 10.267-11.565 24.123-21.37 33.108-5.282 4.841-12.191 4.637-17.901.311-5.136-3.891-14.707-11.309-18.923-17.299 9.474 17.999 33.274 37.208 33.274 37.208 4.099-2.931 19.923-17.392 24.956-23.8 7.492-8.746 13.714-18.446 13.532-26.395-.014-.636-.07-1.261-.169-1.873z" fill="#ef7c85"/></g><g><path d="m174.123 264.176c-.462-10.344-8.991-18.589-19.449-18.589-8.289 0-15.363 5.182-18.173 12.481-2.81-7.299-9.884-12.481-18.173-12.481-10.272 0-18.68 7.956-19.413 18.041-3.453 20.06 29.261 52.616 36.89 52.616s41.493-32.48 38.318-52.068z" fill="#ffa585"/><path d="m174.123 264.176c-.462-10.344-8.991-18.589-19.449-18.589-5.05 0-9.642 1.93-13.1 5.083 10.531-1.992 18.124 5.127 18.481 12.977 1.769 10.7-12.135 25.141-22.424 34.506-5.543 5.045-12.792 4.832-18.784.324-5.064-3.81-9.964-7.718-14.206-13.351 9.111 15.986 25.962 31.118 31.163 31.118 7.63 0 41.494-32.48 38.319-52.068z" fill="#ef7c85"/></g></g><path d="m476.275 114.593 8.7 24.462c.372 1.047 1.11 1.877 2.04 2.296l21.733 9.792c3.07 1.383 3.07 6.275 0 7.659l-21.733 9.792c-.931.419-1.668 1.249-2.04 2.297l-8.7 24.462c-1.229 3.456-5.576 3.456-6.805 0l-8.7-24.462c-.372-1.047-1.11-1.877-2.04-2.297l-21.733-9.792c-3.07-1.383-3.07-6.275 0-7.659l21.733-9.792c.931-.419 1.668-1.249 2.04-2.296l8.7-24.462c1.23-3.456 5.576-3.456 6.805 0z" fill="#fef2a8"/><path d="m62.624 11.015 6.453 18.146c.276.777.823 1.392 1.513 1.704l16.122 7.263c2.278 1.026 2.278 4.655 0 5.681l-16.122 7.263c-.69.311-1.237.927-1.513 1.704l-6.453 18.146c-.912 2.564-4.136 2.564-5.048 0l-6.453-18.146c-.276-.777-.823-1.393-1.514-1.704l-16.122-7.263c-2.278-1.026-2.278-4.655 0-5.681l16.122-7.263c.69-.311 1.237-.927 1.514-1.704l6.453-18.146c.912-2.563 4.136-2.563 5.048 0z" fill="#fef2a8"/><g fill="#ffe266"><ellipse cx="13.856" cy="121.462" rx="12.907" ry="12.907" transform="matrix(.123 -.993 .993 .123 -108.389 120.327)"/><path d="m405.679 87.869c0 5.537-4.488 10.025-10.025 10.025s-10.025-4.488-10.025-10.025c0-5.536 4.488-10.025 10.025-10.025 5.536 0 10.025 4.488 10.025 10.025z"/></g></g></svg>