<svg id="Capa_1" enable-background="new 0 0 512 512" height="512" viewBox="0 0 512 512" width="512" xmlns="http://www.w3.org/2000/svg"><g><g><path d="m0 431.42 211.681-423.072h88.097l210.74 421.192z" fill="#cab4ef"/><ellipse cx="244.439" cy="452.243" fill="#9762e2" rx="51.404" ry="147.424" transform="matrix(.006 -1 1 .006 -209.132 694.209)"/><g><g><path d="m179.537 428.141 6.504-35.008c2.669-14.367 12.78-23.987 22.583-21.487l2.44.622c9.803 2.5 15.586 16.173 12.917 30.54l-6.504 35.008c-2.669 14.367-12.78 23.987-22.583 21.487l-2.44-.622c-9.803-2.5-15.586-16.174-12.917-30.54z" fill="#b2e7f1"/><path d="m182.451 417.609c-.32-.082-.639-.07-.954-.018l-1.96 10.55c-2.669 14.367 3.114 28.04 12.917 30.539l2.44.622c9.803 2.5 19.914-7.12 22.583-21.487l1.956-10.53c-.279-.217-.579-.394-.915-.479z" fill="#ffe266"/></g><path d="m230.882 379.402c-2.848 21.889-8.377 44.295 3.58 67.423 13.35 25.824 48.415 29.119 88.752 23.187 40.573-5.967 59.768-26.471 58.272-70.586-1.141-33.653-18.923-80.096-63.883-102.669" fill="#b2e7f1"/><path d="m381.487 399.426c-1.141-33.652-18.923-80.096-63.883-102.669l-5.9 5.624c33.994 18.899 47.557 55.083 48.453 81.531 1.214 35.806-14.365 52.447-47.295 57.29-32.738 4.814-61.197 2.139-72.033-18.82-8.651-16.733-6.025-33-3.715-48.92l-6.232 5.94c-2.848 21.889-8.377 44.295 3.58 67.423 13.35 25.824 48.415 29.119 88.752 23.187 40.574-5.965 59.768-26.469 58.273-70.586z" fill="#a7adf1"/><g><path d="m261.724 186.56c-.021-.282-.054-.564-.116-.85-.395-10.987-3.734-20.499-11.369-27.859-.19-12.294-3.453-21.863-11.239-27.54-3.932-13.592-10.029-28.092-17.642-43.229-.952-2.333-4.433-1.58-4.336.938-.936 13.626-.996 26.285 1.403 36.228-3.291 8.091-3.344 16.246.949 24.508-2.66 8.183-2.778 16.685.992 25.617-3.983 8.599-1.006 16.455.069 20.176 4.42 12.489 42.207 4.504 41.289-7.989z" fill="#f7c4db"/><path d="m261.724 186.56c-.021-.282-.054-.564-.116-.85-.281-7.803-2.056-14.856-5.791-20.928.367 2.012.591 4.094.671 6.247.054.244.084.485.102.725.808 10.659-32.455 17.472-36.344 6.817-.183-.613-.428-1.358-.679-2.213-2.728 7.807-.122 14.76.869 18.193 4.419 12.487 42.206 4.502 41.288-7.991z" fill="#af30fa" opacity=".3"/><g><g><path d="m239.774 138.645c-.661 0-1.334-.106-1.995-.33l-21.347-7.219c-3.258-1.102-5.005-4.635-3.904-7.893 1.101-3.257 4.634-5.004 7.893-3.904l21.347 7.219c3.258 1.102 5.005 4.635 3.904 7.893-.878 2.597-3.301 4.234-5.898 4.234z" fill="#c56cb7"/></g><g><path d="m250.034 165.243c-.655 0-1.322-.104-1.977-.324l-30.657-10.258c-3.261-1.09-5.02-4.619-3.929-7.881 1.092-3.261 4.622-5.021 7.881-3.928l30.657 10.258c3.261 1.09 5.021 4.619 3.929 7.88-.873 2.606-3.3 4.253-5.904 4.253z" fill="#c56cb7"/></g><g><path d="m261.727 192.789c-.583 0-1.176-.083-1.763-.256l-41.356-12.187c-3.299-.972-5.185-4.434-4.213-7.732.972-3.299 4.436-5.184 7.732-4.212l41.357 12.187c3.299.972 5.185 4.434 4.212 7.733-.798 2.709-3.279 4.467-5.969 4.467z" fill="#c56cb7"/></g></g><path d="m153.787 199.376c9.456-3.661 17.137-10.657 22.138-19.478 1.421-2.506 3.239-4.853 5.46-6.954 10.608-10.033 27.225-10.76 38.66-1.681 13.639 10.828 14.998 30.729 3.412 43.298-9.976 10.822-23.804 13.831-35.814 11.569-6.997-1.317-22.538-8.165-34.293-13.653-5.689-2.654-5.419-10.834.437-13.101z" fill="#fef2a8"/><path d="m220.046 171.263c-11.435-9.079-28.052-8.352-38.661 1.681-2.221 2.101-4.039 4.448-5.46 6.954-5.002 8.821-12.682 15.817-22.138 19.478-5.857 2.267-6.126 10.447-.436 13.103 11.755 5.487 27.296 12.335 34.293 13.653 12.01 2.261 25.839-.748 35.814-11.57 11.586-12.57 10.227-32.47-3.412-43.299zm-2.97 27.971c-5.541 9.038-15.018 13.017-23.978 12.996-5.22-.012-17.402-2.834-26.663-5.189-4.483-1.14-5.514-7.008-1.649-9.4 6.241-3.864 10.706-9.87 12.976-16.823.645-1.975 1.598-3.89 2.878-5.682 6.113-8.559 17.934-11.281 27.503-6.323 11.412 5.914 15.369 19.923 8.933 30.421z" fill="#eeb6a8"/><path d="m351.699 388.023c-7.412-26.979-8.472-51.576-29.627-68.697 3.976-11.265 6.125-23.415 6.125-41.817l.675-36.612c0-13.102-3.979-25.275-10.794-35.376 3.127-3.182 5.772-7.474 7.639-12.899 5.685-16.522-4.716-39.556-9.861-41.326s-27.518 9.986-33.203 26.508c-.225.653-.424 1.297-.611 1.938-5.261-1.417-10.792-2.176-16.501-2.176h-39.084c-2.919 0-5.723.222-8.417.631-.4-3.591-1.503-7.428-3.421-11.421-7.485-15.587-30.825-24.574-35.678-22.243-4.854 2.331-12.433 26.165-4.948 41.752 2.477 5.157 5.597 9.092 9.068 11.865-6.883 7.804-11.444 16.346-13.779 22.767-5.634 15.495-8.452 36.623-8.452 36.623-15.263 14.368-20.118 34.028-14.011 51.128 5.039 14.109 14.985 24.454 28.219 31.242 11.632 5.967 30.509 8.105 40.847 7.206-5.745 12.638-8.779 30.831-10.817 44.435z" fill="#b2e7f1"/><path d="m362.682 353.337c0 20.297-26.091 31.938-26.091 31.938s-42.202 4.09-52.363-17.2-.515-39.797-.515-39.797-19.881-10.999-25.186-25.186c-8.235-22.026-6.139-30.935-1.072-41.793 0 0-32.574-10.134-18.821-44.88 0 0 .183-24.1-22.44-34.746-1.661-.782-.858-.921.596-2.39 9.322-9.417 75.442-25.526 117.396 64.644 27.082 58.206 28.496 109.41 28.496 109.41z" fill="#a7adf1"/><g><path d="m251.407 274.608c-3.439 0-6.227-2.788-6.227-6.227v-43.286c0-3.439 2.788-6.227 6.227-6.227s6.227 2.788 6.227 6.227v43.286c0 3.439-2.788 6.227-6.227 6.227z" fill="#95cde6"/></g><g><path d="m194.41 268.823c-3.439 0-6.227-2.788-6.227-6.227v-43.285c0-3.439 2.788-6.227 6.227-6.227s6.227 2.788 6.227 6.227v43.285c0 3.439-2.788 6.227-6.227 6.227z" fill="#95cde6"/></g><g><path d="m223.583 267.444c-3.439 0-6.227-2.788-6.227-6.227v-61.694c0-3.439 2.788-6.227 6.227-6.227s6.227 2.788 6.227 6.227v61.694c0 3.439-2.788 6.227-6.227 6.227z" fill="#95cde6"/></g><path d="m360.151 388.023s27.21-10.637 27.21-30.934-10.148-28.58-10.148-28.58 31.338-17.964 21.581-61.664-48.824-43.745-48.824-43.745 3.836-60.484-52.725-28.023c0 0 3.607-81.263-50.422-47.495l-28.781 30.615s7.805-1.092 13.256.739 18.471 15.649 19.729 27.763l.4 3.852c1.639 15.771 10.316 29.958 23.611 38.599l4.125 2.681-1.849 33.05 26.365 45.528 7.67 42.831z" fill="#fef2a8"/><path d="m354.314 342.48c-12.087-13.296-15.449-28.595-16.236-33.345-26.258 8.615-55.448-1.025-60.094-37.526-.029-.226-10.026 24.731 12.7 47.458 5.851 5.851 13.884 10.09 13.368 12.032-8.69 32.753 6.136 45.643 4.679 45.452 13.534 15.011 36.094 14.705 51.42 11.473 0 0 9.537-4.806 16.732-13.334 4.418-5.51 7.855-12.113 7.856-19.347 0 0 0 0 0-.001.001 0-15.909 3.105-30.425-12.862z" fill="#fef2a8"/><path d="m377.213 328.509s28.618-15.841 22.738-55.329c-3.884-26.087-16.721-35.762-20.02-38.688 16.042 74.194-92.588 110.642-101.946 37.117-.029-.226-10.026 24.732 12.7 47.458 5.851 5.851 13.884 10.09 13.368 12.031-8.689 32.752 6.136 45.643 4.679 45.452 13.534 15.011 36.094 14.705 51.42 11.474 0 0 27.21-10.638 27.21-30.934-.001-20.297-10.149-28.581-10.149-28.581z" fill="#eeb6a8"/></g><g><path d="m139.821 457.232c-.537 0-1.083-.071-1.626-.217-3.321-.896-5.286-4.314-4.39-7.634l25.758-95.452c.896-3.319 4.312-5.279 7.634-4.389 3.321.896 5.286 4.314 4.39 7.634l-25.758 95.452c-.75 2.776-3.264 4.606-6.008 4.606z" fill="#95cde6"/></g><g><path d="m193.201 405.514c24.554-1.788 42.995-9.583 54.507-46.035.48-8.633.826-23.636-5.585-27.796-6.298-4.087-28.769 3.971-30.115 3.543 0 0-12.49 33.036-25.406 36.445-6.492 1.713-34.031-10.541-38.977 8.321-4.947 18.862 21.021 27.31 45.576 25.522z" fill="#b2e7f1"/><g><path d="m198.173 407.328c-.549 0-1.098 0-1.649-.001-7.273-.009-23.451-2.527-23.613-2.553-3.397-.531-5.721-3.716-5.189-7.114.531-3.397 3.725-5.728 7.114-5.189 3.971.621 16.483 2.396 21.704 2.403 18.331.032 26.038-.567 31.978-15.666 1.259-3.199 4.875-4.773 8.074-3.513 3.2 1.259 4.773 4.874 3.515 8.074-8.997 22.865-24.913 23.559-41.934 23.559z" fill="#95cde6"/></g><g><path d="m182.096 383.911c-2.141.001-4.404-.201-6.767-.656-3.377-.65-5.587-3.916-4.936-7.293s3.924-5.582 7.292-4.936c8.941 1.724 13.659-2.062 13.706-2.101 2.792-2.302 3.525-6.587 4.373-11.549.79-4.615 1.685-9.847 4.571-14.434 5.305-8.435 17.82-21.857 42.004-17.024 3.372.675 5.559 3.955 4.884 7.327-.674 3.373-3.958 5.552-7.327 4.885-16.018-3.199-24.624 4.454-29.021 11.442-1.569 2.496-2.185 6.094-2.837 9.904-1.108 6.474-2.363 13.812-8.727 19.059-3.32 2.738-9.458 5.376-17.215 5.376z" fill="#95cde6"/></g><path d="m175.864 405.038c-17.826-2.358-32.008-10.675-28.24-25.046 4.096-15.617 23.677-9.904 33.978-8.448-1.879 11.173-3.37 22.413-5.738 33.494z" fill="#ffe266"/></g></g></g><path d="m477.923 83.584 8.525 23.97c.365 1.026 1.087 1.839 1.999 2.25l21.296 9.595c3.009 1.355 3.009 6.149 0 7.505l-21.296 9.595c-.912.411-1.634 1.224-1.999 2.25l-8.525 23.97c-1.204 3.386-5.463 3.386-6.668 0l-8.525-23.97c-.365-1.026-1.087-1.84-1.999-2.25l-21.296-9.595c-3.009-1.356-3.009-6.149 0-7.505l21.296-9.595c.912-.411 1.634-1.224 1.999-2.25l8.525-23.97c1.205-3.386 5.464-3.386 6.668 0z" fill="#f7c4db"/><path d="m91.474 28.727 6.323 17.781c.271.761.807 1.365 1.483 1.669l15.797 7.117c2.232 1.006 2.232 4.561 0 5.567l-15.797 7.118c-.676.305-1.212.908-1.483 1.669l-6.323 17.781c-.893 2.512-4.053 2.512-4.946 0l-6.323-17.781c-.271-.761-.807-1.365-1.483-1.669l-15.797-7.117c-2.232-1.005-2.232-4.561 0-5.567l15.797-7.117c.676-.305 1.212-.908 1.483-1.669l6.323-17.781c.893-2.513 4.052-2.513 4.946-.001z" fill="#f7c4db"/><g fill="#ef8bbd"><circle cx="41.211" cy="141.759" r="12.648"/><path d="m410.276 66.381c0 5.425-4.398 9.823-9.823 9.823s-9.823-4.398-9.823-9.823 4.398-9.823 9.823-9.823 9.823 4.398 9.823 9.823z"/></g></g></svg>