<svg id="Capa_1" enable-background="new 0 0 512 512" height="512" viewBox="0 0 512 512" width="512" xmlns="http://www.w3.org/2000/svg"><g><g><path d="m71.102 510.914s-40.491-17.732-45.092-50.246c-4.601-32.515 21.12-50.25 21.12-50.25s-52.05-16.662-46.751-88.82c5.299-72.157 53.529-83.823 53.529-83.823s-19.69-96.048 75.814-56.52c0 0-24.043-129.386 67.812-87.205l24.79 231.425z" fill="#ffa585"/><path d="m154.416 352.093c-68.745 66.908-146.189 30.285-143.106-74.72-5.428 11.346-9.579 25.812-10.931 44.225-5.299 72.157 46.752 88.82 46.752 88.82s-25.721 17.735-21.12 50.25c4.601 32.514 45.092 50.246 45.092 50.246l105.227-129.915c-6.807-7.555-18.815-31.922-21.914-28.906z" fill="#ef7c85"/><path d="m71.102 510.914c15.712-42.313 40.514-75.382 69.253-97.034l.011.248c-11.644-16.499-20.723-35.279-29.179-65.216l-17.922-59.252c-6.02-21.316-5.14-42.947 1.306-62.511-6.55-3.74-12.824-9.506-18.354-17.474-16.841-24.267-10.503-66.519-2.947-71.763s49.356 3.602 66.197 27.868c.665.959 1.285 1.916 1.884 2.872 7.909-4.722 16.558-8.499 25.845-11.123l63.584-17.958c4.748-1.341 9.412-2.268 13.983-2.84-1-6.027-.967-12.775.317-20.153 5.014-28.797 38.855-54.142 47.822-52.581 8.967 1.562 32.249 36.854 27.234 65.65-1.659 9.528-4.928 17.364-9.301 23.469 14.784 9.533 26.129 21.334 32.878 30.707 16.286 22.619 30.577 55.697 30.577 55.697 31.433 16.362 48.366 46.115 46.288 76.74-1.715 25.27-13.141 46.669-31.553 63.794-16.183 15.052-45.91 27.204-63.141 30.492l-2.645 1.275c10.084 33.478 16.537 76.636 16.49 99.093" fill="#ffc7b6"/><g><path d="m374.292 239.52s-14.292-33.079-30.577-55.697c-6.749-9.372-18.094-21.174-32.878-30.707 4.372-6.106 7.642-13.942 9.301-23.469 5.014-28.797-18.268-64.088-27.234-65.65-3.999-.696-12.947 3.969-22.078 11.897.657-.06 1.239-.04 1.73.069 8.035 1.789 27.579 34.654 21.835 60.457-1.901 8.537-5.184 15.479-9.392 20.81 12.954 9.235 22.705 20.375 28.407 29.127 13.759 21.121 25.275 51.606 25.275 51.606 27.706 16.107 41.749 43.701 38.58 71.28-2.615 22.756-13.84 41.606-31.195 56.301-10.059 8.517-23.364 19.309-36.919 24.45-10.505 3.985-20.155 10.129-18.805 21.609 1.54 13.101 2.016 36.011 3.196 50.582 1.091 13.483-9.903 24.856-23.416 24.225l-188.167-.507c-7 11.895-5.654 11.014-10.851 25.012h268.626c.047-22.457-6.406-65.616-16.49-99.094l2.645-1.275c17.231-3.288 46.958-15.44 63.141-30.492 18.411-17.125 29.838-38.524 31.553-63.793 2.079-30.626-14.855-60.379-46.287-76.741z" fill="#ef95b6"/></g><path d="m181.12 185.094c-.101-.466-.181-.941-.217-1.434-4.597-18.008-3.717-35.027 5.157-50.604-5.553-20.031-4.824-37.106 5.098-50.025-.103-23.919 2.872-50.344 8.002-78.523.432-4.238 6.437-4.676 7.479-.546 8.015 21.653 14.148 42.156 14.997 59.426 9.195 11.553 13.169 24.755 10.145 40.201 8.216 12.003 12.46 25.736 10.604 42.02 10.559 12.048 9.477 26.208 9.507 32.756-1.211 22.363-66.304 27.428-70.772 6.729z" fill="#ffe266"/><path d="m181.12 185.094c-.101-.466-.181-.941-.217-1.434-3.265-12.789-3.748-25.075-.586-36.704.364 3.439.993 6.923 1.89 10.451.028.421.095.827.18 1.225 3.772 17.673 60.968 12.864 62.195-6.273.004-1.081.046-2.407.046-3.913 8.147 11.362 7.236 23.88 7.264 29.921-1.211 22.361-66.304 27.426-70.772 6.727z" fill="#efaa66"/><g><g><path d="m190.913 93.201c-2.01 0-3.989-.947-5.232-2.718-2.026-2.886-1.328-6.868 1.559-8.894l31.181-21.886c2.886-2.027 6.868-1.329 8.894 1.558 2.026 2.886 1.328 6.868-1.558 8.894l-31.181 21.886c-1.117.784-2.396 1.16-3.663 1.16z" fill="#d0844b"/></g><g><path d="m186.955 141.23c-2.018 0-4.002-.953-5.244-2.734-2.017-2.893-1.307-6.872 1.586-8.889l44.831-31.254c2.892-2.019 6.872-1.306 8.889 1.587s1.307 6.873-1.586 8.889l-44.831 31.254c-1.111.775-2.385 1.147-3.645 1.147z" fill="#d0844b"/></g><g><path d="m184.706 189.173c-2.098 0-4.152-1.033-5.373-2.927-1.91-2.964-1.056-6.916 1.908-8.826l57.685-37.176c2.966-1.911 6.916-1.055 8.826 1.908 1.91 2.964 1.056 6.916-1.908 8.826l-57.685 37.176c-1.07.69-2.269 1.019-3.453 1.019z" fill="#d0844b"/></g></g><path d="m341.42 158.769c-16.66-4.037-31.083-14.059-41.422-27.732-2.937-3.884-6.505-7.415-10.693-10.442-20.004-14.46-48.014-11.993-65.164 5.759-20.454 21.173-18.319 54.826 3.887 73.32 19.118 15.923 42.962 17.899 62.587 11.445 11.433-3.76 35.959-18.684 54.442-30.487 8.948-5.715 6.681-19.363-3.637-21.863z" fill="#ffa585"/><path d="m228.028 199.674c19.118 15.923 42.962 17.899 62.587 11.445 11.433-3.76 35.959-18.684 54.442-30.487 8.947-5.714 6.68-19.362-3.637-21.862-16.66-4.037-31.083-14.059-41.422-27.732-2.937-3.884-6.505-7.415-10.693-10.443-20.004-14.46-48.014-11.993-65.164 5.759-20.454 21.173-18.318 54.825 3.887 73.32zm15.519-80.066c14.936-10.431 35.35-8.493 47.494 4.495 2.543 2.72 4.566 5.717 6.084 8.884 5.346 11.148 14.163 20.224 25.478 25.314 7.007 3.153 6.581 13.215-.679 16.12-14.998 6-34.788 13.433-43.534 14.61-15.012 2.022-31.777-2.543-43.068-16.462-13.113-16.164-9.59-40.52 8.225-52.961z" fill="#ef7c85"/><g><g><path d="m205.519 277.91c-4.54 0-8.897-1.567-12.434-4.504-4.011-3.33-6.485-8.024-6.966-13.215-.325-3.512 2.258-6.622 5.769-6.947 3.517-.32 6.622 2.259 6.947 5.769.166 1.794 1.021 3.417 2.407 4.568s3.132 1.693 4.932 1.527c3.704-.344 6.438-3.636 6.095-7.34-.325-3.512 2.257-6.621 5.769-6.947 3.517-.314 6.622 2.258 6.947 5.769.993 10.715-6.917 20.241-17.632 21.234-.613.058-1.225.086-1.834.086z" fill="#d07297"/></g><g><path d="m321.128 265.617c-4.54 0-8.897-1.567-12.433-4.503-4.01-3.331-6.484-8.024-6.966-13.214-.325-3.512 2.257-6.622 5.769-6.947 3.513-.318 6.622 2.258 6.947 5.769.344 3.704 3.638 6.442 7.34 6.095 1.794-.166 3.417-1.021 4.568-2.407s1.694-3.138 1.527-4.933c-.325-3.512 2.258-6.622 5.769-6.947 3.512-.321 6.622 2.258 6.947 5.769.993 10.716-6.917 20.242-17.632 21.235-.615.055-1.227.083-1.836.083z" fill="#d07297"/></g></g><g><path d="m277.348 315.988c-3.526 0-6.385-2.859-6.385-6.385 0-13.446 10.29-24.385 22.939-24.385 6.942 0 13.433 3.283 17.809 9.009 2.141 2.801 1.606 6.809-1.196 8.951-2.801 2.142-6.809 1.607-8.951-1.196-1.94-2.538-4.733-3.993-7.663-3.993-5.607 0-10.169 5.21-10.169 11.615.001 3.525-2.858 6.384-6.384 6.384z" fill="#d07297"/></g><g><path d="m281.534 160.246c-2.872.001-5.734-1.155-7.832-3.435-8.252-8.964-17.069-9.27-17.188-9.27-.001 0-.001 0-.001 0-5.858.097-10.706-4.619-10.785-10.497-.079-5.877 4.62-10.705 10.497-10.785 1.86-.013 18.481.215 33.136 16.137 3.98 4.324 3.702 11.057-.623 15.037-2.044 1.883-4.628 2.813-7.204 2.813z" fill="#fff"/></g><g><path d="m233.692 249.398c-.907 0-1.829-.194-2.705-.605l-16.33-7.651c-3.194-1.496-4.569-5.298-3.073-8.491 1.495-3.194 5.297-4.57 8.491-3.073l16.33 7.651c3.193 1.496 4.57 5.298 3.073 8.491-1.086 2.317-3.386 3.678-5.786 3.678z" fill="#d07297"/></g><g><g><path d="m167.471 247.306c-1.798 0-3.585-.755-4.848-2.227l-7.054-8.218c-3.909-4.555-5.271-10.722-3.643-16.499l2.41-8.554c.956-3.394 4.48-5.369 7.878-4.414 3.394.956 5.37 4.483 4.414 7.877l-2.41 8.553c-.465 1.652-.076 3.416 1.042 4.718l7.053 8.218c2.297 2.675 1.99 6.707-.686 9.003-1.205 1.037-2.685 1.543-4.156 1.543z" fill="#ef8bbd"/></g><g><path d="m157.043 264.536c-1.713 0-3.421-.685-4.679-2.038-.115-.124-2.828-3.044-4.18-4.619l-5.366-6.252c-1.345-1.567-3.482-2.171-5.451-1.535l-7.841 2.53c-2.125.686-6.402 1.605-6.882 1.708-3.451.736-6.841-1.464-7.576-4.913-.736-3.448 1.464-6.84 4.912-7.577 1.57-.335 4.485-1.004 5.622-1.371l7.843-2.531c6.877-2.218 14.359-.111 19.064 5.371l5.366 6.251c1.188 1.384 3.818 4.215 3.844 4.244 2.401 2.583 2.253 6.623-.33 9.024-1.23 1.143-2.79 1.708-4.346 1.708z" fill="#ef8bbd"/></g><g><path d="m121.932 234.477c-2.696 0-5.202-1.721-6.075-4.426-1.083-3.356.759-6.955 4.115-8.038l9.982-3.222c1.633-.527 2.886-1.828 3.352-3.48l2.548-9.043c.956-3.394 4.482-5.372 7.878-4.414 3.394.956 5.37 4.483 4.414 7.877l-2.548 9.043c-1.627 5.776-6.009 10.325-11.72 12.169l-9.983 3.222c-.653.213-1.313.312-1.963.312z" fill="#ef8bbd"/></g></g><path d="m275.223 269.527c0 3.794-3.075 6.869-6.869 6.869s-6.869-3.075-6.869-6.869 3.075-6.869 6.869-6.869 6.869 3.075 6.869 6.869z" fill="#d07297"/><path d="m294.971 266.092c0 3.794-3.075 6.869-6.869 6.869s-6.869-3.075-6.869-6.869 3.075-6.869 6.869-6.869 6.869 3.076 6.869 6.869z" fill="#d07297"/><g><path d="m461.165 367.516c-2.887 2.887-4.501 7.046-3.928 11.565.779 6.146 5.742 11.108 11.889 11.885 8.102 1.025 15.03-4.982 15.556-12.746 2.826 2.272 6.56 3.461 10.577 2.911 6.025-.825 10.898-5.685 11.727-11.71.911-6.616-2.875-12.477-8.496-14.753 5.486-2.377 9.129-8.205 8.172-14.751-.893-6.104-5.934-10.948-12.065-11.632-8.333-.928-15.389 5.569-15.389 13.715l-15.139-11.268c-2.724-2.028-6.568-1.52-8.671 1.147l-11.446 14.507c-2.173 2.753-1.666 6.753 1.124 8.878z" fill="#e7effa"/></g></g><path d="m477.056 117.904 8.742 24.58c.374 1.052 1.115 1.886 2.05 2.308l21.839 9.839c3.085 1.39 3.085 6.306 0 7.696l-21.839 9.839c-.935.421-1.676 1.255-2.05 2.308l-8.742 24.58c-1.235 3.473-5.602 3.473-6.838 0l-8.742-24.58c-.374-1.053-1.115-1.886-2.05-2.308l-21.839-9.839c-3.085-1.39-3.085-6.306 0-7.696l21.839-9.839c.935-.421 1.676-1.255 2.05-2.308l8.742-24.58c1.235-3.473 5.603-3.473 6.838 0z" fill="#fef2a8"/><path d="m61.404 13.826 6.484 18.233c.278.781.827 1.399 1.521 1.712l16.2 7.299c2.289 1.031 2.289 4.677 0 5.709l-16.2 7.299c-.694.312-1.243.931-1.521 1.712l-6.484 18.233c-.916 2.576-4.156 2.576-5.072 0l-6.485-18.233c-.278-.781-.827-1.399-1.521-1.712l-16.2-7.299c-2.288-1.031-2.288-4.678 0-5.709l16.2-7.299c.694-.312 1.243-.931 1.521-1.712l6.485-18.233c.916-2.576 4.156-2.576 5.072 0z" fill="#fef2a8"/><g fill="#ffe266"><ellipse cx="466.636" cy="40.689" rx="12.97" ry="12.97" transform="matrix(.924 -.383 .383 .924 19.95 181.671)"/><path d="m388.092 79.034c0 5.563-4.51 10.073-10.073 10.073s-10.073-4.51-10.073-10.073 4.51-10.073 10.073-10.073 10.073 4.509 10.073 10.073z"/></g></g></svg>