<svg id="Capa_1" enable-background="new 0 0 512 512" height="512" viewBox="0 0 512 512" width="512" xmlns="http://www.w3.org/2000/svg"><g><g><path d="m402.8 511.7s37.6-23.9 37.6-58-29.9-48.7-29.9-48.7 52.6-24.7 36.2-98.3c-16.4-73.5-69.2-78.5-69.2-78.5s6.5-101.8-88.7-47.1c0 0 6.1-136.7-84.8-79.9l8.4 241.9z" fill="#bdf4e3"/><path d="m402.8 512s37.5-24.2 37.5-58.3-29.9-48.7-29.9-48.7 52.6-24.7 36.2-98.3c-4.8-21.6-12.8-37.3-21.6-48.6-1-1-1.8-1.9-2.3-2.8 20.8 105.4-49.3 166.9-127.7 110.5-3.9-2.8-13.5 28.9-19 33.7z" fill="#b1b7e3"/><path d="m402.8 512c-12.5-45.4-34.9-92.7-70.5-121.5 6.7-19 10.3-39.4 10.3-70.4l1.1-61.6c0-22-6.7-42.5-18.2-59.5 5.3-5.4 9.7-12.6 12.9-21.7 9.6-27.8-7.9-66.5-16.6-69.5s-46.3 16.8-55.9 44.6c-.4 1.1-.7 2.2-1 3.3-8.9-2.4-18.2-3.7-27.8-3.7h-65.8c-4.9 0-9.6.4-14.2 1.1-.7-6-2.5-12.5-5.8-19.2-12.6-26.2-51.9-41.3-60-37.4-8.2 3.9-20.9 44-8.3 70.2 4.2 8.7 9.4 15.3 15.3 20-11.6 13.1-19.3 27.5-23.2 38.3-9.5 26.1-14.2 61.6-14.2 61.6-25.7 24.2-33.8 57.2-23.6 86 8.5 23.7 25.2 41.1 47.5 52.6 19.6 10 51.3 13.6 68.7 12.1-9.7 21.3-14.8 51.9-18.2 74.8h267.5z" fill="#e7effa"/><path d="m332.3 390.5c6.7-19 10.3-39.4 10.3-70.4l1.1-61.6c0-22-6.7-42.5-18.2-59.5 5.3-5.4 9.7-12.6 12.9-21.7 9.6-27.8-7.9-66.5-16.6-69.5-4.1-1.4-12 1.9-17.3 4.6 6.8 12.8 12.5 31.3 10.8 52-1.1 13-17.9 26.8-22.3 31.9 9.6 16.2 17 70.6 17 91.5l-.3 15.6c0 21.5-9.2 50.6-14.2 70.6-2.9 11.7-4.5 22.1 4.2 30.4 11.7 11.1 20.8 21.8 28.6 41.5 8.7 21.9-7.6 45.7-31.1 45.7h-158.4c-1.3 7.1-2.3 13.9-3.3 20.2h267.3c-12.4-45.2-34.9-92.5-70.5-121.3z" fill="#dcb6f5"/><path d="m233.4 169.7c0-.5-.1-.9-.2-1.4-.7-18.5-6.3-34.5-19.1-46.9-.3-20.7-5.8-36.8-18.9-46.3-6.6-22.9-16.9-47.3-29.7-72.7-1.6-3.9-7.5-2.7-7.3 1.6-1.6 22.9-1.7 44.2 2.4 60.9-5.5 13.6-5.6 27.3 1.6 41.2-4.5 13.8-4.7 28.1 1.7 43.1-6.7 14.5-1.7 27.7.1 33.9 7.4 21.1 70.9 7.6 69.4-13.4z" fill="#ffe266"/><g><g><path d="m196.5 85c-.7 0-1.4-.1-2-.3l-35.9-12.1c-3.3-1.1-5.1-4.7-4-8.1 1.1-3.3 4.7-5.1 8.1-4l35.9 12.1c3.3 1.1 5.1 4.7 4 8.1-1 2.6-3.5 4.3-6.1 4.3z" fill="#d0844b"/></g><g><path d="m213.7 129.7c-.7 0-1.3-.1-2-.3l-51.6-17.3c-3.3-1.1-5.1-4.7-4-8s4.7-5.1 8-4l51.6 17.3c3.3 1.1 5.1 4.7 4 8-.8 2.7-3.3 4.3-6 4.3z" fill="#d0844b"/></g><g><path d="m233.4 176.1c-.6 0-1.2-.1-1.8-.3l-69.6-20.5c-3.4-1-5.3-4.5-4.3-7.9s4.5-5.3 7.9-4.3l69.6 20.5c3.4 1 5.3 4.5 4.3 7.9-.8 2.8-3.3 4.6-6.1 4.6z" fill="#d0844b"/></g></g><path d="m73 189.6c14.8-8.5 25.7-22.1 31.8-38.1 1.7-4.5 4.1-8.9 7.3-13 15-19.4 42.5-24.9 63.8-12.8 25.5 14.5 32.9 47.2 16.9 71.1-13.8 20.6-36 29.1-56.5 28.5-12-.4-39.6-7.7-60.5-13.8-10.3-3-12-16.6-2.8-21.9z" fill="#bdf4e3"/><path d="m175.8 125.7c-21.4-12.1-48.8-6.6-63.8 12.8-3.1 4.1-5.6 8.4-7.3 13-6 16-17 29.6-31.8 38.1-9.2 5.3-7.5 18.9 2.7 21.9 21 6.1 48.6 13.4 60.5 13.8 20.5.7 42.8-7.9 56.5-28.5 16.1-23.9 8.7-56.6-16.8-71.1zm2.3 47.3c-6.9 16.5-21.6 25.5-36.5 27.8-8.7 1.3-29.7-.2-45.7-1.7-7.7-.7-11-10.2-5.2-15.2 9.4-8 15.2-19.2 17.2-31.3.6-3.4 1.7-6.9 3.3-10.2 7.9-15.8 26.9-23.4 44.1-17.6 20.6 6.8 30.8 29.1 22.8 48.2z" fill="#b1b7e3"/><g><g><path d="m123.1 298.9c-3.5 0-6.4-2.8-6.4-6.4 0-3.7-3-6.7-6.7-6.7s-6.7 3-6.7 6.7c0 3.5-2.8 6.4-6.4 6.4-3.5 0-6.4-2.8-6.4-6.4 0-10.7 8.7-19.4 19.4-19.4s19.4 8.7 19.4 19.4c.2 3.5-2.6 6.4-6.2 6.4z" fill="#ad99c9"/></g><g><path d="m255.7 298.9c-3.5 0-6.4-2.8-6.4-6.4 0-3.7-3-6.7-6.7-6.7s-6.7 3-6.7 6.7c0 3.5-2.8 6.4-6.4 6.4s-6.4-2.8-6.4-6.4c0-10.7 8.7-19.4 19.4-19.4s19.4 8.7 19.4 19.4c.2 3.5-2.7 6.4-6.2 6.4z" fill="#ad99c9"/></g></g><g><path d="m127.6 174.6c-1.8 0-3.7-.5-5.4-1.5-4.9-2.9-6.4-9.2-3.8-14.2 4-7.8 8.9-13.3 13.6-17 5.9-4.8 14.8-1.9 16.9 5.4 1.1 4-.2 8.4-3.5 11-2.6 2.1-5.7 5.4-8.2 10.3-2 3.8-5.7 6-9.6 6z" fill="#fff"/></g><path d="m191.9 324.7c6.1 0 10.5 5.9 8.6 11.7-4.4 14.2-16.8 24.4-31.3 24.5-14.6 0-27-10.1-31.5-24.3-1.8-5.8 2.5-11.7 8.6-11.7z" fill="#ef8bbd"/><g><g><path d="m240.2 258.5c-6 0-12-2.8-15.7-7.9-2.1-2.8-1.5-6.8 1.4-8.9 2.8-2.1 6.8-1.5 8.9 1.4 1.9 2.6 5.7 3.5 8.6 2 3.1-1.6 6.9-.4 8.6 2.7 1.6 3.1.4 6.9-2.7 8.6-2.9 1.4-6 2.1-9.1 2.1z" fill="#ad99c9"/></g><g><path d="m108.9 256.6c-3 0-6-.7-8.8-2.1-3.1-1.6-4.3-5.4-2.7-8.6 1.6-3.1 5.4-4.3 8.6-2.7 2.9 1.5 6.6.6 8.5-2.1 2.1-2.8 6-3.5 8.9-1.4 2.8 2.1 3.5 6 1.4 8.9-3.8 5.2-9.8 8-15.9 8z" fill="#ad99c9"/></g></g><path d="m317.9 256.3c1.2 3.4 1.9 7.1 2 11.2.4 14.5-7.3 26.5-17.3 26.8s-18.4-11.3-18.8-25.8c-.1-3.6.3-7.1 1.1-10.3z" fill="#8bb6ef"/></g><path d="m466.5 115 8.7 24.5c.4 1 1.1 1.9 2 2.3l21.7 9.8c3.1 1.4 3.1 6.3 0 7.7l-21.7 9.8c-.9.4-1.7 1.2-2 2.3l-8.7 24.5c-1.2 3.5-5.6 3.5-6.8 0l-8.7-24.5c-.4-1-1.1-1.9-2-2.3l-21.7-9.8c-3.1-1.4-3.1-6.3 0-7.7l21.7-9.8c.9-.4 1.7-1.2 2-2.3l8.7-24.5c1.2-3.4 5.6-3.4 6.8 0z" fill="#fef2a8"/><path d="m321.6 6 6.5 18.1c.3.8.8 1.4 1.5 1.7l16.1 7.3c2.3 1 2.3 4.7 0 5.7l-16.1 7.2c-.7.3-1.2.9-1.5 1.7l-6.5 18.1c-.9 2.6-4.1 2.6-5 0l-6.5-18.1c-.3-.8-.8-1.4-1.5-1.7l-16.1-7.3c-2.3-1-2.3-4.7 0-5.7l16.1-7.3c.7-.3 1.2-.9 1.5-1.7l6.5-18c.9-2.6 4.1-2.6 5 0z" fill="#fef2a8"/><g fill="#ffe266"><ellipse cx="23.6" cy="51.1" rx="12.9" ry="12.9"/><path d="m432.8 56.7c0 5.5-4.5 10-10 10s-10-4.5-10-10 4.5-10 10-10 10 4.5 10 10z"/></g></g></svg>