<svg id="Capa_1" enable-background="new 0 0 512 512" height="512" viewBox="0 0 512 512" width="512" xmlns="http://www.w3.org/2000/svg"><g><g><path d="m92.593 512s-46.254-25.608-46.254-59.407 16.899-47.594 16.899-47.594-52.185-29.915-35.937-102.686 81.305-72.846 81.305-72.846-6.388-100.722 87.8-46.666c0 0-6.007-135.324 83.966-79.091l-8.338 239.42z" fill="#b2e7f1"/><path d="m91.338 512c12.342-44.927 26.698-93.437 61.925-121.948-6.62-18.758-10.199-38.992-10.199-69.635l-1.125-60.969c0-21.819 6.626-42.089 17.975-58.91-5.208-5.299-9.612-12.445-12.721-21.479-9.467-27.513 7.853-65.871 16.421-68.819 8.567-2.948 45.824 16.629 55.292 44.143.374 1.087.705 2.161 1.017 3.227 8.762-2.359 17.972-3.624 27.479-3.624h65.084c4.86 0 9.53.37 14.016 1.051.666-5.981 2.503-12.369 5.697-19.019 12.464-25.956 51.331-40.922 59.413-37.041 8.082 3.882 20.704 43.571 8.24 69.527-4.124 8.588-9.321 15.141-15.1 19.758 11.462 12.995 19.057 27.22 22.945 37.912 9.383 25.802 14.074 60.987 14.074 60.987 25.417 23.927 33.503 56.666 23.333 85.142-8.391 23.496-24.953 40.723-46.992 52.027-19.371 9.936-50.806 13.497-68.021 12 9.567 21.045 14.618 51.341 18.013 73.996z" fill="#f7c4db"/><path d="m421.771 287.16s-4.692-35.185-14.074-60.987c-3.888-10.692-11.483-24.917-22.945-37.913 5.78-4.617 10.977-11.17 15.1-19.758 12.464-25.956-.158-65.646-8.24-69.526-3.676-1.765-13.72.379-24.749 5.669 6.364 12.252 12.014 40.724 2.926 60.695-3.732 8.201-8.435 14.458-13.665 18.867 10.373 12.409 17.246 25.992 20.765 36.202 8.491 24.639 12.737 58.238 12.737 58.238 23.001 22.848 30.319 54.11 21.115 81.302-7.594 22.436-22.582 38.886-42.527 49.68-17.53 9.488-45.978 12.889-61.557 11.46 2.981 6.919 5.477 14.884 7.595 23.239 6.1 24.065-12.19 47.421-37.017 47.421h-188.085c-2.077 6.193 3.884 14.077 2.188 20.25l256.766-1.675c-3.394-22.655-8.446-52.951-18.013-73.996 17.215 1.497 48.65-2.064 68.021-12 22.039-11.304 38.6-28.53 46.992-52.027 10.169-28.476 2.083-61.215-23.333-85.141z" fill="#e893db"/><path d="m155.824 203.956c-3.223 26.589 23.838 48.423 36.258 71.711 12.892 24.172 30.456 53.598 24.816 79.382-6.107 27.918-53.017 45.508-53.017 45.508s29.758 40.834 12.837 76.286c-16.92 35.452-85.38 35.157-85.38 35.157s-44.998-25.608-44.998-59.407c0 0 26.494 5.171 50.666-21.418s27.395-58.013 27.395-58.013v-130.53l15.309-40.287z" fill="#b2e7f1"/><path d="m190.438 386.897c18.87-13.048 34.929-26.699 23.688-65.241-1.546-5.3-16.995-38.249-17.101-36.801-7.719 105.486-181.515 128.856-169.004 14.426-.248.998-.49 2.005-.72 3.032-16.248 72.772 35.937 102.686 35.937 102.686s-16.898 13.795-16.898 47.594 44.998 59.407 44.998 59.407.433.001 1.233-.013c.01.006.022.013.022.013l.014-.013c9.407-.171 68.551-2.541 84.111-35.145 7.397-15.498 5.873-32.025 1.815-45.72-3.912-12.031-8.61-22.572-14.652-30.565 12.706-4.828 22.567-10.901 26.557-13.66z" fill="#a7adf1"/><path d="m251.191 171.528c.035-.469.09-.94.193-1.416.658-18.296 6.218-34.136 18.933-46.392.317-20.473 5.75-36.408 18.716-45.861 6.548-22.634 16.701-46.781 29.378-71.987 1.586-3.886 7.382-2.631 7.22 1.562 1.559 22.691 1.659 43.771-2.337 60.329 5.48 13.473 5.568 27.054-1.581 40.812 4.43 13.627 4.625 27.784-1.652 42.659 6.633 14.319 1.675 27.402-.115 33.598-7.358 20.796-70.283 7.499-68.755-13.304z" fill="#cab4ef"/><path d="m251.191 171.528c.035-.469.09-.94.193-1.416.467-12.993 3.425-24.739 9.643-34.851-.612 3.351-.984 6.818-1.117 10.402-.091.406-.14.808-.17 1.208-1.345 17.75 54.045 29.096 60.522 11.351.304-1.021.712-2.262 1.131-3.686 4.543 13.001.204 24.578-1.448 30.295-7.357 20.797-70.282 7.5-68.754-13.303z" fill="#be87ef"/><g><g><path d="m287.745 87.658c-2.623 0-5.07-1.654-5.957-4.277-1.113-3.29.652-6.86 3.943-7.973l35.548-12.022c3.286-1.114 6.86.652 7.973 3.943 1.113 3.29-.652 6.86-3.943 7.973l-35.549 12.022c-.667.226-1.347.334-2.015.334z" fill="#a171e3"/></g><g><path d="m270.661 131.949c-2.631 0-5.083-1.664-5.963-4.296-1.103-3.294.674-6.859 3.968-7.96l51.051-17.083c3.296-1.107 6.859.675 7.96 3.968 1.103 3.294-.674 6.859-3.968 7.961l-51.051 17.083c-.662.222-1.336.327-1.997.327z" fill="#a171e3"/></g><g><path d="m251.188 177.82c-2.717 0-5.223-1.775-6.03-4.514-.982-3.332.923-6.829 4.255-7.811l68.869-20.294c3.334-.985 6.829.923 7.811 4.255.983 3.332-.922 6.829-4.255 7.811l-68.869 20.294c-.593.175-1.192.259-1.781.259z" fill="#a171e3"/></g></g><path d="m410.001 191.184c-14.624-8.444-25.47-21.922-31.443-37.717-1.697-4.487-4.088-8.815-7.205-12.84-14.887-19.224-42.045-24.673-63.185-12.661-25.213 14.327-32.544 46.725-16.696 70.373 13.645 20.36 35.629 28.851 55.97 28.204 11.85-.377 39.174-7.667 59.922-13.688 10.044-2.914 11.693-16.442 2.637-21.671z" fill="#b2e7f1"/><path d="m291.473 198.339c13.645 20.36 35.629 28.851 55.97 28.204 11.85-.378 39.174-7.667 59.922-13.688 10.043-2.914 11.693-16.442 2.636-21.672-14.624-8.444-25.47-21.922-31.443-37.717-1.697-4.487-4.088-8.815-7.205-12.84-14.888-19.223-42.045-24.673-63.185-12.661-25.212 14.329-32.543 46.726-16.695 70.374zm36.91-71.357c17.014-5.709 35.768 1.795 43.636 17.443 1.647 3.277 2.727 6.672 3.282 10.087 1.955 12.021 7.766 23.048 17.046 31.002 5.747 4.926 2.548 14.318-5.12 15.046-15.841 1.504-36.609 3.03-45.202 1.713-14.749-2.259-29.325-11.232-36.129-27.522-7.901-18.921 2.195-40.96 22.487-47.769z" fill="#a7adf1"/><g><path d="m355.956 176.369c-3.867.001-7.585-2.147-9.41-5.848-2.423-4.914-5.49-8.165-8.104-10.245-3.249-2.586-4.551-6.922-3.434-10.922 2.029-7.262 10.808-10.065 16.693-5.352 4.564 3.656 9.501 9.019 13.415 16.777 2.518 4.991 1.019 11.242-3.785 14.102-1.703 1.013-3.557 1.488-5.375 1.488z" fill="#fff"/></g><g><path d="m327.262 441.217c-2.27 0-4.46-1.232-5.582-3.382-.891-1.686-21.301-39.041-66.722-18.796-3.17 1.411-6.892-.011-8.306-3.185-1.414-3.173.012-6.892 3.185-8.306 29.34-13.075 50.399-5.743 62.9 2.712 13.422 9.079 19.838 21.256 20.104 21.77 1.599 3.085.396 6.881-2.687 8.48-.927.48-1.917.707-2.892.707z" fill="#c56cb7"/></g><path d="m340.576 355.276s4.542-15.896 14.762-15.898 15.898 15.898 15.898 15.898 5.11-17.033 14.149-17.033 14.24 15.898 14.24 15.898-3.639 28.736-27.062 30.694c-19.685 1.645-25.965-10.114-31.987-29.559z" fill="#ef8bbd"/><path d="m221.709 256.785c.248-4.029 3.718-7.096 7.741-6.842l125.903 7.097 101.618-29.371c3.873-1.143 7.933 1.063 9.078 4.931l1.055 4.101c7.71 29.852-9.433 60.335-37.605 68.48-25.514 7.377-52.358-5.949-64.186-30.339-1.083-2.233-3.621-3.314-6.023-2.69-2.039.529-4.114.737-6.188.65-3.281-.137-6.14 2.098-7.071 5.248-7.575 25.635-34.075 43.54-64.295 41.544-33.526-2.215-60.497-27.719-60.108-58.086z" fill="#a183e2"/><path d="m317.875 273.638-66.285-4.775c-3.77-.272-6.58 3.47-5.208 6.992 3.586 9.207 12.74 23.731 34.983 24.913 24.034 1.277 35.552-10.978 40.56-19.284 1.998-3.316-.189-7.568-4.05-7.846z" fill="#7844c1"/><g fill="#ffe266"><path d="m220.546 316.193-12.199 22.306-22.306 12.199 22.306 12.199 12.199 22.306 12.2-22.306 22.305-12.199-22.305-12.199z"/><path d="m159.867 230.266-12.199 22.306-22.306 12.199 22.306 12.2 12.199 22.305 12.2-22.305 22.305-12.2-22.305-12.199z"/><path d="m55.553 364.348-12.2 22.306-22.305 12.199 22.305 12.2 12.2 22.305 12.199-22.305 22.306-12.2-22.306-12.199z"/></g><path d="m467.104 236.701-1.055-4.101c-1.145-3.869-5.205-6.075-9.078-4.931l-61.56 17.792-4.205 1.497s85.391-1.919 21.779 60.198c5.458.238 11.017-.386 16.515-1.976 28.171-8.143 45.313-38.627 37.604-68.479z" fill="#9762e2"/><path d="m446.791 247.868-60.585 17.615c-3.446 1.002-4.473 5.772-1.882 8.9 6.774 8.176 20.557 19.888 40.723 13.549 21.789-6.85 27.206-23.261 28.396-33.433.476-4.06-3.123-7.657-6.652-6.631z" fill="#7844c1"/></g><path d="m81.098 2.566 8.611 24.213c.369 1.037 1.098 1.858 2.02 2.273l21.512 9.692c3.039 1.369 3.039 6.212 0 7.581l-21.512 9.692c-.921.415-1.651 1.236-2.02 2.273l-8.611 24.213c-1.216 3.421-5.519 3.421-6.735 0l-8.611-24.213c-.369-1.037-1.098-1.858-2.02-2.273l-21.512-9.692c-3.039-1.369-3.039-6.212 0-7.581l21.512-9.692c.921-.415 1.651-1.237 2.02-2.273l8.611-24.213c1.216-3.421 5.519-3.421 6.735 0z" fill="#cab4ef"/><path d="m485.721 75.93 6.388 17.961c.273.769.815 1.378 1.498 1.686l15.958 7.189c2.255 1.016 2.255 4.608 0 5.623l-15.958 7.19c-.683.308-1.225.917-1.498 1.686l-6.388 17.961c-.902 2.537-4.094 2.537-4.996 0l-6.387-17.961c-.273-.769-.815-1.378-1.498-1.686l-15.958-7.19c-2.254-1.016-2.254-4.608 0-5.623l15.958-7.189c.683-.308 1.225-.917 1.498-1.686l6.387-17.961c.902-2.537 4.093-2.537 4.996 0z" fill="#cab4ef"/><g fill="#a183e2"><circle cx="13.521" cy="146.231" r="12.776"/><ellipse cx="407.55" cy="45.227" rx="9.923" ry="9.923" transform="matrix(.993 -.122 .122 .993 -2.472 50.135)"/></g></g></svg>