<svg id="Capa_1" enable-background="new 0 0 512 512" height="512" viewBox="0 0 512 512" width="512" xmlns="http://www.w3.org/2000/svg"><g><g><path d="m421.825 511.724s37.561-23.903 37.561-58.049c0-34.147-29.878-48.659-29.878-48.659s52.593-24.738 36.177-98.257c-16.415-73.519-69.206-78.502-69.206-78.502s6.454-101.757-88.702-47.146c0 0 6.068-136.715-84.829-79.904l8.424 241.88z" fill="#b2e7f1"/><path d="m459.386 453.671c-.002-34.144-29.878-48.655-29.878-48.655s52.593-24.738 36.178-98.257c-4.956-22.197-13.219-38.144-22.353-49.596 15.823 100.667-51.504 162.946-127.895 108.039-4.208-3.025-15.286 34.974-20.339 34.311l70.84 62.725 55.917 49.762s6.666-4.548 14.402-12.039c.57-.552 1.144-1.121 1.723-1.708.871-.882 1.746-1.79 2.625-2.749 9.39-10.244 18.78-24.756 18.78-41.83 0 0 0-.001 0-.003z" fill="#a7adf1"/><path d="m421.856 512c-12.469-45.388-34.902-92.705-70.492-121.509 6.689-18.951 10.304-39.393 10.304-70.351l1.136-61.595c0-22.043-6.694-42.522-18.16-59.515 5.261-5.354 9.711-12.573 12.852-21.7 9.565-27.796-7.934-66.548-16.589-69.526-8.655-2.979-46.295 16.8-55.86 44.596-.378 1.098-.713 2.183-1.028 3.261-8.852-2.383-18.157-3.661-27.761-3.661h-65.753c-4.91 0-9.628.374-14.16 1.062-.673-6.042-2.529-12.496-5.755-19.215-12.592-26.223-51.858-41.343-60.023-37.422s-20.916 44.018-8.325 70.241c4.166 8.676 9.417 15.297 15.256 19.961-11.58 13.129-19.253 27.5-23.181 38.302-9.479 26.068-14.219 61.614-14.219 61.614-25.678 24.173-33.847 57.248-23.572 86.017 8.478 23.737 25.21 41.141 47.475 52.561 19.57 10.038 51.328 13.636 68.72 12.123-9.665 21.262-14.769 51.869-18.198 74.757h267.333z" fill="#f7c4db"/><path d="m351.364 390.491c6.689-18.951 10.304-39.393 10.304-70.351l1.136-61.595c0-22.043-6.694-42.521-18.16-59.515 5.261-5.354 9.711-12.573 12.852-21.7 9.565-27.796-7.934-66.548-16.589-69.526-2.765-.952-8.499.424-15.322 3.638 5.823 13.433 10.376 34.535 8.842 52.946-1.086 13.024-17.928 26.805-22.333 31.899 9.6 16.168 16.95 70.559 16.95 91.531l-.288 15.638c0 21.466-9.207 50.645-14.193 70.647-2.908 11.664-4.533 22.147 4.185 30.423 11.722 11.13 20.8 21.839 28.607 41.543 8.691 21.935-7.551 45.723-31.145 45.723h-158.438c-.93 5.267-1.751 10.41-2.503 15.283-.007.05-.016.101-.023.151-.25 1.623-.492 3.217-.725 4.774h267.335c-12.469-45.388-34.902-92.705-70.492-121.509z" fill="#e893db"/><path d="m252.429 169.722c-.035-.473-.091-.95-.195-1.43-.665-18.483-6.282-34.487-19.127-46.869-.32-20.683-5.809-36.782-18.908-46.333-6.615-22.867-16.873-47.262-29.68-72.727-1.602-3.925-7.458-2.658-7.294 1.578-1.574 22.924-1.676 44.221 2.361 60.949-5.536 13.612-5.626 27.332 1.597 41.231-4.476 13.767-4.673 28.07 1.669 43.097-6.701 14.467-1.692 27.683.117 33.944 7.432 21.011 71.004 7.577 69.46-13.44z" fill="#cab4ef"/><path d="m252.429 169.722c-.035-.473-.091-.95-.195-1.43-.472-13.127-3.443-25.004-9.726-35.22.618 3.386.978 6.899 1.112 10.519.092.41.141.816.172 1.22 1.359 17.932-54.601 29.394-61.144 11.468-.307-1.031-.72-2.285-1.142-3.724-4.589 13.135-.206 24.831 1.463 30.607 7.432 21.011 71.004 7.577 69.46-13.44z" fill="#be87ef"/><g><g><path d="m215.501 84.988c-.675 0-1.362-.108-2.036-.336l-35.915-12.144c-3.325-1.124-5.108-4.731-3.984-8.055 1.124-3.325 4.735-5.107 8.055-3.985l35.914 12.144c3.325 1.124 5.108 4.731 3.984 8.055-.896 2.651-3.368 4.321-6.018 4.321z" fill="#a171e3"/></g><g><path d="m232.76 129.736c-.669 0-1.349-.106-2.018-.33l-51.577-17.258c-3.327-1.113-5.123-4.714-4.009-8.042s4.717-5.122 8.042-4.01l51.577 17.258c3.327 1.113 5.123 4.714 4.009 8.042-.889 2.659-3.367 4.34-6.024 4.34z" fill="#a171e3"/></g><g><path d="m248.201 174.83c-.595 0-1.2-.084-1.799-.261l-65.346-19.256c-3.367-.992-5.291-4.525-4.298-7.891.992-3.368 4.528-5.291 7.891-4.299l65.346 19.256c3.366.992 5.291 4.525 4.298 7.891-.816 2.768-3.348 4.56-6.092 4.56z" fill="#a171e3"/></g></g><path d="m91.987 189.579c14.774-8.53 25.732-22.147 31.766-38.104 1.714-4.533 4.13-8.905 7.279-12.972 15.04-19.421 42.477-24.927 63.834-12.791 25.472 14.474 32.879 47.205 16.868 71.096-13.785 20.569-35.996 29.148-56.545 28.494-11.971-.381-39.577-7.746-60.538-13.828-10.147-2.945-11.813-16.612-2.664-21.895z" fill="#b2e7f1"/><path d="m194.866 125.712c-21.357-12.135-48.793-6.63-63.834 12.791-3.149 4.066-5.565 8.439-7.279 12.972-6.034 15.957-16.992 29.574-31.766 38.104-9.149 5.283-7.483 18.95 2.663 21.894 20.961 6.082 48.566 13.447 60.538 13.828 20.549.654 42.76-7.924 56.545-28.494 16.011-23.89 8.605-56.62-16.867-71.095zm2.295 47.266c-6.873 16.458-21.599 25.523-36.5 27.805-8.681 1.33-29.662-.212-45.666-1.731-7.747-.735-10.978-10.223-5.173-15.2 9.375-8.036 15.246-19.177 17.221-31.321.561-3.45 1.652-6.88 3.316-10.19 7.949-15.81 26.896-23.39 44.085-17.623 20.501 6.878 30.701 29.144 22.717 48.26z" fill="#a7adf1"/><g><path d="m146.588 174.613c-1.836 0-3.705-.48-5.424-1.501-4.852-2.882-6.381-9.189-3.84-14.229 3.955-7.846 8.945-13.27 13.56-16.967 5.947-4.764 14.819-1.936 16.869 5.403 1.129 4.041-.187 8.421-3.469 11.034-2.641 2.102-5.739 5.386-8.188 10.351-1.845 3.739-5.602 5.908-9.508 5.909z" fill="#fff"/></g><g><path d="m122.726 299.352c-3.2 0-5.953-2.411-6.309-5.666-.381-3.489 2.14-6.625 5.629-7.006l25.348-2.765c3.474-.376 6.624 2.139 7.006 5.628.381 3.489-2.14 6.626-5.628 7.007l-25.348 2.765c-.235.025-.468.037-.698.037z" fill="#c56cb7"/></g><g><path d="m122.473 281.188c-3.2 0-5.953-2.411-6.309-5.666-.381-3.489 2.14-6.626 5.628-7.007l25.348-2.765c3.48-.373 6.625 2.139 7.006 5.628.381 3.488-2.14 6.625-5.628 7.006l-25.348 2.765c-.233.027-.466.039-.697.039z" fill="#c56cb7"/></g><g><path d="m283.85 299.352c-.231 0-.463-.012-.697-.038l-25.349-2.765c-3.488-.381-6.009-3.517-5.628-7.006.381-3.49 3.532-6.006 7.006-5.628l25.349 2.765c3.488.38 6.009 3.517 5.628 7.006-.355 3.255-3.109 5.666-6.309 5.666z" fill="#c56cb7"/></g><g><path d="m284.103 281.188c-.231 0-.463-.012-.697-.038l-25.35-2.765c-3.488-.381-6.009-3.517-5.628-7.006s3.526-6.002 7.006-5.628l25.349 2.765c3.489.38 6.009 3.517 5.628 7.006-.354 3.255-3.109 5.666-6.308 5.666z" fill="#c56cb7"/></g><g fill="#ef8bbd"><path d="m217.128 320.353c4.98.006 8.549 5.908 7.047 11.699-3.68 14.185-13.839 24.374-25.781 24.359-11.943-.015-22.076-10.229-25.721-24.423-1.488-5.795 2.096-11.688 7.076-11.682z"/><ellipse cx="287.944" cy="348.219" rx="35.44" ry="28.877"/><ellipse cx="107.217" cy="348.219" rx="35.44" ry="28.877"/></g></g><path d="m476.275 112.871 8.7 24.462c.372 1.047 1.11 1.877 2.04 2.296l21.733 9.792c3.07 1.383 3.07 6.275 0 7.659l-21.733 9.792c-.931.419-1.668 1.249-2.04 2.297l-8.7 24.462c-1.229 3.456-5.576 3.456-6.805 0l-8.7-24.462c-.372-1.047-1.11-1.877-2.04-2.297l-21.734-9.792c-3.07-1.383-3.07-6.275 0-7.659l21.734-9.792c.931-.419 1.668-1.249 2.04-2.296l8.7-24.462c1.229-3.456 5.576-3.456 6.805 0z" fill="#cab4ef"/><path d="m62.624 9.293 6.453 18.146c.276.777.823 1.393 1.513 1.704l16.122 7.263c2.278 1.026 2.278 4.655 0 5.681l-16.122 7.263c-.69.311-1.237.927-1.513 1.704l-6.453 18.146c-.912 2.564-4.136 2.564-5.048 0l-6.453-18.146c-.276-.777-.823-1.393-1.514-1.704l-16.122-7.263c-2.278-1.026-2.278-4.655 0-5.681l16.122-7.263c.69-.311 1.237-.927 1.514-1.704l6.453-18.146c.912-2.563 4.136-2.563 5.048 0z" fill="#cab4ef"/><g fill="#a183e2"><ellipse cx="13.856" cy="119.741" rx="12.907" ry="12.907" transform="matrix(.16 -.987 .987 .16 -106.558 114.237)"/><path d="m405.678 86.147c0 5.537-4.488 10.025-10.025 10.025s-10.025-4.488-10.025-10.025c0-5.536 4.488-10.025 10.025-10.025s10.025 4.488 10.025 10.025z"/></g></g></svg>