<svg id="Capa_1" enable-background="new 0 0 512 512" height="512" viewBox="0 0 512 512" width="512" xmlns="http://www.w3.org/2000/svg"><g><g><path d="m400.983 512s47.137-21.158 47.137-55.516-30.063-48.96-30.063-48.96 52.918-24.891 36.401-98.866c-16.517-73.974-69.634-78.988-69.634-78.988s6.494-102.387-89.252-47.438c0 0 6.106-137.562-85.354-80.399l8.476 243.378z" fill="#bdf4e3"/><path d="m418.056 407.524s52.918-24.891 36.401-98.866c-5.217-23.368-14.077-39.849-23.771-51.47 16.817 102.122-50.187 165.777-127.406 110.276-4.234-3.043-15.381 35.19-20.465 34.524l17.268 17.692 100.9 92.32s47.137-21.158 47.137-55.516-30.064-48.96-30.064-48.96z" fill="#b1b7e3"/><path d="m400.983 512c-12.546-45.669-35.119-93.279-70.929-122.262 6.73-19.069 10.368-39.637 10.368-70.787l1.143-61.977c0-22.179-6.736-42.785-18.272-59.884 5.294-5.387 9.771-12.651 12.931-21.835 9.624-27.968-7.983-66.96-16.692-69.957s-46.581 16.904-56.206 44.872c-.38 1.105-.717 2.196-1.034 3.281-8.907-2.398-18.269-3.684-27.933-3.684h-66.16c-4.941 0-9.687.376-14.248 1.069-.677-6.079-2.545-12.574-5.791-19.334-12.67-26.385-52.179-41.599-60.395-37.653s-21.046 44.291-8.376 70.676c4.192 8.73 9.475 15.391 15.35 20.085-11.652 13.21-19.373 27.67-23.325 38.539-9.538 26.229-14.307 61.995-14.307 61.995-25.837 24.322-34.056 57.603-23.718 86.549 8.53 23.884 25.366 41.396 47.769 52.887 19.691 10.1 51.646 13.72 69.145 12.198-9.725 21.393-14.86 52.19-18.311 75.22h268.991z" fill="#e7effa"/><path d="m304.057 494.838h-169.343c-1.024 5.995-1.917 11.794-2.721 17.162h268.99c-12.546-45.67-35.119-93.279-70.929-122.262 6.73-19.068 10.368-39.636 10.368-70.787l1.143-61.977c0-22.179-6.736-42.784-18.272-59.883 5.294-5.387 9.771-12.651 12.931-21.835 9.624-27.967-7.983-66.96-16.692-69.957-2.409-.828-7.053.101-12.708 2.461 7.068 14.337 17.103 39.161 15.563 57.645-1.092 13.104-18.039 26.97-22.472 32.096 9.66 16.268 17.055 70.996 17.055 92.098l-.289 15.735c0 21.599-9.263 50.959-14.281 71.085-2.926 11.737-4.56 22.284 4.211 30.612 11.794 11.198 20.929 21.974 28.784 41.8 8.745 22.071-7.598 46.007-31.338 46.007z" fill="#dcb6f5"/><path d="m239.881 170.773c-.035-.477-.092-.955-.196-1.439-.669-18.598-6.321-34.7-19.246-47.159-.322-20.812-5.845-37.009-19.025-46.62-6.657-23.009-16.978-47.555-29.864-73.177-1.612-3.95-7.504-2.675-7.339 1.588-1.584 23.066-1.686 44.495 2.376 61.326-5.571 13.696-5.66 27.501 1.607 41.487-4.503 13.852-4.702 28.243 1.68 43.364-6.742 14.556-1.703 27.855.117 34.154 7.478 21.14 71.443 7.623 69.89-13.524z" fill="#ffe266"/><path d="m239.881 170.773c-.035-.477-.092-.955-.196-1.439-.475-13.208-3.481-25.148-9.803-35.427.622 3.407 1.001 6.931 1.136 10.574.092.413.142.821.173 1.228 1.368 18.043-54.939 29.577-61.522 11.539-.309-1.037-.724-2.299-1.15-3.747-4.618 13.216-.207 24.985 1.472 30.796 7.478 21.14 71.443 7.623 69.89-13.524z" fill="#efaa66"/><g><g><path d="m202.724 85.516c-.68 0-1.37-.109-2.049-.339l-36.137-12.219c-3.346-1.131-5.14-4.76-4.009-8.105 1.13-3.346 4.764-5.141 8.105-4.009l36.137 12.219c3.346 1.131 5.14 4.76 4.009 8.104-.901 2.667-3.389 4.349-6.056 4.349z" fill="#d0844b"/></g><g><path d="m220.091 130.539c-.673 0-1.357-.107-2.03-.333l-51.896-17.365c-3.349-1.12-5.154-4.743-4.034-8.092 1.121-3.349 4.745-5.155 8.092-4.034l51.896 17.365c3.349 1.12 5.154 4.743 4.034 8.092-.895 2.676-3.389 4.367-6.062 4.367z" fill="#d0844b"/></g><g><path d="m239.884 177.168c-.599 0-1.207-.085-1.811-.263l-70.008-20.63c-3.387-.998-5.324-4.553-4.325-7.94.998-3.387 4.556-5.323 7.94-4.325l70.008 20.63c3.387.998 5.324 4.553 4.325 7.94-.82 2.783-3.367 4.588-6.129 4.588z" fill="#d0844b"/></g></g><path d="m78.446 190.753c14.865-8.583 25.891-22.284 31.962-38.34 1.725-4.561 4.155-8.961 7.324-13.052 15.134-19.541 42.74-25.081 64.229-12.87 25.63 14.564 33.082 47.497 16.972 71.536-13.87 20.697-36.219 29.328-56.895 28.67-12.046-.383-39.822-7.794-60.913-13.914-10.208-2.963-11.885-16.714-2.679-22.03z" fill="#bdf4e3"/><path d="m181.961 126.49c-21.489-12.211-49.095-6.671-64.229 12.87-3.169 4.091-5.599 8.491-7.324 13.052-6.072 16.055-17.097 29.757-31.962 38.34-9.206 5.316-7.529 19.068 2.68 22.03 21.091 6.12 48.867 13.53 60.913 13.914 20.677.658 43.025-7.974 56.895-28.67 16.109-24.038 8.657-56.971-16.973-71.536zm2.31 47.559c-6.916 16.56-21.733 25.681-36.726 27.977-8.734 1.338-29.846-.213-45.949-1.742-7.795-.74-11.046-10.287-5.205-15.295 9.433-8.086 15.34-19.295 17.327-31.515.564-3.471 1.661-6.923 3.336-10.253 7.998-15.908 27.062-23.535 44.358-17.732 20.629 6.922 30.892 29.326 22.859 48.56z" fill="#b1b7e3"/><path d="m125.95 321.22c-14.04 0-49.691-3.441-49.691-25.422s35.651-25.422 49.691-25.422c14.041-.001 14.041 50.844 0 50.844z" fill="#fff"/><g><path d="m97.005 248.475c-1.797 0-3.584-.753-4.848-2.222-2.304-2.676-2.002-6.713.673-9.017 7.291-6.276 18.27-6.273 25.54.007 2.671 2.308 2.967 6.346.658 9.018-2.307 2.671-6.344 2.969-9.018.658-2.469-2.134-6.351-2.133-8.835.007-1.209 1.041-2.694 1.549-4.17 1.549z" fill="#ad99c9"/></g><g><path d="m222.81 248.475c-1.797 0-3.584-.753-4.848-2.222-2.304-2.676-2.002-6.713.673-9.017 7.293-6.276 18.272-6.273 25.54.007 2.672 2.309 2.966 6.347.658 9.018-2.309 2.67-6.348 2.965-9.018.658-2.471-2.134-6.352-2.131-8.835.007-1.208 1.041-2.693 1.549-4.17 1.549z" fill="#ad99c9"/></g><g><path d="m133.385 175.693c-1.847 0-3.727-.482-5.455-1.508-4.886-2.901-6.421-9.254-3.863-14.328 3.979-7.891 8.999-13.345 13.64-17.064 5.983-4.793 14.908-1.947 16.972 5.436 1.136 4.066-.187 8.474-3.49 11.103-2.658 2.115-5.775 5.42-8.239 10.415-1.855 3.764-5.635 5.946-9.565 5.946z" fill="#fff"/></g><path d="m99.615 273.699c-12.253 3.343-23.355 9.832-23.355 22.098s11.103 18.756 23.355 22.099z" fill="#cfa1c7"/><path d="m238.694 321.22c-14.04 0-49.691-3.441-49.691-25.422s35.651-25.422 49.691-25.422c14.04-.001 14.04 50.844 0 50.844z" fill="#fff"/><path d="m212.358 273.699c-12.252 3.343-23.355 9.832-23.355 22.098s11.103 18.756 23.355 22.099z" fill="#cfa1c7"/><g><path d="m167.067 363.137c-23.955 0-47.835-.853-54.487-2.555-3.421-.875-5.484-4.357-4.609-7.779.875-3.421 4.355-5.488 7.779-4.609 11.095 2.838 91.1 2.816 103.138-.028 3.435-.817 6.88 1.314 7.693 4.752.813 3.436-1.314 6.881-4.752 7.693-7.129 1.685-30.983 2.526-54.762 2.526z" fill="#ad99c9"/></g></g><path d="m467.534 47.112 8.754 24.614c.375 1.054 1.117 1.889 2.053 2.311l21.868 9.853c3.09 1.392 3.09 6.314 0 7.706l-21.868 9.853c-.936.422-1.678 1.257-2.053 2.311l-8.754 24.613c-1.237 3.477-5.61 3.477-6.847 0l-8.753-24.613c-.375-1.054-1.117-1.889-2.053-2.311l-21.868-9.853c-3.09-1.392-3.09-6.314 0-7.706l21.868-9.853c.936-.422 1.678-1.257 2.053-2.311l8.753-24.614c1.237-3.477 5.611-3.477 6.847 0z" fill="#fef2a8"/><path d="m71.531 18.68 6.493 18.258c.278.782.828 1.401 1.523 1.714l16.221 7.308c2.292 1.032 2.292 4.684 0 5.716l-16.221 7.308c-.694.313-1.245.932-1.523 1.714l-6.493 18.258c-.917 2.579-4.161 2.579-5.079 0l-6.493-18.258c-.278-.782-.828-1.401-1.523-1.714l-16.221-7.308c-2.292-1.032-2.292-4.684 0-5.716l16.221-7.308c.695-.313 1.245-.932 1.523-1.714l6.493-18.258c.918-2.58 4.162-2.58 5.079 0z" fill="#fef2a8"/><g fill="#ffe266"><circle cx="22.461" cy="129.81" r="12.987"/><path d="m366.186 38.748c0 5.571-4.516 10.087-10.087 10.087s-10.087-4.516-10.087-10.087 4.516-10.087 10.087-10.087 10.087 4.516 10.087 10.087z"/></g></g></svg>