<svg id="Capa_1" enable-background="new 0 0 512 512" height="512" viewBox="0 0 512 512" width="512" xmlns="http://www.w3.org/2000/svg"><g><g><g fill="#78eac4"><path d="m324.819 83.944 72.18-15.865c3.302-.726 6.267 2.17 5.618 5.489l-40.146 205.421-120.738-36.205 74.845-152.375c1.62-3.297 4.653-5.677 8.241-6.465z"/><path d="m108.963 266.824h180.918v111.167h-180.918z" transform="matrix(-.914 .406 -.406 -.914 512.576 536.066)"/><path d="m118.994 474.942-28.786-164.055 103.427 74.339-70.206 90.812c-1.326 1.717-4.06 1.041-4.435-1.096z"/><path d="m90.815 323.08-83.572.579-7.188-38.541c-.442-2.371 1.881-4.311 4.135-3.454l37.505 14.262 38.582-29.354 63.171 21.549z"/><path d="m345.007 449.616-92.02-213.229 109.783 36.526-12.979 175.897c-.192 2.605-3.749 3.204-4.784.806z"/></g><g fill="#71afc4"><path d="m275.962 311.338-93.75 41.655s-67.717 87.74-68.921 89.449l5.702 32.5c.375 2.137 3.109 2.812 4.436 1.096l69.529-89.936 100.479-44.645z"/><path d="m369.916 74.032-35.754 182.947-.132-.02-10.538 142.805 21.514 49.853c1.035 2.398 4.592 1.799 4.784-.806l12.533-169.843.147.023 40.241-205.907c.604-3.089-2.156-5.785-5.23-5.109z"/></g><g><path d="m296.27 346.382c-2.214 0-4.354-1.192-5.465-3.284l-49.458-93.176c-1.133-2.135-.918-4.735.552-6.655 1.471-1.92 3.926-2.805 6.28-2.269l111.047 25.308c3.328.758 5.411 4.072 4.653 7.399-.759 3.327-4.071 5.409-7.399 4.653l-97.886-22.309 43.129 81.254c1.6 3.015.454 6.756-2.562 8.357-.922.49-1.914.722-2.891.722z" fill="#518699"/></g><path d="m490.98 58.013-55.998 55.376-18.287-26.257 71.357-33.324c2.643-1.236 5.003 2.153 2.928 4.205z" fill="#78eac4"/><path d="m427.008 181.039 34.563-26.647c2.862-2.207 3.42-6.305 1.251-9.196l-56.563-75.389c-1.561-2.081-4.198-3.052-6.736-2.48l-35.782 8.062-10.945 29.186 65.177 75.548c2.291 2.655 6.258 3.057 9.035.916z" fill="#78eac4"/><g><path d="m383.606 146.079c-1.744 0-3.477-.734-4.7-2.163l-32.224-37.672c-2.219-2.594-1.915-6.495.68-8.714 2.593-2.219 6.494-1.915 8.714.679l32.224 37.672c2.218 2.594 1.915 6.495-.68 8.714-1.164.997-2.593 1.484-4.014 1.484z" fill="#518699"/></g><g><path d="m275.408 255.72c-.898 0-1.809-.197-2.672-.611-3.077-1.479-4.372-5.171-2.894-8.248l80.481-167.478c1.479-3.076 5.172-4.371 8.248-2.894 3.076 1.479 4.372 5.171 2.894 8.247l-80.481 167.478c-1.065 2.214-3.274 3.506-5.576 3.506z" fill="#518699"/></g><g><path d="m11.94 326.246c-1.881 0-3.739-.855-4.953-2.478-2.045-2.732-1.488-6.606 1.245-8.651l26.045-19.493c2.731-2.046 6.605-1.489 8.651 1.245 2.045 2.732 1.488 6.606-1.245 8.651l-26.045 19.494c-1.11.831-2.41 1.232-3.698 1.232z" fill="#518699"/></g><g><path d="m93.64 327.383c-.759 0-1.521-.139-2.247-.423-1.875-.732-3.276-2.331-3.756-4.287l-11.988-48.928c-.812-3.315 1.217-6.661 4.532-7.473 3.313-.815 6.661 1.217 7.473 4.532l9.895 40.383 37.405-24.844c2.843-1.889 6.679-1.115 8.567 1.729 1.889 2.843 1.115 6.679-1.729 8.567l-44.733 29.711c-1.027.684-2.219 1.033-3.419 1.033z" fill="#518699"/></g><g><path d="m193.635 388.768c-1.572 0-3.143-.595-4.348-1.788l-74.159-73.417c-2.426-2.402-2.445-6.315-.044-8.741 2.402-2.426 6.315-2.445 8.741-.044l74.159 73.417c2.426 2.401 2.445 6.314.044 8.74-1.209 1.221-2.801 1.833-4.393 1.833z" fill="#518699"/></g><g><path d="m213.69 300.911c-3.977 0-7.764-2.316-9.451-6.195-2.269-5.217.122-11.285 5.338-13.554l5.721-2.487c5.217-2.266 11.285.124 13.552 5.342 2.267 5.217-.124 11.285-5.342 13.552l-5.716 2.485c-1.336.582-2.731.857-4.102.857z" fill="#fff"/></g><g><path d="m167.72 320.892c-3.977 0-7.765-2.317-9.452-6.197-2.268-5.217.123-11.285 5.34-13.553l23.046-10.017c5.218-2.269 11.285.123 13.553 5.34s-.123 11.285-5.34 13.553l-23.046 10.017c-1.338.582-2.731.857-4.101.857z" fill="#fff"/></g></g><ellipse cx="51.851" cy="56.33" fill="#78eac4" rx="7.97" ry="7.97" transform="matrix(.16 -.987 .987 .16 -12.04 98.514)"/><path d="m134.082 80.982 8.461 23.792c.362 1.019 1.079 1.826 1.984 2.233l21.138 9.524c2.986 1.346 2.986 6.104 0 7.449l-21.138 9.524c-.905.408-1.622 1.215-1.984 2.234l-8.461 23.792c-1.195 3.361-5.423 3.361-6.618 0l-8.461-23.792c-.362-1.019-1.079-1.826-1.985-2.234l-21.138-9.524c-2.986-1.345-2.986-6.103 0-7.449l21.138-9.524c.905-.408 1.622-1.215 1.985-2.233l8.461-23.792c1.195-3.361 5.423-3.361 6.618 0z" fill="#bdf4e3"/><path d="m486.91 256.211 6.276 17.648c.269.756.801 1.354 1.472 1.657l15.68 7.064c2.215.998 2.215 4.527 0 5.525l-15.68 7.064c-.671.302-1.203.901-1.472 1.657l-6.276 17.648c-.887 2.493-4.023 2.493-4.909 0l-6.276-17.648c-.269-.756-.801-1.354-1.472-1.657l-15.68-7.064c-2.215-.998-2.215-4.527 0-5.525l15.68-7.064c.671-.303 1.203-.901 1.472-1.657l6.276-17.648c.887-2.494 4.022-2.494 4.909 0z" fill="#bdf4e3"/><ellipse cx="239.451" cy="49.612" fill="#78eac4" rx="14.623" ry="14.623" transform="matrix(.973 -.231 .231 .973 -4.983 56.705)"/></g></svg>