<svg id="Capa_1" enable-background="new 0 0 512 512" height="512" viewBox="0 0 512 512" width="512" xmlns="http://www.w3.org/2000/svg"><g><g><path d="m403.008 511.729s36.899-23.481 36.899-57.026-29.351-47.801-29.351-47.801 51.665-24.302 35.539-96.525-67.986-77.118-67.986-77.118 6.34-99.963-87.139-46.314c0 0 5.961-134.305-83.333-78.495l8.276 237.615z" fill="#f7c4db"/><path d="m410.555 406.902s51.665-24.301 35.539-96.525c-2.9-12.989-10.12-34.998-18.692-44.355 20.463 103.518-51.87 157.138-128.906 101.768-4.134-2.971-15.017 34.357-19.98 33.706l124.523 110.504s36.868-23.752 36.868-57.297c0-33.544-29.352-47.801-29.352-47.801z" fill="#e893db"/><path d="m403.039 512c-12.249-44.588-34.287-91.07-69.249-119.367 6.57-18.617 10.123-38.698 10.123-69.111l1.116-60.509c0-21.654-6.576-41.772-17.84-58.466 5.168-5.259 9.54-12.352 12.625-21.318 9.396-27.306-7.794-65.375-16.297-68.3-8.503-2.926-45.478 16.504-54.875 43.81-.371 1.079-.7 2.144-1.01 3.203-8.696-2.341-17.837-3.597-27.272-3.597h-64.594c-4.824 0-9.458.367-13.911 1.044-.661-5.936-2.484-12.276-5.654-18.876-12.37-25.76-50.944-40.614-58.965-36.762s-20.548 43.243-8.178 69.003c4.093 8.523 9.251 15.027 14.987 19.609-11.376 12.897-18.914 27.015-22.773 37.627-9.312 25.608-13.968 60.527-13.968 60.527-25.225 23.747-33.25 56.239-23.157 84.5 8.328 23.319 24.765 40.416 46.638 51.635 19.225 9.861 50.423 13.395 67.508 11.909-9.495 20.887-14.508 50.954-17.877 73.439z" fill="#e7effa"/><path d="m333.789 392.633c6.57-18.617 10.123-38.698 10.123-69.111l1.116-60.509c0-21.654-6.576-41.772-17.84-58.466 5.168-5.259 9.54-12.352 12.625-21.318 9.396-27.306-7.794-65.375-16.297-68.3-4.012-1.381-6.915.719-16.846 4.452 6.694 12.559 12.174 30.815 10.481 51.135-1.066 12.794-17.612 26.332-21.94 31.336 9.431 15.883 16.651 69.315 16.651 89.918l-.282 15.363c0 21.087-9.044 49.752-13.943 69.401-2.857 11.459-4.453 21.756 4.112 29.887 11.515 10.933 20.433 21.454 28.103 40.81 8.538 21.548-7.418 44.917-30.596 44.917h-155.635c-1.228 6.954-2.281 13.691-3.204 19.851h262.621c-12.249-44.587-34.287-91.069-69.249-119.366z" fill="#dcb6f5"/><path d="m236.599 175.757c-.034-.465-.09-.933-.192-1.405-.653-18.158-6.171-33.878-18.79-46.042-.314-20.319-5.707-36.133-18.575-45.516-6.499-22.464-16.576-46.429-29.157-71.444-1.574-3.856-7.326-2.611-7.165 1.55-1.547 22.52-1.646 43.442 2.319 59.874-5.439 13.372-5.526 26.85 1.569 40.504-4.397 13.524-4.591 27.575 1.64 42.337-6.582 14.212-1.662 27.195.114 33.345 7.303 20.64 69.753 7.443 68.237-13.203z" fill="#ffa585"/><path d="m236.599 175.757c-.034-.465-.09-.933-.192-1.405-.464-12.895-3.399-24.553-9.571-34.589.607 3.326.977 6.767 1.109 10.324.09.403.139.802.169 1.199 1.335 17.616-53.638 28.876-60.066 11.266-.302-1.013-.707-2.245-1.122-3.658-4.508 12.903-.202 24.393 1.437 30.067 7.302 20.639 69.752 7.442 68.236-13.204z" fill="#ef7c85"/><g><g><path d="m200.321 92.518c-.663 0-1.337-.107-2-.331l-35.281-11.93c-3.266-1.104-5.018-4.647-3.914-7.913s4.646-5.02 7.913-3.914l35.281 11.93c3.266 1.104 5.018 4.647 3.914 7.913-.88 2.603-3.31 4.245-5.913 4.245z" fill="#be545e"/></g><g><path d="m217.277 136.476c-.657 0-1.325-.105-1.982-.325l-50.667-16.953c-3.27-1.093-5.033-4.631-3.939-7.901 1.095-3.269 4.633-5.033 7.901-3.938l50.667 16.953c3.27 1.093 5.033 4.631 3.939 7.9-.875 2.613-3.309 4.264-5.919 4.264z" fill="#be545e"/></g><g><path d="m236.601 182.001c-.584 0-1.178-.083-1.767-.257l-68.35-20.141c-3.307-.974-5.198-4.445-4.224-7.752.975-3.307 4.444-5.2 7.752-4.223l68.35 20.141c3.307.974 5.198 4.445 4.224 7.752-.8 2.719-3.288 4.48-5.985 4.48z" fill="#be545e"/></g></g><path d="m78.986 195.264c14.513-8.38 25.278-21.757 31.205-37.432 1.684-4.453 4.057-8.748 7.151-12.743 14.775-19.079 41.728-24.487 62.708-12.566 25.023 14.219 32.299 46.373 16.57 69.842-13.542 20.207-35.361 28.634-55.548 27.991-11.76-.374-38.879-7.609-59.47-13.584-9.967-2.892-11.604-16.318-2.616-21.508z" fill="#f7c4db"/><path d="m180.05 132.523c-20.98-11.922-47.933-6.513-62.708 12.566-3.094 3.995-5.467 8.29-7.15 12.743-5.928 15.675-16.692 29.052-31.206 37.432-8.988 5.19-7.351 18.616 2.616 21.508 20.591 5.975 47.71 13.21 59.47 13.585 20.187.642 42.006-7.785 55.548-27.992 15.729-23.469 8.454-55.622-16.57-69.842zm2.256 46.433c-6.752 16.168-21.219 25.073-35.857 27.315-8.528 1.307-29.139-.208-44.861-1.7-7.61-.723-10.785-10.043-5.081-14.932 9.21-7.895 14.977-18.839 16.917-30.769.551-3.389 1.622-6.759 3.257-10.011 7.809-15.531 26.422-22.978 43.307-17.312 20.14 6.757 30.16 28.63 22.318 47.409z" fill="#e893db"/><g><path d="m132.625 180.561c-1.803 0-3.638-.47-5.325-1.472-4.771-2.833-6.27-9.035-3.772-13.989 3.884-7.704 8.785-13.03 13.316-16.66 5.841-4.68 14.557-1.9 16.57 5.309 1.109 3.969-.184 8.273-3.408 10.839-2.594 2.065-5.638 5.291-8.043 10.168-1.811 3.675-5.502 5.805-9.338 5.805z" fill="#fff"/></g><g fill="#fff"><path d="m210.96 300.254c-.175 13.058 47.113 13.692 47.288.633.175-13.058-10.269-23.786-23.327-23.961s-23.786 10.269-23.961 23.328z"/><path d="m96.263 290.488c-.144 13.059 47.146 13.579 47.289.521.144-13.059-10.326-23.761-23.384-23.905-13.059-.144-23.761 10.325-23.905 23.384z"/></g><g><path d="m159.312 353.98c-10.453 0-18.956-9.002-18.956-20.066 0-3.447 2.795-6.242 6.242-6.242s6.242 2.795 6.242 6.242c0 4.181 2.903 7.582 6.472 7.582 3.568 0 6.471-3.401 6.471-7.582 0-3.447 2.795-6.242 6.242-6.242s6.242 2.795 6.242 6.242c.001 11.064-8.503 20.066-18.955 20.066z" fill="#ad99c9"/></g><g fill="#ad99c9"><path d="m234.921 276.926c-6.554-.088-12.519 2.5-16.859 6.75 2.108 6.031 8.273 10.642 15.848 11.137 8.242.539 15.467-3.967 17.831-10.53-4.236-4.455-10.189-7.268-16.82-7.357z"/><path d="m120.168 267.103c-6.766-.075-12.895 2.705-17.255 7.212 1.645 6.651 8.154 11.876 16.261 12.387 8.782.553 16.397-4.615 18.201-11.885-4.265-4.674-10.38-7.638-17.207-7.714z"/></g></g><path d="m472.391 103.64 8.546 24.031c.366 1.029 1.09 1.844 2.004 2.256l21.35 9.619c3.016 1.359 3.016 6.165 0 7.524l-21.35 9.619c-.914.412-1.638 1.227-2.004 2.256l-8.546 24.031c-1.207 3.395-5.477 3.395-6.685 0l-8.546-24.031c-.366-1.029-1.09-1.844-2.004-2.256l-21.35-9.619c-3.016-1.359-3.016-6.165 0-7.524l21.35-9.619c.914-.412 1.638-1.227 2.004-2.256l8.546-24.031c1.208-3.395 5.478-3.395 6.685 0z" fill="#ffc7b6"/><path d="m66.033 1.889 6.34 17.826c.271.763.809 1.368 1.487 1.674l15.837 7.135c2.238 1.008 2.238 4.573 0 5.581l-15.837 7.135c-.678.306-1.215.91-1.487 1.674l-6.34 17.826c-.896 2.518-4.063 2.518-4.959 0l-6.34-17.826c-.271-.763-.809-1.368-1.487-1.674l-15.837-7.135c-2.237-1.008-2.237-4.573 0-5.581l15.837-7.135c.678-.306 1.215-.91 1.487-1.674l6.34-17.826c.896-2.519 4.064-2.519 4.959 0z" fill="#ffc7b6"/><g fill="#ffa585"><ellipse cx="18.125" cy="110.388" rx="12.68" ry="12.68" transform="matrix(.993 -.122 .122 .993 -13.352 3.042)"/><path d="m403.039 77.387c0 5.439-4.409 9.848-9.848 9.848s-9.848-4.409-9.848-9.848 4.409-9.848 9.848-9.848 9.848 4.409 9.848 9.848z"/></g></g></svg>