<svg id="Capa_1" enable-background="new 0 0 512 512" height="512" viewBox="0 0 512 512" width="512" xmlns="http://www.w3.org/2000/svg"><g><g><path d="m382.51 512s40.663-17.913 45.284-50.566-21.21-50.464-21.21-50.464 52.273-16.733 46.951-89.198-53.757-84.18-53.757-84.18 19.774-96.458-76.137-56.761c0 0 24.146-129.937-68.101-87.577l-24.895 232.411z" fill="#f7c4db"/><path d="m453.535 321.772c-1.291-17.579-5.123-31.573-10.181-42.702-.456-.867-.854-1.698-1.168-2.478-.113-.231-.224-.466-.338-.695 3.779 108.142-75.341 145.623-144.411 76.974-2.992-2.973-14.699 19.914-21.704 28.117l106.777 131.012s40.663-17.913 45.284-50.566c4.621-32.654-21.21-50.464-21.21-50.464s52.273-16.733 46.951-89.198z" fill="#e893db"/><path d="m382.51 512c-15.779-42.493-40.687-75.703-69.548-97.448l-.01.249c11.693-16.569 20.812-35.429 29.303-65.493l17.998-59.505c6.046-21.406 5.162-43.13-1.311-62.778 6.578-3.756 12.879-9.547 18.432-17.548 16.913-24.37 10.548-66.803 2.96-72.069-7.589-5.267-49.566 3.617-66.479 27.987-.668.963-1.291 1.924-1.892 2.884-7.943-4.742-16.628-8.536-25.956-11.17l-63.855-18.035c-4.769-1.347-9.452-2.278-14.043-2.853 1.004-6.052.972-12.829-.318-20.238-5.036-28.919-39.021-54.373-48.026-52.805-9.005 1.569-32.386 37.011-27.35 65.93 1.666 9.569 4.949 17.438 9.34 23.569-14.847 9.573-26.24 21.425-33.018 30.838-16.355 22.715-30.708 55.935-30.708 55.935-31.566 16.432-48.572 46.311-46.485 77.067 1.722 25.377 13.197 46.868 31.687 64.065 16.252 15.116 46.106 27.32 63.41 30.622l2.656 1.28c-10.127 33.62-16.608 76.962-16.56 99.515" fill="#e7effa"/><path d="m272.024 184.792c.101-.468.182-.945.218-1.44 4.617-18.084 3.733-35.176-5.179-50.82 5.577-20.116 4.844-37.264-5.12-50.239.103-24.021-2.885-50.559-8.036-78.857-.434-4.256-6.464-4.696-7.511-.548-8.049 21.746-14.208 42.336-15.061 59.68-9.234 11.602-13.225 24.861-10.188 40.373-8.251 12.054-12.513 25.846-10.649 42.199-10.604 12.099-9.517 26.32-9.548 32.896 1.217 22.457 66.587 27.543 71.074 6.756z" fill="#ffa585"/><path d="m272.024 184.792c.101-.468.182-.945.218-1.44 3.279-12.843 3.764-25.182.589-36.861-.365 3.454-.997 6.952-1.898 10.496-.028.423-.096.83-.181 1.23-3.788 17.748-61.228 12.919-62.46-6.299-.004-1.086-.046-2.417-.046-3.93-8.182 11.41-7.266 23.982-7.295 30.048 1.216 22.457 66.586 27.543 71.073 6.756z" fill="#ef7c85"/><g><g><path d="m262.189 92.507c-1.273 0-2.558-.378-3.678-1.164l-31.314-21.979c-2.899-2.035-3.6-6.034-1.565-8.932 2.034-2.899 6.035-3.599 8.932-1.565l31.314 21.979c2.899 2.035 3.6 6.034 1.565 8.932-1.248 1.778-3.235 2.729-5.254 2.729z" fill="#be545e"/></g><g><path d="m266.164 140.741c-1.266 0-2.544-.374-3.661-1.153l-40.643-28.335c-2.906-2.025-3.618-6.022-1.593-8.927 2.025-2.907 6.022-3.619 8.927-1.593l40.644 28.335c2.905 2.025 3.618 6.022 1.593 8.927-1.247 1.788-3.241 2.746-5.267 2.746z" fill="#be545e"/></g><g><path d="m269.134 189.347c-1.19 0-2.393-.33-3.468-1.023l-58.642-37.794c-2.976-1.919-3.834-5.887-1.916-8.864s5.886-3.836 8.864-1.916l58.642 37.794c2.977 1.919 3.834 5.887 1.916 8.864-1.226 1.902-3.29 2.939-5.396 2.939z" fill="#be545e"/></g></g><path d="m111.041 158.355c16.731-4.054 31.215-14.118 41.599-27.85 2.949-3.9 6.533-7.446 10.739-10.487 20.089-14.522 48.219-12.044 65.441 5.784 20.542 21.263 18.397 55.059-3.904 73.632-19.2 15.991-43.145 17.975-62.853 11.493-11.482-3.776-36.112-18.763-54.674-30.617-8.986-5.738-6.71-19.444 3.652-21.955z" fill="#f7c4db"/><path d="m228.819 125.802c-17.223-17.827-45.352-20.305-65.441-5.784-4.206 3.041-7.789 6.587-10.739 10.487-10.383 13.731-24.868 23.796-41.599 27.85-10.362 2.511-12.638 16.217-3.653 21.955 18.562 11.854 43.193 26.841 54.674 30.617 19.709 6.482 43.654 4.498 62.854-11.493 22.301-18.573 24.446-52.369 3.904-73.632zm-11.229 46.413c-11.339 13.978-28.175 18.562-43.251 16.532-8.783-1.183-28.657-8.647-43.719-14.673-7.291-2.917-7.719-13.022-.682-16.189 11.364-5.112 20.218-14.227 25.587-25.422 1.525-3.18 3.557-6.191 6.11-8.922 12.195-13.044 32.696-14.991 47.696-4.515 17.89 12.495 21.428 36.955 8.259 53.189z" fill="#e893db"/><g><path d="m171.182 159.839c-2.858 0-5.725-1.139-7.862-3.449-3.857-4.171-3.551-10.684.331-14.831 6.068-6.483 12.448-10.319 17.971-12.587 7.114-2.921 14.9 2.343 14.796 10.033-.058 4.263-2.627 8.106-6.571 9.724-3.143 1.289-7.045 3.583-10.799 7.661-2.107 2.289-4.982 3.449-7.866 3.449z" fill="#fff"/></g><path d="m209.841 293.812c6.108.503 9.712 10.36 7.109 19.537-6.375 22.478-20.172 37.879-34.819 36.672s-25.736-18.659-28.346-41.877c-1.065-9.479 4.104-18.613 10.212-18.11z" fill="#ef8bbd"/><path d="m209.841 293.812-45.844-3.778c-6.108-.503-11.277 8.631-10.211 18.11 2.609 23.218 13.699 40.67 28.346 41.877 1.955.161 3.894.017 5.803-.391-7.034-2.648-13.176-9.115-14.464-20.57-.672-5.981 5.174-16.235 9.028-15.918l28.927 2.384c1.623.134 2.96 1.322 3.848 3.077.602-1.705 1.165-3.454 1.676-5.254 2.603-9.176-1.001-19.034-7.109-19.537z" fill="#e068bd"/><g><g><path d="m129.27 270.742c-2.53 0-4.927-1.507-5.941-3.995-1.336-3.28.24-7.022 3.519-8.358 4.533-1.859 9.442-4.943 10.87-6.754-.981-1.914-4.788-5.62-8.454-8.148-2.913-2.009-3.652-5.999-1.646-8.915 2.006-2.914 5.991-3.658 8.907-1.656 5.091 3.492 16.623 12.63 13.753 22.036-2.503 8.202-14.862 13.795-18.591 15.314-.792.324-1.611.476-2.417.476zm8.658-18.581h.011z" fill="#ad99c9"/></g><g><path d="m252.013 284.621c-1.167 0-2.349-.319-3.41-.988-3.865-2.437-16.304-11.199-14.101-21.626 2.11-9.987 16.333-15.095 19.163-16.018 3.367-1.098 6.986.742 8.084 4.109 1.097 3.367-.742 6.986-4.109 8.084-5.02 1.657-9.867 4.812-10.546 6.361.394 1.749 4.436 5.754 8.359 8.248 2.985 1.897 3.875 5.856 1.983 8.845-1.221 1.928-3.299 2.985-5.423 2.985z" fill="#ad99c9"/></g></g><path d="m55.493 159.627c-3.393-2.766-6.553-6.265-9.221-10.389-9.668-14.948-9.197-32.44 1.053-39.069 10.25-6.63 26.397.113 36.065 15.061 2.417 3.737 4.2 7.633 5.356 11.478" fill="#b2e7f1"/><path d="m36.363 210.448c-2.701-.11-5.558-.668-8.402-1.718-10.312-3.804-16.556-12.62-13.948-19.691s13.082-9.719 23.394-5.915c2.578.951 4.902 2.215 6.896 3.687" fill="#b2e7f1"/><path d="m313.069 414.634c11.637-16.529 20.723-35.363 29.186-65.326l17.998-59.505c6.046-21.406 5.162-43.13-1.311-62.778 6.577-3.756 12.879-9.547 18.432-17.549 16.913-24.37 10.548-66.803 2.96-72.068-3.602-2.501-14.963-1.81-27.706 2.212 4.921 8.378 4.113 46.341-12.507 67.736-5.745 7.396-11.845 12.639-17.921 15.923 3.009 19.109.996 39.941-6.874 60.141l-22.891 56.096c-7.344 18.85-14.294 32.953-21.67 44.785-6.037 9.684-5.639 22.036 1.161 31.2 9.297 12.53 17.325 27.368 23.649 44.265 6.622 17.696-7.044 36.382-25.909 35.333l-155.78-3.469c-.761 7.774-1.159 14.723-1.147 20.37h269.771c-15.76-42.441-40.626-75.62-69.441-97.366z" fill="#dcb6f5"/></g><path d="m463.487 37.377 8.779 24.685c.376 1.057 1.12 1.894 2.059 2.317l21.932 9.881c3.099 1.396 3.099 6.333 0 7.729l-21.932 9.881c-.939.423-1.683 1.261-2.059 2.318l-8.779 24.685c-1.24 3.487-5.626 3.487-6.867 0l-8.779-24.685c-.376-1.057-1.12-1.895-2.059-2.318l-21.932-9.881c-3.098-1.396-3.098-6.333 0-7.729l21.932-9.881c.939-.423 1.683-1.261 2.059-2.317l8.779-24.685c1.24-3.487 5.627-3.487 6.867 0z" fill="#ffc7b6"/><g fill="#ffa585"><circle cx="58.876" cy="37.568" r="13.025"/><path d="m385.505 41.422c0 5.587-4.529 10.116-10.116 10.116s-10.116-4.529-10.116-10.116 4.529-10.116 10.116-10.116c5.587-.001 10.116 4.528 10.116 10.116z"/></g></g></svg>